<svg width="67" height="62" viewBox="0 0 67 62" fill="none" xmlns="http://www.w3.org/2000/svg">
<path d="M27.1343 30.4366H62.2582C64.4837 30.4366 66.2923 28.6283 66.2923 26.4025V5.39768C66.2923 3.17212 64.484 1.36353 62.2582 1.36353L27.1343 1.36375C24.9087 1.36375 23.1001 3.17205 23.1001 5.3979V15.0657H23.3784C24.2129 15.0657 25.1172 14.9267 25.6737 14.7874C25.7432 14.7874 25.8824 14.7179 25.952 14.7179V5.3979C25.952 4.70238 26.5085 4.21563 27.1342 4.21563H62.2582C62.9537 4.21563 63.4404 4.77214 63.4404 5.3979V26.4027C63.4404 27.0982 62.8839 27.585 62.2582 27.585L27.1342 27.5852C26.4387 27.5852 25.952 27.0287 25.952 26.4029V23.8991C25.2564 24.0381 24.3521 24.1079 23.4481 24.1079H23.1004V26.4727C23.1004 28.6285 24.9087 30.4369 27.1343 30.4369L27.1343 30.4366Z" fill="#86C5FF"/>
<path d="M2.79111 29.2545C3.90389 29.2545 4.87768 28.3502 4.94718 27.2375C5.01691 24.5946 5.29494 21.256 5.50369 20.5604C5.6427 20.0039 5.92096 19.3782 6.3382 18.7521V29.3241C6.3382 30.0196 6.89471 30.5064 7.52047 30.5064H15.1017C15.7972 30.5064 16.284 29.9498 16.284 29.3241L16.2842 17.8479C16.7014 18.1957 17.0492 18.613 17.3275 18.8912C18.3013 19.865 19.0663 20.6995 20.0401 21.0473C22.5439 22.1601 26.3693 21.3951 27.0648 21.256C28.2471 20.9778 28.9426 19.865 28.6647 18.6827C28.3864 17.5005 27.2736 16.8049 26.0913 17.0829C24.8393 17.3612 22.5442 17.5697 21.7094 17.1524C21.4312 17.0134 20.7356 16.3179 20.3184 15.8309C18.7186 14.231 16.7713 12.2837 14.3369 12.2143L12.4591 17.1524L11.7636 13.9531H11.8331C12.1113 13.9531 12.3198 13.7443 12.3198 13.4663V12.6318C12.3198 12.3535 12.1111 12.145 11.8331 12.145L10.7201 12.1448C10.4418 12.1448 10.2333 12.3535 10.2333 12.6315V13.4661C10.2333 13.7443 10.442 13.9528 10.7201 13.9528H10.7896L10.094 17.1522L8.21625 12.214C4.1821 12.353 1.88699 17.4999 1.40012 19.3084C0.982852 20.7689 0.704596 25.4985 0.635102 26.8896C0.565596 28.0718 1.46961 29.0456 2.65218 29.1151L2.79119 29.1156L2.79111 29.2545Z" fill="#86C5FF"/>
<path d="M16.2841 5.67611C16.2841 8.44192 14.042 10.684 11.2764 10.684C8.51063 10.684 6.26855 8.44186 6.26855 5.67611C6.26855 2.91053 8.51069 0.668457 11.2764 0.668457C14.042 0.668457 16.2841 2.91059 16.2841 5.67611Z" fill="#86C5FF"/>
<path d="M16.2841 38.8526C16.2841 41.6182 14.042 43.8603 11.2764 43.8603C8.51063 43.8603 6.26855 41.6181 6.26855 38.8526C6.26855 36.0868 8.51069 33.8447 11.2764 33.8447C14.042 33.8447 16.2841 36.0869 16.2841 38.8526Z" fill="#86C5FF"/>
<path d="M20.2489 52.624C19.9011 51.4417 19.0666 49.7724 18.2318 48.2421L18.023 47.8943C17.1885 46.2945 15.867 45.46 14.2671 45.46H8.21609C6.61627 45.46 5.29501 46.2945 4.46021 47.8943L4.25146 48.2421C3.41695 49.7721 2.58215 51.3719 2.23438 52.624C1.88662 53.876 1.1911 57.4926 1.1911 57.6316C0.98235 58.6749 1.67787 59.6487 2.72114 59.8572C2.86015 59.8572 2.99939 59.9267 3.0689 59.9267C3.97319 59.9267 4.73821 59.3007 4.94669 58.3967C4.94669 58.3271 5.64222 54.78 5.98998 53.5975C6.12899 53.1107 6.40725 52.4152 6.755 51.7197L6.54693 59.9964C6.54693 60.6919 7.10344 61.2485 7.7292 61.2485H14.754C15.4495 61.2485 16.006 60.692 15.9363 59.9964L15.658 51.7197C16.0058 52.4152 16.3535 53.1107 16.423 53.5975C16.7013 54.7798 17.4663 58.3272 17.4663 58.3967C17.6751 59.4399 18.6486 60.1355 19.6919 59.9267C20.7352 59.7179 21.4307 58.7444 21.2219 57.7011C21.2919 57.4926 20.5963 53.876 20.2486 52.6239L20.2489 52.624Z" fill="#86C5FF"/>
<path d="M38.9584 38.8526C38.9584 41.6182 36.7163 43.8603 33.9508 43.8603C31.1849 43.8603 28.9429 41.6181 28.9429 38.8526C28.9429 36.0868 31.185 33.8447 33.9508 33.8447C36.7163 33.8447 38.9584 36.0869 38.9584 38.8526Z" fill="#86C5FF"/>
<path d="M42.9227 52.624C42.5749 51.4417 41.7404 49.7724 40.9056 48.2421L40.6969 47.8943C39.8623 46.2945 38.5408 45.46 36.941 45.46H30.8899C29.2901 45.46 27.9688 46.2945 27.134 47.8943L26.9253 48.2421C26.0908 49.7721 25.256 51.3719 24.9082 52.624C24.5605 53.876 23.8649 57.4926 23.8649 57.6316C23.6562 58.6749 24.3517 59.6487 25.395 59.8572C25.534 59.8572 25.6732 59.9267 25.7427 59.9267C26.647 59.9267 27.412 59.3007 27.6205 58.3967C27.6205 58.3271 28.316 54.78 28.6638 53.5975C28.8028 53.1107 29.0811 52.4152 29.4288 51.7197L29.1506 59.9964C29.1506 60.6919 29.7071 61.2485 30.3328 61.2485H37.3576C38.0532 61.2485 38.6097 60.692 38.5399 59.9964L38.2616 51.7197C38.6094 52.4152 38.9572 53.1107 39.0267 53.5975C39.3049 54.7798 40.07 58.3272 40.07 58.3967C40.2787 59.4399 41.2522 60.1355 42.2955 59.9267C43.3388 59.7179 44.0343 58.7444 43.8255 57.7011C43.9657 57.4926 43.2702 53.876 42.9224 52.6239L42.9227 52.624Z" fill="#86C5FF"/>
<path d="M61.6325 38.8526C61.6325 41.6182 59.3906 43.8603 56.6248 43.8603C53.8591 43.8603 51.6172 41.6181 51.6172 38.8526C51.6172 36.0868 53.8591 33.8447 56.6248 33.8447C59.3906 33.8447 61.6325 36.0869 61.6325 38.8526Z" fill="#86C5FF"/>
<path d="M66.6401 57.6316C66.6401 57.4926 65.8751 53.8757 65.5968 52.624C65.2491 51.4417 64.4146 49.7724 63.5798 48.2421L63.371 47.8943C62.5365 46.2945 61.215 45.46 59.6151 45.46H53.5641C51.9643 45.46 50.643 46.2945 49.8082 47.8943L49.6692 48.2421C48.8347 49.7721 47.9999 51.3719 47.6521 52.624C47.3043 53.876 46.6088 57.4926 46.6088 57.6316C46.4001 58.6749 47.0956 59.6487 48.1389 59.8572C48.2779 59.8572 48.4171 59.9267 48.4866 59.9267C49.3909 59.9267 50.1559 59.3007 50.3644 58.3967C50.3644 58.3271 51.0599 54.78 51.4077 53.5975C51.5467 53.1107 51.825 52.4152 52.1727 51.7197L51.8945 59.9964C51.8945 60.6919 52.451 61.2485 53.0767 61.2485H60.1015C60.797 61.2485 61.3536 60.692 61.2838 59.9964L61.0055 51.7197C61.3533 52.4152 61.7011 53.1107 61.7706 53.5975C62.0488 54.7798 62.8138 58.3272 62.8138 58.3967C63.0226 59.4399 63.9961 60.1355 65.0394 59.9267C66.2226 59.6484 66.8484 58.6749 66.6399 57.6316L66.6401 57.6316Z" fill="#86C5FF"/>
<path d="M32.4206 11.3099H56.9726C57.7376 11.3099 58.3636 10.6839 58.3636 9.91888C58.3636 9.15386 57.7376 8.52783 56.9726 8.52783H32.4206C31.6556 8.52783 31.0295 9.15386 31.0295 9.91888C31.0295 10.6841 31.6556 11.3099 32.4206 11.3099Z" fill="#86C5FF"/>
<path d="M32.4206 17.2914H56.9726C57.7376 17.2914 58.3636 16.6653 58.3636 15.9003C58.3636 15.1353 57.7376 14.5093 56.9726 14.5093H32.4206C31.6556 14.5093 31.0295 15.1353 31.0295 15.9003C31.0295 16.6653 31.6556 17.2914 32.4206 17.2914Z" fill="#86C5FF"/>
<path d="M32.4206 23.2728H56.9726C57.7376 23.2728 58.3636 22.6468 58.3636 21.8818C58.3636 21.1168 57.7376 20.4907 56.9726 20.4907H32.4206C31.6556 20.4907 31.0295 21.1168 31.0295 21.8818C31.0295 22.6468 31.6556 23.2728 32.4206 23.2728Z" fill="#86C5FF"/>
</svg>
