<svg width="35" height="55" viewBox="0 0 35 55" fill="none" xmlns="http://www.w3.org/2000/svg">
<path d="M18.2352 15.877L17.5771 13.7677L16.919 15.8846C16.7961 16.2753 16.5518 16.6165 16.2216 16.8588C15.8915 17.1012 15.4925 17.2316 15.083 17.2316H12.741L14.7019 18.7155H14.7021C15.0196 18.955 15.2551 19.2874 15.376 19.6664C15.4971 20.0455 15.4975 20.4528 15.3774 20.8323L14.6712 23.0994L16.4148 21.7791C16.7492 21.5255 17.1574 21.3884 17.5771 21.3884C17.9968 21.3884 18.405 21.5255 18.7393 21.7791L20.483 23.0994L19.7767 20.8323C19.6567 20.4529 19.6571 20.0455 19.7781 19.6664C19.899 19.2874 20.1346 18.955 20.4521 18.7155L22.413 17.2316H20.0789C19.6671 17.2329 19.2658 17.1018 18.9339 16.858C18.6021 16.614 18.3571 16.2703 18.2352 15.877Z" fill="#1471C7"/>
<path d="M34.897 18.2227C34.897 13.6291 33.0722 9.22353 29.8241 5.97561C26.576 2.72753 22.1705 0.90271 17.577 0.90271C12.9836 0.90271 8.5779 2.72753 5.32998 5.97561C2.0819 9.22369 0.25708 13.6292 0.25708 18.2227C0.25708 22.8162 2.0819 27.2218 5.32998 30.4697C8.57805 33.7178 12.9836 35.5426 17.577 35.5426C22.1688 35.537 26.5711 33.7104 29.818 30.4635C33.0648 27.2166 34.8914 22.8146 34.8971 18.2226L34.897 18.2227ZM25.864 19.4427L23.8529 20.963L24.6227 23.4647C24.8392 24.1483 24.8326 24.883 24.6041 25.5623C24.3753 26.2419 23.9363 26.8309 23.3506 27.2444C22.7871 27.6489 22.1077 27.8606 21.4139 27.8474C20.7203 27.8342 20.0496 27.597 19.5017 27.1712L17.5773 25.7145L15.6529 27.1732C15.1048 27.5986 14.4338 27.8355 13.7402 27.8484C13.0466 27.8612 12.3673 27.6493 11.804 27.2443C11.216 26.831 10.7752 26.2408 10.5457 25.5597C10.3163 24.8785 10.3101 24.142 10.528 23.457L11.2978 20.9553L9.28676 19.435C8.72108 19.0044 8.30509 18.4068 8.09782 17.7268C7.89054 17.0467 7.90257 16.3186 8.1321 15.6458C8.34398 14.9835 8.76136 14.406 9.32365 13.9968C9.88595 13.5879 10.5641 13.3686 11.2593 13.371H13.6629L14.421 10.9386H14.4212C14.694 10.0286 15.3469 9.2806 16.2119 8.8875C17.0771 8.49439 18.0698 8.49439 18.9348 8.8875C19.8 9.28061 20.4529 10.0285 20.7257 10.9386L21.4838 13.371H23.8874C24.5828 13.3686 25.2607 13.5879 25.823 13.9968C26.3853 14.406 26.8027 14.9835 27.0146 15.6458C27.2465 16.3192 27.26 17.0487 27.0535 17.7304C26.8468 18.412 26.4306 19.0112 25.8639 19.4426L25.864 19.4427Z" fill="#1471C7"/>
<path d="M4.1062 50.9379C4.10801 51.8704 4.44819 52.7709 5.0638 53.4713C5.67941 54.1719 6.52857 54.6251 7.45327 54.7468C8.37802 54.8683 9.31535 54.65 10.0911 54.1324L15.653 50.4375V39.2953C11.4142 38.92 7.38871 37.2696 4.10641 34.5612L4.1062 50.9379Z" fill="#1471C7"/>
<path d="M19.5017 50.4349L25.0636 54.1298C25.6401 54.5209 26.3133 54.7458 27.009 54.7797C27.705 54.8136 28.3968 54.6554 29.0086 54.3223C29.6261 53.9985 30.1429 53.5114 30.5025 52.9142C30.8623 52.317 31.0511 51.6324 31.0485 50.9353V34.5586C27.7664 37.267 23.7408 38.9175 19.502 39.2927L19.5017 50.4349Z" fill="#1471C7"/>
</svg>
