<svg width="57" height="44" viewBox="0 0 57 44" fill="none" xmlns="http://www.w3.org/2000/svg">
<path id="Vector" d="M56.1547 5.31641C55.7735 5.01523 55.2798 4.90705 54.8119 5.0219L48.8226 6.59704C46.6118 6.46906 39.5608 3.69007 35.5451 1.92273L35.4639 1.89063C30.1304 -0.0750907 25.5152 0.366771 21.6555 3.17124C16.5218 1.37204 9.94558 5.16903 7.91585 6.46884L2.5199 5.04753C2.05251 4.92226 1.55484 5.02669 1.17325 5.33017C0.791661 5.63364 0.569068 6.10178 0.571306 6.597V29.0075C0.571306 29.4321 0.735776 29.8392 1.02853 30.1395C1.32148 30.4397 1.71853 30.6083 2.13265 30.6083H5.44886L19.6445 42.0825C20.7504 43.1732 22.3073 43.6395 23.8119 43.3304C25.3165 43.0215 26.5779 41.9764 27.1889 40.533C27.8963 40.9486 28.6967 41.1692 29.512 41.1733C30.4272 41.1738 31.3225 40.8993 32.0873 40.3838C32.8519 39.8683 33.4526 39.1345 33.8151 38.2728C34.5212 38.6916 35.3224 38.9125 36.1382 38.9131C37.0524 38.9123 37.9464 38.6372 38.71 38.1217C39.4733 37.6063 40.073 36.8732 40.4351 36.0126C41.4008 36.5747 42.5303 36.7659 43.621 36.5514C44.7117 36.3372 45.6924 35.7315 46.3869 34.8429C47.0816 33.9546 47.4447 32.8413 47.4111 31.7033L50.7523 30.6084H55.2178C55.6319 30.6084 56.0289 30.4397 56.3219 30.1396C56.6147 29.8392 56.7791 29.4322 56.7791 29.0076V6.59706C56.7812 6.09266 56.5495 5.6174 56.1547 5.31641ZM3.69399 8.64587L6.4857 9.38227L5.36779 20.0433L4.59342 27.4068H3.69405L3.69399 8.64587ZM43.8639 32.9517C43.5671 33.245 43.1708 33.409 42.7586 33.409C42.3461 33.409 41.9498 33.245 41.653 32.9517L39.4485 30.6915L30.6176 21.6312C30.2181 21.2629 29.6623 21.1312 29.1457 21.2819C28.6294 21.4328 28.2246 21.8453 28.0746 22.3741C27.9245 22.9029 28.05 23.4735 28.4068 23.885L37.2439 32.9581C37.6263 33.3653 37.771 33.9491 37.6245 34.494C37.4781 35.039 37.0619 35.4643 36.5301 35.6131C35.9981 35.7617 35.4291 35.6116 35.033 35.2183L32.8222 32.9516L26.1771 26.158C25.7821 25.7531 25.2066 25.5948 24.667 25.7431C24.1277 25.8912 23.7062 26.3233 23.5617 26.8765C23.4172 27.4294 23.5715 28.0198 23.9663 28.4245L30.6175 35.2181C30.9182 35.517 31.0894 35.927 31.0924 36.3564C31.0955 36.7857 30.9302 37.1982 30.6336 37.5015C30.3372 37.8046 29.9342 37.973 29.5155 37.9686C29.0967 37.9644 28.6972 37.7877 28.4067 37.4786L21.8054 30.6914C21.5134 30.3908 21.1168 30.2218 20.7031 30.2218C20.2894 30.2218 19.8925 30.3908 19.6008 30.6914C19.3066 30.9886 19.1423 31.3951 19.1448 31.8184C19.1434 32.2433 19.3076 32.6512 19.6008 32.9518L24.0162 37.4787C24.3084 37.7797 24.4722 38.1872 24.4722 38.6119C24.4722 39.0367 24.3084 39.4442 24.0162 39.7452C23.718 40.0357 23.3222 40.1977 22.9107 40.1977C22.4994 40.1977 22.1036 40.0357 21.8054 39.7452C21.7627 39.6993 21.7167 39.6566 21.6679 39.6172L7.63472 28.2967L9.20235 13.4481L9.65834 9.1196C11.6444 7.839 15.5227 5.86058 18.739 5.9181C17.7833 7.04945 16.9283 8.26693 16.1846 9.55522C15.4958 10.7585 15.2765 12.1843 15.5706 13.5467C15.865 14.909 16.651 16.1067 17.7709 16.8993C19.9818 18.4488 24.0162 19.8895 29.0125 15.4651L43.8638 30.6851C44.1546 30.9869 44.3174 31.3941 44.3174 31.8183C44.3174 32.2424 44.1546 32.6497 43.8639 32.9517ZM46.3183 28.7066C46.2422 28.6082 46.1609 28.514 46.0747 28.4246L31.2109 13.1854C31.8354 12.4554 32.4599 11.6422 33.0845 10.7203C33.3715 10.3787 33.5049 9.92929 33.4518 9.48177C33.3986 9.03427 33.1638 8.63054 32.8051 8.36978C32.4465 8.10883 31.9974 8.01524 31.5679 8.11175C31.1383 8.20804 30.7685 8.48567 30.549 8.87627C27.776 12.9038 23.6291 17.1041 19.5572 14.2548C19.0949 13.9171 18.7737 13.4132 18.6578 12.8435C18.5421 12.2737 18.6403 11.6803 18.9327 11.1815C19.9447 9.32752 21.2684 7.67154 22.8423 6.28939C22.8929 6.2525 22.9409 6.21186 22.9858 6.16788C26.1085 3.60668 29.8557 3.21609 34.4023 4.88728C35.5826 5.39961 43.4455 8.81227 47.5674 9.62556L48.9413 27.8677L46.3183 28.7066ZM53.6565 27.4066H51.9828L50.6276 9.42053L53.6565 8.6456V27.4066Z" fill="#86C5FF"/>
</svg>
