<svg width="35" height="55" viewBox="0 0 35 55" fill="none" xmlns="http://www.w3.org/2000/svg">
<g id="Group">
<path id="Vector" d="M18.2352 15.8771L17.5771 13.7678L16.919 15.8847C16.7961 16.2754 16.5518 16.6166 16.2216 16.8589C15.8915 17.1013 15.4925 17.2318 15.083 17.2318H12.741L14.7019 18.7156H14.7021C15.0196 18.9551 15.2551 19.2875 15.376 19.6666C15.4971 20.0456 15.4975 20.453 15.3774 20.8325L14.6712 23.0995L16.4148 21.7792C16.7492 21.5256 17.1574 21.3885 17.5771 21.3885C17.9968 21.3885 18.405 21.5256 18.7393 21.7792L20.483 23.0995L19.7767 20.8325C19.6567 20.453 19.6571 20.0456 19.7781 19.6666C19.899 19.2875 20.1346 18.9551 20.4521 18.7156L22.413 17.2318H20.0789C19.6671 17.233 19.2658 17.1019 18.9339 16.8581C18.6021 16.6142 18.3571 16.2704 18.2352 15.8771Z" fill="#86C5FF"/>
<path id="Vector_2" d="M34.897 18.2228C34.897 13.6292 33.0722 9.22365 29.8241 5.97573C26.576 2.72765 22.1705 0.902832 17.577 0.902832C12.9836 0.902832 8.5779 2.72765 5.32998 5.97573C2.0819 9.22381 0.25708 13.6293 0.25708 18.2228C0.25708 22.8163 2.0819 27.2219 5.32998 30.4699C8.57805 33.7179 12.9836 35.5428 17.577 35.5428C22.1688 35.5371 26.5711 33.7106 29.818 30.4637C33.0648 27.2168 34.8914 22.8147 34.8971 18.2227L34.897 18.2228ZM25.864 19.4428L23.8529 20.9631L24.6227 23.4648C24.8392 24.1484 24.8326 24.8831 24.6041 25.5625C24.3753 26.242 23.9363 26.831 23.3506 27.2445C22.7871 27.649 22.1077 27.8607 21.4139 27.8475C20.7203 27.8343 20.0496 27.5971 19.5017 27.1713L17.5773 25.7146L15.6529 27.1733C15.1048 27.5987 14.4338 27.8357 13.7402 27.8485C13.0466 27.8613 12.3673 27.6494 11.804 27.2445C11.216 26.8311 10.7752 26.2409 10.5457 25.5598C10.3163 24.8787 10.3101 24.1421 10.528 23.4571L11.2978 20.9554L9.28676 19.4351C8.72108 19.0045 8.30509 18.4069 8.09782 17.727C7.89054 17.0468 7.90257 16.3187 8.1321 15.646C8.34398 14.9836 8.76136 14.4061 9.32365 13.997C9.88595 13.588 10.5641 13.3687 11.2593 13.3711H13.6629L14.421 10.9388H14.4212C14.694 10.0287 15.3469 9.28072 16.2119 8.88762C17.0771 8.49451 18.0698 8.49451 18.9348 8.88762C19.8 9.28073 20.4529 10.0286 20.7257 10.9388L21.4838 13.3711H23.8874C24.5828 13.3687 25.2607 13.588 25.823 13.997C26.3853 14.4061 26.8027 14.9836 27.0146 15.646C27.2465 16.3193 27.26 17.0488 27.0535 17.7306C26.8468 18.4121 26.4306 19.0113 25.8639 19.4427L25.864 19.4428Z" fill="#86C5FF"/>
<path id="Vector_3" d="M4.1062 50.938C4.10801 51.8705 4.44819 52.771 5.0638 53.4714C5.67941 54.172 6.52857 54.6252 7.45327 54.7469C8.37802 54.8684 9.31535 54.6501 10.0911 54.1325L15.653 50.4376V39.2954C11.4142 38.9201 7.38871 37.2697 4.10641 34.5613L4.1062 50.938Z" fill="#86C5FF"/>
<path id="Vector_4" d="M19.5017 50.4351L25.0636 54.13C25.6401 54.5211 26.3133 54.7461 27.009 54.7799C27.705 54.8138 28.3968 54.6556 29.0086 54.3225C29.6261 53.9987 30.1429 53.5116 30.5025 52.9144C30.8623 52.3172 31.0511 51.6326 31.0485 50.9355V34.5588C27.7664 37.2673 23.7408 38.9177 19.502 39.2929L19.5017 50.4351Z" fill="#86C5FF"/>
</g>
</svg>
