<svg width="67" height="62" viewBox="0 0 67 62" fill="none" xmlns="http://www.w3.org/2000/svg">
<path d="M27.1343 30.4366H62.2582C64.4837 30.4366 66.2923 28.6283 66.2923 26.4024V5.3976C66.2923 3.17204 64.484 1.36345 62.2582 1.36345L27.1343 1.36367C24.9087 1.36367 23.1001 3.17197 23.1001 5.39782V15.0656H23.3784C24.2129 15.0656 25.1172 14.9266 25.6737 14.7873C25.7432 14.7873 25.8824 14.7178 25.952 14.7178V5.39782C25.952 4.7023 26.5085 4.21555 27.1342 4.21555H62.2582C62.9537 4.21555 63.4404 4.77206 63.4404 5.39782V26.4026C63.4404 27.0982 62.8839 27.5849 62.2582 27.5849L27.1342 27.5851C26.4387 27.5851 25.952 27.0286 25.952 26.4029V23.899C25.2564 24.038 24.3521 24.1078 23.4481 24.1078H23.1004V26.4726C23.1004 28.6284 24.9087 30.4368 27.1343 30.4368L27.1343 30.4366Z" fill="#1471C7"/>
<path d="M2.79111 29.2543C3.90389 29.2543 4.87768 28.35 4.94718 27.2372C5.01691 24.5944 5.29494 21.2557 5.50369 20.5602C5.6427 20.0037 5.92096 19.3779 6.3382 18.7519V29.3239C6.3382 30.0194 6.89471 30.5061 7.52047 30.5061H15.1017C15.7972 30.5061 16.284 29.9496 16.284 29.3239L16.2842 17.8477C16.7014 18.1955 17.0492 18.6128 17.3275 18.891C18.3013 19.8648 19.0663 20.6993 20.0401 21.0471C22.5439 22.1599 26.3693 21.3948 27.0648 21.2558C28.2471 20.9776 28.9426 19.8648 28.6647 18.6825C28.3864 17.5002 27.2736 16.8047 26.0913 17.0827C24.8393 17.3609 22.5442 17.5695 21.7094 17.1522C21.4312 17.0132 20.7356 16.3177 20.3184 15.8306C18.7186 14.2308 16.7713 12.2835 14.3369 12.214L12.4591 17.1522L11.7636 13.9528H11.8331C12.1113 13.9528 12.3198 13.7441 12.3198 13.4661V12.6316C12.3198 12.3533 12.1111 12.1448 11.8331 12.1448L10.7201 12.1446C10.4418 12.1446 10.2333 12.3533 10.2333 12.6313V13.4658C10.2333 13.7441 10.442 13.9526 10.7201 13.9526H10.7896L10.094 17.152L8.21625 12.2138C4.1821 12.3528 1.88699 17.4997 1.40012 19.3082C0.982852 20.7687 0.704596 25.4983 0.635102 26.8894C0.565596 28.0716 1.46961 29.0454 2.65218 29.1149L2.79119 29.1154L2.79111 29.2543Z" fill="#1471C7"/>
<path d="M16.2841 5.67606C16.2841 8.44187 14.042 10.6839 11.2764 10.6839C8.51063 10.6839 6.26855 8.44181 6.26855 5.67606C6.26855 2.91049 8.51069 0.668411 11.2764 0.668411C14.042 0.668411 16.2841 2.91055 16.2841 5.67606Z" fill="#1471C7"/>
<path d="M16.2841 38.8524C16.2841 41.618 14.042 43.8601 11.2764 43.8601C8.51063 43.8601 6.26855 41.618 6.26855 38.8524C6.26855 36.0866 8.51069 33.8446 11.2764 33.8446C14.042 33.8446 16.2841 36.0867 16.2841 38.8524Z" fill="#1471C7"/>
<path d="M20.2489 52.6238C19.9011 51.4416 19.0666 49.7722 18.2318 48.2419L18.023 47.8942C17.1885 46.2943 15.867 45.4598 14.2671 45.4598H8.21609C6.61627 45.4598 5.29501 46.2943 4.46021 47.8942L4.25146 48.2419C3.41695 49.772 2.58215 51.3718 2.23438 52.6238C1.88662 53.8759 1.1911 57.4925 1.1911 57.6315C0.98235 58.6748 1.67787 59.6486 2.72114 59.857C2.86015 59.857 2.99939 59.9265 3.0689 59.9265C3.97319 59.9265 4.73821 59.3005 4.94669 58.3965C4.94669 58.327 5.64222 54.7799 5.98998 53.5973C6.12899 53.1106 6.40725 52.4151 6.755 51.7195L6.54693 59.9963C6.54693 60.6918 7.10344 61.2483 7.7292 61.2483H14.754C15.4495 61.2483 16.006 60.6918 15.9363 59.9963L15.658 51.7195C16.0058 52.4151 16.3535 53.1106 16.423 53.5973C16.7013 54.7796 17.4663 58.327 17.4663 58.3965C17.6751 59.4398 18.6486 60.1353 19.6919 59.9265C20.7352 59.7178 21.4307 58.7443 21.2219 57.701C21.2919 57.4925 20.5963 53.8758 20.2486 52.6238L20.2489 52.6238Z" fill="#1471C7"/>
<path d="M38.9584 38.8524C38.9584 41.618 36.7163 43.8601 33.9508 43.8601C31.1849 43.8601 28.9429 41.618 28.9429 38.8524C28.9429 36.0866 31.185 33.8446 33.9508 33.8446C36.7163 33.8446 38.9584 36.0867 38.9584 38.8524Z" fill="#1471C7"/>
<path d="M42.9227 52.6238C42.5749 51.4416 41.7404 49.7722 40.9056 48.2419L40.6969 47.8942C39.8623 46.2943 38.5408 45.4598 36.941 45.4598H30.8899C29.2901 45.4598 27.9688 46.2943 27.134 47.8942L26.9253 48.2419C26.0908 49.772 25.256 51.3718 24.9082 52.6238C24.5605 53.8759 23.8649 57.4925 23.8649 57.6315C23.6562 58.6748 24.3517 59.6486 25.395 59.857C25.534 59.857 25.6732 59.9265 25.7427 59.9265C26.647 59.9265 27.412 59.3005 27.6205 58.3965C27.6205 58.327 28.316 54.7799 28.6638 53.5973C28.8028 53.1106 29.0811 52.4151 29.4288 51.7195L29.1506 59.9963C29.1506 60.6918 29.7071 61.2483 30.3328 61.2483H37.3576C38.0532 61.2483 38.6097 60.6918 38.5399 59.9963L38.2616 51.7195C38.6094 52.4151 38.9572 53.1106 39.0267 53.5973C39.3049 54.7796 40.07 58.327 40.07 58.3965C40.2787 59.4398 41.2522 60.1353 42.2955 59.9265C43.3388 59.7178 44.0343 58.7443 43.8255 57.701C43.9657 57.4925 43.2702 53.8758 42.9224 52.6238L42.9227 52.6238Z" fill="#1471C7"/>
<path d="M61.6325 38.8524C61.6325 41.618 59.3906 43.8601 56.6248 43.8601C53.8591 43.8601 51.6172 41.618 51.6172 38.8524C51.6172 36.0866 53.8591 33.8446 56.6248 33.8446C59.3906 33.8446 61.6325 36.0867 61.6325 38.8524Z" fill="#1471C7"/>
<path d="M66.6401 57.6316C66.6401 57.4926 65.8751 53.8757 65.5968 52.624C65.2491 51.4417 64.4146 49.7724 63.5798 48.242L63.371 47.8943C62.5365 46.2945 61.215 45.4599 59.6151 45.4599H53.5641C51.9643 45.4599 50.643 46.2945 49.8082 47.8943L49.6692 48.242C48.8347 49.7721 47.9999 51.3719 47.6521 52.624C47.3043 53.876 46.6088 57.4926 46.6088 57.6316C46.4001 58.6749 47.0956 59.6487 48.1389 59.8572C48.2779 59.8572 48.4171 59.9267 48.4866 59.9267C49.3909 59.9267 50.1559 59.3006 50.3644 58.3966C50.3644 58.3271 51.0599 54.78 51.4077 53.5975C51.5467 53.1107 51.825 52.4152 52.1727 51.7197L51.8945 59.9964C51.8945 60.6919 52.451 61.2485 53.0767 61.2485H60.1015C60.797 61.2485 61.3536 60.6919 61.2838 59.9964L61.0055 51.7197C61.3533 52.4152 61.7011 53.1107 61.7706 53.5975C62.0488 54.7797 62.8138 58.3271 62.8138 58.3966C63.0226 59.4399 63.9961 60.1354 65.0394 59.9267C66.2226 59.6484 66.8484 58.6748 66.6399 57.6316L66.6401 57.6316Z" fill="#1471C7"/>
<path d="M32.4206 11.3097H56.9726C57.7376 11.3097 58.3636 10.6837 58.3636 9.91864C58.3636 9.15362 57.7376 8.52759 56.9726 8.52759H32.4206C31.6556 8.52759 31.0295 9.15362 31.0295 9.91864C31.0295 10.6839 31.6556 11.3097 32.4206 11.3097Z" fill="#1471C7"/>
<path d="M32.4206 17.2913H56.9726C57.7376 17.2913 58.3636 16.6653 58.3636 15.9003C58.3636 15.1353 57.7376 14.5092 56.9726 14.5092H32.4206C31.6556 14.5092 31.0295 15.1353 31.0295 15.9003C31.0295 16.6653 31.6556 17.2913 32.4206 17.2913Z" fill="#1471C7"/>
<path d="M32.4206 23.2726H56.9726C57.7376 23.2726 58.3636 22.6466 58.3636 21.8815C58.3636 21.1165 57.7376 20.4905 56.9726 20.4905H32.4206C31.6556 20.4905 31.0295 21.1165 31.0295 21.8815C31.0295 22.6466 31.6556 23.2726 32.4206 23.2726Z" fill="#1471C7"/>
</svg>
