<svg width="62" height="62" viewBox="0 0 62 62" fill="none" xmlns="http://www.w3.org/2000/svg">
<path d="M12.9812 55.1823H19.168C19.1816 54.9101 19.2088 54.6386 19.2496 54.3692L19.4898 53.0646H15.9765C15.3198 53.0655 14.6791 53.2693 14.1429 53.6485C13.6066 54.0277 13.2006 54.5633 12.981 55.1823H12.9812Z" fill="#1471C7"/>
<path d="M29.742 34.0076C29.4612 34.0076 29.1918 34.1192 28.9933 34.3177C28.7947 34.5163 28.6831 34.7856 28.6831 35.0665V36.1911C29.0182 36.1494 29.3555 36.1273 29.6933 36.1254H32.9187V35.0665C32.9187 34.7856 32.807 34.5163 32.6085 34.3177C32.4099 34.1192 32.1406 34.0076 31.8598 34.0076L29.742 34.0076Z" fill="#1471C7"/>
<path d="M50.9197 34.0076C50.6389 34.0076 50.3696 34.1192 50.171 34.3177C49.9725 34.5163 49.8608 34.7856 49.8608 35.0665V36.1254H53.0862C53.424 36.1273 53.7613 36.1494 54.0964 36.1911V35.0665C54.0964 34.7856 53.9848 34.5163 53.7862 34.3177C53.5877 34.1192 53.3183 34.0076 53.0375 34.0076L50.9197 34.0076Z" fill="#1471C7"/>
<path d="M26.5654 36.713V35.0665C26.5654 34.224 26.9001 33.4159 27.496 32.8203C28.0916 32.2245 28.8996 31.8898 29.7421 31.8898H31.8599C32.7024 31.8898 33.5104 32.2245 34.106 32.8203C34.7019 33.416 35.0365 34.224 35.0365 35.0665V36.1254H40.331C40.331 35.8445 40.2193 35.5752 40.0208 35.3766C39.8223 35.1781 39.5529 35.0665 39.2721 35.0665H38.7426C37.7969 35.0665 36.9229 34.562 36.4501 33.7428C35.9772 32.9237 35.9772 31.9147 36.4501 31.0956C36.9229 30.2765 37.7969 29.772 38.7426 29.772H41.3898C41.9515 29.772 42.4902 29.549 42.8873 29.1517C43.2846 28.7546 43.5076 28.2159 43.5076 27.6542V26.5953H45.6254V27.6542C45.6254 28.7775 45.1791 29.8549 44.3847 30.6491C43.5906 31.4434 42.5131 31.8898 41.3898 31.8898H38.7426C38.4503 31.8898 38.2132 32.1269 38.2132 32.4192C38.2132 32.7115 38.4503 32.9486 38.7426 32.9486H39.2721C40.1146 32.9486 40.9226 33.2833 41.5182 33.8792C42.1141 34.4748 42.4487 35.2828 42.4487 36.1253H47.7432V35.0664C47.746 34.1679 48.131 33.3131 48.8021 32.7157V4.35897H4.3288V34.0078H24.4477V36.1256H3.26991C2.98908 36.1256 2.71973 36.014 2.52118 35.8154C2.32264 35.6169 2.21101 35.3475 2.21101 35.0667V3.30007C2.21101 3.01925 2.32264 2.74989 2.52118 2.55134C2.71972 2.3528 2.98908 2.24118 3.26991 2.24118H49.8609C50.1418 2.24118 50.4111 2.3528 50.6097 2.55134C50.8082 2.74988 50.9198 3.01924 50.9198 3.30007V31.89H53.0376V3.30007C53.0376 2.4576 52.703 1.64951 52.1071 1.05393C51.5115 0.458078 50.7034 0.123413 49.861 0.123413H3.26992C2.42744 0.123413 1.61936 0.458066 1.02378 1.05393C0.427926 1.64957 0.0932617 2.4576 0.0932617 3.30007V39.3022C0.0932617 40.1447 0.427915 40.9528 1.02378 41.5484C1.61941 42.1442 2.42744 42.4789 3.26992 42.4789H21.4562C22.1251 39.8431 24.0291 37.6945 26.5654 36.7135L26.5654 36.713ZM11.741 27.654C11.4602 27.654 11.1908 27.5424 10.9923 27.3439C10.7937 27.1453 10.6821 26.876 10.6821 26.5951V9.65296C10.6821 9.37213 10.7937 9.10277 10.9923 8.90422C11.1908 8.70568 11.4602 8.59406 11.741 8.59406H41.3899C41.6707 8.59406 41.94 8.70568 42.1386 8.90422C42.3371 9.10276 42.4488 9.37212 42.4488 9.65296V26.5951C42.4488 26.876 42.3371 27.1453 42.1386 27.3439C41.94 27.5424 41.6707 27.654 41.3899 27.654H11.741Z" fill="#1471C7"/>
<path d="M18.3909 50.9495H19.8797L21.0486 44.5962H19.9791L18.3909 50.9495Z" fill="#1471C7"/>
<path d="M61.4381 54.708L59.4039 43.6595C59.1788 42.147 58.416 40.7665 57.2552 39.7711C56.0944 38.7758 54.6135 38.2326 53.0845 38.241H29.6913C28.1671 38.2302 26.69 38.7689 25.5303 39.7583C24.3708 40.7477 23.6064 42.1216 23.3772 43.6285L21.3346 54.7234C21.0792 56.4225 21.5773 58.1483 22.6984 59.4502C24.0333 61.0045 26.07 61.769 28.098 61.4764C30.1258 61.1839 31.8637 59.8753 32.7048 58.007L32.9431 57.4723C33.9236 55.2897 35.711 53.5712 37.9306 52.6773C40.1501 51.7834 42.6294 51.7834 44.8493 52.6773C47.0687 53.5712 48.856 55.2897 49.8366 57.4723L50.0748 58.0081V58.0079C50.9169 59.8744 52.6537 61.1814 54.6804 61.4735C56.7068 61.7658 58.7423 61.0028 60.0771 59.4502C61.2004 58.1431 61.6972 56.4112 61.4378 54.7075L61.4381 54.708ZM37.1525 48.8302H33.9759V52.0069H29.7403V48.8302H26.5637V44.5947H29.7403V41.418H33.9759V44.5947H37.1525V48.8302ZM50.9181 40.3591C51.4797 40.3591 52.0184 40.5821 52.4155 40.9794C52.8129 41.3765 53.0359 41.9152 53.0359 42.4769C53.0359 43.0386 52.8128 43.5772 52.4155 43.9744C52.0185 44.3717 51.4798 44.5947 50.9181 44.5947C50.3564 44.5947 49.8177 44.3716 49.4206 43.9744C49.0233 43.5773 48.8003 43.0386 48.8003 42.4769C48.8003 41.9152 49.0233 41.3766 49.4206 40.9794C49.8177 40.5821 50.3564 40.3591 50.9181 40.3591ZM46.6825 48.8302C46.1209 48.8302 45.5822 48.6072 45.1851 48.2099C44.7878 47.8128 44.5648 47.2741 44.5648 46.7124C44.5648 46.1507 44.7878 45.6121 45.1851 45.215C45.5821 44.8177 46.1208 44.5947 46.6825 44.5947C47.2442 44.5947 47.7829 44.8177 48.18 45.215C48.5773 45.6121 48.8003 46.1507 48.8003 46.7124C48.8003 47.2741 48.5773 47.8128 48.18 48.2099C47.7829 48.6072 47.2442 48.8302 46.6825 48.8302ZM50.9181 53.0658C50.3564 53.0658 49.8177 52.8427 49.4206 52.4455C49.0233 52.0484 48.8003 51.5097 48.8003 50.948C48.8003 50.3863 49.0233 49.8476 49.4206 49.4505C49.8177 49.0532 50.3564 48.8302 50.9181 48.8302C51.4798 48.8302 52.0184 49.0532 52.4155 49.4505C52.8129 49.8476 53.0359 50.3863 53.0359 50.948C53.0359 51.5097 52.8128 52.0483 52.4155 52.4455C52.0185 52.8428 51.4798 53.0658 50.9181 53.0658ZM55.1536 48.8302C54.592 48.8302 54.0533 48.6072 53.6562 48.2099C53.2589 47.8128 53.0359 47.2741 53.0359 46.7124C53.0359 46.1507 53.2589 45.6121 53.6562 45.215C54.0532 44.8177 54.5919 44.5947 55.1536 44.5947C55.7153 44.5947 56.254 44.8177 56.6511 45.215C57.0484 45.6121 57.2714 46.1507 57.2714 46.7124C57.2714 47.2741 57.0484 47.8128 56.6511 48.2099C56.254 48.6072 55.7153 48.8302 55.1536 48.8302Z" fill="#1471C7"/>
<path d="M12.7998 25.5363H40.3309V10.7119H12.7998V25.5363ZM30.052 15.6963L31.5493 14.1991L34.7259 17.3757L34.7262 17.3755C34.9245 17.5743 35.0361 17.8434 35.0361 18.1242C35.0361 18.4051 34.9245 18.6742 34.7262 18.873L31.5495 22.0496L30.0523 20.5524L32.4802 18.1242L30.052 15.6963ZM27.679 12.4954L29.6909 13.1647L26.5142 22.6947L24.5023 22.0253L27.679 12.4954ZM18.4043 17.3757L21.5809 14.1991L23.0782 15.6963L20.6503 18.1242L23.0782 20.5522L21.5809 22.0494L18.4043 18.8727V18.873C18.206 18.6742 18.0943 18.4051 18.0943 18.1242C18.0943 17.8434 18.206 17.5743 18.4043 17.3755V17.3757Z" fill="#1471C7"/>
</svg>
