<svg width="68" height="106" viewBox="0 0 68 106" fill="none" xmlns="http://www.w3.org/2000/svg">
<g clip-path="url(#clip0_11_10771)">
<path d="M25.9086 10.1682L25.3199 12.3599L28.8533 13.3269L29.442 11.1353L25.9086 10.1682Z" fill="#F2563D"/>
<path d="M29.8171 10.4784L26.2149 7.99977L27.2147 5.93677L30.5081 8.20756L29.8171 10.4784Z" fill="#F2563D"/>
<path d="M32.5451 3.78402L30.4368 4.57593L31.7136 8.03953L33.8218 7.24762L32.5451 3.78402Z" fill="#F2563D"/>
<path d="M36.5921 2.29946L34.4776 3.09424L35.7589 6.56811L37.8734 5.77333L36.5921 2.29946Z" fill="#F2563D"/>
<path d="M24.7742 14.4192L24.1856 16.6108L27.719 17.5779L28.3076 15.3863L24.7742 14.4192Z" fill="#F2563D"/>
<path d="M27.6264 20.2145H27.4794C27.3392 20.1825 27.2173 20.096 27.1402 19.9736C27.063 19.8513 27.037 19.7031 27.0677 19.5614L30.17 8.02936C30.1922 7.9404 30.2361 7.85848 30.2977 7.79107C30.3594 7.72367 30.4368 7.67292 30.5228 7.64347L40.6383 3.99239L39.5944 1.32087L27.6558 5.93667L24.2154 18.7303C24.2003 18.8033 24.1702 18.8723 24.1271 18.9328C24.084 18.9934 24.0289 19.0442 23.9652 19.0819C23.9015 19.1197 23.8306 19.1435 23.7572 19.152C23.6839 19.1604 23.6095 19.1533 23.539 19.131C23.3989 19.0991 23.277 19.0125 23.1998 18.8902C23.1227 18.7678 23.0967 18.6196 23.1274 18.478L26.6413 5.40236C26.6653 5.31653 26.7082 5.23727 26.7668 5.17046C26.8253 5.10365 26.898 5.05102 26.9795 5.01648L39.6973 -4.56497e-05C39.836 -0.0491772 39.988 -0.0426937 40.1221 0.0180663C40.2561 0.0788263 40.362 0.189225 40.4177 0.326474L41.888 4.02208C41.9171 4.09262 41.9321 4.16828 41.9321 4.2447C41.9321 4.32112 41.9171 4.39679 41.888 4.46733C41.8599 4.53831 41.8162 4.60191 41.7601 4.65333C41.7041 4.70475 41.6372 4.74265 41.5646 4.76417L31.1991 8.53398L28.1704 19.7544C28.1466 19.8828 28.0793 19.9989 27.9801 20.0828C27.8808 20.1667 27.7558 20.2133 27.6264 20.2145Z" fill="#3E3126"/>
<path d="M41.1676 99.4398H13.2324C12.341 99.4406 11.4837 99.0936 10.8398 98.4713C10.1959 97.849 9.81523 96.9995 9.7773 96.1004L5.27827 26.8783C5.26055 26.4339 5.32981 25.9902 5.48209 25.5728C5.63437 25.1554 5.86669 24.7724 6.16575 24.4457C6.46481 24.119 6.82475 23.855 7.22496 23.6689C7.62518 23.4827 8.05783 23.378 8.49816 23.3608H45.7842C46.6682 23.3608 47.5164 23.7132 48.1443 24.3415C48.7721 24.9697 49.1287 25.8228 49.1364 26.7151V26.8487L44.6374 96.1301C44.592 97.0265 44.206 97.8707 43.5598 98.4871C42.9135 99.1036 42.0567 99.4448 41.1676 99.4398Z" fill="#FF7769"/>
<path d="M49.2982 26.8783L44.8874 96.1152C44.8454 97.0352 44.4446 97.9011 43.7725 98.524C43.1004 99.1468 42.2115 99.476 41.2999 99.4398H13.3648C12.4585 99.4408 11.5878 99.0839 10.9388 98.4454C38.227 82.6092 45.1814 40.3843 46.8869 23.4944C47.604 23.7081 48.2302 24.1567 48.6668 24.7694C49.1034 25.3821 49.3255 26.1241 49.2982 26.8783Z" fill="#E52B17"/>
<path d="M8.64519 79.448C8.47262 79.4453 8.30702 79.3789 8.17968 79.2613C8.05235 79.1437 7.97212 78.9831 7.95416 78.8098L6.48389 55.6715C6.47219 55.4865 6.53378 55.3044 6.6551 55.1652C6.77642 55.026 6.94754 54.9412 7.13081 54.9294C7.31408 54.9176 7.49449 54.9798 7.63236 55.1022C7.77022 55.2247 7.85425 55.3974 7.86594 55.5824L9.33621 78.6614C9.34636 78.7515 9.33822 78.8427 9.3123 78.9296C9.28638 79.0164 9.24321 79.097 9.18543 79.1664C9.12765 79.2358 9.05648 79.2927 8.97623 79.3334C8.89599 79.3742 8.80837 79.398 8.7187 79.4035L8.64519 79.448Z" fill="#3E3126"/>
<path d="M41.1676 100.167H13.2324C12.1616 100.172 11.1308 99.7566 10.3574 99.0091C9.5839 98.2615 9.12818 97.24 9.08627 96.1599L8.49816 87.1509C8.49218 87.0593 8.50419 86.9673 8.53349 86.8804C8.5628 86.7934 8.60882 86.7132 8.66893 86.6442C8.72904 86.5753 8.80204 86.519 8.88375 86.4786C8.96546 86.4382 9.05427 86.4145 9.14508 86.4088C9.32751 86.4005 9.50602 86.4639 9.64311 86.5857C9.78019 86.7075 9.86518 86.8782 9.88022 87.0619L10.4683 96.0857C10.495 96.8075 10.7979 97.4909 11.3134 97.9919C11.8289 98.4929 12.5168 98.7725 13.2324 98.772H41.1676C41.8807 98.7727 42.5665 98.4951 43.0816 97.9972C43.5968 97.4993 43.9013 96.8198 43.9317 96.1005L48.5189 26.8339C48.5326 26.4743 48.4746 26.1156 48.3483 25.779C48.222 25.4425 48.0301 25.135 47.7838 24.8748C47.5324 24.6167 47.2326 24.4116 46.902 24.2714C46.5713 24.1313 46.2163 24.0589 45.8577 24.0585H8.63049C8.27159 24.0561 7.91596 24.1275 7.58523 24.2682C7.2545 24.4089 6.95559 24.6161 6.70666 24.8771C6.45773 25.1381 6.264 25.4475 6.13724 25.7864C6.01048 26.1254 5.95334 26.4868 5.9693 26.8488L7.30724 47.6273C7.32803 47.8021 7.28253 47.9784 7.17989 48.1208C7.07724 48.2632 6.92503 48.3611 6.75382 48.395C6.58262 48.4288 6.40507 48.396 6.25683 48.3031C6.10859 48.2103 6.00062 48.0643 5.95459 47.8944C5.94737 47.8353 5.94737 47.7755 5.95459 47.7163L4.60195 26.9378C4.58229 26.3978 4.66827 25.8593 4.85497 25.3528C5.04167 24.8464 5.32543 24.3822 5.69003 23.9865C6.05462 23.5909 6.4929 23.2718 6.97979 23.0473C7.46668 22.8228 7.99263 22.6974 8.52757 22.6782H45.7842C46.319 22.6821 46.8479 22.7923 47.3405 23.0025C47.8332 23.2127 48.28 23.5188 48.6554 23.9033C49.0309 24.2878 49.3276 24.7432 49.5287 25.2435C49.7298 25.7438 49.8313 26.2792 49.8275 26.8191V26.923L45.3284 96.1747C45.2864 97.2561 44.8281 98.2782 44.0511 99.0238C43.2741 99.7694 42.2396 100.18 41.1676 100.167Z" fill="#3E3126"/>
<path d="M10.9388 67.5299C10.8034 67.5301 10.673 67.478 10.5746 67.3841C10.4761 67.2902 10.417 67.1618 10.4095 67.0253L9.79201 57.4969C9.80251 57.4248 9.82751 57.3556 9.86549 57.2936C9.90346 57.2316 9.9536 57.1781 10.0128 57.1364C10.072 57.0947 10.1391 57.0656 10.2098 57.0511C10.2806 57.0365 10.3536 57.0367 10.4242 57.0516C10.5341 57.0712 10.6354 57.1245 10.7143 57.2041C10.7932 57.2838 10.8459 57.386 10.8653 57.4969L11.4681 67.0253C11.4742 67.0955 11.4664 67.1663 11.4452 67.2334C11.4241 67.3006 11.39 67.3629 11.3449 67.4167C11.2998 67.4705 11.2446 67.5147 11.1824 67.5469C11.1203 67.5791 11.0525 67.5985 10.9829 67.6041L10.9388 67.5299Z" fill="white"/>
<path d="M11.6444 72.1863C12.1478 72.1508 12.5173 71.5637 12.4695 70.8752C12.4218 70.1867 11.9749 69.6573 11.4715 69.6929C10.968 69.7285 10.5986 70.3155 10.6464 71.004C10.6941 71.6926 11.1409 72.2219 11.6444 72.1863Z" fill="white"/>
<path d="M11.7622 39.5682H11.5857C11.5316 39.5469 11.4821 39.515 11.4402 39.4744C11.3983 39.4337 11.3648 39.3851 11.3415 39.3313C11.3183 39.2775 11.3058 39.2196 11.3049 39.1609C11.3039 39.1023 11.3144 39.044 11.3358 38.9894L13.7764 33.1566C13.7996 33.102 13.8332 33.0526 13.8753 33.0111C13.9174 32.9697 13.9672 32.937 14.0218 32.9149C14.0764 32.8929 14.1348 32.8819 14.1936 32.8826C14.2524 32.8833 14.3105 32.8957 14.3645 32.9191C14.4186 32.9425 14.4676 32.9764 14.5087 33.0189C14.5497 33.0614 14.5821 33.1117 14.604 33.1668C14.6258 33.2219 14.6367 33.2808 14.636 33.3402C14.6353 33.3996 14.623 33.4582 14.5998 33.5128L12.1591 39.3308C12.1187 39.4014 12.061 39.4604 11.9915 39.502C11.9219 39.5436 11.843 39.5664 11.7622 39.5682Z" fill="#3E3126"/>
<path d="M15.0115 36.7483H14.835C14.7246 36.7022 14.6365 36.6141 14.5897 36.5031C14.543 36.392 14.5413 36.2669 14.5851 36.1546L15.8789 33.0378C15.9301 32.9314 16.0187 32.8482 16.1275 32.8042C16.2362 32.7603 16.3573 32.7589 16.467 32.8004C16.5201 32.8185 16.569 32.8474 16.6107 32.8852C16.6523 32.9231 16.6859 32.9691 16.7093 33.0205C16.7327 33.072 16.7454 33.1277 16.7468 33.1842C16.7481 33.2408 16.7379 33.297 16.717 33.3495L15.4084 36.4663C15.3785 36.5485 15.3245 36.6195 15.2536 36.6699C15.1827 36.7203 15.0982 36.7476 15.0115 36.7483Z" fill="#3E3126"/>
<path d="M22.9215 91.8853C24.7485 91.8853 26.2296 90.3902 26.2296 88.5459C26.2296 86.7016 24.7485 85.2065 22.9215 85.2065C21.0945 85.2065 19.6134 86.7016 19.6134 88.5459C19.6134 90.3902 21.0945 91.8853 22.9215 91.8853Z" fill="#E52B17"/>
<path d="M17.408 90.327C17.8465 90.327 18.202 89.9682 18.202 89.5256C18.202 89.0829 17.8465 88.7241 17.408 88.7241C16.9695 88.7241 16.6141 89.0829 16.6141 89.5256C16.6141 89.9682 16.9695 90.327 17.408 90.327Z" fill="#E52B17"/>
<path opacity="0.45" d="M18.7018 85.073C19.2702 85.073 19.731 84.6078 19.731 84.034C19.731 83.4603 19.2702 82.9951 18.7018 82.9951C18.1334 82.9951 17.6727 83.4603 17.6727 84.034C17.6727 84.6078 18.1334 85.073 18.7018 85.073Z" fill="#E52B17"/>
<path opacity="0.45" d="M19.0547 80.1307C19.5582 80.1307 19.9663 79.7187 19.9663 79.2105C19.9663 78.7023 19.5582 78.2903 19.0547 78.2903C18.5513 78.2903 18.1431 78.7023 18.1431 79.2105C18.1431 79.7187 18.5513 80.1307 19.0547 80.1307Z" fill="#E52B17"/>
<path opacity="0.1" d="M21.3336 75.1736C21.7234 75.1736 22.0394 74.8546 22.0394 74.4612C22.0394 74.0677 21.7234 73.7488 21.3336 73.7488C20.9439 73.7488 20.6279 74.0677 20.6279 74.4612C20.6279 74.8546 20.9439 75.1736 21.3336 75.1736Z" fill="#E52B17"/>
<path d="M10.5271 27.4722H47.2839V31.524H14.541C13.4764 31.524 12.4555 31.0971 11.7028 30.3372C10.95 29.5774 10.5271 28.5468 10.5271 27.4722Z" fill="#E52B17"/>
<path d="M53.856 28.1845L51.8859 22.2329H28.9643H25.4504H2.52888L0.558716 28.1845" fill="#FFEEEB"/>
<path d="M0.558709 28.7632H0.382276C0.309627 28.7412 0.24203 28.7048 0.183401 28.6562C0.124771 28.6077 0.0762744 28.5478 0.0407195 28.4802C0.00516469 28.4125 -0.0167415 28.3384 -0.0237301 28.2622C-0.0307187 28.1859 -0.0226508 28.1091 6.19888e-06 28.036L1.97017 22.0993C2.00903 21.9882 2.08052 21.8918 2.1751 21.8228C2.26967 21.7539 2.38283 21.7157 2.49947 21.7134H39.2562C39.3306 21.726 39.4018 21.7532 39.4657 21.7936C39.5296 21.834 39.585 21.8868 39.6287 21.9488C39.6724 22.0108 39.7036 22.081 39.7204 22.1552C39.7372 22.2294 39.7393 22.3062 39.7267 22.3813C39.7139 22.5028 39.6603 22.6163 39.5746 22.7027C39.489 22.7891 39.3766 22.8433 39.2562 22.8562H2.94055L1.08801 28.4219C1.04744 28.5284 0.974181 28.6189 0.878939 28.6804C0.783697 28.7418 0.671478 28.7708 0.558709 28.7632Z" fill="#3E3126"/>
<path d="M13.4677 25.3645H4.01384C3.94335 25.3773 3.87105 25.3759 3.80108 25.3605C3.73112 25.345 3.66486 25.3157 3.60612 25.2744C3.54738 25.233 3.49731 25.1803 3.45879 25.1194C3.42026 25.0584 3.39404 24.9904 3.38162 24.9192C3.36395 24.7744 3.40109 24.6282 3.48559 24.5099C3.5701 24.3916 3.69575 24.3098 3.83741 24.281H13.4677C13.6094 24.281 13.7456 24.3368 13.8472 24.4366C13.9488 24.5364 14.0078 24.6723 14.0117 24.8153C14.008 24.9598 13.9495 25.0973 13.8482 25.1995C13.747 25.3016 13.6108 25.3607 13.4677 25.3645Z" fill="white"/>
<path d="M17.3051 25.7356C17.9872 25.7356 18.5401 25.3237 18.5401 24.8155C18.5401 24.3072 17.9872 23.8953 17.3051 23.8953C16.623 23.8953 16.0701 24.3072 16.0701 24.8155C16.0701 25.3237 16.623 25.7356 17.3051 25.7356Z" fill="white"/>
<path d="M8.83634 82.6539C9.27482 82.6539 9.63028 82.2951 9.63028 81.8525C9.63028 81.4099 9.27482 81.051 8.83634 81.051C8.39785 81.051 8.04239 81.4099 8.04239 81.8525C8.04239 82.2951 8.39785 82.6539 8.83634 82.6539Z" fill="#3E3126"/>
<path d="M6.82205 51.4415C7.26054 51.4415 7.616 51.0827 7.616 50.6401C7.616 50.1974 7.26054 49.8386 6.82205 49.8386C6.38357 49.8386 6.02811 50.1974 6.02811 50.6401C6.02811 51.0827 6.38357 51.4415 6.82205 51.4415Z" fill="#3E3126"/>
<path d="M51.5771 28.9119H2.83763C2.68946 28.9119 2.54735 28.8524 2.44257 28.7467C2.33779 28.6409 2.27893 28.4975 2.27893 28.3479C2.28246 28.198 2.34202 28.055 2.44565 27.9477C2.54928 27.8403 2.68932 27.7765 2.83763 27.769H51.5771C51.7254 27.7765 51.8654 27.8403 51.9691 27.9477C52.0727 28.055 52.1323 28.198 52.1358 28.3479C52.1358 28.4975 52.0769 28.6409 51.9722 28.7467C51.8674 28.8524 51.7253 28.9119 51.5771 28.9119Z" fill="#3E3126"/>
<path d="M53.856 28.7633C53.7364 28.7645 53.6197 28.7259 53.5241 28.6535C53.4284 28.581 53.359 28.4788 53.3267 28.3625L51.4595 22.7969H43.9023C43.8279 22.8096 43.7518 22.8075 43.6783 22.7905C43.6048 22.7735 43.5353 22.7421 43.4739 22.6979C43.4124 22.6538 43.3602 22.5979 43.3201 22.5334C43.2801 22.4689 43.2531 22.397 43.2406 22.3219C43.2194 22.1687 43.2582 22.0132 43.3488 21.8885C43.4394 21.7637 43.5747 21.6796 43.7258 21.6541H51.8858C52.0025 21.6564 52.1156 21.6946 52.2102 21.7635C52.3048 21.8325 52.3763 21.9289 52.4151 22.0399L54.3853 27.9767C54.4324 28.1204 54.4218 28.277 54.3558 28.4129C54.2899 28.5489 54.1738 28.6533 54.0324 28.7039L53.856 28.7633Z" fill="#3E3126"/>
<path d="M28.9202 83.678C29.9921 83.678 30.861 82.8009 30.861 81.7189C30.861 80.6369 29.9921 79.7598 28.9202 79.7598C27.8484 79.7598 26.9795 80.6369 26.9795 81.7189C26.9795 82.8009 27.8484 83.678 28.9202 83.678Z" fill="#E52B17"/>
<path d="M24.8623 84.2419C25.3738 84.2419 25.7885 83.8233 25.7885 83.3069C25.7885 82.7905 25.3738 82.3718 24.8623 82.3718C24.3507 82.3718 23.936 82.7905 23.936 83.3069C23.936 83.8233 24.3507 84.2419 24.8623 84.2419Z" fill="#E52B17"/>
<path opacity="0.45" d="M23.1715 79.0027C23.6018 79.0027 23.9507 78.6505 23.9507 78.2161C23.9507 77.7816 23.6018 77.4294 23.1715 77.4294C22.7411 77.4294 22.3922 77.7816 22.3922 78.2161C22.3922 78.6505 22.7411 79.0027 23.1715 79.0027Z" fill="#E52B17"/>
<path opacity="0.6" d="M22.9215 81.4961C23.3519 81.4961 23.7008 81.1439 23.7008 80.7095C23.7008 80.275 23.3519 79.9229 22.9215 79.9229C22.4912 79.9229 22.1423 80.275 22.1423 80.7095C22.1423 81.1439 22.4912 81.4961 22.9215 81.4961Z" fill="#E52B17"/>
<path d="M43.4171 46.4993L44.2404 43.7832L53.9736 40.2212C53.9736 40.2212 60.1929 45.6681 59.693 45.7572C59.1931 45.8462 43.4171 46.4993 43.4171 46.4993Z" fill="white"/>
<path opacity="0.45" d="M23.8772 80.2791C24.3644 80.2791 24.7593 79.8804 24.7593 79.3886C24.7593 78.8967 24.3644 78.498 23.8772 78.498C23.39 78.498 22.995 78.8967 22.995 79.3886C22.995 79.8804 23.39 80.2791 23.8772 80.2791Z" fill="#E52B17"/>
<path d="M65.4711 54.0686L59.149 102.542C58.9994 103.309 58.591 104.001 57.9932 104.499C57.3955 104.997 56.6453 105.27 55.8703 105.273H32.9929C32.2154 105.274 31.4617 105.002 30.8609 104.504C30.2601 104.005 29.8495 103.312 29.6995 102.542L23.392 54.0686" fill="white"/>
<path d="M58.1198 54.2317L57.811 56.0127H23.7302V57.7047H54.253C54.9744 57.7047 55.6662 57.994 56.1763 58.5089C56.6864 59.0238 56.973 59.7222 56.973 60.4504C56.9881 60.5935 56.9881 60.7378 56.973 60.8808L52.1505 89.0505H28.3468L29.2143 92.1673H47.8279C49.8422 92.1673 51.3565 97.9111 51.0184 99.9147L50.5479 102.69C50.3896 103.464 49.9672 104.156 49.3545 104.647C48.7418 105.138 47.9777 105.396 47.1957 105.377H55.6203C56.3978 105.377 57.1515 105.106 57.7523 104.607C58.3531 104.109 58.7637 103.416 58.9137 102.646L65.2065 54.1724L58.1198 54.2317Z" fill="#FFEDE1"/>
<path d="M55.8703 106H32.9929C32.0498 106.001 31.1355 105.672 30.4061 105.068C29.6768 104.464 29.1776 103.624 28.9937 102.69L22.6863 54.1576C22.6612 53.9667 22.7121 53.7736 22.8279 53.6206C22.9436 53.4676 23.1148 53.3671 23.3038 53.3413C23.4929 53.316 23.6842 53.3674 23.8358 53.4842C23.9874 53.6011 24.0869 53.7738 24.1124 53.9646L30.4052 102.408C30.5407 103 30.8698 103.528 31.3393 103.908C31.8088 104.288 32.3913 104.496 32.9929 104.501H55.8703C56.4693 104.493 57.0485 104.283 57.515 103.903C57.9815 103.524 58.3083 102.997 58.4433 102.408L64.6919 54.0092C64.7175 53.8144 64.8186 53.6379 64.9729 53.5183C65.1273 53.3987 65.3223 53.3457 65.5153 53.371C65.6121 53.382 65.7058 53.4123 65.7909 53.4602C65.876 53.5081 65.9508 53.5726 66.011 53.6499C66.0712 53.7272 66.1155 53.8159 66.1415 53.9107C66.1674 54.0055 66.1745 54.1045 66.1622 54.2021L59.9135 102.675C59.7234 103.616 59.2169 104.46 58.4799 105.066C57.7429 105.672 56.8208 106.002 55.8703 106Z" fill="#3E3126"/>
<path d="M67.3531 65.1701L63.6627 86.7649C63.5431 87.4056 63.2062 87.9843 62.7098 88.4014C62.2134 88.8185 61.5886 89.048 60.9427 89.0506H27.9351C27.2851 89.0468 26.6569 88.813 26.1599 88.39C25.663 87.9669 25.3286 87.3814 25.2151 86.7352L21.4512 65.1701C21.3275 64.4421 21.4948 63.6942 21.9165 63.0904C22.3382 62.4867 22.9798 62.0764 23.7008 61.9495C23.8573 61.9348 24.0148 61.9348 24.1712 61.9495H64.6919C65.4302 61.9573 66.1355 62.2599 66.6534 62.7911C67.1714 63.3223 67.4599 64.0389 67.456 64.7843C67.4277 64.9145 67.3934 65.0432 67.3531 65.1701Z" fill="#FFA878"/>
<path d="M52.1505 89.0506C55.6644 81.1993 56.7818 61.905 56.7818 61.905H64.6919C65.4224 61.905 66.1233 62.197 66.6412 62.717C67.1592 63.2371 67.4521 63.943 67.456 64.6804C67.4705 64.8335 67.4705 64.9875 67.456 65.1405L63.648 86.7799C63.5311 87.4179 63.1965 87.9944 62.7023 88.4093C62.2081 88.8241 61.5855 89.0511 60.9427 89.0506" fill="#EA5706"/>
<path opacity="0.25" d="M64.0009 87.8484C63.7386 88.1558 63.4136 88.4025 63.0482 88.5715C62.6828 88.7406 62.2856 88.828 61.8837 88.8279H42.6378C51.1654 78.7801 54.1207 69.3407 54.5911 61.6675H57.7228L53.1356 88.8131H61.9572C62.3454 88.8037 62.7275 88.7131 63.0792 88.547C63.431 88.381 63.7448 88.1431 64.0009 87.8484Z" fill="#EA5706"/>
<path d="M66.4121 71.2404H66.3239C66.2534 71.2279 66.186 71.2014 66.1256 71.1625C66.0652 71.1236 66.013 71.0731 65.972 71.0138C65.9311 70.9545 65.9021 70.8876 65.8868 70.817C65.8715 70.7463 65.8701 70.6734 65.8828 70.6022L66.8238 65.1553C66.8765 64.8326 66.8591 64.5022 66.7728 64.187C66.6865 63.8718 66.5333 63.5792 66.3239 63.3297C66.1308 63.0733 65.8849 62.8622 65.6031 62.711C65.3214 62.5598 65.0105 62.4721 64.6919 62.4541H49.7392C49.6688 62.4669 49.5965 62.4655 49.5265 62.4501C49.4565 62.4346 49.3903 62.4054 49.3315 62.364C49.2728 62.3226 49.2227 62.2699 49.1842 62.209C49.1457 62.148 49.1194 62.08 49.107 62.0088C49.0894 61.864 49.1265 61.7178 49.211 61.5995C49.2955 61.4812 49.4212 61.3994 49.5628 61.3706H64.6919C65.1263 61.3726 65.5561 61.4609 65.9567 61.6305C66.3574 61.8001 66.721 62.0477 67.0268 62.3592C67.3326 62.6707 67.5747 63.0399 67.7391 63.4458C67.9036 63.8517 67.9872 64.2863 67.9853 64.7249C67.9998 64.9027 67.9998 65.0814 67.9853 65.2592L67.0443 70.7061C67.0432 70.7851 67.0253 70.8629 66.9917 70.9343C66.9581 71.0057 66.9096 71.0689 66.8496 71.1196C66.7896 71.1703 66.7194 71.2074 66.6439 71.2282C66.5684 71.2491 66.4893 71.2532 66.4121 71.2404Z" fill="#3E3126"/>
<path d="M23.3773 76.9991C23.2496 76.9973 23.1266 76.9502 23.0298 76.8661C22.9331 76.782 22.8687 76.6662 22.848 76.539L20.922 65.3037C20.8481 64.8729 20.8591 64.4317 20.9545 64.0052C21.0498 63.5787 21.2275 63.1754 21.4774 62.8183C21.7273 62.4613 22.0445 62.1575 22.4109 61.9244C22.7773 61.6912 23.1856 61.5333 23.6126 61.4597C23.7985 61.4444 23.9853 61.4444 24.1713 61.4597H41.1676C41.3116 61.4381 41.4582 61.4742 41.5763 61.5601C41.6944 61.646 41.7746 61.7751 41.7998 61.9198C41.8209 62.0634 41.7848 62.2096 41.6994 62.3265C41.614 62.4433 41.4862 62.5212 41.344 62.5432H24.1713C23.8464 62.5436 23.5254 62.6155 23.2309 62.7539C22.9363 62.8923 22.6752 63.0939 22.4657 63.3446C22.1079 63.8407 21.9598 64.46 22.0541 65.0663L23.9948 76.3609C24.0097 76.4302 24.0103 76.502 23.9966 76.5716C23.9829 76.6412 23.9552 76.7073 23.9153 76.7657C23.8753 76.8241 23.8239 76.8736 23.7643 76.9112C23.7046 76.9488 23.638 76.9736 23.5684 76.9842H23.3773V76.9991Z" fill="#3E3126"/>
<path d="M60.9427 89.6145H27.9351C27.1571 89.6184 26.4031 89.3428 25.8079 88.8371C25.2126 88.3314 24.8149 87.6284 24.6858 86.854L24.0242 82.9802C24.0115 82.911 24.0124 82.84 24.027 82.7711C24.0415 82.7023 24.0694 82.637 24.1091 82.5791C24.1487 82.5212 24.1992 82.4717 24.2579 82.4336C24.3165 82.3955 24.382 82.3694 24.4506 82.3569C24.5886 82.3349 24.7297 82.3673 24.8446 82.4474C24.9596 82.5275 25.0396 82.6492 25.0681 82.7873L25.7297 86.6462C25.8171 87.1716 26.0871 87.6485 26.4913 87.9912C26.8954 88.3339 27.4073 88.5201 27.9351 88.5162H61.0162C61.5392 88.5226 62.0471 88.3386 62.4467 87.9979C62.8463 87.6572 63.111 87.1826 63.1922 86.661L64.6919 77.5036C64.7136 77.364 64.7892 77.2388 64.9022 77.1554C65.0152 77.0719 65.1563 77.037 65.2947 77.0584C65.3652 77.0709 65.4326 77.0974 65.493 77.1363C65.5534 77.1752 65.6056 77.2257 65.6465 77.285C65.6875 77.3443 65.7165 77.4112 65.7318 77.4818C65.7471 77.5524 65.7485 77.6254 65.7358 77.6966L64.1773 86.854C64.0459 87.6246 63.6495 88.3239 63.0579 88.8288C62.4664 89.3337 61.7174 89.6119 60.9427 89.6145Z" fill="#3E3126"/>
<path d="M57.9728 69.4892H57.8551C57.7794 69.4594 57.7183 69.4005 57.6853 69.3255C57.6523 69.2505 57.6499 69.1653 57.6787 69.0885L59.3695 65.0664C59.4019 64.9926 59.4613 64.9343 59.5354 64.9039C59.6094 64.8734 59.6923 64.8732 59.7665 64.9031C59.8373 64.9385 59.8928 64.9988 59.9226 65.0726C59.9523 65.1464 59.9544 65.2287 59.9282 65.3039L58.2374 69.326C58.2115 69.3743 58.1733 69.4149 58.1269 69.4436C58.0804 69.4723 58.0272 69.488 57.9728 69.4892Z" fill="#3E3126"/>
<path d="M60.2811 67.5448H60.1635C60.0911 67.5149 60.0327 67.4585 60 67.3869C59.9673 67.3153 59.9626 67.2338 59.987 67.1589L60.8839 65.0068C60.9163 64.933 60.9757 64.8748 61.0497 64.8443C61.1238 64.8139 61.2066 64.8136 61.2809 64.8436C61.3529 64.8732 61.4104 64.9305 61.4407 65.0028C61.471 65.0751 61.4717 65.1566 61.4426 65.2295L60.5457 67.3815C60.5198 67.4299 60.4817 67.4704 60.4352 67.4991C60.3887 67.5278 60.3355 67.5435 60.2811 67.5448Z" fill="#3E3126"/>
<path d="M54.3694 83.8506C54.5821 82.7984 54.2642 81.8446 53.6596 81.7201C53.0549 81.5955 52.3924 82.3475 52.1797 83.3996C51.9671 84.4518 52.2849 85.4056 52.8896 85.5301C53.4943 85.6547 54.1568 84.9027 54.3694 83.8506Z" fill="#EA5706"/>
<path d="M52.371 81.0657C52.6796 81.0657 52.9297 80.8132 52.9297 80.5017C52.9297 80.1903 52.6796 79.9377 52.371 79.9377C52.0625 79.9377 51.8123 80.1903 51.8123 80.5017C51.8123 80.8132 52.0625 81.0657 52.371 81.0657Z" fill="#EA5706"/>
<path d="M50.4891 87.7148C50.9032 87.7148 51.2389 87.3759 51.2389 86.9579C51.2389 86.5398 50.9032 86.2009 50.4891 86.2009C50.075 86.2009 49.7393 86.5398 49.7393 86.9579C49.7393 87.3759 50.075 87.7148 50.4891 87.7148Z" fill="#EA5706"/>
<path opacity="0.35" d="M50.1803 83.7968C50.4239 83.7968 50.6214 83.5974 50.6214 83.3515C50.6214 83.1056 50.4239 82.9062 50.1803 82.9062C49.9367 82.9062 49.7393 83.1056 49.7393 83.3515C49.7393 83.5974 49.9367 83.7968 50.1803 83.7968Z" fill="#EA5706"/>
<path d="M53.709 79.3145C54.7565 79.3145 55.6056 78.4573 55.6056 77.3999C55.6056 76.3425 54.7565 75.4854 53.709 75.4854C52.6615 75.4854 51.8123 76.3425 51.8123 77.3999C51.8123 78.4573 52.6615 79.3145 53.709 79.3145Z" fill="#EA5706"/>
<path d="M51.3124 74.2384C51.5723 74.2384 51.7829 74.0258 51.7829 73.7635C51.7829 73.5012 51.5723 73.2886 51.3124 73.2886C51.0526 73.2886 50.8419 73.5012 50.8419 73.7635C50.8419 74.0258 51.0526 74.2384 51.3124 74.2384Z" fill="#EA5706"/>
<path opacity="0.35" d="M50.2686 78.32C50.7801 78.32 51.1948 77.9014 51.1948 77.385C51.1948 76.8686 50.7801 76.45 50.2686 76.45C49.757 76.45 49.3423 76.8686 49.3423 77.385C49.3423 77.9014 49.757 78.32 50.2686 78.32Z" fill="#EA5706"/>
<path opacity="0.35" d="M52.9297 71.76C53.4413 71.76 53.856 71.3413 53.856 70.8249C53.856 70.3085 53.4413 69.8899 52.9297 69.8899C52.4182 69.8899 52.0035 70.3085 52.0035 70.8249C52.0035 71.3413 52.4182 71.76 52.9297 71.76Z" fill="#EA5706"/>
<path d="M59.4871 45.668C59.3349 45.6654 59.1887 45.6074 59.0755 45.5048L55.0175 41.5568C54.8289 41.3661 54.5924 41.2307 54.3334 41.1654C54.0744 41.1 53.8026 41.1071 53.5473 41.1858C53.4029 41.2339 53.2457 41.2236 53.1086 41.1572C52.9715 41.0908 52.8653 40.9734 52.8121 40.8296C52.7651 40.6859 52.7756 40.5293 52.8416 40.3933C52.9076 40.2574 53.0236 40.1529 53.165 40.1024C53.6249 39.962 54.1134 39.9471 54.5808 40.0592C55.0483 40.1713 55.478 40.4064 55.8262 40.7406L59.8988 44.6885C60.0042 44.8036 60.0627 44.9547 60.0627 45.1115C60.0627 45.2682 60.0042 45.4193 59.8988 45.5344C59.7827 45.6288 59.636 45.6764 59.4871 45.668Z" fill="#3E3126"/>
<path d="M43.0201 45.312C42.8654 45.3044 42.7195 45.2369 42.6128 45.1236C42.506 45.0103 42.4465 44.8598 42.4467 44.7035C42.4545 44.595 42.4897 44.4903 42.5489 44.3994C42.6081 44.3085 42.6893 44.2343 42.7849 44.184L49.7099 41.2157C49.8444 41.135 50.0052 41.1115 50.1568 41.1505C50.3085 41.1895 50.4386 41.2876 50.5185 41.4234C50.5984 41.5592 50.6217 41.7215 50.5831 41.8746C50.5445 42.0277 50.4472 42.159 50.3127 42.2397H50.1656L43.2407 45.2081C43.1751 45.2579 43.1 45.2933 43.0201 45.312Z" fill="#3E3126"/>
<path d="M28.3615 44.7034H60.7075C61.2951 44.7073 61.8575 44.9446 62.2731 45.3641C62.6886 45.7835 62.9237 46.3513 62.9276 46.9445V52.6734H26.1708V46.9296C26.1783 46.3441 26.4111 45.7845 26.8199 45.369C27.2287 44.9536 27.7816 44.7149 28.3615 44.7034Z" fill="white"/>
<path d="M66.3092 56.0128H22.4951C22.2944 56.0165 22.0963 55.9655 21.9218 55.8652C21.7474 55.7649 21.6029 55.619 21.5036 55.4428C21.4043 55.2666 21.3538 55.0667 21.3576 54.8641C21.3613 54.6614 21.419 54.4635 21.5248 54.2912C22.284 52.9426 23.3828 51.8205 24.71 51.0386C26.0371 50.2567 27.5453 49.8427 29.082 49.8386H59.7224C61.2569 49.8532 62.7611 50.2715 64.0864 51.0524C65.4117 51.8332 66.5124 52.9496 67.2796 54.2912C67.431 54.5535 67.4743 54.8655 67.4001 55.1598C67.3258 55.4541 67.14 55.7071 66.8826 55.8644C66.7056 55.9584 66.5092 56.0093 66.3092 56.0128Z" fill="white"/>
<path d="M58.5609 55.7903C58.458 56.2801 57.9434 55.538 57.8698 56.0574H46.5782C46.6542 54.8195 46.381 53.5852 45.7903 52.4976C45.1995 51.4101 44.3155 50.5139 43.2407 49.9129C41.5792 48.7701 42.432 46.0838 40.3001 44.8964L52.9297 44.7035C53.5496 44.6499 54.1713 44.783 54.7163 45.0861C55.2612 45.3891 55.7049 45.8485 55.9913 46.406C56.2777 46.9636 56.3939 47.5943 56.3253 48.2185C56.2566 48.8427 56.0062 49.4324 55.6056 49.9129C55.091 50.6105 59.7665 50.4621 58.5609 55.7903Z" fill="#FFEDE1"/>
<path d="M26.1561 50.9518C26.0079 50.9518 25.8658 50.8924 25.7611 50.7866C25.6563 50.6808 25.5974 50.5374 25.5974 50.3878V46.9297C25.5974 46.1896 25.8886 45.4799 26.407 44.9567C26.9254 44.4334 27.6284 44.1394 28.3615 44.1394H60.7075C61.4419 44.1394 62.1465 44.4329 62.6672 44.9557C63.1879 45.4786 63.4824 46.1883 63.4863 46.9297C63.5079 47.0807 63.4711 47.2343 63.3835 47.3587C63.2959 47.4831 63.1642 47.5686 63.0158 47.5975C62.9414 47.6103 62.8653 47.6081 62.7918 47.5912C62.7183 47.5742 62.6488 47.5427 62.5874 47.4986C62.5259 47.4545 62.4737 47.3986 62.4337 47.3341C62.3937 47.2695 62.3666 47.1977 62.3542 47.1226C62.3397 47.0591 62.3397 46.9931 62.3542 46.9297C62.3542 46.7114 62.3116 46.4952 62.2288 46.2935C62.1461 46.0919 62.0248 45.9086 61.8719 45.7543C61.7189 45.5999 61.5374 45.4775 61.3376 45.3939C61.1378 45.3104 60.9237 45.2674 60.7075 45.2674H28.3615C28.1453 45.2674 27.9311 45.3104 27.7314 45.3939C27.5316 45.4775 27.35 45.5999 27.1971 45.7543C27.0442 45.9086 26.9229 46.0919 26.8402 46.2935C26.7574 46.4952 26.7148 46.7114 26.7148 46.9297V50.462C26.7148 50.6116 26.656 50.755 26.5512 50.8608C26.4464 50.9666 26.3043 51.026 26.1561 51.026V50.9518Z" fill="#3E3126"/>
<path d="M66.3092 56.5767H22.4951C22.275 56.5807 22.0563 56.5408 21.8515 56.4594C21.6466 56.3779 21.4597 56.2566 21.3013 56.1022C21.1429 55.9479 21.0162 55.7635 20.9284 55.5597C20.8406 55.3559 20.7935 55.1366 20.7896 54.9144C20.7762 54.5957 20.8581 54.2802 21.0249 54.0091C21.8534 52.5991 23.0298 51.4301 24.4393 50.6159C25.8488 49.8017 27.4433 49.3703 29.0673 49.3636H47.0487C47.123 49.3762 47.1942 49.4035 47.2581 49.4439C47.3221 49.4843 47.3775 49.537 47.4212 49.599C47.4649 49.6611 47.496 49.7312 47.5128 49.8054C47.5296 49.8796 47.5318 49.9564 47.5191 50.0315C47.4974 50.145 47.4398 50.2482 47.3549 50.3258C47.2701 50.4034 47.1626 50.4512 47.0487 50.4619H29.082C27.6578 50.4724 26.2609 50.8571 25.0286 51.5779C23.7964 52.2987 22.7712 53.331 22.0541 54.5731C22.0054 54.6611 21.9804 54.7605 21.9815 54.8613C21.9825 54.9621 22.0096 55.0608 22.0601 55.1478C22.1107 55.2348 22.1828 55.3069 22.2694 55.3571C22.356 55.4073 22.4541 55.4338 22.554 55.4339H66.368C66.4672 55.4392 66.5658 55.4154 66.6519 55.3653C66.738 55.3153 66.8079 55.2412 66.8532 55.1519C66.9035 55.0639 66.93 54.9641 66.93 54.8625C66.93 54.7609 66.9035 54.6611 66.8532 54.5731C66.1238 53.3188 65.0817 52.2793 63.8307 51.558C62.5796 50.8367 61.1631 50.4588 59.7224 50.4619H54.0471C53.9127 50.44 53.7903 50.3704 53.7021 50.2657C53.6138 50.161 53.5653 50.028 53.5653 49.8905C53.5653 49.753 53.6138 49.62 53.7021 49.5153C53.7903 49.4106 53.9127 49.341 54.0471 49.3191H59.7224C61.3463 49.3257 62.9409 49.7572 64.3504 50.5714C65.7599 51.3855 66.9363 52.5546 67.7648 53.9646C67.919 54.225 68.0017 54.5223 68.0043 54.8257C68.0068 55.1291 67.9292 55.4277 67.7795 55.6908C67.6297 55.9539 67.4131 56.1719 67.1521 56.3224C66.8911 56.4729 66.5951 56.5504 66.2945 56.547L66.3092 56.5767Z" fill="#3E3126"/>
<path d="M26.7001 78.6613C26.5899 78.6605 26.4833 78.6218 26.3978 78.5517C26.3123 78.4816 26.253 78.3841 26.2296 78.2755L24.9946 71.7302C24.9865 71.6278 25.0106 71.5253 25.0633 71.4374C25.1161 71.3495 25.1949 71.2806 25.2887 71.2404C25.4112 71.2181 25.5375 71.2442 25.6415 71.3133C25.7454 71.3823 25.8192 71.4891 25.8474 71.6115L27.1559 78.0825C27.1712 78.142 27.1746 78.2039 27.1658 78.2647C27.157 78.3256 27.1362 78.384 27.1047 78.4365C27.0732 78.4891 27.0316 78.5348 26.9823 78.5708C26.933 78.6069 26.877 78.6326 26.8177 78.6465H26.7001V78.6613Z" fill="white"/>
<path d="M25.0047 69.8622C25.3467 69.7915 25.5474 69.3565 25.4529 68.8908C25.3583 68.4251 25.0044 68.1048 24.6623 68.1756C24.3203 68.2464 24.1196 68.6813 24.2142 69.147C24.3087 69.6128 24.6626 69.933 25.0047 69.8622Z" fill="white"/>
<path d="M53.5767 83.8857H63.2216C63.3542 83.8857 63.4814 83.9389 63.5751 84.0335C63.6689 84.1282 63.7215 84.2565 63.7215 84.3904C63.7215 84.5242 63.6689 84.6526 63.5751 84.7472C63.4814 84.8418 63.3542 84.895 63.2216 84.895H53.5179C53.3853 84.895 53.2581 84.8418 53.1644 84.7472C53.0706 84.6526 53.018 84.5242 53.018 84.3904C53.018 84.2565 53.0706 84.1282 53.1644 84.0335C53.2581 83.9389 53.3853 83.8857 53.5179 83.8857H53.5767Z" fill="#3E3126"/>
<path d="M49.1364 83.8857H50.5038C50.6364 83.8857 50.7635 83.9389 50.8573 84.0335C50.951 84.1282 51.0037 84.2565 51.0037 84.3904C51.0037 84.5242 50.951 84.6526 50.8573 84.7472C50.7635 84.8418 50.6364 84.895 50.5038 84.895H49.1364C49.0039 84.895 48.8767 84.8418 48.783 84.7472C48.6892 84.6526 48.6366 84.5242 48.6366 84.3904C48.6366 84.2565 48.6892 84.1282 48.783 84.0335C48.8767 83.9389 49.0039 83.8857 49.1364 83.8857Z" fill="#3E3126"/>
<path d="M23.6566 80.0861C24.1114 80.0861 24.48 79.714 24.48 79.255C24.48 78.7959 24.1114 78.4238 23.6566 78.4238C23.2019 78.4238 22.8333 78.7959 22.8333 79.255C22.8333 79.714 23.2019 80.0861 23.6566 80.0861Z" fill="#3E3126"/>
<path d="M49.6657 50.759C50.1204 50.759 50.4891 50.3868 50.4891 49.9278C50.4891 49.4688 50.1204 49.0967 49.6657 49.0967C49.211 49.0967 48.8424 49.4688 48.8424 49.9278C48.8424 50.3868 49.211 50.759 49.6657 50.759Z" fill="#3E3126"/>
<path d="M65.9857 75.0993C66.4405 75.0993 66.8091 74.7272 66.8091 74.2682C66.8091 73.8091 66.4405 73.437 65.9857 73.437C65.531 73.437 65.1624 73.8091 65.1624 74.2682C65.1624 74.7272 65.531 75.0993 65.9857 75.0993Z" fill="#3E3126"/>
</g>
<defs>
<clipPath id="clip0_11_10771">
<rect width="68" height="106" fill="white"/>
</clipPath>
</defs>
</svg>
