<svg width="139" height="128" viewBox="0 0 139 128" fill="none" xmlns="http://www.w3.org/2000/svg">
<path id="Vector" d="M54.5338 120.301L54.5328 120.31C54.5327 120.311 54.5313 120.321 54.5261 120.34C54.5206 120.361 54.5117 120.389 54.4982 120.422C54.4705 120.491 54.4294 120.571 54.376 120.652C54.3226 120.733 54.2652 120.803 54.212 120.857C54.1859 120.883 54.1635 120.902 54.1459 120.916C54.1373 120.923 54.1305 120.928 54.1256 120.931C54.1207 120.935 54.1182 120.936 54.1182 120.936L48.357 124.262C41.5869 128.171 32.9323 125.852 29.0236 119.082L5.54404 78.4142C-2.65091 64.2201 2.25974 45.8933 16.4538 37.6984L70.6775 6.39234L70.6791 6.39141C84.8726 -1.80321 103.199 3.10739 111.395 17.3012L115.308 24.0791L134.874 57.9692C138.783 64.7393 136.464 73.3939 129.694 77.3026L123.932 80.6289C123.932 80.6289 123.93 80.6303 123.924 80.6329C123.919 80.6354 123.911 80.6389 123.901 80.6429C123.891 80.6472 123.878 80.6517 123.864 80.6564C123.85 80.661 123.834 80.6656 123.817 80.6703C123.744 80.6896 123.654 80.7044 123.558 80.7102C123.461 80.7159 123.371 80.7117 123.297 80.7011C123.261 80.696 123.233 80.6898 123.212 80.6843C123.191 80.6787 123.182 80.6746 123.183 80.6749L123.175 80.6715L98.3516 70.0739C98.3501 70.0732 98.3486 70.0726 98.3471 70.0719C97.7779 69.826 97.1467 69.764 96.6057 69.796C96.0628 69.8281 95.4437 69.9647 94.9081 70.274L59.6627 90.6229C59.1271 90.9321 58.6992 91.4 58.4 91.8541C58.1019 92.3064 57.8401 92.8838 57.7683 93.4994C57.7681 93.5013 57.7679 93.5031 57.7677 93.505L54.5338 120.301ZM91.4387 19.7856C89.4024 16.2585 84.8947 15.0538 81.3713 17.088C77.8478 19.1223 76.6373 23.6284 78.6737 27.1555C80.7101 30.6826 85.2177 31.8873 88.7412 29.8531C92.2646 27.8188 93.4751 23.3127 91.4387 19.7856ZM44.4925 66.6966C46.1419 65.7443 46.71 63.6242 45.7577 61.9748L43.8011 58.5858C42.8488 56.9364 40.7287 56.3683 39.0793 57.3206L32.3013 61.2338C32.0868 61.3577 31.8014 61.2812 31.6776 61.0667L27.7643 54.2887C26.812 52.6393 24.6919 52.0712 23.0425 53.0235L19.6535 54.9801C18.0041 55.9324 17.436 58.0526 18.3883 59.702L22.3015 66.4799C22.4254 66.6945 22.3489 66.9798 22.1344 67.1037L15.3564 71.017C13.707 71.9693 13.1389 74.0894 14.0912 75.7388L16.0478 79.1278C17.0001 80.7772 19.1203 81.3453 20.7697 80.393L27.5476 76.4797C27.7622 76.3559 28.0475 76.4323 28.1714 76.6469L32.0847 83.4248C33.0369 85.0742 35.1571 85.6423 36.8065 84.69L40.1955 82.7334C41.8449 81.7811 42.413 79.661 41.4607 78.0116L37.5474 71.2336C37.4236 71.0191 37.5 70.7337 37.7146 70.6099L44.4925 66.6966ZM74.3767 43.1923C76.413 46.7194 80.9206 47.9242 84.4441 45.8899C87.9676 43.8556 89.178 39.3495 87.1417 35.8224C85.1053 32.2953 80.5977 31.0906 77.0742 33.1249C73.5508 35.1591 72.3403 39.6652 74.3767 43.1923ZM90.4135 47.4894C92.4498 51.0164 96.9575 52.2212 100.481 50.1869C104.004 48.1526 105.215 43.6466 103.178 40.1195C101.142 36.5924 96.6345 35.3876 93.111 37.4219C89.5876 39.4562 88.3771 43.9623 90.4135 47.4894ZM94.7105 31.4525C96.7469 34.9796 101.255 36.1844 104.778 34.1501C108.301 32.1158 109.512 27.6097 107.476 24.0827C105.439 20.5556 100.932 19.3508 97.4081 21.3851C93.8846 23.4194 92.6742 27.9255 94.7105 31.4525Z" stroke="#BBDEFF" stroke-width="3"/>
</svg>
