<svg width="146" height="147" viewBox="0 0 146 147" fill="none" xmlns="http://www.w3.org/2000/svg">
<path d="M104.209 101.364C98.2387 104.977 91.4396 106.992 84.4655 107.217C77.4911 107.442 70.5762 105.869 64.3857 102.648C63.8813 102.367 63.5063 101.9 63.341 101.346C63.1759 100.792 63.2333 100.196 63.5014 99.6845L80.0407 68.1179L45.5443 68.3957C43.8506 68.6833 43.2955 66.7201 43.3125 66.1183C43.7151 59.1744 45.8497 52.4419 49.5218 46.535C53.1935 40.6278 58.2864 35.7339 64.3347 32.2999C73.4933 27.0121 84.3772 25.5791 94.5919 28.3162C104.807 31.0532 113.516 37.7361 118.804 46.8948C124.091 56.0534 125.524 66.9373 122.787 77.1521C120.05 87.3668 113.367 96.0761 104.209 101.364L104.209 101.364ZM66.5499 36.1368C61.4994 39.0116 57.1856 43.0197 53.9473 47.8453C50.7095 52.6711 48.6361 58.1826 47.891 63.9453L83.7 63.6566C84.4785 63.6504 85.2033 64.0528 85.609 64.7175C86.0146 65.3818 86.0417 66.2103 85.68 66.8999L68.4629 99.7592C73.8239 102.092 79.6659 103.107 85.4997 102.719C91.3333 102.33 96.989 100.55 101.993 97.5266C110.134 92.8263 116.075 85.0847 118.507 76.0049C120.94 66.925 119.666 57.25 114.967 49.1097C110.267 40.9694 102.525 35.0285 93.4449 32.5959C84.365 30.1632 74.6901 31.4366 66.5497 36.1364L66.5499 36.1368Z" fill="#C3E2FF"/>
<path d="M50.5505 83.7429C50.0415 84.0368 49.4369 84.1165 48.8695 83.9645C48.3021 83.8125 47.8183 83.4411 47.5244 82.9321L45.3092 79.0952C44.9136 78.41 44.9136 77.5654 45.3091 76.8799C45.7049 76.1946 46.4363 75.7723 47.2276 75.7723C48.0191 75.7725 48.7505 76.1948 49.1461 76.88L51.3613 80.7169C51.6552 81.2259 51.7349 81.8305 51.5829 82.3979C51.4309 82.9653 51.0595 83.4491 50.5505 83.7429Z" fill="#C3E2FF"/>
<path d="M52.7657 87.5798C53.2747 87.286 53.8794 87.2063 54.4468 87.3583C55.0142 87.5103 55.498 87.8817 55.7918 88.3907L58.0071 92.2276C58.4027 92.9128 58.4027 93.7573 58.0071 94.4429C57.6114 95.1282 56.88 95.5505 56.0887 95.5505C55.2972 95.5502 54.5658 95.128 54.1702 94.4428L51.9549 90.6059C51.6611 90.0969 51.5814 89.4923 51.7334 88.9248C51.8854 88.3574 52.2567 87.8737 52.7657 87.5798Z" fill="#C3E2FF"/>
<path d="M42.0659 91.1995C41.7721 90.6905 41.6924 90.0858 41.8444 89.5184C41.9964 88.951 42.3678 88.4672 42.8768 88.1734L46.7137 85.9581C47.3989 85.5625 48.2435 85.5625 48.929 85.9581C49.6143 86.3538 50.0366 87.0852 50.0366 87.8765C50.0363 88.668 49.6141 89.3994 48.9289 89.795L45.092 92.0103C44.583 92.3041 43.9784 92.3838 43.4109 92.2318C42.8435 92.0798 42.3598 91.7085 42.0659 91.1995Z" fill="#C3E2FF"/>
<path d="M54.3874 81.5277L58.2243 79.3125C58.9095 78.9169 59.7541 78.9169 60.4396 79.3124C61.1249 79.7082 61.5472 80.4396 61.5472 81.2309C61.547 82.0224 61.1247 82.7538 60.4395 83.1494L56.6026 85.3646C55.9174 85.7602 55.0728 85.7602 54.3873 85.3647C53.702 84.969 53.2797 84.2375 53.2797 83.4462C53.2799 82.6547 53.7022 81.9233 54.3874 81.5277Z" fill="#C3E2FF"/>
<path d="M17.9952 53.9382C17.4862 54.2321 16.8815 54.3118 16.3141 54.1598C15.7467 54.0078 15.263 53.6364 14.9691 53.1274L12.7539 49.2905C12.3582 48.6052 12.3582 47.7607 12.7538 47.0751C13.1495 46.3898 13.8809 45.9676 14.6722 45.9675C15.4637 45.9678 16.1951 46.3901 16.5907 47.0752L18.806 50.9121C19.0998 51.4211 19.1795 52.0258 19.0275 52.5932C18.8755 53.1606 18.5042 53.6443 17.9952 53.9382Z" fill="#C3E2FF"/>
<path d="M20.2104 57.7751C20.7194 57.4812 21.324 57.4015 21.8914 57.5535C22.4588 57.7055 22.9426 58.0769 23.2365 58.5859L25.4517 62.4228C25.8473 63.108 25.8473 63.9526 25.4518 64.6381C25.0561 65.3234 24.3246 65.7457 23.5333 65.7458C22.7418 65.7455 22.0104 65.3232 21.6148 64.638L19.3996 60.8011C19.1057 60.2922 19.026 59.6875 19.178 59.1201C19.33 58.5527 19.7014 58.0689 20.2104 57.7751Z" fill="#C3E2FF"/>
<path d="M16.3735 59.9903L12.5366 62.2055C11.8514 62.6012 11.0068 62.6012 10.3213 62.2056C9.63602 61.8099 9.21372 61.0784 9.21369 60.2871C9.21395 59.4956 9.63622 58.7642 10.3214 58.3686L14.1583 56.1534C14.8435 55.7578 15.6881 55.7578 16.3736 56.1534C17.0589 56.5491 17.4812 57.2805 17.4812 58.0718C17.481 58.8633 17.0587 59.5947 16.3735 59.9903Z" fill="#C3E2FF"/>
<path d="M27.8842 53.3446L24.0473 55.5599C23.3621 55.9555 22.5175 55.9555 21.832 55.5599C21.1467 55.1642 20.7244 54.4328 20.7244 53.6415C20.7246 52.85 21.1469 52.1186 21.8321 51.723L25.669 49.5077C26.3542 49.1121 27.1988 49.1121 27.8843 49.5077C28.5696 49.9034 28.9919 50.6348 28.9919 51.4261C28.9917 52.2176 28.5694 52.949 27.8842 53.3446Z" fill="#C3E2FF"/>
<path d="M27.5292 97.0343L29.4476 95.9267L28.34 94.0082C27.9444 93.323 27.9444 92.4784 28.34 91.7929C28.7357 91.1076 29.4671 90.6853 30.2584 90.6853C31.0499 90.6855 31.7813 91.1078 32.1769 91.793L33.2845 93.7114L35.203 92.6038C35.8882 92.2082 36.7328 92.2082 37.4183 92.6038C38.1036 92.9995 38.5259 93.7309 38.5259 94.5222C38.5256 95.3137 38.1034 96.0451 37.4182 96.4407L35.4997 97.5483L36.6074 99.4668C37.003 100.152 37.003 100.997 36.6074 101.682C36.2117 102.367 35.4803 102.79 34.689 102.79C33.8975 102.789 33.1661 102.367 32.7705 101.682L31.6629 99.7636L29.7444 100.871C29.0592 101.267 28.2146 101.267 27.5291 100.871C26.8438 100.476 26.4215 99.7441 26.4215 98.9528C26.4217 98.1613 26.844 97.4299 27.5292 97.0343Z" fill="#C3E2FF"/>
<path d="M58.4628 132.891L60.3813 131.784L59.2737 129.865C58.878 129.18 58.878 128.335 59.2736 127.65C59.6693 126.964 60.4007 126.542 61.1921 126.542C61.9836 126.542 62.715 126.965 63.1106 127.65L64.2182 129.568L66.1366 128.461C66.8219 128.065 67.6664 128.065 68.3519 128.461C69.0372 128.856 69.4595 129.588 69.4596 130.379C69.4593 131.171 69.037 131.902 68.3518 132.298L66.4334 133.405L67.541 135.324C67.9366 136.009 67.9366 136.853 67.5411 137.539C67.1454 138.224 66.4139 138.647 65.6226 138.647C64.8311 138.646 64.0997 138.224 63.7041 137.539L62.5965 135.62L60.6781 136.728C59.9928 137.124 59.1483 137.124 58.4627 136.728C57.7774 136.332 57.3552 135.601 57.3551 134.81C57.3554 134.018 57.7776 133.287 58.4628 132.891Z" fill="#C3E2FF"/>
<path d="M73.8104 124.03L108.342 104.093C109.028 103.698 109.872 103.698 110.558 104.093C111.243 104.489 111.665 105.22 111.665 106.012C111.665 106.803 111.243 107.534 110.558 107.93L76.0256 127.867C75.3404 128.263 74.4958 128.263 73.8103 127.867C73.125 127.471 72.7027 126.74 72.7027 125.949C72.7029 125.157 73.1252 124.426 73.8104 124.03Z" fill="#C3E2FF"/>
<path d="M116.016 99.6627L119.853 97.4475C120.538 97.0519 121.383 97.0519 122.068 97.4475C122.754 97.8432 123.176 98.5746 123.176 99.3659C123.176 100.157 122.753 100.889 122.068 101.284L118.231 103.5C117.546 103.895 116.702 103.895 116.016 103.5C115.331 103.104 114.908 102.373 114.908 101.581C114.909 100.79 115.331 100.058 116.016 99.6627Z" fill="#C3E2FF"/>
<path d="M127.527 93.0171L131.364 90.8018C132.049 90.4062 132.893 90.4062 133.579 90.8018C134.264 91.1975 134.687 91.9289 134.687 92.7202C134.686 93.5117 134.264 94.2431 133.579 94.6387L129.742 96.8539C129.057 97.2496 128.212 97.2496 127.527 96.854C126.841 96.4583 126.419 95.7269 126.419 94.9356C126.419 94.144 126.842 93.4126 127.527 93.0171Z" fill="#C3E2FF"/>
<path d="M71.7116 22.925L48.6903 36.2164C48.005 36.612 47.1605 36.612 46.4749 36.2164C45.7897 35.8207 45.3674 35.0893 45.3673 34.298C45.3676 33.5065 45.7899 32.7751 46.475 32.3795L69.4964 19.0881C70.1816 18.6925 71.0262 18.6925 71.7117 19.088C72.397 19.4838 72.8193 20.2152 72.8193 21.0065C72.8191 21.798 72.3968 22.5294 71.7116 22.925Z" fill="#C3E2FF"/>
<path d="M83.2223 16.2793L79.3854 18.4945C78.7001 18.8902 77.8556 18.8902 77.1701 18.4946C76.4848 18.0989 76.0625 17.3675 76.0624 16.5762C76.0627 15.7847 76.485 15.0533 77.1702 14.6577L81.007 12.4424C81.6923 12.0468 82.5368 12.0468 83.2224 12.4424C83.9077 12.8381 84.33 13.5695 84.33 14.3608C84.3297 15.1523 83.9075 15.8837 83.2223 16.2793Z" fill="#C3E2FF"/>
<path d="M94.7329 9.63364L90.896 11.8489C90.2108 12.2445 89.3662 12.2445 88.6807 11.8489C87.9954 11.4532 87.5731 10.7218 87.5731 9.93049C87.5733 9.13898 87.9956 8.40758 88.6808 8.01199L92.5177 5.79676C93.2029 5.40113 94.0475 5.40113 94.733 5.7967C95.4183 6.19241 95.8406 6.92384 95.8406 7.71514C95.8404 8.50665 95.4181 9.23805 94.7329 9.63364Z" fill="#C3E2FF"/>
</svg>
