<svg width="684" height="372" viewBox="0 0 964 524" fill="none" xmlns="http://www.w3.org/2000/svg">
<line x1="84.7506" y1="1.825" x2="877.184" y2="1.825" stroke="black" stroke-width="2.69838"/>
<line x1="84.7506" y1="156.532" x2="877.184" y2="156.532" stroke="black" stroke-width="2.69838"/>
<line x1="84.7506" y1="313.039" x2="877.184" y2="313.039" stroke="black" stroke-width="2.69838"/>
<line x1="596.538" y1="488.883" x2="877.182" y2="488.883" stroke="black" stroke-width="2.69838"/>
<path d="M878.076 488.883C908.13 488.883 948.683 454.172 948.683 403.884C948.683 353.597 907.23 313.488 877.176 313.488" stroke="black" stroke-width="2.69838"/>
<path d="M876.726 156.532C923.151 156.532 962.625 123.278 962.625 79.6284C962.625 35.9784 923.151 1.82495 876.726 1.82495" stroke="black" stroke-width="2.69838"/>
<path d="M85.2002 313.039C40.2415 313.039 1.99999 277.986 1.99999 234.336C1.99999 190.686 39.119 156.982 84.0777 156.982" stroke="black" stroke-width="2.69838"/>
<rect x="426.546" y="457.402" width="182.591" height="63.8618" rx="14.3914" fill="white" stroke="#4A88C2" stroke-width="5.39677"/>
<path d="M452.769 496.597C451.604 496.597 450.466 496.385 449.356 495.96C448.246 495.521 447.259 494.904 446.396 494.109L448.102 491.971C448.938 492.711 449.74 493.246 450.507 493.575C451.289 493.904 452.111 494.068 452.975 494.068C453.578 494.068 454.098 494 454.537 493.863C454.976 493.712 455.311 493.499 455.544 493.225C455.791 492.951 455.915 492.629 455.915 492.259C455.915 491.766 455.736 491.389 455.38 491.128C455.024 490.854 454.414 490.642 453.55 490.491L450.693 489.998C449.473 489.792 448.541 489.36 447.896 488.702C447.266 488.044 446.951 487.195 446.951 486.153C446.951 485.262 447.177 484.488 447.629 483.83C448.095 483.172 448.746 482.672 449.582 482.329C450.432 481.973 451.439 481.794 452.605 481.794C453.66 481.794 454.708 481.973 455.75 482.329C456.805 482.685 457.737 483.179 458.546 483.809L456.942 486.03C455.435 484.878 453.92 484.303 452.399 484.303C451.864 484.303 451.398 484.371 451.001 484.508C450.603 484.645 450.295 484.837 450.076 485.084C449.87 485.317 449.767 485.598 449.767 485.927C449.767 486.365 449.925 486.708 450.24 486.955C450.555 487.188 451.083 487.366 451.823 487.489L454.537 487.942C455.976 488.175 457.052 488.634 457.765 489.319C458.478 489.991 458.834 490.882 458.834 491.992C458.834 492.924 458.587 493.739 458.094 494.438C457.6 495.124 456.895 495.658 455.976 496.042C455.072 496.412 454.003 496.597 452.769 496.597ZM464.567 496.597C463.745 496.597 463.011 496.419 462.367 496.062C461.737 495.692 461.236 495.185 460.866 494.541C460.51 493.897 460.332 493.157 460.332 492.321V485.68H463.148V491.91C463.148 492.595 463.347 493.143 463.745 493.554C464.156 493.965 464.704 494.171 465.389 494.171C465.855 494.171 466.273 494.082 466.644 493.904C467.027 493.712 467.343 493.445 467.589 493.102V485.68H470.406V496.391H467.589V495.528C466.767 496.241 465.759 496.597 464.567 496.597ZM472.601 496.391V485.68H475.418V486.502C476.185 485.817 477.117 485.475 478.214 485.475C478.913 485.475 479.536 485.618 480.085 485.906C480.633 486.18 481.085 486.571 481.441 487.078C481.88 486.557 482.394 486.16 482.983 485.886C483.586 485.612 484.251 485.475 484.978 485.475C485.786 485.475 486.492 485.66 487.095 486.03C487.712 486.386 488.192 486.886 488.534 487.53C488.891 488.161 489.069 488.901 489.069 489.751V496.391H486.273V490.162C486.273 489.463 486.088 488.915 485.718 488.517C485.348 488.106 484.854 487.901 484.237 487.901C483.813 487.901 483.422 487.99 483.066 488.168C482.723 488.346 482.428 488.613 482.182 488.97C482.195 489.093 482.209 489.216 482.223 489.34C482.236 489.463 482.243 489.6 482.243 489.751V496.391H479.427V490.162C479.427 489.463 479.242 488.915 478.872 488.517C478.515 488.106 478.029 487.901 477.412 487.901C476.987 487.901 476.603 487.983 476.261 488.147C475.932 488.312 475.651 488.558 475.418 488.887V496.391H472.601ZM491.213 496.391V485.68H494.029V486.502C494.797 485.817 495.729 485.475 496.825 485.475C497.524 485.475 498.148 485.618 498.696 485.906C499.244 486.18 499.697 486.571 500.053 487.078C500.492 486.557 501.006 486.16 501.595 485.886C502.198 485.612 502.863 485.475 503.589 485.475C504.398 485.475 505.104 485.66 505.707 486.03C506.324 486.386 506.803 486.886 507.146 487.53C507.502 488.161 507.68 488.901 507.68 489.751V496.391H504.884V490.162C504.884 489.463 504.699 488.915 504.329 488.517C503.959 488.106 503.466 487.901 502.849 487.901C502.424 487.901 502.034 487.99 501.677 488.168C501.335 488.346 501.04 488.613 500.793 488.97C500.807 489.093 500.821 489.216 500.834 489.34C500.848 489.463 500.855 489.6 500.855 489.751V496.391H498.038V490.162C498.038 489.463 497.853 488.915 497.483 488.517C497.127 488.106 496.64 487.901 496.023 487.901C495.599 487.901 495.215 487.983 494.872 488.147C494.543 488.312 494.262 488.558 494.029 488.887V496.391H491.213ZM515.067 496.597C513.998 496.597 513.025 496.35 512.147 495.857C511.284 495.363 510.599 494.699 510.091 493.863C509.584 493.027 509.331 492.088 509.331 491.046C509.331 490.004 509.571 489.066 510.05 488.229C510.544 487.393 511.209 486.729 512.045 486.235C512.881 485.742 513.813 485.495 514.841 485.495C515.869 485.495 516.78 485.749 517.575 486.256C518.37 486.763 518.994 487.448 519.446 488.312C519.912 489.175 520.145 490.155 520.145 491.252V491.992H512.209C512.332 492.417 512.531 492.8 512.805 493.143C513.093 493.486 513.443 493.753 513.854 493.945C514.279 494.137 514.731 494.233 515.211 494.233C515.69 494.233 516.129 494.157 516.527 494.007C516.938 493.856 517.287 493.643 517.575 493.369L519.425 495.055C518.767 495.59 518.089 495.98 517.39 496.227C516.705 496.474 515.93 496.597 515.067 496.597ZM512.168 489.977H517.369C517.273 489.552 517.095 489.182 516.835 488.867C516.588 488.538 516.287 488.284 515.93 488.106C515.588 487.914 515.204 487.818 514.779 487.818C514.34 487.818 513.943 487.907 513.587 488.086C513.23 488.264 512.929 488.517 512.682 488.846C512.449 489.161 512.278 489.538 512.168 489.977ZM521.871 496.391V485.68H524.687V486.873C525.03 486.407 525.441 486.05 525.921 485.803C526.4 485.557 526.942 485.433 527.545 485.433C528.066 485.447 528.456 485.529 528.717 485.68V488.147C528.511 488.051 528.285 487.983 528.038 487.942C527.792 487.887 527.538 487.859 527.278 487.859C526.729 487.859 526.229 487.996 525.777 488.271C525.325 488.545 524.961 488.935 524.687 489.442V496.391H521.871ZM534.399 496.391V482L537.215 481.527V486.544C538.065 485.872 539.066 485.536 540.217 485.536C541.231 485.536 542.15 485.783 542.972 486.276C543.794 486.77 544.445 487.434 544.925 488.271C545.418 489.093 545.665 490.018 545.665 491.046C545.665 492.074 545.418 493.006 544.925 493.842C544.432 494.664 543.767 495.322 542.931 495.816C542.095 496.295 541.163 496.535 540.135 496.535C539.6 496.535 539.079 496.46 538.572 496.309C538.065 496.158 537.599 495.939 537.174 495.651V496.391H534.399ZM539.765 494.15C540.354 494.15 540.882 494.013 541.348 493.739C541.827 493.465 542.204 493.095 542.479 492.629C542.753 492.163 542.89 491.635 542.89 491.046C542.89 490.457 542.753 489.929 542.479 489.463C542.204 488.983 541.827 488.613 541.348 488.353C540.882 488.079 540.354 487.942 539.765 487.942C539.244 487.942 538.764 488.031 538.326 488.209C537.901 488.373 537.531 488.627 537.215 488.97V493.143C537.517 493.458 537.887 493.705 538.326 493.883C538.778 494.061 539.258 494.15 539.765 494.15ZM547.369 496.391V485.68H550.185V486.873C550.528 486.407 550.939 486.05 551.419 485.803C551.899 485.557 552.44 485.433 553.043 485.433C553.564 485.447 553.954 485.529 554.215 485.68V488.147C554.009 488.051 553.783 487.983 553.536 487.942C553.29 487.887 553.036 487.859 552.776 487.859C552.228 487.859 551.727 487.996 551.275 488.271C550.823 488.545 550.459 488.935 550.185 489.442V496.391H547.369ZM560.582 496.597C559.513 496.597 558.54 496.35 557.663 495.857C556.799 495.363 556.114 494.699 555.607 493.863C555.1 493.027 554.846 492.088 554.846 491.046C554.846 490.004 555.086 489.066 555.566 488.229C556.059 487.393 556.724 486.729 557.56 486.235C558.396 485.742 559.328 485.495 560.356 485.495C561.384 485.495 562.295 485.749 563.09 486.256C563.885 486.763 564.509 487.448 564.961 488.312C565.427 489.175 565.66 490.155 565.66 491.252V491.992H557.724C557.848 492.417 558.046 492.8 558.32 493.143C558.608 493.486 558.958 493.753 559.369 493.945C559.794 494.137 560.246 494.233 560.726 494.233C561.206 494.233 561.644 494.157 562.042 494.007C562.453 493.856 562.802 493.643 563.09 493.369L564.94 495.055C564.283 495.59 563.604 495.98 562.905 496.227C562.22 496.474 561.445 496.597 560.582 496.597ZM557.683 489.977H562.885C562.789 489.552 562.61 489.182 562.35 488.867C562.103 488.538 561.802 488.284 561.445 488.106C561.103 487.914 560.719 487.818 560.294 487.818C559.856 487.818 559.458 487.907 559.102 488.086C558.745 488.264 558.444 488.517 558.197 488.846C557.964 489.161 557.793 489.538 557.683 489.977ZM570.738 496.576C569.971 496.576 569.292 496.439 568.703 496.165C568.114 495.877 567.654 495.487 567.326 494.993C566.997 494.5 566.832 493.931 566.832 493.287C566.832 492.259 567.216 491.464 567.983 490.902C568.765 490.326 569.834 490.039 571.191 490.039C572.123 490.039 573 490.183 573.822 490.47V489.689C573.822 489.072 573.63 488.606 573.247 488.291C572.863 487.976 572.301 487.818 571.561 487.818C571.108 487.818 570.622 487.894 570.101 488.044C569.58 488.181 568.977 488.401 568.292 488.702L567.264 486.626C568.114 486.242 568.922 485.954 569.69 485.762C570.471 485.57 571.252 485.475 572.034 485.475C573.473 485.475 574.59 485.824 575.385 486.523C576.193 487.208 576.598 488.181 576.598 489.442V496.391H573.822V495.631C573.384 495.96 572.911 496.2 572.404 496.35C571.896 496.501 571.341 496.576 570.738 496.576ZM569.505 493.225C569.505 493.636 569.683 493.965 570.039 494.212C570.396 494.445 570.869 494.562 571.458 494.562C571.924 494.562 572.356 494.507 572.753 494.397C573.151 494.274 573.507 494.096 573.822 493.863V492.3C573.48 492.163 573.123 492.06 572.753 491.992C572.383 491.923 571.986 491.889 571.561 491.889C570.917 491.889 570.409 492.012 570.039 492.259C569.683 492.492 569.505 492.814 569.505 493.225ZM578.729 496.391V482L581.546 481.527V490.183L586.172 485.68H589.358L584.301 490.594L589.667 496.391H586.069L581.546 491.498V496.391H578.729ZM590.702 492.074L590.353 481.897H593.21L592.861 492.074H590.702ZM591.771 496.597C591.319 496.597 590.928 496.433 590.599 496.104C590.27 495.775 590.106 495.384 590.106 494.932C590.106 494.466 590.27 494.068 590.599 493.739C590.928 493.41 591.319 493.246 591.771 493.246C592.237 493.246 592.635 493.41 592.964 493.739C593.293 494.068 593.457 494.466 593.457 494.932C593.457 495.384 593.293 495.775 592.964 496.104C592.635 496.433 592.237 496.597 591.771 496.597Z" fill="#4A88C2"/>
</svg>
