<svg width="220" height="240" viewBox="0 0 220 240" fill="none" xmlns="http://www.w3.org/2000/svg">
<path d="M110 0C170.753 0 220 49.2564 220 110.021C220 170.786 170.753 220.042 110 220.042C49.247 220.042 0 170.786 0 110.021C0 49.2564 49.247 0 110 0ZM110 22.0042C86.6609 22.0042 64.2778 31.2774 47.7746 47.7838C31.2714 64.2901 22 86.6776 22 110.021C22 133.365 31.2714 155.752 47.7746 172.258C64.2778 188.765 86.6609 198.038 110 198.038C133.339 198.038 155.722 188.765 172.225 172.258C188.729 155.752 198 133.365 198 110.021C198 86.6776 188.729 64.2901 172.225 47.7838C155.722 31.2774 133.339 22.0042 110 22.0042ZM110 44.0084C112.694 44.0088 115.295 44.9981 117.308 46.7888C119.321 48.5795 120.608 51.047 120.923 53.7233L121 55.0105V105.466L150.777 135.249C152.75 137.229 153.895 139.886 153.981 142.68C154.066 145.474 153.085 148.195 151.236 150.292C149.388 152.388 146.811 153.703 144.029 153.968C141.247 154.233 138.468 153.429 136.257 151.719L135.223 150.806L102.223 117.8C100.513 116.088 99.4154 113.861 99.099 111.462L99 110.021V55.0105C99 52.0926 100.159 49.2942 102.222 47.2309C104.285 45.1676 107.083 44.0084 110 44.0084Z" fill="#AED7FF"/>
</svg>
