<svg width="684" height="372" viewBox="0 0 984 534" fill="none" xmlns="http://www.w3.org/2000/svg">
<line x1="87.7506" y1="1.825" x2="880.184" y2="1.825" stroke="black" stroke-width="2.69838"/>
<line x1="87.7506" y1="156.532" x2="880.184" y2="156.532" stroke="black" stroke-width="2.69838"/>
<line x1="87.7506" y1="311.251" x2="880.184" y2="311.251" stroke="black" stroke-width="2.69838"/>
<line x1="673" y1="465.951" x2="882" y2="465.951" stroke="black" stroke-width="2.69838"/>
<path d="M879.726 156.532C926.151 156.532 965.625 123.278 965.625 79.6284C965.625 35.9784 926.151 1.82495 879.726 1.82495" stroke="black" stroke-width="2.69838"/>
<path d="M87.8986 156.493C41.4738 156.493 2 189.747 2 233.397C2 277.047 41.4738 311.2 87.8986 311.2" stroke="black" stroke-width="2.69838"/>
<path d="M880 466.007C926.425 466.007 965.899 432.753 965.899 389.103C965.899 345.453 926.425 311.3 880 311.3" stroke="black" stroke-width="2.69838"/>
<rect x="572.302" y="433.302" width="105.397" height="64.3968" rx="14.3914" fill="white" stroke="#4A88C2" stroke-width="5.39677"/>
<path d="M595.295 473V458.609H602.059C603.032 458.609 603.882 458.773 604.609 459.102C605.335 459.431 605.904 459.897 606.315 460.5C606.726 461.089 606.932 461.775 606.932 462.556C606.932 463.186 606.767 463.769 606.438 464.303C606.123 464.824 605.691 465.249 605.143 465.578C605.842 465.907 606.397 466.353 606.808 466.915C607.22 467.476 607.425 468.114 607.425 468.826C607.425 469.649 607.213 470.375 606.788 471.006C606.377 471.636 605.787 472.13 605.02 472.486C604.266 472.829 603.389 473 602.388 473H595.295ZM598.276 464.489H601.874C602.518 464.489 603.025 464.338 603.396 464.036C603.779 463.721 603.971 463.303 603.971 462.782C603.971 462.261 603.779 461.85 603.396 461.549C603.025 461.233 602.518 461.076 601.874 461.076H598.276V464.489ZM598.276 470.533H602.162C602.847 470.533 603.396 470.368 603.807 470.039C604.218 469.697 604.423 469.245 604.423 468.683C604.423 468.107 604.218 467.655 603.807 467.326C603.396 466.983 602.847 466.812 602.162 466.812H598.276V470.533ZM609.325 473V462.289H612.141V463.481C612.484 463.015 612.895 462.659 613.375 462.412C613.855 462.165 614.396 462.042 614.999 462.042C615.52 462.056 615.911 462.138 616.171 462.289V464.756C615.965 464.66 615.739 464.591 615.493 464.55C615.246 464.495 614.992 464.468 614.732 464.468C614.184 464.468 613.683 464.605 613.231 464.879C612.779 465.153 612.416 465.544 612.141 466.051V473H609.325ZM622.538 473.206C621.469 473.206 620.496 472.959 619.619 472.465C618.755 471.972 618.07 471.307 617.563 470.471C617.056 469.635 616.802 468.696 616.802 467.655C616.802 466.613 617.042 465.674 617.522 464.838C618.015 464.002 618.68 463.337 619.516 462.844C620.352 462.35 621.284 462.104 622.312 462.104C623.34 462.104 624.251 462.357 625.046 462.864C625.841 463.371 626.465 464.057 626.917 464.92C627.383 465.784 627.616 466.764 627.616 467.86V468.6H619.68C619.804 469.025 620.003 469.409 620.277 469.752C620.564 470.094 620.914 470.362 621.325 470.553C621.75 470.745 622.202 470.841 622.682 470.841C623.162 470.841 623.6 470.766 623.998 470.615C624.409 470.464 624.759 470.252 625.046 469.978L626.897 471.664C626.239 472.198 625.56 472.589 624.861 472.836C624.176 473.082 623.402 473.206 622.538 473.206ZM619.639 466.586H624.841C624.745 466.161 624.567 465.791 624.306 465.475C624.06 465.146 623.758 464.893 623.402 464.715C623.059 464.523 622.675 464.427 622.25 464.427C621.812 464.427 621.414 464.516 621.058 464.694C620.702 464.872 620.4 465.126 620.153 465.455C619.92 465.77 619.749 466.147 619.639 466.586ZM632.695 473.185C631.927 473.185 631.249 473.048 630.659 472.774C630.07 472.486 629.611 472.095 629.282 471.602C628.953 471.109 628.788 470.54 628.788 469.896C628.788 468.868 629.172 468.073 629.94 467.511C630.721 466.935 631.79 466.647 633.147 466.647C634.079 466.647 634.956 466.791 635.778 467.079V466.298C635.778 465.681 635.586 465.215 635.203 464.9C634.819 464.584 634.257 464.427 633.517 464.427C633.065 464.427 632.578 464.502 632.057 464.653C631.536 464.79 630.933 465.009 630.248 465.311L629.22 463.234C630.07 462.851 630.878 462.563 631.646 462.371C632.427 462.179 633.208 462.083 633.99 462.083C635.429 462.083 636.546 462.433 637.341 463.132C638.15 463.817 638.554 464.79 638.554 466.051V473H635.778V472.239C635.34 472.568 634.867 472.808 634.36 472.959C633.853 473.11 633.298 473.185 632.695 473.185ZM631.461 469.834C631.461 470.245 631.639 470.574 631.995 470.821C632.352 471.054 632.825 471.17 633.414 471.17C633.88 471.17 634.312 471.115 634.709 471.006C635.107 470.882 635.463 470.704 635.778 470.471V468.909C635.436 468.772 635.079 468.669 634.709 468.6C634.339 468.532 633.942 468.498 633.517 468.498C632.873 468.498 632.366 468.621 631.995 468.868C631.639 469.101 631.461 469.423 631.461 469.834ZM640.686 473V458.609L643.502 458.136V466.791L648.128 462.289H651.315L646.257 467.202L651.623 473H648.025L643.502 468.107V473H640.686ZM652.658 468.683L652.309 458.506H655.167L654.817 468.683H652.658ZM653.727 473.206C653.275 473.206 652.885 473.041 652.556 472.712C652.227 472.383 652.062 471.993 652.062 471.54C652.062 471.074 652.227 470.677 652.556 470.348C652.885 470.019 653.275 469.854 653.727 469.854C654.193 469.854 654.591 470.019 654.92 470.348C655.249 470.677 655.413 471.074 655.413 471.54C655.413 471.993 655.249 472.383 654.92 472.712C654.591 473.041 654.193 473.206 653.727 473.206Z" fill="#4A88C2"/>
</svg>
