<svg width="693" height="268" viewBox="0 0 693 268" fill="none" xmlns="http://www.w3.org/2000/svg">
<g clip-path="url(#clip0_11_10843)">
<path d="M107.672 53.6897L89.2839 44.8247L92.4202 28.7034L98.9711 29.9904L96.8212 41.0145L110.572 47.6442L107.672 53.6897Z" fill="#F9B117"/>
<path d="M108.304 55.4762L87.7748 45.5867L91.3664 27.1284L100.539 28.9319L98.3303 40.2609L112.351 47.0176L108.296 55.4762H108.304ZM90.7931 44.071L107.056 51.9031L108.793 48.2707L95.3205 41.7849L97.4114 31.0487L93.4741 30.2782L90.7931 44.071Z" fill="#141414"/>
<path d="M95.6999 32.7337C100.291 32.7337 104.013 28.9959 104.013 24.3852C104.013 19.7744 100.291 16.0366 95.6999 16.0366C91.1088 16.0366 87.3869 19.7744 87.3869 24.3852C87.3869 28.9959 91.1088 32.7337 95.6999 32.7337Z" fill="#0E394F"/>
<path d="M95.6999 34.0715C90.3799 34.0715 86.0464 29.7279 86.0464 24.3767C86.0464 19.0255 90.3715 14.6819 95.6999 14.6819C101.028 14.6819 105.353 19.0255 105.353 24.3767C105.353 29.7279 101.028 34.0715 95.6999 34.0715ZM95.6999 17.3659C91.8469 17.3659 88.719 20.5072 88.719 24.3767C88.719 28.2461 91.8469 31.3874 95.6999 31.3874C99.5528 31.3874 102.681 28.2461 102.681 24.3767C102.681 20.5072 99.5528 17.3659 95.6999 17.3659Z" fill="#141414"/>
<path d="M85.667 70.5055C89.2249 54.6128 104.932 44.6301 120.757 48.2032C125.815 49.3462 130.486 51.8186 134.288 55.3579L149.65 69.7011L202.402 118.683L133.783 140.13L65.1798 161.577L81.0469 91.0127L85.667 70.5055Z" fill="#FACA3F"/>
<path d="M151.749 71.4367L83.8122 92.6129L84.8492 87.9898C91.9734 86.6859 98.8446 84.222 105.176 80.6997C116.516 74.6203 125.723 65.188 131.565 53.6897C133.487 54.8243 135.283 56.179 136.902 57.7116L151.741 71.4367H151.749Z" fill="#F99F00"/>
<path d="M605.849 248.178C596.963 248.178 588.599 244.707 582.301 238.407L576.29 232.37C564.318 220.347 544.843 220.347 532.879 232.37C526.573 238.678 518.218 242.15 509.323 242.15H481.13V239.466H509.315C517.501 239.466 525.19 236.274 530.982 230.474C543.991 217.409 565.161 217.409 578.17 230.474L584.173 236.502C589.965 242.302 597.663 245.494 605.841 245.494H649.378V248.178H605.832H605.849Z" fill="#141414"/>
<path d="M681.635 234.394C675.152 221.914 663.534 212.558 648.544 212.558C631.344 212.583 616.202 223.954 611.321 240.516C610.006 245.13 612.67 249.94 617.265 251.252C618.049 251.472 618.858 251.591 619.667 251.582H667.328L682.891 250.245" fill="#2C6E9B"/>
<path opacity="0.3" d="M623.478 240.524C622.155 245.131 624.802 249.931 629.388 251.261C630.172 251.489 630.99 251.599 631.808 251.599H619.608C614.828 251.616 610.95 247.738 610.933 242.938C610.933 242.125 611.043 241.312 611.262 240.524C616.152 223.937 631.319 212.566 648.544 212.566C650.592 212.566 652.633 212.727 654.656 213.049C639.86 215.42 627.736 226.105 623.478 240.524Z" fill="#0E3964"/>
<path d="M677.512 252.937H619.625C618.664 252.937 617.712 252.793 616.793 252.522C611.498 250.947 608.471 245.334 610.048 240.025C610.2 239.525 610.351 239.034 610.52 238.543C613.993 228.332 621.219 220.102 630.864 215.352C640.509 210.602 651.419 209.907 661.586 213.396C674.899 218.163 683.886 230.635 684.325 244.716H684.35V246.053C684.35 249.855 681.281 252.929 677.512 252.929V252.937ZM648.535 213.887C642.886 213.887 637.263 215.182 632.036 217.756C623.031 222.193 616.287 229.881 613.041 239.415C612.889 239.872 612.737 240.33 612.602 240.795C611.447 244.69 613.673 248.805 617.551 249.957C618.226 250.16 618.926 250.262 619.625 250.262H677.512C679.696 250.262 681.5 248.56 681.66 246.401V246.053C681.77 232.565 673.347 220.466 660.693 215.936C656.722 214.573 652.616 213.895 648.535 213.895V213.887Z" fill="#141414"/>
<path d="M92.8502 191.813L115.251 184.836L128.437 227.544C130.36 233.768 126.894 240.372 120.698 242.303C114.501 244.233 107.925 240.753 106.003 234.53L92.8165 191.822H92.8587L92.8502 191.813Z" fill="#FBD766"/>
<path d="M174.454 165.252L196.888 158.267L210.074 200.975C211.997 207.198 208.531 213.802 202.335 215.733C196.138 217.663 189.562 214.183 187.64 207.96L174.454 165.252Z" fill="#FBD766"/>
<path d="M117.207 244.191C115.116 244.191 113.034 243.683 111.129 242.675C108.034 241.041 105.766 238.298 104.729 234.945L91.1472 190.967L92.454 190.543L116.128 183.168L129.71 227.163C131.843 234.081 127.982 241.456 121.094 243.598C119.812 243.996 118.506 244.191 117.199 244.191H117.207ZM94.4858 192.711L107.284 234.14C108.11 236.807 109.914 238.992 112.376 240.296C114.838 241.6 117.654 241.854 120.31 241.032C125.79 239.322 128.867 233.454 127.173 227.951L114.374 186.521L94.4858 192.719V192.711Z" fill="#141414"/>
<path d="M198.87 217.604C193.288 217.604 188.103 213.989 186.366 208.358L172.784 164.363L197.774 156.582L211.356 200.577C212.393 203.93 212.064 207.486 210.437 210.593C208.81 213.701 206.078 215.978 202.739 217.02C201.449 217.418 200.151 217.613 198.87 217.613V217.604ZM176.123 166.133L188.913 207.562C190.616 213.066 196.458 216.165 201.938 214.454C204.594 213.625 206.769 211.813 208.068 209.34C209.366 206.868 209.627 204.04 208.801 201.373L196.003 159.943L176.114 166.141L176.123 166.133Z" fill="#141414"/>
<path opacity="0.7" d="M105.657 218.434C104.856 218.434 104.122 217.917 103.869 217.113L99.4517 202.795C99.1481 201.804 99.6962 200.755 100.683 200.45C101.669 200.145 102.714 200.695 103.018 201.686L107.436 216.004C107.739 216.994 107.191 218.044 106.205 218.349C106.019 218.408 105.834 218.434 105.648 218.434H105.657Z" fill="white"/>
<path d="M99.6793 173.025L180.558 147.835L196.77 200.331C200.699 213.057 193.617 226.579 180.937 230.525L145.881 241.447C133.209 245.393 119.745 238.281 115.816 225.546L99.6034 173.05L99.6793 173.025Z" fill="#FACA3F"/>
<path d="M187.659 170.906L106.778 196.097L109.855 206.06L190.735 180.869L187.659 170.906Z" fill="#F7B000"/>
<path d="M138.774 243.869C127.957 243.869 117.907 236.85 114.535 225.944L97.9341 172.178L99.2831 171.746L181.434 146.159L198.043 199.933C202.183 213.345 194.688 227.646 181.333 231.803L146.277 242.726C143.782 243.505 141.261 243.869 138.782 243.869H138.774ZM101.273 173.931L117.089 225.148C120.799 237.146 133.53 243.886 145.485 240.16L180.541 229.238C192.487 225.512 199.198 212.727 195.489 200.721L179.672 149.512L101.264 173.931H101.273Z" fill="#141414"/>
<path d="M64.7414 163.55L79.7401 90.7416L84.3602 70.2089C86.156 62.1737 90.9617 55.3238 97.8919 50.9209C104.822 46.5181 113.042 45.0871 121.043 46.8906C126.33 48.0845 131.22 50.6754 135.191 54.3755L150.552 68.7187L203.616 119.276L64.7329 163.55H64.7414ZM114.256 48.8211C109.012 48.8211 103.861 50.3113 99.3168 53.1986C92.9935 57.2204 88.601 63.4776 86.957 70.8101L82.3368 91.3174L68.2655 159.613L198.499 118.099L148.722 70.6831L133.369 56.3483C129.744 52.97 125.276 50.6077 120.453 49.5154C118.388 49.0497 116.314 48.8211 114.248 48.8211H114.256Z" fill="#141414"/>
<path d="M168.047 63.3409L64.1314 95.9456C54.887 98.8462 49.7342 108.724 52.6224 118.008L74.6064 188.675C77.4946 197.959 87.33 203.134 96.5744 200.234L200.49 167.629C209.734 164.728 214.887 154.851 211.999 145.567L190.015 74.8993C187.127 65.6152 177.291 60.4404 168.047 63.3409Z" fill="#F9B117"/>
<path opacity="0.5" d="M208.742 140.122L210.395 145.481C213.244 154.71 208.11 164.515 198.912 167.386L95.5228 199.56C86.3247 202.422 76.5616 197.266 73.7035 188.028L72.051 182.669C74.9091 191.898 84.6722 197.063 93.8619 194.201L197.268 162.026C206.432 159.215 211.592 149.469 208.793 140.266C208.776 140.215 208.759 140.172 208.751 140.122H208.742Z" fill="#E59303"/>
<path d="M168.36 73.0652L69.4016 104.114C63.855 105.855 60.7633 111.781 62.4962 117.352L83.0924 183.558C84.8253 189.129 90.7265 192.233 96.2732 190.493L195.232 159.444C200.778 157.704 203.87 151.777 202.137 146.207L181.541 80.0002C179.808 74.4298 173.907 71.3249 168.36 73.0652Z" fill="#0E394F"/>
<path d="M197.664 136.726L200.59 146.108C202.301 151.654 199.215 157.538 193.693 159.257L95.253 189.917C89.7308 191.635 83.8628 188.536 82.1429 182.99L79.2342 173.609C80.9457 179.146 86.8136 182.245 92.3275 180.527L190.776 149.859C196.281 148.14 199.367 142.272 197.664 136.735V136.726Z" fill="#062538"/>
<path d="M112.427 122.747C114.585 122.07 116.887 123.289 117.553 125.457L122.569 141.705C123.244 143.873 122.03 146.184 119.871 146.853C117.713 147.53 115.411 146.311 114.745 144.144L109.729 127.895C109.055 125.728 110.269 123.416 112.427 122.747Z" fill="#4CF58C"/>
<path d="M141.657 113.645C143.815 112.968 146.117 114.187 146.783 116.355L151.8 132.603C152.474 134.771 151.26 137.082 149.102 137.751C146.943 138.428 144.642 137.209 143.976 135.042L138.959 118.793C138.285 116.626 139.499 114.314 141.657 113.645Z" fill="#4CF58C"/>
<path d="M89.1322 109.589C89.697 111.41 88.6769 113.349 86.8642 113.916L73.7204 118.014C71.9077 118.581 69.977 117.557 69.4121 115.736C68.8473 113.916 69.8674 111.977 71.6801 111.41L84.8239 107.312C86.6366 106.744 88.5673 107.769 89.1322 109.589Z" fill="#185472"/>
<path d="M94.8062 111.266C96.6175 111.266 98.0858 109.791 98.0858 107.972C98.0858 106.153 96.6175 104.678 94.8062 104.678C92.9949 104.678 91.5266 106.153 91.5266 107.972C91.5266 109.791 92.9949 111.266 94.8062 111.266Z" fill="#185472"/>
<path d="M75.4571 94.4332L96.4924 87.8797C97.7655 87.4818 99.1229 88.193 99.5107 89.4715C99.9069 90.7501 99.1903 92.1048 97.9172 92.5027L76.882 99.0563C75.6089 99.4542 74.2515 98.743 73.8637 97.4645C73.4674 96.1859 74.1841 94.8312 75.4571 94.4332Z" fill="#FFCB6E"/>
<path d="M103.178 90.7248C104.566 90.7248 105.691 89.5952 105.691 88.2017C105.691 86.8081 104.566 85.6785 103.178 85.6785C101.791 85.6785 100.666 86.8081 100.666 88.2017C100.666 89.5952 101.791 90.7248 103.178 90.7248Z" fill="#FFCB6E"/>
<path d="M103.751 65.0525L115.403 61.4201C116.204 61.1661 117.056 61.6233 117.308 62.4277C117.561 63.2321 117.106 64.0872 116.305 64.3413L104.654 67.9736C103.853 68.2277 103.001 67.7704 102.748 66.9661C102.495 66.1617 102.951 65.3065 103.751 65.0525Z" fill="#F7B40D"/>
<path d="M102.31 60.3704L113.961 56.738C114.762 56.484 115.614 56.9412 115.867 57.7456C116.12 58.5499 115.664 59.4051 114.863 59.6591L103.212 63.2915C102.411 63.5455 101.559 63.0883 101.306 62.2839C101.054 61.4796 101.509 60.6244 102.31 60.3704Z" fill="#F7B40D"/>
<path d="M163.829 207.278L146.001 212.831C144.773 213.214 144.087 214.523 144.468 215.755L144.47 215.764C144.851 216.996 146.154 217.686 147.382 217.303L165.21 211.751C166.438 211.368 167.124 210.059 166.744 208.826L166.741 208.818C166.36 207.586 165.057 206.896 163.829 207.278Z" fill="#F7B40D"/>
<path d="M145.274 206.089L163.173 200.467C164.412 200.077 165.727 200.771 166.115 202.008C166.503 203.244 165.812 204.565 164.572 204.954L146.674 210.576C145.434 210.966 144.119 210.271 143.731 209.035C143.343 207.799 144.035 206.478 145.274 206.089Z" fill="#F7B40D"/>
<path d="M91.3664 202.38C83.3317 202.38 75.8618 197.181 73.341 189.078L51.353 118.404C49.8523 113.569 50.3076 108.438 52.6514 103.95C54.9952 99.4628 58.9324 96.1607 63.7381 94.6535L167.658 62.0384C172.464 60.5312 177.581 60.9884 182.05 63.3423C186.518 65.6961 189.806 69.6503 191.307 74.4765L213.295 145.151C214.796 149.986 214.34 155.117 211.997 159.605C209.653 164.092 205.716 167.394 200.91 168.901L96.9898 201.517C95.1266 202.101 93.2296 202.38 91.3748 202.38H91.3664ZM173.307 63.8672C171.68 63.8672 170.053 64.1128 168.459 64.6123L64.539 97.2275C60.4079 98.523 57.0355 101.351 55.0289 105.204C53.0223 109.056 52.6261 113.45 53.916 117.599L75.904 188.274C78.5682 196.834 87.6652 201.618 96.1889 198.943L200.109 166.327C204.24 165.032 207.613 162.204 209.619 158.351C211.626 154.499 212.022 150.104 210.732 145.956L188.744 75.2809C187.454 71.132 184.638 67.7452 180.802 65.73C178.45 64.4938 175.887 63.8672 173.307 63.8672Z" fill="#141414"/>
<path opacity="0.2" d="M545.922 253.928C545.922 261.701 387.462 268 249.607 268C111.752 268 0 261.701 0 253.928C0 246.155 111.744 239.855 249.599 239.855C387.453 239.855 545.913 246.155 545.913 253.928H545.922Z" fill="#0E394F"/>
<path opacity="0.2" d="M693 253.928C693 257.078 667.64 259.635 645.576 259.635C623.512 259.635 605.63 257.078 605.63 253.928C605.63 250.778 623.512 248.221 645.576 248.221C667.64 248.221 693 250.778 693 253.928Z" fill="#0E394F"/>
<path d="M497.545 1.33789H223.37C219.374 1.33789 215.951 4.23363 215.268 8.18776L183.449 218.137C182.682 222.633 185.692 226.901 190.169 227.671C190.624 227.748 191.088 227.79 191.552 227.79H476.206C480.127 227.765 483.482 224.953 484.216 221.084L517.147 25.1558C519.187 14.2417 512.038 3.73407 501.17 1.68504C499.982 1.45643 498.767 1.34636 497.553 1.33789H497.545Z" fill="#0E3964"/>
<path d="M191.552 229.128C191.012 229.128 190.472 229.077 189.941 228.992C184.748 228.095 181.249 223.124 182.134 217.909L213.953 7.98446C214.754 3.35296 218.716 0 223.37 0H497.553C498.843 0 500.142 0.127006 501.406 0.372552C507.013 1.43094 511.869 4.61456 515.09 9.34766C518.31 14.0808 519.499 19.7791 518.445 25.4097L485.522 221.313C484.671 225.826 480.75 229.102 476.206 229.136H191.552V229.128ZM223.37 2.68406C220.014 2.68406 217.156 5.10565 216.583 8.42474L184.765 218.341C184.115 222.125 186.645 225.707 190.388 226.35C190.767 226.418 191.155 226.452 191.552 226.452H476.198C479.461 226.427 482.285 224.073 482.892 220.838L515.815 24.944C516.742 19.9908 515.697 15.0037 512.881 10.8633C510.065 6.72286 505.807 3.93719 500.909 3.01428C499.804 2.8026 498.666 2.701 497.537 2.69253H223.37V2.68406Z" fill="#141414"/>
<path d="M497.865 1.33789H211.904C205.775 1.33789 200.539 5.76617 199.502 11.8371L166.638 227.79H468.492L504.939 9.90658C505.672 5.98632 503.109 2.21 499.206 1.4649C498.767 1.38023 498.312 1.33789 497.865 1.33789Z" fill="#2C6E9B"/>
<path d="M469.63 229.128H165.095L165.331 227.587L198.187 11.6338C199.342 4.88551 205.1 0 211.895 0H497.865C498.396 0 498.936 0.0508025 499.45 0.152407C501.693 0.575761 503.632 1.85429 504.914 3.74245C506.195 5.63061 506.676 7.90825 506.246 10.1605L469.622 229.136L469.63 229.128ZM168.198 226.444H467.37L503.624 9.68634C503.919 8.11146 503.59 6.54505 502.713 5.24959C501.828 3.95413 500.496 3.07355 498.961 2.78567C498.607 2.71793 498.236 2.68406 497.874 2.68406H211.904C206.407 2.68406 201.753 6.62972 200.826 12.0656L168.206 226.452L168.198 226.444Z" fill="#141414"/>
<path d="M490.041 17.4253H213.894L184.756 211.702H458.08L490.041 17.4253Z" fill="#0E394F"/>
<path d="M490.834 17.7217L489.325 25.7654H213.295L214.669 17.7217H490.834Z" fill="#062538"/>
<path d="M221.768 17.4253L192.622 211.702H184.613L213.759 17.4253H221.768Z" fill="#062538"/>
<path d="M253.165 38.9656H238.318L236.43 44.6131H252.432L253.165 38.9656Z" fill="#4CF58C"/>
<path d="M274.521 38.9656H258.342L256.445 44.6131H272.455L274.521 38.9656Z" fill="#4CF58C"/>
<path d="M293.204 38.9656H278.365L277.809 44.6131H291.138L293.204 38.9656Z" fill="#4CF58C"/>
<path d="M305.884 38.9656H300.387L298.49 44.6131H305.15L305.884 38.9656Z" fill="#4CF58C"/>
<path d="M233.808 38.9656H228.311L226.414 44.6131L232.526 44.7994L233.808 38.9656Z" fill="#4CF58C"/>
<path d="M250.492 51.031H235.654L233.757 56.6785H249.759L250.492 51.031Z" fill="#4CF58C"/>
<path d="M270.516 51.031H255.677L253.78 56.6785H269.782L270.516 51.031Z" fill="#4CF58C"/>
<path d="M290.539 51.031H275.693L275.136 56.6785H289.806L290.539 51.031Z" fill="#4CF58C"/>
<path d="M301.888 51.031H296.382L294.485 56.6785H301.146L301.888 51.031Z" fill="#4CF58C"/>
<path d="M231.143 51.031H225.638L223.749 56.6785H230.191L231.143 51.031Z" fill="#4CF58C"/>
<path d="M36.8012 226.444H341.496V254.597H47.1038C37.0204 254.597 28.8423 246.4 28.8339 236.274C28.8339 236.274 28.8339 236.265 28.8339 236.257V234.445C28.8592 230.034 32.4086 226.461 36.8012 226.444Z" fill="#19517F"/>
<path opacity="0.3" d="M341.496 243.877V254.605H47.0869C37.0035 254.605 28.8339 246.392 28.8255 236.265V234.454C28.8255 233.243 29.0953 232.049 29.6264 230.965C32.0124 238.636 39.086 243.86 47.0869 243.877H341.496Z" fill="#0E3964"/>
<path opacity="0.3" d="M472.319 218.408V226.444H166.883L167.995 218.408H472.319Z" fill="#0E3964"/>
<path d="M121.263 226.444H229.381C229.381 234.589 222.805 241.185 214.703 241.185H135.949C127.839 241.185 121.271 234.58 121.271 226.444H121.263Z" fill="#0E3964"/>
<path d="M214.695 242.531H135.941C127.105 242.531 119.922 235.317 119.922 226.444V225.106H230.705V226.444C230.705 235.317 223.522 242.531 214.686 242.531H214.695ZM122.662 227.79C123.337 234.555 129.036 239.855 135.941 239.855H214.695C221.599 239.855 227.307 234.555 227.973 227.79H122.662Z" fill="#141414"/>
<path d="M489.923 17.4253L457.962 211.702H184.689L486.172 17.4253H489.923Z" fill="#062538"/>
<path d="M498.587 74.6338L496.131 90.4712C495.931 91.7603 496.808 92.9678 498.089 93.1682C499.371 93.3686 500.571 92.4859 500.771 91.1968L503.227 75.3594C503.427 74.0703 502.55 72.8628 501.269 72.6625C499.987 72.4621 498.786 73.3447 498.587 74.6338Z" fill="#062C4C"/>
<path d="M503.209 44.8185L500.753 60.6558C500.553 61.945 501.43 63.1524 502.712 63.3528C503.993 63.5531 505.194 62.6705 505.394 61.3814L507.849 45.544C508.049 44.2549 507.172 43.0474 505.891 42.8471C504.609 42.6467 503.409 43.5293 503.209 44.8185Z" fill="#062C4C"/>
<path d="M178.281 231.465H162.321C161.022 231.465 159.969 232.52 159.969 233.823C159.969 235.125 161.022 236.181 162.321 236.181H178.281C179.58 236.181 180.633 235.125 180.633 233.823C180.633 232.52 179.58 231.465 178.281 231.465Z" fill="#141414"/>
<path d="M50.8303 226.528H83.2811C85.2455 226.528 86.8305 228.129 86.8305 230.093C86.8305 232.066 85.2371 233.658 83.2811 233.658H50.8303C48.8659 233.658 47.2809 232.057 47.2809 230.093C47.2809 228.12 48.8743 226.528 50.8303 226.528Z" fill="#2C6E9B"/>
<path d="M93.4235 233.658C95.3838 233.658 96.973 232.062 96.973 230.093C96.973 228.124 95.3838 226.528 93.4235 226.528C91.4632 226.528 89.8741 228.124 89.8741 230.093C89.8741 232.062 91.4632 233.658 93.4235 233.658Z" fill="#2C6E9B"/>
<path d="M181.426 152.805L186.434 120.605C186.737 118.658 188.55 117.328 190.489 117.633C192.428 117.938 193.752 119.758 193.448 121.706L188.441 153.906C188.137 155.854 186.324 157.183 184.385 156.878C182.446 156.573 181.122 154.753 181.426 152.805Z" fill="#4D9AC4"/>
<path d="M191.501 114.653C193.461 114.653 195.05 113.057 195.05 111.088C195.05 109.119 193.461 107.523 191.501 107.523C189.541 107.523 187.951 109.119 187.951 111.088C187.951 113.057 189.541 114.653 191.501 114.653Z" fill="#4D9AC4"/>
<path d="M252.794 5.35107H220.343C218.383 5.35107 216.794 6.94702 216.794 8.91571C216.794 10.8844 218.383 12.4804 220.343 12.4804H252.794C254.754 12.4804 256.343 10.8844 256.343 8.91571C256.343 6.94702 254.754 5.35107 252.794 5.35107Z" fill="#4D9AC4"/>
<path d="M262.937 12.4804C264.897 12.4804 266.486 10.8844 266.486 8.91571C266.486 6.94702 264.897 5.35107 262.937 5.35107C260.976 5.35107 259.387 6.94702 259.387 8.91571C259.387 10.8844 260.976 12.4804 262.937 12.4804Z" fill="#4D9AC4"/>
<path d="M328.15 13.3103C330.362 13.3103 332.155 11.5097 332.155 9.28847C332.155 7.06725 330.362 5.2666 328.15 5.2666C325.938 5.2666 324.145 7.06725 324.145 9.28847C324.145 11.5097 325.938 13.3103 328.15 13.3103Z" fill="#F95D5D"/>
<path d="M126.228 219.746H95.5312V226.452H126.228V219.746Z" fill="#033156"/>
<path d="M79.8834 219.746H49.1862V226.452H79.8834V219.746Z" fill="#033156"/>
<path d="M172.557 219.746H141.859V226.452H172.557V219.746Z" fill="#033156"/>
<path d="M218.902 219.746H188.204V226.452H218.902V219.746Z" fill="#033156"/>
<path d="M265.23 219.746H234.533V226.452H265.23V219.746Z" fill="#033156"/>
<path d="M311.575 219.746H280.878V226.452H311.575V219.746Z" fill="#033156"/>
<path d="M357.903 219.746H327.206V226.452H357.903V219.746Z" fill="#033156"/>
<path d="M450.947 219.746H420.25V226.452H450.947V219.746Z" fill="#033156"/>
<path d="M404.417 219.949H373.719V226.655H404.417V219.949Z" fill="#033156"/>
<path d="M127.56 227.79H94.1907V218.408H127.56V227.79ZM96.8633 225.106H124.896V221.084H96.8633V225.106Z" fill="#141414"/>
<path d="M81.2239 227.79H47.8542V218.408H81.2239V227.79ZM50.5268 225.106H78.5597V221.084H50.5183V225.106H50.5268Z" fill="#141414"/>
<path d="M173.889 227.79H140.519V218.408H173.889V227.79ZM143.192 225.106H171.224V221.084H143.192V225.106Z" fill="#141414"/>
<path d="M220.234 227.79H186.864V218.408H220.234V227.79ZM189.537 225.106H217.569V221.084H189.537V225.106Z" fill="#141414"/>
<path d="M266.562 227.79H233.192V218.408H266.562V227.79ZM235.865 225.106H263.898V221.084H235.865V225.106Z" fill="#141414"/>
<path d="M312.907 227.79H279.537V218.408H312.907V227.79ZM282.21 225.106H310.243V221.084H282.21V225.106Z" fill="#141414"/>
<path d="M359.235 227.79H325.865V218.408H359.235V227.79ZM328.538 225.106H356.571V221.084H328.538V225.106Z" fill="#141414"/>
<path d="M452.288 227.79H418.918V218.408H452.288V227.79ZM421.59 225.106H449.623V221.084H421.59V225.106Z" fill="#141414"/>
<path d="M405.757 227.993H372.387V218.612H405.757V227.993ZM375.06 225.309H403.093V221.287H375.06V225.309Z" fill="#141414"/>
<path d="M459.074 213.04H183.07L212.612 16.0874H491.483L459.074 213.049V213.04ZM186.173 210.356H456.807L488.33 18.763H214.914L186.181 210.356H186.173Z" fill="#141414"/>
<path d="M452.068 39.6343H337.281C331.64 39.6259 326.852 43.7663 326.017 49.363L314.871 123.628C313.935 129.876 318.218 135.693 324.432 136.633C324.997 136.718 325.562 136.76 326.135 136.76H439.894C445.475 136.769 450.239 132.721 451.149 127.192L463.374 52.9277C464.403 46.6959 460.204 40.8113 453.999 39.7868C453.358 39.6851 452.718 39.6259 452.068 39.6343Z" fill="white"/>
<path d="M463.163 52.953L450.947 127.201C450.036 132.721 445.281 136.769 439.709 136.769H325.958C320.596 136.769 315.959 133.018 314.812 127.76L451.571 39.6343H451.933C458.231 39.6427 463.324 44.7823 463.307 51.1072C463.307 51.7253 463.256 52.3434 463.155 52.953H463.163Z" fill="#F4F3F2"/>
<path d="M47.0869 255.934C41.8597 255.934 36.9445 253.894 33.2433 250.185C29.5421 246.468 27.5018 241.532 27.4934 236.274V234.453C27.5187 229.322 31.692 225.14 36.7927 225.114H342.837V255.943H47.0869V255.934ZM36.7927 227.781C33.1506 227.807 30.1744 230.796 30.1576 234.453V236.257C30.1576 240.812 31.9281 245.08 35.1234 248.289C38.3187 251.498 42.5679 253.259 47.0869 253.259H340.164V227.79H36.8012L36.7927 227.781Z" fill="#141414"/>
<path d="M327.484 226.444H482.319C490.058 226.444 496.331 232.743 496.331 240.516C496.331 248.289 490.058 254.588 482.319 254.588H327.484C319.744 254.588 313.472 248.289 313.472 240.516C313.472 232.743 319.744 226.444 327.484 226.444Z" fill="#0E3964"/>
<path d="M477.968 238.162H462.008C460.709 238.162 459.656 239.218 459.656 240.52C459.656 241.823 460.709 242.878 462.008 242.878H477.968C479.267 242.878 480.321 241.823 480.321 240.52C480.321 239.218 479.267 238.162 477.968 238.162Z" fill="#141414"/>
<path d="M447.903 238.162H431.944C430.645 238.162 429.591 239.218 429.591 240.52C429.591 241.823 430.645 242.878 431.944 242.878H447.903C449.203 242.878 450.256 241.823 450.256 240.52C450.256 239.218 449.203 238.162 447.903 238.162Z" fill="#141414"/>
<path d="M482.319 255.935H327.484C319.019 255.935 312.131 249.017 312.131 240.516C312.131 232.015 319.019 225.097 327.484 225.097H482.319C490.783 225.097 497.671 232.015 497.671 240.516C497.671 249.017 490.783 255.935 482.319 255.935ZM327.484 227.781C320.495 227.781 314.804 233.497 314.804 240.516C314.804 247.535 320.495 253.25 327.484 253.25H482.319C489.308 253.25 494.999 247.535 494.999 240.516C494.999 233.497 489.308 227.781 482.319 227.781H327.484Z" fill="#141414"/>
<path d="M87.2773 80.014C87.2352 80.014 87.193 80.014 87.1509 80.0055C86.7884 79.9377 86.5523 79.5821 86.6282 79.218L87.7916 73.2826C87.8591 72.9185 88.2132 72.6815 88.5757 72.7577C88.9382 72.8254 89.1743 73.181 89.0984 73.5451L87.935 79.4805C87.8759 79.8023 87.5893 80.0224 87.2773 80.0224V80.014Z" fill="white"/>
<path d="M88.8118 72.0041C89.2821 72.0041 89.6633 71.6212 89.6633 71.1489C89.6633 70.6766 89.2821 70.2937 88.8118 70.2937C88.3415 70.2937 87.9603 70.6766 87.9603 71.1489C87.9603 71.6212 88.3415 72.0041 88.8118 72.0041Z" fill="white"/>
<path d="M185.802 99.7592C185.228 99.7592 184.706 99.3867 184.528 98.8109L178.922 80.6321C177.43 75.8736 172.346 73.1557 167.582 74.5866L144.557 81.7667C143.858 81.9868 143.107 81.5889 142.888 80.8861C142.669 80.1834 143.065 79.4298 143.765 79.2096L166.807 72.0211C172.978 70.1668 179.554 73.6722 181.476 79.8277L187.083 98.0066C187.302 98.7093 186.906 99.4629 186.206 99.683C186.071 99.7254 185.945 99.7423 185.81 99.7423L185.802 99.7592Z" fill="#141414"/>
<path d="M119.357 89.5478C118.792 89.5478 118.261 89.1753 118.084 88.608C117.865 87.9052 118.261 87.1517 118.961 86.9315L134.221 82.173C134.921 81.9529 135.671 82.3508 135.89 83.0536C136.109 83.7564 135.713 84.5099 135.013 84.7301L119.753 89.4886C119.619 89.5309 119.492 89.5478 119.357 89.5478Z" fill="#141414"/>
<path d="M92.142 191.729C87.1003 191.729 82.4211 188.46 80.853 183.38L60.5259 117.532C58.6036 111.283 62.0941 104.628 68.3077 102.689L110.876 89.4294C111.575 89.2092 112.326 89.6072 112.545 90.3099C112.764 91.0212 112.368 91.7663 111.668 91.9864L69.1002 105.246C64.2861 106.745 61.5882 111.901 63.0805 116.736L83.4075 182.576C84.8998 187.41 90.0343 190.12 94.8484 188.621L174.934 163.677C175.634 163.457 176.384 163.855 176.603 164.558C176.823 165.269 176.426 166.014 175.727 166.234L95.6409 191.178C94.4774 191.542 93.3055 191.712 92.1505 191.712L92.142 191.729Z" fill="#141414"/>
<path d="M354.235 102.409H339.388L337.492 108.074H353.502L354.235 102.409Z" fill="#FBD766"/>
<path d="M375.591 102.409H359.412L357.532 108.074H373.517L375.591 102.409Z" fill="#FBD766"/>
<path d="M394.274 102.409H379.436L378.888 108.074H392.209L394.274 102.409Z" fill="#FBD766"/>
<path d="M406.954 102.409H401.457L399.577 108.074H406.221L406.954 102.409Z" fill="#FBD766"/>
<path d="M334.878 102.409H329.381L327.484 108.074L333.596 108.243L334.878 102.409Z" fill="#FBD766"/>
<path d="M351.563 114.475H336.724L334.827 120.131H350.829L351.563 114.475Z" fill="#FBD766"/>
<path d="M371.586 114.475H356.739L354.859 120.131H370.853L371.586 114.475Z" fill="#FBD766"/>
<path d="M391.61 114.475H376.763L376.215 120.131H390.876L391.61 114.475Z" fill="#FBD766"/>
<path d="M402.95 114.475H397.453L395.572 120.131H402.216L402.95 114.475Z" fill="#FBD766"/>
<path d="M332.214 114.475H326.708L324.811 120.131H331.261L332.214 114.475Z" fill="#FBD766"/>
<path d="M439.919 137.641H326.127C325.52 137.641 324.913 137.598 324.305 137.505C317.628 136.498 313.008 130.215 314.011 123.501L325.157 49.236C326.042 43.2582 331.244 38.7622 337.264 38.7622H452.068C452.76 38.7622 453.459 38.813 454.142 38.9231C460.811 40.0323 465.339 46.3741 464.234 53.0716L452.009 127.336C451.031 133.306 445.947 137.632 439.919 137.632V137.641ZM326.135 135.897H439.919C445.087 135.897 449.455 132.179 450.298 127.057L462.523 52.7922C463.467 47.043 459.58 41.5987 453.856 40.6504C453.266 40.5572 452.667 40.5149 452.077 40.5064H337.264C332.104 40.5064 327.636 44.3674 326.877 49.4985L315.731 123.763C314.871 129.521 318.834 134.914 324.567 135.778C325.09 135.854 325.638 135.871 326.135 135.897Z" fill="#141414"/>
</g>
<defs>
<clipPath id="clip0_11_10843">
<rect width="693" height="268" fill="white"/>
</clipPath>
</defs>
</svg>
