<svg width="232" height="201" viewBox="0 0 232 201" fill="none" xmlns="http://www.w3.org/2000/svg">
<g clip-path="url(#clip0_11_11102)">
<path d="M215.997 57.9805H25.9361C17.0978 57.9805 9.93298 65.1788 9.93298 74.0583V184.922C9.93298 193.802 17.0978 201 25.9361 201H215.997C224.835 201 232 193.802 232 184.922V74.0583C232 65.1788 224.835 57.9805 215.997 57.9805Z" fill="#ABBCD3"/>
<path d="M209.144 29.9739H11.2146C6.21054 29.9739 2.15393 34.0494 2.15393 39.0769V180.344C2.15393 185.371 6.21054 189.447 11.2146 189.447H209.144C214.148 189.447 218.204 185.371 218.204 180.344V39.0769C218.204 34.0494 214.148 29.9739 209.144 29.9739Z" fill="#193649"/>
<path d="M110.366 29.938L79.3923 189.5H66.718L97.6739 29.938H110.366Z" fill="#325F77"/>
<path d="M169.252 29.8308L138.474 189.393H108.942L139.916 29.8308H169.252Z" fill="#325F77"/>
<path d="M191.36 29.8308L160.387 189.393H147.695L178.668 29.8308H191.36Z" fill="#325F77"/>
<path d="M19.4209 163.694C18.8166 163.694 18.237 163.453 17.8097 163.023C17.3824 162.594 17.1423 162.012 17.1423 161.405V76.2223C17.1926 75.6524 17.4535 75.1221 17.8736 74.7358C18.2937 74.3495 18.8425 74.1353 19.412 74.1353C19.9814 74.1353 20.5303 74.3495 20.9503 74.7358C21.3704 75.1221 21.6313 75.6524 21.6816 76.2223V161.405C21.6839 161.704 21.6272 162.002 21.5146 162.279C21.4021 162.557 21.2359 162.809 21.0258 163.022C20.8156 163.235 20.5656 163.404 20.2901 163.519C20.0147 163.634 19.7192 163.694 19.4209 163.694Z" fill="#325F77"/>
<path d="M103.139 74.5233H30.2616C29.6903 74.5233 29.1425 74.2953 28.7385 73.8895C28.3346 73.4836 28.1077 72.9332 28.1077 72.3593C28.1077 71.7854 28.3346 71.235 28.7385 70.8291C29.1425 70.4233 29.6903 70.1953 30.2616 70.1953H103.139C103.71 70.1953 104.258 70.4233 104.662 70.8291C105.066 71.235 105.293 71.7854 105.293 72.3593C105.293 72.9332 105.066 73.4836 104.662 73.8895C104.258 74.2953 103.71 74.5233 103.139 74.5233Z" fill="#FEBC2E"/>
<path d="M76.9357 83.8409H30.2616C29.6903 83.8409 29.1425 83.6129 28.7385 83.2071C28.3346 82.8013 28.1077 82.2508 28.1077 81.6769C28.1077 81.103 28.3346 80.5526 28.7385 80.1468C29.1425 79.7409 29.6903 79.5129 30.2616 79.5129H76.9357C77.507 79.5129 78.0548 79.7409 78.4588 80.1468C78.8627 80.5526 79.0896 81.103 79.0896 81.6769C79.0896 82.2508 78.8627 82.8013 78.4588 83.2071C78.0548 83.6129 77.507 83.8409 76.9357 83.8409Z" fill="#FEBC2E"/>
<path d="M58.405 93.6235H30.2616C29.9635 93.6508 29.663 93.6154 29.3793 93.5195C29.0956 93.4236 28.8349 93.2693 28.6138 93.0666C28.3927 92.8638 28.2161 92.6169 28.0953 92.3418C27.9745 92.0666 27.9121 91.7692 27.9121 91.4684C27.9121 91.1677 27.9745 90.8702 28.0953 90.5951C28.2161 90.3199 28.3927 90.0731 28.6138 89.8703C28.8349 89.6675 29.0956 89.5133 29.3793 89.4174C29.663 89.3215 29.9635 89.2861 30.2616 89.3134H58.3872C58.6853 89.2861 58.9858 89.3215 59.2695 89.4174C59.5532 89.5133 59.8139 89.6675 60.035 89.8703C60.2561 90.0731 60.4327 90.3199 60.5535 90.5951C60.6743 90.8702 60.7367 91.1677 60.7367 91.4684C60.7367 91.7692 60.6743 92.0666 60.5535 92.3418C60.4327 92.6169 60.2561 92.8638 60.035 93.0666C59.8139 93.2693 59.5532 93.4236 59.2695 93.5195C58.9858 93.6154 58.6853 93.6508 58.3872 93.6235H58.405Z" fill="#FEBC2E"/>
<path d="M74.0699 93.6235H66.7181C66.4199 93.6508 66.1194 93.6154 65.8357 93.5195C65.552 93.4236 65.2913 93.2693 65.0702 93.0666C64.8491 92.8638 64.6726 92.6169 64.5517 92.3418C64.4309 92.0666 64.3685 91.7692 64.3685 91.4684C64.3685 91.1677 64.4309 90.8702 64.5517 90.5951C64.6726 90.3199 64.8491 90.0731 65.0702 89.8703C65.2913 89.6675 65.552 89.5133 65.8357 89.4174C66.1194 89.3215 66.4199 89.2861 66.7181 89.3134H74.0699C74.368 89.2861 74.6685 89.3215 74.9522 89.4174C75.2359 89.5133 75.4966 89.6675 75.7177 89.8703C75.9388 90.0731 76.1154 90.3199 76.2362 90.5951C76.357 90.8702 76.4194 91.1677 76.4194 91.4684C76.4194 91.7692 76.357 92.0666 76.2362 92.3418C76.1154 92.6169 75.9388 92.8638 75.7177 93.0666C75.4966 93.2693 75.2359 93.4236 74.9522 93.5195C74.6685 93.6154 74.368 93.6508 74.0699 93.6235Z" fill="#FEBC2E"/>
<path d="M94.3452 93.6235H84.3944C84.0963 93.6508 83.7958 93.6154 83.5121 93.5195C83.2284 93.4236 82.9677 93.2693 82.7466 93.0666C82.5255 92.8638 82.3489 92.6169 82.2281 92.3418C82.1073 92.0666 82.0449 91.7692 82.0449 91.4684C82.0449 91.1677 82.1073 90.8702 82.2281 90.5951C82.3489 90.3199 82.5255 90.0731 82.7466 89.8703C82.9677 89.6675 83.2284 89.5133 83.5121 89.4174C83.7958 89.3215 84.0963 89.2861 84.3944 89.3134H94.3452C94.6433 89.2861 94.9438 89.3215 95.2275 89.4174C95.5113 89.5133 95.772 89.6675 95.993 89.8703C96.2141 90.0731 96.3907 90.3199 96.5115 90.5951C96.6323 90.8702 96.6947 91.1677 96.6947 91.4684C96.6947 91.7692 96.6323 92.0666 96.5115 92.3418C96.3907 92.6169 96.2141 92.8638 95.993 93.0666C95.772 93.2693 95.5113 93.4236 95.2275 93.5195C94.9438 93.6154 94.6433 93.6508 94.3452 93.6235Z" fill="#FEBC2E"/>
<path d="M103.139 111.776H30.2616C29.6903 111.776 29.1425 111.548 28.7385 111.142C28.3346 110.736 28.1077 110.186 28.1077 109.612C28.1077 109.038 28.3346 108.488 28.7385 108.082C29.1425 107.676 29.6903 107.448 30.2616 107.448H103.139C103.71 107.448 104.258 107.676 104.662 108.082C105.066 108.488 105.293 109.038 105.293 109.612C105.293 110.186 105.066 110.736 104.662 111.142C104.258 111.548 103.71 111.776 103.139 111.776Z" fill="#FEBC2E"/>
<path d="M76.9357 121.094H30.2616C29.6903 121.094 29.1425 120.866 28.7385 120.46C28.3346 120.054 28.1077 119.504 28.1077 118.93C28.1077 118.356 28.3346 117.805 28.7385 117.399C29.1425 116.994 29.6903 116.766 30.2616 116.766H76.9357C77.507 116.766 78.0548 116.994 78.4588 117.399C78.8627 117.805 79.0896 118.356 79.0896 118.93C79.0896 119.504 78.8627 120.054 78.4588 120.46C78.0548 120.866 77.507 121.094 76.9357 121.094Z" fill="#FEBC2E"/>
<path d="M58.4049 130.876H30.2616C29.6903 130.876 29.1425 130.648 28.7385 130.242C28.3346 129.837 28.1077 129.286 28.1077 128.712C28.1077 128.138 28.3346 127.588 28.7385 127.182C29.1425 126.776 29.6903 126.548 30.2616 126.548H58.3871C58.9584 126.548 59.5062 126.776 59.9102 127.182C60.3141 127.588 60.541 128.138 60.541 128.712C60.541 129.286 60.3141 129.837 59.9102 130.242C59.5062 130.648 58.9584 130.876 58.3871 130.876H58.4049Z" fill="#FEBC2E"/>
<path d="M74.0698 130.876H66.718C66.1467 130.876 65.5989 130.648 65.195 130.242C64.791 129.837 64.5641 129.286 64.5641 128.712C64.5641 128.138 64.791 127.588 65.195 127.182C65.5989 126.776 66.1467 126.548 66.718 126.548H74.0698C74.6411 126.548 75.1889 126.776 75.5929 127.182C75.9968 127.588 76.2237 128.138 76.2237 128.712C76.2237 129.286 75.9968 129.837 75.5929 130.242C75.1889 130.648 74.6411 130.876 74.0698 130.876Z" fill="#FEBC2E"/>
<path d="M94.3451 130.876H84.3944C83.8231 130.876 83.2753 130.648 82.8713 130.242C82.4674 129.837 82.2405 129.286 82.2405 128.712C82.2405 128.138 82.4674 127.588 82.8713 127.182C83.2753 126.776 83.8231 126.548 84.3944 126.548H94.3451C94.9164 126.548 95.4642 126.776 95.8682 127.182C96.2721 127.588 96.4991 128.138 96.4991 128.712C96.4991 129.286 96.2721 129.837 95.8682 130.242C95.4642 130.648 94.9164 130.876 94.3451 130.876Z" fill="#FEBC2E"/>
<path d="M66.718 102.816H30.2616C29.9335 102.882 29.5948 102.875 29.2699 102.794C28.9451 102.712 28.6422 102.56 28.3832 102.347C28.1242 102.134 27.9155 101.866 27.7722 101.562C27.6289 101.258 27.5546 100.926 27.5546 100.589C27.5546 100.253 27.6289 99.921 27.7722 99.6171C27.9155 99.3131 28.1242 99.045 28.3832 98.832C28.6422 98.6189 28.9451 98.4663 29.2699 98.3852C29.5948 98.3041 29.9335 98.2964 30.2616 98.3628H66.718C67.3176 98.3628 67.8926 98.6021 68.3166 99.0281C68.7406 99.454 68.9787 100.032 68.9787 100.634C68.9787 101.236 68.7406 101.814 68.3166 102.24C67.8926 102.666 67.3176 102.905 66.718 102.905V102.816Z" fill="#325F77"/>
<path d="M103.139 140.051H30.2617C29.6621 140.051 29.0871 139.812 28.6631 139.386C28.2392 138.96 28.001 138.382 28.001 137.78C28.001 137.177 28.2392 136.6 28.6631 136.174C29.0871 135.748 29.6621 135.508 30.2617 135.508H103.139C103.738 135.508 104.313 135.748 104.737 136.174C105.161 136.6 105.4 137.177 105.4 137.78C105.4 138.382 105.161 138.96 104.737 139.386C104.313 139.812 103.738 140.051 103.139 140.051Z" fill="#FEBC2E"/>
<path d="M103.139 149.029H30.2616C29.6903 149.029 29.1425 148.801 28.7385 148.395C28.3346 147.989 28.1077 147.439 28.1077 146.865C28.1077 146.291 28.3346 145.74 28.7385 145.334C29.1425 144.929 29.6903 144.701 30.2616 144.701H103.139C103.71 144.701 104.258 144.929 104.662 145.334C105.066 145.74 105.293 146.291 105.293 146.865C105.293 147.439 105.066 147.989 104.662 148.395C104.258 148.801 103.71 149.029 103.139 149.029Z" fill="#FEBC2E"/>
<path d="M76.9357 158.328H30.2616C29.6903 158.328 29.1425 158.1 28.7385 157.695C28.3346 157.289 28.1077 156.738 28.1077 156.164C28.1077 155.591 28.3346 155.04 28.7385 154.634C29.1425 154.228 29.6903 154 30.2616 154H76.9357C77.507 154 78.0548 154.228 78.4588 154.634C78.8627 155.04 79.0896 155.591 79.0896 156.164C79.0896 156.738 78.8627 157.289 78.4588 157.695C78.0548 158.1 77.507 158.328 76.9357 158.328Z" fill="#FEBC2E"/>
<path d="M58.4049 168.111H30.2616C29.6903 168.111 29.1425 167.883 28.7385 167.477C28.3346 167.072 28.1077 166.521 28.1077 165.947C28.1077 165.373 28.3346 164.823 28.7385 164.417C29.1425 164.011 29.6903 163.783 30.2616 163.783H58.3871C58.9584 163.783 59.5062 164.011 59.9102 164.417C60.3141 164.823 60.541 165.373 60.541 165.947C60.541 166.521 60.3141 167.072 59.9102 167.477C59.5062 167.883 58.9584 168.111 58.3871 168.111H58.4049Z" fill="#FEBC2E"/>
<path d="M74.0698 168.111H66.718C66.1467 168.111 65.5989 167.883 65.195 167.477C64.791 167.072 64.5641 166.521 64.5641 165.947C64.5641 165.373 64.791 164.823 65.195 164.417C65.5989 164.011 66.1467 163.783 66.718 163.783H74.0698C74.6411 163.783 75.1889 164.011 75.5929 164.417C75.9968 164.823 76.2237 165.373 76.2237 165.947C76.2237 166.521 75.9968 167.072 75.5929 167.477C75.1889 167.883 74.6411 168.111 74.0698 168.111Z" fill="#FEBC2E"/>
<path d="M94.3451 168.111H84.3944C83.8231 168.111 83.2753 167.883 82.8713 167.477C82.4674 167.072 82.2405 166.521 82.2405 165.947C82.2405 165.373 82.4674 164.823 82.8713 164.417C83.2753 164.011 83.8231 163.783 84.3944 163.783H94.3451C94.9164 163.783 95.4642 164.011 95.8682 164.417C96.2721 164.823 96.4991 165.373 96.4991 165.947C96.4991 166.521 96.2721 167.072 95.8682 167.477C95.4642 167.883 94.9164 168.111 94.3451 168.111Z" fill="#FEBC2E"/>
<path d="M200.475 157.381H163.092C162.786 157.381 162.491 157.258 162.274 157.04C162.057 156.822 161.935 156.526 161.935 156.218C161.935 155.91 162.057 155.614 162.274 155.396C162.491 155.178 162.786 155.056 163.092 155.056H200.475C200.781 155.056 201.076 155.178 201.293 155.396C201.51 155.614 201.632 155.91 201.632 156.218C201.632 156.526 201.51 156.822 201.293 157.04C201.076 157.258 200.781 157.381 200.475 157.381Z" fill="#FEBC2E"/>
<path d="M187.035 162.102H163.11C162.803 162.102 162.509 161.98 162.292 161.762C162.075 161.544 161.953 161.248 161.953 160.94C161.953 160.631 162.075 160.336 162.292 160.118C162.509 159.9 162.803 159.777 163.11 159.777H187.035C187.342 159.777 187.636 159.9 187.853 160.118C188.07 160.336 188.192 160.631 188.192 160.94C188.192 161.248 188.07 161.544 187.853 161.762C187.636 161.98 187.342 162.102 187.035 162.102Z" fill="#FEBC2E"/>
<path d="M177.529 167.127H163.11C162.803 167.127 162.509 167.005 162.292 166.787C162.075 166.569 161.953 166.273 161.953 165.965C161.953 165.657 162.075 165.361 162.292 165.143C162.509 164.925 162.803 164.802 163.11 164.802H177.529C177.836 164.802 178.13 164.925 178.347 165.143C178.564 165.361 178.686 165.657 178.686 165.965C178.686 166.273 178.564 166.569 178.347 166.787C178.13 167.005 177.836 167.127 177.529 167.127Z" fill="#FEBC2E"/>
<path d="M185.557 167.127H181.801C181.494 167.127 181.2 167.005 180.983 166.787C180.766 166.569 180.644 166.273 180.644 165.965C180.644 165.657 180.766 165.361 180.983 165.143C181.2 164.925 181.494 164.802 181.801 164.802H185.557C185.864 164.802 186.158 164.925 186.375 165.143C186.592 165.361 186.714 165.657 186.714 165.965C186.714 166.273 186.592 166.569 186.375 166.787C186.158 167.005 185.864 167.127 185.557 167.127Z" fill="#FEBC2E"/>
<path d="M195.989 167.127H190.862C190.555 167.127 190.261 167.005 190.044 166.787C189.827 166.569 189.705 166.273 189.705 165.965C189.705 165.657 189.827 165.361 190.044 165.143C190.261 164.925 190.555 164.802 190.862 164.802H195.989C196.295 164.802 196.59 164.925 196.807 165.143C197.024 165.361 197.146 165.657 197.146 165.965C197.146 166.273 197.024 166.569 196.807 166.787C196.59 167.005 196.295 167.127 195.989 167.127Z" fill="#FEBC2E"/>
<path d="M200.475 136.116H163.092C162.941 136.116 162.79 136.086 162.65 136.028C162.509 135.969 162.382 135.884 162.274 135.776C162.167 135.668 162.082 135.54 162.023 135.399C161.965 135.258 161.935 135.106 161.935 134.954C161.935 134.644 162.057 134.346 162.273 134.125C162.49 133.905 162.784 133.778 163.092 133.773H200.475C200.783 133.778 201.077 133.905 201.294 134.125C201.51 134.346 201.632 134.644 201.632 134.954C201.632 135.106 201.602 135.258 201.543 135.399C201.485 135.54 201.4 135.668 201.293 135.776C201.185 135.884 201.058 135.969 200.917 136.028C200.777 136.086 200.626 136.116 200.475 136.116Z" fill="#FEBC2E"/>
<path d="M187.035 140.891H163.11C162.802 140.887 162.508 140.76 162.291 140.539C162.075 140.319 161.953 140.021 161.953 139.711C161.953 139.558 161.983 139.407 162.041 139.266C162.099 139.125 162.185 138.997 162.292 138.889C162.4 138.781 162.527 138.695 162.668 138.637C162.808 138.579 162.958 138.549 163.11 138.549H187.035C187.187 138.549 187.337 138.579 187.478 138.637C187.618 138.695 187.746 138.781 187.853 138.889C187.96 138.997 188.046 139.125 188.104 139.266C188.162 139.407 188.192 139.558 188.192 139.711C188.192 140.021 188.071 140.319 187.854 140.539C187.638 140.76 187.343 140.887 187.035 140.891Z" fill="#FEBC2E"/>
<path d="M177.529 145.899H163.11C162.803 145.899 162.509 145.776 162.292 145.558C162.075 145.34 161.953 145.045 161.953 144.736C161.953 144.428 162.075 144.132 162.292 143.914C162.509 143.696 162.803 143.574 163.11 143.574H177.529C177.836 143.574 178.13 143.696 178.347 143.914C178.564 144.132 178.686 144.428 178.686 144.736C178.686 145.045 178.564 145.34 178.347 145.558C178.13 145.776 177.836 145.899 177.529 145.899Z" fill="#FEBC2E"/>
<path d="M185.557 145.899H181.801C181.494 145.899 181.2 145.776 180.983 145.558C180.766 145.34 180.644 145.045 180.644 144.736C180.644 144.428 180.766 144.132 180.983 143.914C181.2 143.696 181.494 143.574 181.801 143.574H185.557C185.864 143.574 186.158 143.696 186.375 143.914C186.592 144.132 186.714 144.428 186.714 144.736C186.714 145.045 186.592 145.34 186.375 145.558C186.158 145.776 185.864 145.899 185.557 145.899Z" fill="#FEBC2E"/>
<path d="M195.989 145.899H190.862C190.555 145.899 190.261 145.776 190.044 145.558C189.827 145.34 189.705 145.045 189.705 144.736C189.705 144.428 189.827 144.132 190.044 143.914C190.261 143.696 190.555 143.574 190.862 143.574H195.989C196.295 143.574 196.59 143.696 196.807 143.914C197.024 144.132 197.146 144.428 197.146 144.736C197.146 145.045 197.024 145.34 196.807 145.558C196.59 145.776 196.295 145.899 195.989 145.899Z" fill="#FEBC2E"/>
<path d="M200.475 93.6773H163.092C162.784 93.6726 162.49 93.5462 162.273 93.3253C162.057 93.1045 161.935 92.8069 161.935 92.4969C161.935 92.1886 162.057 91.893 162.274 91.675C162.491 91.4569 162.786 91.3345 163.092 91.3345H200.475C200.781 91.3345 201.076 91.4569 201.293 91.675C201.51 91.893 201.632 92.1886 201.632 92.4969C201.632 92.8069 201.51 93.1045 201.294 93.3253C201.077 93.5462 200.783 93.6726 200.475 93.6773Z" fill="#FEBC2E"/>
<path d="M187.035 98.3628H163.11C162.803 98.3628 162.509 98.2403 162.292 98.0223C162.075 97.8043 161.953 97.5086 161.953 97.2003C161.953 96.892 162.075 96.5963 162.292 96.3783C162.509 96.1603 162.803 96.0378 163.11 96.0378H187.035C187.342 96.0378 187.636 96.1603 187.853 96.3783C188.07 96.5963 188.192 96.892 188.192 97.2003C188.192 97.5086 188.07 97.8043 187.853 98.0223C187.636 98.2403 187.342 98.3628 187.035 98.3628Z" fill="#FEBC2E"/>
<path d="M177.529 103.46H163.11C162.803 103.46 162.509 103.337 162.292 103.119C162.075 102.901 161.953 102.606 161.953 102.297C161.953 101.989 162.075 101.693 162.292 101.475C162.509 101.257 162.803 101.135 163.11 101.135H177.529C177.836 101.135 178.13 101.257 178.347 101.475C178.564 101.693 178.686 101.989 178.686 102.297C178.686 102.606 178.564 102.901 178.347 103.119C178.13 103.337 177.836 103.46 177.529 103.46Z" fill="#FEBC2E"/>
<path d="M185.557 103.46H181.801C181.494 103.46 181.2 103.337 180.983 103.119C180.766 102.901 180.644 102.606 180.644 102.297C180.644 101.989 180.766 101.693 180.983 101.475C181.2 101.257 181.494 101.135 181.801 101.135H185.557C185.864 101.135 186.158 101.257 186.375 101.475C186.592 101.693 186.714 101.989 186.714 102.297C186.714 102.606 186.592 102.901 186.375 103.119C186.158 103.337 185.864 103.46 185.557 103.46Z" fill="#FEBC2E"/>
<path d="M195.989 103.46H190.862C190.555 103.46 190.261 103.337 190.044 103.119C189.827 102.901 189.705 102.606 189.705 102.297C189.705 101.989 189.827 101.693 190.044 101.475C190.261 101.257 190.555 101.135 190.862 101.135H195.989C196.295 101.135 196.59 101.257 196.807 101.475C197.024 101.693 197.146 101.989 197.146 102.297C197.146 102.606 197.024 102.901 196.807 103.119C196.59 103.337 196.295 103.46 195.989 103.46Z" fill="#FEBC2E"/>
<path d="M200.475 114.888H163.092C162.786 114.888 162.491 114.765 162.274 114.547C162.057 114.329 161.935 114.034 161.935 113.725C161.935 113.417 162.057 113.121 162.274 112.903C162.491 112.685 162.786 112.563 163.092 112.563H200.475C200.781 112.563 201.076 112.685 201.293 112.903C201.51 113.121 201.632 113.417 201.632 113.725C201.632 114.034 201.51 114.329 201.293 114.547C201.076 114.765 200.781 114.888 200.475 114.888Z" fill="#FEBC2E"/>
<path d="M187.035 119.663H163.11C162.803 119.663 162.509 119.54 162.292 119.322C162.075 119.104 161.953 118.809 161.953 118.5C161.953 118.192 162.075 117.896 162.292 117.678C162.509 117.46 162.803 117.338 163.11 117.338H187.035C187.342 117.338 187.636 117.46 187.853 117.678C188.07 117.896 188.192 118.192 188.192 118.5C188.192 118.809 188.07 119.104 187.853 119.322C187.636 119.54 187.342 119.663 187.035 119.663Z" fill="#FEBC2E"/>
<path d="M177.529 124.688H163.11C162.826 124.653 162.564 124.514 162.374 124.299C162.184 124.083 162.08 123.805 162.08 123.517C162.08 123.229 162.184 122.951 162.374 122.735C162.564 122.52 162.826 122.381 163.11 122.346H177.529C177.694 122.325 177.862 122.34 178.021 122.389C178.18 122.439 178.327 122.522 178.451 122.633C178.576 122.743 178.676 122.879 178.744 123.032C178.813 123.184 178.848 123.35 178.848 123.517C178.848 123.684 178.813 123.85 178.744 124.002C178.676 124.155 178.576 124.291 178.451 124.401C178.327 124.512 178.18 124.595 178.021 124.645C177.862 124.694 177.694 124.709 177.529 124.688Z" fill="#FEBC2E"/>
<path d="M185.557 124.688H181.801C181.636 124.709 181.468 124.694 181.309 124.645C181.15 124.595 181.004 124.512 180.879 124.401C180.754 124.291 180.654 124.155 180.586 124.002C180.517 123.85 180.482 123.684 180.482 123.517C180.482 123.35 180.517 123.184 180.586 123.032C180.654 122.879 180.754 122.743 180.879 122.633C181.004 122.522 181.15 122.439 181.309 122.389C181.468 122.34 181.636 122.325 181.801 122.346H185.557C185.722 122.325 185.89 122.34 186.049 122.389C186.208 122.439 186.355 122.522 186.48 122.633C186.604 122.743 186.704 122.879 186.773 123.032C186.841 123.184 186.876 123.35 186.876 123.517C186.876 123.684 186.841 123.85 186.773 124.002C186.704 124.155 186.604 124.291 186.48 124.401C186.355 124.512 186.208 124.595 186.049 124.645C185.89 124.694 185.722 124.709 185.557 124.688Z" fill="#FEBC2E"/>
<path d="M195.989 124.688H190.862C190.578 124.653 190.316 124.514 190.126 124.299C189.936 124.083 189.831 123.805 189.831 123.517C189.831 123.229 189.936 122.951 190.126 122.735C190.316 122.519 190.578 122.381 190.862 122.345H195.989C196.273 122.381 196.535 122.519 196.725 122.735C196.914 122.951 197.019 123.229 197.019 123.517C197.019 123.805 196.914 124.083 196.725 124.299C196.535 124.514 196.273 124.653 195.989 124.688Z" fill="#FEBC2E"/>
<path d="M200.475 72.4487H163.092C162.941 72.4487 162.79 72.4187 162.65 72.3602C162.509 72.3018 162.382 72.2162 162.274 72.1082C162.167 72.0003 162.082 71.8721 162.023 71.7311C161.965 71.5901 161.935 71.4389 161.935 71.2863C161.935 71.1336 161.965 70.9824 162.023 70.8414C162.082 70.7004 162.167 70.5722 162.274 70.4643C162.382 70.3563 162.509 70.2707 162.65 70.2123C162.79 70.1539 162.941 70.1238 163.092 70.1238H200.475C200.781 70.1238 201.076 70.2463 201.293 70.4643C201.51 70.6823 201.632 70.9779 201.632 71.2863C201.632 71.5946 201.51 71.8902 201.293 72.1082C201.076 72.3262 200.781 72.4487 200.475 72.4487Z" fill="#FEBC2E"/>
<path d="M187.035 77.2237H163.11C162.803 77.2237 162.509 77.1012 162.292 76.8832C162.075 76.6652 161.953 76.3695 161.953 76.0612C161.953 75.7512 162.075 75.4537 162.291 75.2328C162.508 75.012 162.802 74.8856 163.11 74.8809H187.035C187.343 74.8856 187.638 75.012 187.854 75.2328C188.071 75.4537 188.192 75.7512 188.192 76.0612C188.192 76.3695 188.07 76.6652 187.853 76.8832C187.636 77.1012 187.342 77.2237 187.035 77.2237Z" fill="#FEBC2E"/>
<path d="M177.529 82.2671H163.11C162.958 82.2671 162.808 82.237 162.668 82.1786C162.527 82.1202 162.4 82.0345 162.292 81.9266C162.185 81.8187 162.099 81.6905 162.041 81.5495C161.983 81.4084 161.953 81.2573 161.953 81.1046C161.953 80.9519 161.983 80.8008 162.041 80.6598C162.099 80.5187 162.185 80.3906 162.292 80.2826C162.4 80.1747 162.527 80.089 162.668 80.0306C162.808 79.9722 162.958 79.9421 163.11 79.9421H177.529C177.681 79.9421 177.831 79.9722 177.972 80.0306C178.112 80.089 178.24 80.1747 178.347 80.2826C178.455 80.3906 178.54 80.5187 178.598 80.6598C178.656 80.8008 178.686 80.9519 178.686 81.1046C178.686 81.2573 178.656 81.4084 178.598 81.5495C178.54 81.6905 178.455 81.8187 178.347 81.9266C178.24 82.0345 178.112 82.1202 177.972 82.1786C177.831 82.237 177.681 82.2671 177.529 82.2671Z" fill="#FEBC2E"/>
<path d="M185.557 82.2671H181.801C181.649 82.2671 181.499 82.237 181.358 82.1786C181.218 82.1202 181.09 82.0345 180.983 81.9266C180.876 81.8187 180.79 81.6905 180.732 81.5495C180.674 81.4084 180.644 81.2573 180.644 81.1046C180.644 80.9519 180.674 80.8008 180.732 80.6598C180.79 80.5187 180.876 80.3906 180.983 80.2826C181.09 80.1747 181.218 80.089 181.358 80.0306C181.499 79.9722 181.649 79.9421 181.801 79.9421H185.557C185.709 79.9421 185.86 79.9722 186 80.0306C186.14 80.089 186.268 80.1747 186.375 80.2826C186.483 80.3906 186.568 80.5187 186.626 80.6598C186.684 80.8008 186.714 80.9519 186.714 81.1046C186.714 81.2573 186.684 81.4084 186.626 81.5495C186.568 81.6905 186.483 81.8187 186.375 81.9266C186.268 82.0345 186.14 82.1202 186 82.1786C185.86 82.237 185.709 82.2671 185.557 82.2671Z" fill="#FEBC2E"/>
<path d="M195.989 82.2671H190.862C190.555 82.2671 190.261 82.1446 190.044 81.9266C189.827 81.7086 189.705 81.4129 189.705 81.1046C189.705 80.7963 189.827 80.5006 190.044 80.2826C190.261 80.0646 190.555 79.9421 190.862 79.9421H195.989C196.141 79.9421 196.291 79.9722 196.431 80.0306C196.572 80.089 196.699 80.1747 196.807 80.2826C196.914 80.3906 196.999 80.5187 197.058 80.6598C197.116 80.8008 197.146 80.9519 197.146 81.1046C197.146 81.2573 197.116 81.4084 197.058 81.5495C196.999 81.6905 196.914 81.8187 196.807 81.9266C196.699 82.0345 196.572 82.1202 196.431 82.1786C196.291 82.237 196.141 82.2671 195.989 82.2671Z" fill="#FEBC2E"/>
<path d="M19.403 44.1023C21.3988 44.1023 23.0166 42.4769 23.0166 40.4718C23.0166 38.4667 21.3988 36.8413 19.403 36.8413C17.4073 36.8413 15.7894 38.4667 15.7894 40.4718C15.7894 42.4769 17.4073 44.1023 19.403 44.1023Z" fill="#FF5F57"/>
<path d="M30.7066 44.1023C32.7023 44.1023 34.3202 42.4769 34.3202 40.4718C34.3202 38.4667 32.7023 36.8413 30.7066 36.8413C28.7109 36.8413 27.093 38.4667 27.093 40.4718C27.093 42.4769 28.7109 44.1023 30.7066 44.1023Z" fill="#FEBC2E"/>
<path d="M41.9925 44.1023C43.9882 44.1023 45.6061 42.4769 45.6061 40.4718C45.6061 38.4667 43.9882 36.8413 41.9925 36.8413C39.9968 36.8413 38.3789 38.4667 38.3789 40.4718C38.3789 42.4769 39.9968 44.1023 41.9925 44.1023Z" fill="#29C940"/>
<path d="M209.144 191.611H11.2146C8.24339 191.611 5.39361 190.426 3.29097 188.317C1.18833 186.208 0.00471622 183.347 0 180.362L0 39.0768C0.00470762 36.0901 1.18776 33.227 3.28988 31.1151C5.39201 29.0031 8.24176 27.8145 11.2146 27.8098H209.144C212.116 27.8145 214.966 29.0031 217.068 31.1151C219.17 33.227 220.353 36.0901 220.358 39.0768V180.362C220.353 183.347 219.17 186.208 217.067 188.317C214.965 190.426 212.115 191.611 209.144 191.611ZM11.2146 32.1914C10.3076 32.1914 9.40947 32.3709 8.5715 32.7196C7.73353 33.0684 6.97213 33.5795 6.33078 34.2238C5.03551 35.5252 4.30783 37.2901 4.30783 39.1305V180.415C4.31255 182.253 5.0423 184.013 6.33706 185.31C7.63183 186.608 9.3859 187.336 11.2146 187.336H209.144C210.972 187.336 212.726 186.608 214.021 185.31C215.316 184.013 216.046 182.253 216.05 180.415V39.1305C216.05 37.2901 215.323 35.5252 214.027 34.2238C212.732 32.9225 210.975 32.1914 209.144 32.1914H11.2146Z" fill="#000201"/>
<path d="M51.3735 53.1516H3.43554C3.08145 53.1516 2.74187 53.0103 2.4915 52.7588C2.24112 52.5072 2.10046 52.166 2.10046 51.8103C2.10046 51.4546 2.24112 51.1134 2.4915 50.8619C2.74187 50.6103 3.08145 50.469 3.43554 50.469H51.3735C51.7276 50.469 52.0672 50.6103 52.3176 50.8619C52.568 51.1134 52.7086 51.4546 52.7086 51.8103C52.7086 52.166 52.568 52.5072 52.3176 52.7588C52.0672 53.0103 51.7276 53.1516 51.3735 53.1516Z" fill="#000201"/>
<path d="M216.549 53.1516H63.7274C63.3733 53.1516 63.0337 53.0103 62.7834 52.7588C62.533 52.5072 62.3923 52.166 62.3923 51.8103C62.3923 51.4546 62.533 51.1134 62.7834 50.8619C63.0337 50.6103 63.3733 50.469 63.7274 50.469H216.549C216.903 50.469 217.242 50.6103 217.493 50.8619C217.743 51.1134 217.884 51.4546 217.884 51.8103C217.884 52.166 217.743 52.5072 217.493 52.7588C217.242 53.0103 216.903 53.1516 216.549 53.1516Z" fill="#000201"/>
<path opacity="0.45" d="M179.95 1.60962H92.5472C90.3352 1.60962 88.542 3.4112 88.542 5.63355V68.0135C88.542 70.2358 90.3352 72.0374 92.5472 72.0374H179.95C182.162 72.0374 183.955 70.2358 183.955 68.0135V5.63355C183.955 3.4112 182.162 1.60962 179.95 1.60962Z" fill="white"/>
<path d="M183.208 17.2225H112.52C112.122 17.1804 111.753 16.9918 111.486 16.6929C111.218 16.394 111.07 16.0062 111.07 15.604C111.07 15.2019 111.218 14.814 111.486 14.5151C111.753 14.2163 112.122 14.0276 112.52 13.9855H183.208C183.433 13.9616 183.662 13.9857 183.877 14.0562C184.093 14.1266 184.292 14.2419 184.461 14.3945C184.63 14.5471 184.765 14.7336 184.857 14.942C184.949 15.1504 184.997 15.3759 184.997 15.604C184.997 15.8321 184.949 16.0577 184.857 16.266C184.765 16.4744 184.63 16.6609 184.461 16.8135C184.292 16.9662 184.093 17.0814 183.877 17.1519C183.662 17.2223 183.433 17.2464 183.208 17.2225Z" fill="#000201"/>
<path d="M96.1608 10.2655C97.0456 10.2655 97.7629 9.5449 97.7629 8.65596C97.7629 7.76702 97.0456 7.04639 96.1608 7.04639C95.276 7.04639 94.5587 7.76702 94.5587 8.65596C94.5587 9.5449 95.276 10.2655 96.1608 10.2655Z" fill="#FF5F57"/>
<path d="M101.145 10.2655C102.03 10.2655 102.747 9.5449 102.747 8.65596C102.747 7.76702 102.03 7.04639 101.145 7.04639C100.26 7.04639 99.543 7.76702 99.543 8.65596C99.543 9.5449 100.26 10.2655 101.145 10.2655Z" fill="#FEBC2E"/>
<path d="M106.129 10.2655C107.014 10.2655 107.731 9.5449 107.731 8.65596C107.731 7.76702 107.014 7.04639 106.129 7.04639C105.244 7.04639 104.527 7.76702 104.527 8.65596C104.527 9.5449 105.244 10.2655 106.129 10.2655Z" fill="#29C940"/>
<path d="M166.047 1.62744L152.447 72.0374H139.435L153.088 1.62744H166.047Z" fill="white"/>
<path d="M175.802 1.62744L162.131 72.0374H156.542L170.195 1.62744H175.802Z" fill="white"/>
<path d="M102.925 17.2225H89.0939C88.6958 17.1804 88.3273 16.9918 88.0595 16.6929C87.7917 16.394 87.6436 16.0062 87.6436 15.604C87.6436 15.2019 87.7917 14.814 88.0595 14.5151C88.3273 14.2163 88.6958 14.0276 89.0939 13.9855H102.925C103.151 13.9616 103.379 13.9857 103.595 14.0562C103.811 14.1266 104.01 14.2419 104.179 14.3945C104.347 14.5471 104.482 14.7336 104.575 14.942C104.667 15.1504 104.715 15.3759 104.715 15.604C104.715 15.8321 104.667 16.0577 104.575 16.266C104.482 16.4744 104.347 16.6609 104.179 16.8135C104.01 16.9662 103.811 17.0814 103.595 17.1519C103.379 17.2223 103.151 17.2464 102.925 17.2225Z" fill="#000201"/>
<path d="M179.95 73.6648H92.565C91.8203 73.6673 91.0826 73.5211 90.3945 73.2348C89.7065 72.9485 89.0819 72.5278 88.5569 71.997C88.032 71.4663 87.6172 70.8362 87.3366 70.1431C87.0559 69.4501 86.9151 68.708 86.9221 67.9598V5.63354C86.9245 4.89138 87.0723 4.15696 87.3571 3.4722C87.642 2.78744 88.0583 2.16575 88.5823 1.64263C89.1063 1.11951 89.7277 0.705201 90.411 0.423363C91.0944 0.141526 91.8263 -0.00232391 92.565 2.83896e-05H179.986C181.471 0.00474453 182.895 0.599788 183.945 1.65525C184.996 2.71072 185.588 4.14089 185.593 5.63354V67.9598C185.6 68.708 185.459 69.4501 185.178 70.1431C184.898 70.8362 184.483 71.4663 183.958 71.997C183.433 72.5278 182.809 72.9485 182.12 73.2348C181.432 73.5211 180.695 73.6673 179.95 73.6648ZM92.565 3.23706C91.9324 3.23706 91.3257 3.48955 90.8784 3.93897C90.431 4.3884 90.1797 4.99795 90.1797 5.63354V67.9598C90.1702 68.2805 90.2248 68.5998 90.3404 68.8989C90.456 69.1979 90.6302 69.4706 90.8527 69.7008C91.0751 69.931 91.3413 70.1139 91.6355 70.2388C91.9296 70.3637 92.2457 70.428 92.565 70.4278H179.986C180.302 70.4232 180.614 70.3555 180.904 70.2285C181.194 70.1015 181.456 69.9178 181.675 69.6881C181.893 69.4584 182.064 69.1873 182.178 68.8906C182.291 68.5939 182.345 68.2775 182.335 67.9598V5.63354C182.335 4.99795 182.084 4.3884 181.637 3.93897C181.189 3.48955 180.583 3.23706 179.95 3.23706H92.565Z" fill="#000201"/>
</g>
<defs>
<clipPath id="clip0_11_11102">
<rect width="232" height="201" fill="white"/>
</clipPath>
</defs>
</svg>
