<svg width="244" height="177" viewBox="0 0 244 177" fill="none" xmlns="http://www.w3.org/2000/svg">
<path d="M228.644 28.9062H46.2721C37.7914 28.9062 30.9164 35.7988 30.9164 44.3013V150.457C30.9164 158.959 37.7914 165.852 46.2721 165.852H228.644C237.125 165.852 244 158.959 244 150.457V44.3013C244 35.7988 237.125 28.9062 228.644 28.9062Z" fill="#ABBCD3"/>
<path d="M222.717 2.07202H32.7952C27.9936 2.07202 24.1011 5.9745 24.1011 10.7884V146.056C24.1011 150.87 27.9936 154.772 32.7952 154.772H222.717C227.519 154.772 231.411 150.87 231.411 146.056V10.7884C231.411 5.9745 227.519 2.07202 222.717 2.07202Z" fill="#4C5389"/>
<path d="M24.1011 84.1162H231.394V148.847C231.394 149.627 231.241 150.399 230.943 151.119C230.645 151.839 230.208 152.493 229.657 153.043C229.107 153.593 228.453 154.03 227.734 154.326C227.015 154.623 226.245 154.775 225.467 154.772H30.011C28.4436 154.772 26.9404 154.148 25.8321 153.037C24.7237 151.926 24.1011 150.419 24.1011 148.847V84.1162Z" fill="#2E3A6D"/>
<path d="M129.097 2.02075L99.3935 154.824H87.2148L116.936 2.02075H129.097Z" fill="#3B447A"/>
<path d="M185.618 1.91797L156.068 154.721H127.748L157.468 1.91797H185.618Z" fill="#3B447A"/>
<path d="M206.815 1.91797L177.094 154.721H164.933L194.653 1.91797H206.815Z" fill="#3B447A"/>
<path d="M40.6524 130.147C40.0771 130.147 39.5253 129.918 39.1185 129.51C38.7117 129.102 38.4832 128.549 38.4832 127.972V46.3391C38.4832 45.7623 38.7117 45.2092 39.1185 44.8013C39.5253 44.3934 40.0771 44.1643 40.6524 44.1643C41.2277 44.1643 41.7795 44.3934 42.1863 44.8013C42.5931 45.2092 42.8217 45.7623 42.8217 46.3391V127.921C42.8285 128.211 42.7775 128.499 42.6715 128.769C42.5656 129.039 42.4069 129.285 42.2047 129.492C42.0026 129.699 41.7612 129.864 41.4946 129.977C41.228 130.089 40.9417 130.147 40.6524 130.147Z" fill="#6773BA"/>
<path d="M121.001 44.7296H51.0889C50.5407 44.7296 50.015 44.5113 49.6274 44.1227C49.2398 43.7341 49.0221 43.2071 49.0221 42.6575C49.0221 42.108 49.2398 41.5809 49.6274 41.1923C50.015 40.8038 50.5407 40.5854 51.0889 40.5854H121.001C121.549 40.5854 122.075 40.8038 122.462 41.1923C122.85 41.5809 123.068 42.108 123.068 42.6575C123.068 43.2071 122.85 43.7341 122.462 44.1227C122.075 44.5113 121.549 44.7296 121.001 44.7296Z" fill="#61FC54"/>
<path d="M95.8578 53.6515H51.0889C50.5407 53.6515 50.015 53.4332 49.6274 53.0446C49.2398 52.656 49.0221 52.129 49.0221 51.5794C49.0221 51.0299 49.2398 50.5028 49.6274 50.1142C50.015 49.7256 50.5407 49.5073 51.0889 49.5073H95.8578C96.4059 49.5073 96.9316 49.7256 97.3192 50.1142C97.7068 50.5028 97.9246 51.0299 97.9246 51.5794C97.9246 52.129 97.7068 52.656 97.3192 53.0446C96.9316 53.4332 96.4059 53.6515 95.8578 53.6515Z" fill="#F70D67"/>
<path d="M78.0766 63.0187H51.0889C50.5407 63.0187 50.015 62.8004 49.6274 62.4118C49.2398 62.0232 49.0221 61.4961 49.0221 60.9466C49.0221 60.397 49.2398 59.87 49.6274 59.4814C50.015 59.0928 50.5407 58.8745 51.0889 58.8745H78.0766C78.6248 58.8745 79.1505 59.0928 79.5381 59.4814C79.9257 59.87 80.1434 60.397 80.1434 60.9466C80.1434 61.4961 79.9257 62.0232 79.5381 62.4118C79.1505 62.8004 78.6248 63.0187 78.0766 63.0187Z" fill="#859CFF"/>
<path d="M93.0907 63.0187H86.0363C85.4881 63.0187 84.9624 62.8004 84.5748 62.4118C84.1872 62.0232 83.9695 61.4961 83.9695 60.9466C83.9695 60.397 84.1872 59.87 84.5748 59.4814C84.9624 59.0928 85.4881 58.8745 86.0363 58.8745H93.0907C93.6388 58.8745 94.1645 59.0928 94.5521 59.4814C94.9397 59.87 95.1574 60.397 95.1574 60.9466C95.1574 61.4961 94.9397 62.0232 94.5521 62.4118C94.1645 62.8004 93.6388 63.0187 93.0907 63.0187Z" fill="#859CFF"/>
<path d="M112.614 63.0187H103.015C102.467 63.0187 101.941 62.8004 101.553 62.4118C101.166 62.0232 100.948 61.4961 100.948 60.9466C100.948 60.397 101.166 59.87 101.553 59.4814C101.941 59.0928 102.467 58.8745 103.015 58.8745H112.614C113.162 58.8745 113.688 59.0928 114.076 59.4814C114.463 59.87 114.681 60.397 114.681 60.9466C114.681 61.4961 114.463 62.0232 114.076 62.4118C113.688 62.8004 113.162 63.0187 112.614 63.0187Z" fill="#859CFF"/>
<path d="M121.001 80.3829H51.0889C50.5407 80.3829 50.015 80.1646 49.6274 79.776C49.2398 79.3874 49.0221 78.8604 49.0221 78.3108C49.0221 77.7613 49.2398 77.2343 49.6274 76.8457C50.015 76.4571 50.5407 76.2388 51.0889 76.2388H121.001C121.549 76.2388 122.075 76.4571 122.462 76.8457C122.85 77.2343 123.068 77.7613 123.068 78.3108C123.068 78.8604 122.85 79.3874 122.462 79.776C122.075 80.1646 121.549 80.3829 121.001 80.3829Z" fill="#61FC54"/>
<path d="M95.8578 89.3048H51.0889C50.5407 89.3048 50.015 89.0865 49.6274 88.6979C49.2398 88.3093 49.0221 87.7823 49.0221 87.2327C49.0221 86.6832 49.2398 86.1561 49.6274 85.7675C50.015 85.379 50.5407 85.1606 51.0889 85.1606H95.8578C96.4059 85.1606 96.9316 85.379 97.3192 85.7675C97.7068 86.1561 97.9246 86.6832 97.9246 87.2327C97.9246 87.7823 97.7068 88.3093 97.3192 88.6979C96.9316 89.0865 96.4059 89.3048 95.8578 89.3048Z" fill="#F70D67"/>
<path d="M78.0766 98.6891H51.0889C50.5407 98.6891 50.015 98.4708 49.6274 98.0822C49.2398 97.6936 49.0221 97.1665 49.0221 96.617C49.0221 96.0674 49.2398 95.5404 49.6274 95.1518C50.015 94.7632 50.5407 94.5449 51.0889 94.5449H78.0766C78.6248 94.5449 79.1505 94.7632 79.5381 95.1518C79.9257 95.5404 80.1434 96.0674 80.1434 96.617C80.1434 97.1665 79.9257 97.6936 79.5381 98.0822C79.1505 98.4708 78.6248 98.6891 78.0766 98.6891Z" fill="#859CFF"/>
<path d="M93.0907 98.6891H86.0363C85.4881 98.6891 84.9624 98.4708 84.5748 98.0822C84.1872 97.6936 83.9695 97.1665 83.9695 96.617C83.9695 96.0674 84.1872 95.5404 84.5748 95.1518C84.9624 94.7632 85.4881 94.5449 86.0363 94.5449H93.0907C93.6388 94.5449 94.1645 94.7632 94.5521 95.1518C94.9397 95.5404 95.1574 96.0674 95.1574 96.617C95.1574 97.1665 94.9397 97.6936 94.5521 98.0822C94.1645 98.4708 93.6388 98.6891 93.0907 98.6891Z" fill="#859CFF"/>
<path d="M112.614 98.6891H103.015C102.467 98.6891 101.941 98.4708 101.553 98.0822C101.166 97.6936 100.948 97.1665 100.948 96.617C100.948 96.0674 101.166 95.5404 101.553 95.1518C101.941 94.7632 102.467 94.5449 103.015 94.5449H112.614C113.162 94.5449 113.688 94.7632 114.076 95.1518C114.463 95.5404 114.681 96.0674 114.681 96.617C114.681 97.1665 114.463 97.6936 114.076 98.0822C113.688 98.4708 113.162 98.6891 112.614 98.6891Z" fill="#859CFF"/>
<path d="M121.001 71.8035H51.0888C50.5135 71.8035 49.9617 71.5744 49.5549 71.1665C49.1481 70.7587 48.9196 70.2055 48.9196 69.6287C48.9196 69.0519 49.1481 68.4987 49.5549 68.0909C49.9617 67.683 50.5135 67.4539 51.0888 67.4539H121.001C121.576 67.4539 122.128 67.683 122.535 68.0909C122.941 68.4987 123.17 69.0519 123.17 69.6287C123.17 70.2055 122.941 70.7587 122.535 71.1665C122.128 71.5744 121.576 71.8035 121.001 71.8035Z" fill="#6773BA"/>
<path d="M121.001 107.474H51.0888C50.5135 107.474 49.9617 107.245 49.5549 106.837C49.1481 106.429 48.9196 105.876 48.9196 105.299C48.9196 104.723 49.1481 104.169 49.5549 103.762C49.9617 103.354 50.5135 103.125 51.0888 103.125H121.001C121.576 103.125 122.128 103.354 122.535 103.762C122.941 104.169 123.17 104.723 123.17 105.299C123.17 105.876 122.941 106.429 122.535 106.837C122.128 107.245 121.576 107.474 121.001 107.474Z" fill="#6773BA"/>
<path d="M121.001 116.054H51.0889C50.5407 116.054 50.015 115.835 49.6274 115.447C49.2398 115.058 49.0221 114.531 49.0221 113.982C49.0221 113.432 49.2398 112.905 49.6274 112.516C50.015 112.128 50.5407 111.909 51.0889 111.909H121.001C121.549 111.909 122.075 112.128 122.462 112.516C122.85 112.905 123.068 113.432 123.068 113.982C123.068 114.531 122.85 115.058 122.462 115.447C122.075 115.835 121.549 116.054 121.001 116.054Z" fill="#61FC54"/>
<path d="M95.8578 125.01H51.0889C50.5407 125.01 50.015 124.791 49.6274 124.403C49.2398 124.014 49.0221 123.487 49.0221 122.938C49.0221 122.388 49.2398 121.861 49.6274 121.472C50.015 121.084 50.5407 120.865 51.0889 120.865H95.8578C96.4059 120.865 96.9316 121.084 97.3192 121.472C97.7068 121.861 97.9246 122.388 97.9246 122.938C97.9246 123.487 97.7068 124.014 97.3192 124.403C96.9316 124.791 96.4059 125.01 95.8578 125.01Z" fill="#F70D67"/>
<path d="M78.0766 134.343H51.0889C50.8175 134.343 50.5487 134.289 50.298 134.185C50.0472 134.081 49.8194 133.928 49.6274 133.736C49.4355 133.543 49.2833 133.315 49.1794 133.064C49.0756 132.812 49.0221 132.543 49.0221 132.271C49.0221 131.998 49.0756 131.729 49.1794 131.478C49.2833 131.226 49.4355 130.998 49.6274 130.805C49.8194 130.613 50.0472 130.46 50.298 130.356C50.5487 130.252 50.8175 130.198 51.0889 130.198H78.0766C78.348 130.198 78.6168 130.252 78.8675 130.356C79.1183 130.46 79.3461 130.613 79.5381 130.805C79.73 130.998 79.8822 131.226 79.9861 131.478C80.09 131.729 80.1434 131.998 80.1434 132.271C80.1434 132.543 80.09 132.812 79.9861 133.064C79.8822 133.315 79.73 133.543 79.5381 133.736C79.3461 133.928 79.1183 134.081 78.8675 134.185C78.6168 134.289 78.348 134.343 78.0766 134.343Z" fill="#859CFF"/>
<path d="M93.0907 134.343H86.0363C85.7649 134.343 85.4961 134.289 85.2453 134.185C84.9946 134.081 84.7667 133.928 84.5748 133.736C84.3829 133.543 84.2307 133.315 84.1268 133.064C84.0229 132.812 83.9695 132.543 83.9695 132.271C83.9695 131.998 84.0229 131.729 84.1268 131.478C84.2307 131.226 84.3829 130.998 84.5748 130.805C84.7667 130.613 84.9946 130.46 85.2453 130.356C85.4961 130.252 85.7649 130.198 86.0363 130.198H93.0907C93.3621 130.198 93.6308 130.252 93.8816 130.356C94.1323 130.46 94.3602 130.613 94.5521 130.805C94.744 130.998 94.8962 131.226 95.0001 131.478C95.104 131.729 95.1574 131.998 95.1574 132.271C95.1574 132.543 95.104 132.812 95.0001 133.064C94.8962 133.315 94.744 133.543 94.5521 133.736C94.3602 133.928 94.1323 134.081 93.8816 134.185C93.6308 134.289 93.3621 134.343 93.0907 134.343Z" fill="#859CFF"/>
<path d="M112.614 134.343H103.015C102.743 134.343 102.474 134.289 102.224 134.185C101.973 134.081 101.745 133.928 101.553 133.736C101.361 133.543 101.209 133.315 101.105 133.064C101.001 132.812 100.948 132.543 100.948 132.271C100.948 131.998 101.001 131.729 101.105 131.478C101.209 131.226 101.361 130.998 101.553 130.805C101.745 130.613 101.973 130.46 102.224 130.356C102.474 130.252 102.743 130.198 103.015 130.198H112.614C112.886 130.198 113.154 130.252 113.405 130.356C113.656 130.46 113.884 130.613 114.076 130.805C114.267 130.998 114.42 131.226 114.524 131.478C114.627 131.729 114.681 131.998 114.681 132.271C114.681 132.543 114.627 132.812 114.524 133.064C114.42 133.315 114.267 133.543 114.076 133.736C113.884 133.928 113.656 134.081 113.405 134.185C113.154 134.289 112.886 134.343 112.614 134.343Z" fill="#859CFF"/>
<path d="M214.382 124.016H178.512C178.218 124.016 177.935 123.899 177.727 123.69C177.519 123.482 177.402 123.199 177.402 122.903C177.402 122.608 177.519 122.325 177.727 122.116C177.935 121.908 178.218 121.79 178.512 121.79H214.382C214.676 121.79 214.959 121.908 215.167 122.116C215.375 122.325 215.492 122.608 215.492 122.903C215.492 123.199 215.375 123.482 215.167 123.69C214.959 123.899 214.676 124.016 214.382 124.016Z" fill="#60FC54"/>
<path d="M201.554 128.589H178.546C178.252 128.589 177.969 128.472 177.761 128.263C177.553 128.054 177.436 127.771 177.436 127.476C177.436 127.179 177.552 126.894 177.76 126.682C177.968 126.471 178.25 126.35 178.546 126.345H201.554C201.85 126.35 202.132 126.471 202.34 126.682C202.548 126.894 202.664 127.179 202.664 127.476C202.664 127.771 202.547 128.054 202.339 128.263C202.131 128.472 201.849 128.589 201.554 128.589Z" fill="#60FC54"/>
<path d="M192.382 133.401H178.546C178.25 133.396 177.968 133.275 177.76 133.064C177.552 132.852 177.436 132.567 177.436 132.271C177.436 132.124 177.465 131.98 177.52 131.845C177.576 131.71 177.658 131.587 177.761 131.483C177.864 131.38 177.987 131.298 178.121 131.242C178.256 131.186 178.4 131.157 178.546 131.157H192.382C192.527 131.157 192.672 131.186 192.807 131.242C192.941 131.298 193.064 131.38 193.167 131.483C193.27 131.587 193.352 131.71 193.407 131.845C193.463 131.98 193.492 132.124 193.492 132.271C193.492 132.567 193.376 132.852 193.168 133.064C192.96 133.275 192.678 133.396 192.382 133.401Z" fill="#60FC54"/>
<path d="M200.085 133.401H196.43C196.134 133.396 195.851 133.275 195.644 133.064C195.436 132.852 195.32 132.567 195.32 132.271C195.32 132.124 195.348 131.98 195.404 131.845C195.46 131.71 195.542 131.587 195.645 131.483C195.748 131.38 195.87 131.298 196.005 131.242C196.14 131.186 196.284 131.157 196.43 131.157H200.051C200.197 131.157 200.341 131.186 200.476 131.242C200.611 131.298 200.733 131.38 200.836 131.483C200.939 131.587 201.021 131.71 201.077 131.845C201.133 131.98 201.161 132.124 201.161 132.271C201.162 132.562 201.05 132.842 200.849 133.052C200.649 133.263 200.375 133.388 200.085 133.401Z" fill="#60FC54"/>
<path d="M210.094 133.401H205.175C204.876 133.401 204.589 133.282 204.378 133.07C204.167 132.858 204.048 132.57 204.048 132.27C204.048 132.123 204.077 131.977 204.134 131.841C204.191 131.704 204.274 131.581 204.379 131.477C204.484 131.374 204.608 131.292 204.745 131.237C204.882 131.182 205.028 131.155 205.175 131.157H210.094C210.24 131.157 210.385 131.186 210.519 131.242C210.654 131.298 210.776 131.38 210.88 131.483C210.983 131.587 211.064 131.709 211.12 131.845C211.176 131.98 211.205 132.124 211.205 132.27C211.205 132.567 211.088 132.852 210.881 133.064C210.673 133.275 210.39 133.396 210.094 133.401Z" fill="#60FC54"/>
<path d="M214.382 103.69H178.512C178.218 103.69 177.935 103.572 177.727 103.364C177.519 103.155 177.402 102.872 177.402 102.576C177.402 102.281 177.519 101.998 177.727 101.789C177.935 101.581 178.218 101.463 178.512 101.463H214.382C214.676 101.463 214.959 101.581 215.167 101.789C215.375 101.998 215.492 102.281 215.492 102.576C215.492 102.872 215.375 103.155 215.167 103.364C214.959 103.572 214.676 103.69 214.382 103.69Z" fill="#60FC54"/>
<path d="M201.554 108.262H178.546C178.252 108.262 177.969 108.145 177.761 107.936C177.553 107.727 177.436 107.444 177.436 107.149C177.436 106.854 177.553 106.57 177.761 106.362C177.969 106.153 178.252 106.036 178.546 106.036H201.554C201.849 106.036 202.131 106.153 202.339 106.362C202.547 106.57 202.664 106.854 202.664 107.149C202.664 107.444 202.547 107.727 202.339 107.936C202.131 108.145 201.849 108.262 201.554 108.262Z" fill="#60FC54"/>
<path d="M192.382 113.022H178.546C178.252 113.022 177.969 112.905 177.761 112.696C177.553 112.488 177.436 112.204 177.436 111.909C177.436 111.612 177.552 111.328 177.76 111.116C177.968 110.905 178.25 110.784 178.546 110.779H192.382C192.678 110.784 192.96 110.905 193.168 111.116C193.376 111.328 193.492 111.612 193.492 111.909C193.492 112.204 193.375 112.488 193.167 112.696C192.959 112.905 192.676 113.022 192.382 113.022Z" fill="#60FC54"/>
<path d="M200.085 113.022H196.43C196.135 113.022 195.853 112.905 195.645 112.696C195.437 112.488 195.32 112.204 195.32 111.909C195.32 111.612 195.436 111.328 195.644 111.116C195.851 110.905 196.134 110.784 196.43 110.779H200.051C200.347 110.784 200.629 110.905 200.837 111.116C201.045 111.328 201.161 111.612 201.161 111.909C201.161 112.199 201.049 112.477 200.848 112.684C200.647 112.892 200.374 113.013 200.085 113.022Z" fill="#60FC54"/>
<path d="M210.094 113.022H205.175C205.028 113.025 204.882 112.998 204.745 112.943C204.608 112.888 204.484 112.806 204.379 112.702C204.274 112.599 204.191 112.475 204.134 112.339C204.077 112.203 204.048 112.057 204.048 111.909C204.048 111.61 204.167 111.322 204.378 111.11C204.589 110.898 204.876 110.779 205.175 110.779H210.094C210.39 110.784 210.673 110.905 210.881 111.116C211.088 111.328 211.205 111.612 211.205 111.909C211.205 112.204 211.088 112.488 210.88 112.696C210.671 112.905 210.389 113.022 210.094 113.022Z" fill="#60FC54"/>
<path d="M214.382 63.0529H178.512C178.218 63.0529 177.935 62.9356 177.727 62.7268C177.519 62.5181 177.402 62.235 177.402 61.9398C177.402 61.6445 177.519 61.3614 177.727 61.1527C177.935 60.9439 178.218 60.8267 178.512 60.8267H214.382C214.676 60.8267 214.959 60.9439 215.167 61.1527C215.375 61.3614 215.492 61.6445 215.492 61.9398C215.492 62.235 215.375 62.5181 215.167 62.7268C214.959 62.9356 214.676 63.0529 214.382 63.0529Z" fill="#60FC54"/>
<path d="M201.554 67.6251H178.546C178.252 67.6251 177.969 67.5079 177.761 67.2991C177.553 67.0904 177.436 66.8072 177.436 66.512C177.436 66.2168 177.553 65.9337 177.761 65.7249C177.969 65.5162 178.252 65.3989 178.546 65.3989H201.554C201.849 65.3989 202.131 65.5162 202.339 65.7249C202.547 65.9337 202.664 66.2168 202.664 66.512C202.664 66.8072 202.547 67.0904 202.339 67.2991C202.131 67.5079 201.849 67.6251 201.554 67.6251Z" fill="#60FC54"/>
<path d="M192.382 72.4372H178.546C178.25 72.4327 177.968 72.3116 177.76 72.1001C177.552 71.8887 177.436 71.6038 177.436 71.3069C177.436 71.0117 177.553 70.7286 177.761 70.5199C177.969 70.3111 178.252 70.1938 178.546 70.1938H192.382C192.676 70.1938 192.959 70.3111 193.167 70.5199C193.375 70.7286 193.492 71.0117 193.492 71.3069C193.492 71.6038 193.376 71.8887 193.168 72.1001C192.96 72.3116 192.678 72.4327 192.382 72.4372Z" fill="#60FC54"/>
<path d="M200.085 72.4371H196.43C196.134 72.4326 195.851 72.3116 195.644 72.1001C195.436 71.8886 195.32 71.6037 195.32 71.3069C195.324 71.0147 195.443 70.7359 195.651 70.5309C195.858 70.3258 196.138 70.2109 196.43 70.2109H200.051C200.345 70.2109 200.628 70.3282 200.836 70.537C201.044 70.7457 201.161 71.0288 201.161 71.324C201.157 71.6121 201.044 71.8878 200.844 72.0947C200.644 72.3016 200.372 72.4241 200.085 72.4371Z" fill="#60FC54"/>
<path d="M210.094 72.4371H205.175C204.876 72.4371 204.589 72.318 204.378 72.106C204.167 71.8941 204.048 71.6066 204.048 71.3068C204.048 71.1592 204.077 71.013 204.134 70.8769C204.191 70.7407 204.274 70.6172 204.379 70.5136C204.484 70.41 204.608 70.3284 204.745 70.2735C204.882 70.2186 205.028 70.1915 205.175 70.1937H210.094C210.389 70.1937 210.671 70.311 210.88 70.5198C211.088 70.7285 211.205 71.0116 211.205 71.3068C211.205 71.6036 211.088 71.8886 210.881 72.1C210.673 72.3115 210.39 72.4326 210.094 72.4371Z" fill="#60FC54"/>
<path d="M214.382 83.3798H178.512C178.239 83.3459 177.988 83.2132 177.806 83.0066C177.624 82.8001 177.523 82.5339 177.523 82.2582C177.523 81.9824 177.624 81.7162 177.806 81.5097C177.988 81.3031 178.239 81.1704 178.512 81.1365H214.382C214.54 81.1168 214.701 81.1311 214.854 81.1785C215.006 81.2259 215.147 81.3052 215.267 81.4113C215.387 81.5173 215.482 81.6477 215.548 81.7937C215.614 81.9397 215.648 82.098 215.648 82.2582C215.648 82.4183 215.614 82.5766 215.548 82.7226C215.482 82.8686 215.387 82.999 215.267 83.105C215.147 83.2111 215.006 83.2904 214.854 83.3378C214.701 83.3852 214.54 83.3995 214.382 83.3798Z" fill="#60FC54"/>
<path d="M201.554 87.9521H178.546C178.25 87.9476 177.968 87.8265 177.76 87.615C177.552 87.4036 177.436 87.1187 177.436 86.8218C177.436 86.5266 177.553 86.2435 177.761 86.0348C177.969 85.826 178.252 85.7087 178.546 85.7087H201.554C201.849 85.7087 202.131 85.826 202.339 86.0348C202.547 86.2435 202.664 86.5266 202.664 86.8218C202.664 87.1187 202.548 87.4036 202.34 87.615C202.132 87.8265 201.85 87.9476 201.554 87.9521Z" fill="#60FC54"/>
<path d="M192.382 92.747H178.546C178.252 92.747 177.969 92.6297 177.761 92.4209C177.553 92.2122 177.436 91.9291 177.436 91.6338C177.436 91.3386 177.553 91.0555 177.761 90.8468C177.969 90.638 178.252 90.5208 178.546 90.5208H192.382C192.676 90.5208 192.959 90.638 193.167 90.8468C193.375 91.0555 193.492 91.3386 193.492 91.6338C193.492 91.9291 193.375 92.2122 193.167 92.4209C192.959 92.6297 192.676 92.747 192.382 92.747Z" fill="#60FC54"/>
<path d="M200.085 92.747H196.43C196.135 92.747 195.853 92.6297 195.645 92.4209C195.437 92.2122 195.32 91.9291 195.32 91.6338C195.32 91.3386 195.437 91.0555 195.645 90.8468C195.853 90.638 196.135 90.5208 196.43 90.5208H200.051C200.345 90.5208 200.628 90.638 200.836 90.8468C201.044 91.0555 201.161 91.3386 201.161 91.6338C201.161 91.9291 201.044 92.2122 200.836 92.4209C200.628 92.6297 200.345 92.747 200.051 92.747H200.085Z" fill="#60FC54"/>
<path d="M210.094 92.747H205.175C204.881 92.747 204.598 92.6297 204.39 92.4209C204.182 92.2122 204.065 91.9291 204.065 91.6338C204.065 91.3386 204.182 91.0555 204.39 90.8468C204.598 90.638 204.881 90.5208 205.175 90.5208H210.094C210.389 90.5208 210.671 90.638 210.88 90.8468C211.088 91.0555 211.205 91.3386 211.205 91.6338C211.205 91.9291 211.088 92.2122 210.88 92.4209C210.671 92.6297 210.389 92.747 210.094 92.747Z" fill="#60FC54"/>
<path d="M214.382 42.8116H178.512C178.216 42.8071 177.934 42.686 177.726 42.4745C177.518 42.2631 177.402 41.9782 177.402 41.6813C177.402 41.3861 177.519 41.103 177.727 40.8943C177.935 40.6855 178.218 40.5682 178.512 40.5682H214.382C214.529 40.566 214.675 40.5931 214.812 40.648C214.949 40.7029 215.073 40.7846 215.178 40.8881C215.283 40.9917 215.366 41.1152 215.423 41.2514C215.48 41.3876 215.509 41.5337 215.509 41.6813C215.509 41.9811 215.39 42.2686 215.179 42.4805C214.968 42.6925 214.681 42.8116 214.382 42.8116Z" fill="#60FC54"/>
<path d="M201.554 47.2982H178.546C178.252 47.2982 177.969 47.1809 177.761 46.9722C177.553 46.7635 177.436 46.4803 177.436 46.1851C177.436 45.8899 177.553 45.6068 177.761 45.398C177.969 45.1893 178.252 45.072 178.546 45.072H201.554C201.849 45.072 202.131 45.1893 202.339 45.398C202.547 45.6068 202.664 45.8899 202.664 46.1851C202.664 46.4803 202.547 46.7635 202.339 46.9722C202.131 47.1809 201.849 47.2982 201.554 47.2982Z" fill="#60FC54"/>
<path d="M192.382 52.1102H178.546C178.252 52.1102 177.969 51.993 177.761 51.7842C177.553 51.5755 177.436 51.2923 177.436 50.9971C177.436 50.7019 177.553 50.4188 177.761 50.2101C177.969 50.0013 178.252 49.884 178.546 49.884H192.382C192.676 49.884 192.959 50.0013 193.167 50.2101C193.375 50.4188 193.492 50.7019 193.492 50.9971C193.492 51.2923 193.375 51.5755 193.167 51.7842C192.959 51.993 192.676 52.1102 192.382 52.1102Z" fill="#60FC54"/>
<path d="M200.085 52.1102H196.43C196.135 52.1102 195.853 51.993 195.645 51.7842C195.437 51.5755 195.32 51.2923 195.32 50.9971C195.32 50.7019 195.437 50.4188 195.645 50.2101C195.853 50.0013 196.135 49.884 196.43 49.884H200.051C200.345 49.884 200.628 50.0013 200.836 50.2101C201.044 50.4188 201.161 50.7019 201.161 50.9971C201.161 51.2923 201.044 51.5755 200.836 51.7842C200.628 51.993 200.345 52.1102 200.051 52.1102H200.085Z" fill="#60FC54"/>
<path d="M210.094 52.1102H205.175C204.881 52.1102 204.598 51.993 204.39 51.7842C204.182 51.5755 204.065 51.2923 204.065 50.9971C204.065 50.7019 204.182 50.4188 204.39 50.2101C204.598 50.0013 204.881 49.884 205.175 49.884H210.094C210.389 49.884 210.671 50.0013 210.88 50.2101C211.088 50.4188 211.205 50.7019 211.205 50.9971C211.205 51.2923 211.088 51.5755 210.88 51.7842C210.671 51.993 210.389 52.1102 210.094 52.1102Z" fill="#60FC54"/>
<path d="M40.6525 15.5835C42.5675 15.5835 44.1199 14.0271 44.1199 12.1072C44.1199 10.1873 42.5675 8.63086 40.6525 8.63086C38.7375 8.63086 37.1851 10.1873 37.1851 12.1072C37.1851 14.0271 38.7375 15.5835 40.6525 15.5835Z" fill="#FF5F57"/>
<path d="M51.4988 15.5835C53.4138 15.5835 54.9662 14.0271 54.9662 12.1072C54.9662 10.1873 53.4138 8.63086 51.4988 8.63086C49.5838 8.63086 48.0314 10.1873 48.0314 12.1072C48.0314 14.0271 49.5838 15.5835 51.4988 15.5835Z" fill="#FEBC2E"/>
<path d="M62.328 15.5835C64.243 15.5835 65.7954 14.0271 65.7954 12.1072C65.7954 10.1873 64.243 8.63086 62.328 8.63086C60.413 8.63086 58.8606 10.1873 58.8606 12.1072C58.8606 14.0271 60.413 15.5835 62.328 15.5835Z" fill="#29C940"/>
<path d="M222.717 156.844H32.7782C29.9271 156.84 27.1944 155.701 25.1801 153.678C23.1657 151.656 22.0343 148.914 22.0343 146.056V10.7885C22.0343 7.93018 23.1657 5.18867 25.1801 3.16593C27.1944 1.14318 29.9271 0.00453702 32.7782 0L222.717 0C225.568 0.00453702 228.301 1.14318 230.315 3.16593C232.33 5.18867 233.461 7.93018 233.461 10.7885V146.073C233.457 148.928 232.323 151.665 230.309 153.684C228.295 155.704 225.565 156.84 222.717 156.844ZM32.7782 4.14416C31.0234 4.14869 29.3421 4.85072 28.1029 6.09629C26.8638 7.34185 26.1679 9.02928 26.1679 10.7885V146.073C26.1679 147.832 26.8638 149.52 28.1029 150.765C29.3421 152.011 31.0234 152.713 32.7782 152.717H222.717C224.472 152.713 226.153 152.011 227.392 150.765C228.632 149.52 229.328 147.832 229.328 146.073V10.7885C229.328 9.02928 228.632 7.34185 227.392 6.09629C226.153 4.85072 224.472 4.14869 222.717 4.14416H32.7782Z" fill="#000201"/>
<path d="M71.3125 24.2655H25.3138C24.974 24.2655 24.6482 24.1302 24.4079 23.8893C24.1677 23.6484 24.0327 23.3218 24.0327 22.9811C24.0327 22.6405 24.1677 22.3138 24.4079 22.073C24.6482 21.8321 24.974 21.6968 25.3138 21.6968H71.3125C71.6523 21.6968 71.9781 21.8321 72.2184 22.073C72.4586 22.3138 72.5936 22.6405 72.5936 22.9811C72.5936 23.3218 72.4586 23.6484 72.2184 23.8893C71.9781 24.1302 71.6523 24.2655 71.3125 24.2655Z" fill="#000201"/>
<path d="M229.823 24.2655H83.1838C82.844 24.2655 82.5182 24.1302 82.2779 23.8893C82.0377 23.6484 81.9027 23.3218 81.9027 22.9811C81.9027 22.6405 82.0377 22.3138 82.2779 22.073C82.5182 21.8321 82.844 21.6968 83.1838 21.6968H229.823C230.163 21.6968 230.489 21.8321 230.729 22.073C230.969 22.3138 231.104 22.6405 231.104 22.9811C231.104 23.3218 230.969 23.6484 230.729 23.8893C230.489 24.1302 230.163 24.2655 229.823 24.2655Z" fill="#000201"/>
<path opacity="0.45" d="M89.2645 108.005H5.39751C3.27498 108.005 1.55432 109.73 1.55432 111.858V171.589C1.55432 173.717 3.27498 175.442 5.39751 175.442H89.2645C91.387 175.442 93.1077 173.717 93.1077 171.589V111.858C93.1077 109.73 91.387 108.005 89.2645 108.005Z" fill="white"/>
<path d="M92.3904 122.955H24.5623C24.1803 122.914 23.8268 122.734 23.5698 122.448C23.3128 122.161 23.1707 121.79 23.1707 121.405C23.1707 121.02 23.3128 120.649 23.5698 120.362C23.8268 120.076 24.1803 119.896 24.5623 119.855H92.3904C92.607 119.832 92.826 119.855 93.0332 119.923C93.2404 119.99 93.4312 120.101 93.5931 120.247C93.755 120.393 93.8844 120.572 93.973 120.771C94.0617 120.971 94.1074 121.187 94.1074 121.405C94.1074 121.623 94.0617 121.839 93.973 122.039C93.8844 122.238 93.755 122.417 93.5931 122.563C93.4312 122.709 93.2404 122.82 93.0332 122.887C92.826 122.955 92.607 122.978 92.3904 122.955Z" fill="#000201"/>
<path d="M8.86491 116.293C9.71393 116.293 10.4022 115.603 10.4022 114.752C10.4022 113.901 9.71393 113.211 8.86491 113.211C8.0159 113.211 7.32764 113.901 7.32764 114.752C7.32764 115.603 8.0159 116.293 8.86491 116.293Z" fill="#FF5F57"/>
<path d="M13.6476 116.293C14.4966 116.293 15.1849 115.603 15.1849 114.752C15.1849 113.901 14.4966 113.211 13.6476 113.211C12.7986 113.211 12.1104 113.901 12.1104 114.752C12.1104 115.603 12.7986 116.293 13.6476 116.293Z" fill="#FEBC2E"/>
<path d="M18.4302 116.293C19.2792 116.293 19.9675 115.603 19.9675 114.752C19.9675 113.901 19.2792 113.211 18.4302 113.211C17.5812 113.211 16.8929 113.901 16.8929 114.752C16.8929 115.603 17.5812 116.293 18.4302 116.293Z" fill="#29C940"/>
<path d="M75.9244 108.022L62.8747 175.442H50.3885L63.4896 108.022H75.9244Z" fill="white"/>
<path d="M85.2676 108.022L72.1666 175.442H66.7861L79.9042 108.022H85.2676Z" fill="white"/>
<path d="M15.3728 122.955H2.0839C1.70194 122.914 1.34839 122.734 1.09142 122.448C0.834454 122.161 0.692261 121.79 0.692261 121.405C0.692261 121.02 0.834454 120.649 1.09142 120.362C1.34839 120.076 1.70194 119.896 2.0839 119.855H15.3728C15.5895 119.832 15.8085 119.855 16.0157 119.923C16.2229 119.99 16.4136 120.101 16.5755 120.247C16.7374 120.393 16.8669 120.572 16.9555 120.771C17.0441 120.971 17.0899 121.187 17.0899 121.405C17.0899 121.623 17.0441 121.839 16.9555 122.039C16.8669 122.238 16.7374 122.417 16.5755 122.563C16.4136 122.709 16.2229 122.82 16.0157 122.887C15.8085 122.955 15.5895 122.978 15.3728 122.955Z" fill="#000201"/>
<path d="M89.2645 177H5.38047C3.95487 176.995 2.58894 176.426 1.58088 175.415C0.57282 174.404 0.00450431 173.035 0 171.606V111.858C0 110.427 0.566869 109.055 1.5759 108.044C2.58494 107.032 3.95348 106.464 5.38047 106.464H89.2645C90.6901 106.468 92.0561 107.038 93.0641 108.049C94.0722 109.059 94.6405 110.429 94.645 111.858V171.606C94.6405 173.035 94.0722 174.404 93.0641 175.415C92.0561 176.426 90.6901 176.995 89.2645 177ZM5.38047 109.597C4.77343 109.597 4.19126 109.839 3.76202 110.27C3.33278 110.7 3.09163 111.284 3.09163 111.892V171.64C3.09163 172.249 3.33278 172.832 3.76202 173.262C4.19126 173.693 4.77343 173.935 5.38047 173.935H89.2645C89.5651 173.935 89.8627 173.875 90.1404 173.76C90.4181 173.645 90.6704 173.476 90.883 173.262C91.0955 173.049 91.2641 172.796 91.3791 172.518C91.4942 172.24 91.5534 171.941 91.5534 171.64V111.858C91.5444 111.255 91.2993 110.68 90.871 110.257C90.4428 109.834 89.8657 109.597 89.2645 109.597H5.38047Z" fill="#000201"/>
</svg>
