<svg width="205" height="205" viewBox="0 0 205 205" fill="none" xmlns="http://www.w3.org/2000/svg">
<path d="M103.604 77.2522C103.286 77.2411 102.97 77.2271 102.65 77.2271C88.5492 77.2271 77.1167 88.6595 77.1167 102.761C77.1167 116.862 88.5492 128.294 102.65 128.294C116.752 128.294 128.184 116.862 128.184 102.761C128.184 102.441 128.173 102.123 128.157 101.808L123.098 106.869C119.821 110.147 115.459 111.951 110.822 111.951C106.189 111.951 101.83 110.147 98.5426 106.865C91.7743 100.099 91.7743 89.0843 98.5426 82.3147L103.604 77.2522Z" fill="#AED7FF"/>
<path d="M105.763 89.5331C102.974 92.3251 102.974 96.8525 105.763 99.6446C107.157 101.04 108.991 101.737 110.82 101.737C112.654 101.737 114.479 101.038 115.879 99.6446L154.756 60.769L170.814 61.4864C173.011 61.5818 174.481 61.0143 176.041 59.4576L202.057 33.4415C205.073 30.425 204.229 28.258 199.969 28.0674L178.314 27.1002L177.344 5.44386C177.154 1.18389 174.984 0.341464 171.97 3.35823L145.952 29.3724C144.393 30.9268 143.823 32.4001 143.918 34.5996L144.638 50.6571L105.763 89.5331Z" fill="#AED7FF"/>
<path d="M196.406 62.2102L182.155 76.4614C184.901 84.7362 186.408 93.5747 186.408 102.761C186.408 148.945 148.834 186.512 102.658 186.512C56.4796 186.512 18.9072 148.941 18.9072 102.761C18.9072 56.581 56.4777 19.0105 102.658 19.0105C111.845 19.0105 120.681 20.5155 128.956 23.2662L143.209 9.01287C130.78 3.62469 117.07 0.626465 102.658 0.626465C46.2527 0.626465 0.522766 46.3564 0.522766 102.761C0.522766 159.166 46.2527 204.896 102.658 204.896C159.063 204.896 204.792 159.166 204.792 102.761C204.792 88.3491 201.797 74.6402 196.406 62.21L196.406 62.2102Z" fill="#AED7FF"/>
<path d="M127.609 44.5806C119.947 41.2877 111.517 39.4377 102.65 39.4377C67.6766 39.4377 39.3267 67.7896 39.3267 102.761C39.3267 137.731 67.6766 166.085 102.65 166.085C137.62 166.085 165.974 137.733 165.974 102.761C165.974 93.8917 164.124 85.4641 160.826 77.8026L146.337 92.2946C147.145 95.6562 147.585 99.156 147.585 102.762C147.585 127.543 127.425 147.702 102.646 147.702C77.8651 147.702 57.7105 127.541 57.7105 102.762C57.7105 77.9833 77.8708 57.823 102.65 57.823C106.256 57.823 109.759 58.2611 113.115 59.0716L127.609 44.5806Z" fill="#AED7FF"/>
</svg>
