<svg width="103" height="84" viewBox="0 0 103 84" fill="none" xmlns="http://www.w3.org/2000/svg">
<g id="iscellaneous_icons_4 1" clip-path="url(#clip0_11_10671)">
<g id="Layer 2">
<g id="Layer 1">
<path id="Vector" d="M-0.00883341 52.4362C-0.976736 50.5064 -1.65384 48.4441 -2.01815 46.3163C-3.6524 37.2904 0.0715394 24.8899 6.19327 17.9933L8.97953 15.5292C9.48856 15.1141 10.011 14.7124 10.5468 14.3508C18.0513 9.50114 26.9423 7.252 35.8508 7.94965C45.2288 8.67038 54.382 11.1796 62.8159 15.3418C65.4974 16.4499 67.9777 17.9928 70.1567 19.9083C70.2992 20.0401 70.4514 20.1609 70.6121 20.2698L77.4572 24.6756L77.7251 24.8497C84.1951 29.7108 88.0932 37.4913 89.4327 45.4592C91.1578 55.5972 89.0575 66.0145 83.5387 74.6929C83.334 75.0158 83.0705 75.2975 82.7618 75.5231L75.5282 81.2011C74.0137 82.3529 72.2055 83.0553 70.3105 83.2282C68.4154 83.4011 66.5099 83.0374 64.8119 82.1787C63.9134 81.7692 63.1261 81.1507 62.5155 80.375C61.905 79.5992 61.489 78.6886 61.3022 77.7193C61.2664 76.4723 61.4153 75.2268 61.7443 74.0233C62.1317 72.3012 62.0249 70.5048 61.4362 68.8408C61.1314 68.017 60.6287 67.2808 59.9723 66.697C59.3159 66.1132 58.526 65.6997 57.6721 65.4929C55.8682 65.2962 54.0552 65.7731 52.5818 66.8321C50.0634 68.3453 47.8666 70.3272 45.3482 71.8673C38.9637 75.5102 31.4123 76.5282 24.2906 74.7063C17.4723 73.0993 12.2346 69.3497 6.87644 64.8501C6.50382 64.5118 6.20315 64.1019 5.99234 63.6449L1.9737 57.6187L-0.00883341 52.4362Z" fill="white"/>
<g id="Group" opacity="0.4">
<path id="Vector_2" d="M83.5387 74.733C83.334 75.056 83.0705 75.3376 82.7618 75.5633L75.5282 81.2547C74.009 82.3971 72.2008 83.0927 70.3074 83.263C68.4141 83.4334 66.5107 83.0717 64.8119 82.2189C63.9134 81.8094 63.1261 81.1909 62.5155 80.4152C61.905 79.6394 61.489 78.7288 61.3022 77.7595C61.2754 76.497 61.438 75.2376 61.7845 74.0233C62.1859 72.3069 62.0788 70.5108 61.4764 68.8542C61.1734 68.0279 60.6715 67.289 60.015 66.7027C59.3585 66.1165 58.5676 65.701 57.7123 65.4929C55.9095 65.3112 54.1018 65.7868 52.622 66.8321C50.1036 68.3453 47.9068 70.3406 45.4018 71.8807C39.0154 75.529 31.4645 76.5656 24.3307 74.7732C17.5124 73.1662 12.2748 69.4166 6.91662 64.9037C6.54436 64.5702 6.2436 64.1648 6.03252 63.7119L2.50951 58.5427C8.246 55.4676 14.3494 53.1323 20.6738 51.5925C29.421 49.6374 38.9318 49.9186 46.9289 54.003C49.474 55.3422 51.8182 56.909 54.2964 58.3151C61.2771 62.3544 69.35 64.1015 77.3768 63.3101C81.6061 62.8196 85.7002 61.5144 89.4327 59.4667C88.5365 64.9059 86.5303 70.1024 83.5387 74.733Z" fill="#C9D2DF"/>
</g>
<g id="Group_2" opacity="0.1">
<path id="Vector_3" d="M89.0845 59.6007C85.3447 61.6268 81.2532 62.9221 77.0285 63.4173C68.992 64.224 60.9041 62.5011 53.8946 58.4892C51.4164 57.1501 49.0856 55.4493 46.527 54.1638C38.4898 50.1463 29.0192 49.7981 20.2719 51.7667C13.9678 53.3103 7.88314 55.6409 2.16124 58.7035L5.68425 63.8726C5.89506 64.3296 6.19573 64.7395 6.56835 65.0778C9.77402 67.9333 13.3085 70.3968 17.0972 72.4164C13.3125 70.4051 9.78983 67.9359 6.60853 65.0644C6.22949 64.7394 5.92361 64.3377 5.71104 63.886L1.69239 57.8464L-0.316927 52.597C-1.29134 50.6699 -1.96877 48.6066 -2.32625 46.477C6.52336 38.2809 17.8161 33.2101 29.8229 32.041C34.0045 31.7062 38.2062 31.7062 42.3878 32.041C59.0652 33.2195 76.1578 37.8663 89.4327 47.7492C89.8799 51.6962 89.7626 55.6868 89.0845 59.6007Z" fill="#C9D2DF"/>
</g>
<path id="Vector_4" d="M18.1822 73.4073C18.0702 73.4063 17.96 73.3787 17.8607 73.327C4.55902 66.4705 -0.316933 56.6814 -1.99137 49.6642C-3.12826 45.1717 -3.30627 40.4903 -2.51379 35.9245C-2.42531 35.7573 -2.27476 35.6313 -2.09444 35.5737C-1.91413 35.5161 -1.71842 35.5315 -1.54932 35.6165C-1.43745 35.6763 -1.34365 35.765 -1.27769 35.8734C-1.21173 35.9817 -1.17601 36.1057 -1.17424 36.2325C-1.17424 36.5272 -6.0368 59.4534 18.4367 72.0682C18.5209 72.1107 18.5957 72.1695 18.6568 72.2411C18.718 72.3128 18.7642 72.396 18.7929 72.4857C18.8216 72.5755 18.8321 72.67 18.8239 72.7639C18.8156 72.8577 18.7887 72.949 18.7448 73.0324C18.6917 73.1383 18.6118 73.2286 18.5132 73.2943C18.4145 73.3601 18.3005 73.399 18.1822 73.4073Z" fill="#3E3126"/>
<path id="Vector_5" d="M-0.0222266 29.6439C-0.09304 29.6573 -0.165741 29.6573 -0.236554 29.6439C-0.419095 29.6023 -0.577816 29.4903 -0.678167 29.3323C-0.778519 29.1743 -0.812378 28.983 -0.772373 28.8002C-0.772373 28.8002 -0.772373 28.8002 -0.772373 28.7332C-0.772373 28.6663 6.23346 7.0658 32.6091 7.0658H33.6272C33.8155 7.0658 33.9961 7.14057 34.1292 7.27368C34.2624 7.40678 34.3372 7.58731 34.3372 7.77555C34.3372 7.96378 34.2624 8.14431 34.1292 8.27741C33.9961 8.41052 33.8155 8.48529 33.6272 8.48529H32.6225C7.33189 8.48529 0.902061 28.3181 0.634152 29.1618C0.587453 29.2997 0.499416 29.42 0.381993 29.5063C0.264569 29.5925 0.123444 29.6405 -0.0222266 29.6439Z" fill="#3E3126"/>
<path id="Vector_6" d="M85.8562 35.9915C85.7325 35.9898 85.6112 35.9571 85.5035 35.8962C85.3958 35.8354 85.3052 35.7484 85.24 35.6433C72.2196 13.9223 42.5486 9.35582 42.2405 9.31564C42.1499 9.30252 42.0627 9.27167 41.984 9.22485C41.9053 9.17803 41.8367 9.11615 41.7819 9.04277C41.7272 8.96938 41.6874 8.88593 41.665 8.79718C41.6425 8.70843 41.6378 8.61612 41.6511 8.52554C41.6809 8.34058 41.7813 8.1744 41.9312 8.06199C42.0812 7.94958 42.2689 7.89973 42.4548 7.92293C42.7495 7.92293 73.0769 12.6367 86.459 34.9336C86.5079 35.0117 86.5408 35.0987 86.5559 35.1896C86.5709 35.2805 86.5677 35.3735 86.5465 35.4632C86.5254 35.5529 86.4866 35.6375 86.4324 35.7121C86.3783 35.7867 86.3099 35.8498 86.2312 35.8978C86.1181 35.9652 85.9877 35.9978 85.8562 35.9915Z" fill="#3E3126"/>
<path id="Vector_7" d="M71.3087 83.6384C71.159 83.6369 71.0137 83.5882 70.8934 83.4992C70.7731 83.4102 70.684 83.2855 70.6389 83.1429C70.588 82.9635 70.6084 82.7715 70.6957 82.6068C70.7831 82.4421 70.9307 82.3176 71.1077 82.259C82.0518 78.804 86.2982 69.7648 87.9324 62.7878C89.4108 56.3529 89.4382 49.6697 88.0128 43.2228C87.9861 43.1331 87.9775 43.0391 87.9873 42.946C87.9971 42.853 88.0252 42.7628 88.07 42.6806C88.1149 42.5985 88.1755 42.526 88.2484 42.4674C88.3214 42.4088 88.4052 42.3651 88.4951 42.339C88.583 42.3122 88.6754 42.3032 88.7669 42.3123C88.8583 42.3214 88.9471 42.3485 89.028 42.3921C89.109 42.4356 89.1805 42.4948 89.2385 42.5661C89.2964 42.6375 89.3397 42.7196 89.3657 42.8077C90.8928 48.1643 93.947 76.5543 71.523 83.6517C71.4514 83.6614 71.3785 83.6569 71.3087 83.6384Z" fill="#3E3126"/>
<path id="Vector_8" d="M68.1875 84.0001C66.613 83.9983 65.0796 83.4967 63.8085 82.5677C62.5374 81.6387 61.5942 80.3303 61.1147 78.831C61.049 78.6443 61.0584 78.4394 61.1409 78.2596C61.2233 78.0797 61.3724 77.9389 61.5568 77.8668C61.6491 77.8325 61.7473 77.8167 61.8458 77.8203C61.9442 77.824 62.041 77.847 62.1306 77.888C62.2201 77.9291 62.3007 77.9873 62.3678 78.0595C62.4348 78.1317 62.4869 78.2164 62.5212 78.3087C62.9077 79.5223 63.6729 80.5802 64.7047 81.3273C65.7365 82.0744 66.9805 82.4714 68.2545 82.4601C68.353 82.4601 68.4506 82.4795 68.5416 82.5171C68.6326 82.5548 68.7153 82.6101 68.7849 82.6797C68.8546 82.7493 68.9098 82.832 68.9475 82.923C68.9852 83.014 69.0046 83.1115 69.0046 83.21C69.0046 83.3085 68.9852 83.406 68.9475 83.497C68.9098 83.5879 68.8546 83.6706 68.7849 83.7403C68.7153 83.8099 68.6326 83.8651 68.5416 83.9028C68.4506 83.9405 68.353 83.9599 68.2545 83.9599L68.1875 84.0001Z" fill="#3E3126"/>
<path id="Vector_9" d="M22.0267 74.9741C22.478 74.9741 22.8438 74.6084 22.8438 74.1572C22.8438 73.7061 22.478 73.3403 22.0267 73.3403C21.5754 73.3403 21.2096 73.7061 21.2096 74.1572C21.2096 74.6084 21.5754 74.9741 22.0267 74.9741Z" fill="#3E3126"/>
<path id="Vector_10" d="M88.0262 40.5312C88.4775 40.5312 88.8433 40.1655 88.8433 39.7143C88.8433 39.2632 88.4775 38.8975 88.0262 38.8975C87.5749 38.8975 87.2091 39.2632 87.2091 39.7143C87.2091 40.1655 87.5749 40.5312 88.0262 40.5312Z" fill="#3E3126"/>
<path id="Vector_11" d="M37.7664 9.07456C38.2177 9.07456 38.5835 8.70883 38.5835 8.25768C38.5835 7.80653 38.2177 7.4408 37.7664 7.4408C37.3151 7.4408 36.9493 7.80653 36.9493 8.25768C36.9493 8.70883 37.3151 9.07456 37.7664 9.07456Z" fill="#3E3126"/>
<path id="Vector_12" d="M39.4274 17.5915C40.0951 16.8408 40.9712 16.3057 41.9441 16.0542C42.9169 15.8028 43.9427 15.8464 44.8907 16.1795C45.8387 16.5127 46.6661 17.1202 47.2676 17.9249C47.8691 18.7297 48.2175 19.6951 48.2685 20.6984C48.2909 21.1956 48.232 21.6931 48.0943 22.1714C47.7641 23.645 46.8655 24.9287 45.5938 25.7437C44.3221 26.5586 42.7801 26.8389 41.3028 26.5237C40.6135 26.3178 39.9772 25.9645 39.4382 25.4881C38.8992 25.0117 38.4705 24.4237 38.1817 23.765C37.7632 22.731 37.6557 21.5974 37.8722 20.5032C38.0887 19.409 38.6199 18.4018 39.4007 17.6049L39.4274 17.5915Z" fill="#4DF58C"/>
<path id="Vector_13" d="M24.0628 16.3193C24.7266 15.5573 25.6037 15.0119 26.5809 14.7537C27.5581 14.4955 28.5902 14.5363 29.5439 14.871C30.4976 15.2056 31.3289 15.8186 31.9303 16.6307C32.5317 17.4428 32.8755 18.4166 32.9172 19.4262C32.945 19.9183 32.8906 20.4116 32.7565 20.8858C32.4262 22.3629 31.5262 23.65 30.252 24.4675C28.9778 25.2849 27.4324 25.5666 25.9516 25.2515C25.2634 25.0432 24.6283 24.689 24.0897 24.2129C23.551 23.7368 23.1215 23.1501 22.8304 22.4928C22.4108 21.4558 22.3039 20.3188 22.5229 19.2218C22.7419 18.1248 23.2772 17.1159 24.0628 16.3193Z" fill="#42CAF8"/>
<path id="Vector_14" d="M53.0774 22.5197C53.7404 21.7583 54.6164 21.2131 55.5923 20.9544C56.5683 20.6957 57.5995 20.7354 58.5526 21.0684C59.5058 21.4014 60.3373 22.0124 60.9396 22.8225C61.542 23.6326 61.8876 24.6047 61.9318 25.6131C61.9653 26.1098 61.9109 26.6084 61.7711 27.0862C61.4319 28.5558 60.5281 29.8332 59.255 30.6424C57.9818 31.4517 56.4413 31.728 54.9662 31.4116C54.2807 31.1979 53.6483 30.8416 53.1104 30.3661C52.5725 29.8907 52.1412 29.3069 51.845 28.653C51.4248 27.6183 51.3176 26.4831 51.5367 25.3881C51.7557 24.2931 52.2915 23.2864 53.0774 22.4929V22.5197Z" fill="#FF7769"/>
<path id="Vector_15" d="M8.24278 29.1351C12.4222 24.0196 19.2405 26.2961 19.1333 33.0722C19.1282 33.7893 19.02 34.5019 18.8118 35.1881C17.4723 40.009 13.4536 43.0891 9.99759 42.0847C9.11645 41.7852 8.3192 41.2805 7.67169 40.6123C7.02417 39.944 6.54497 39.1313 6.27365 38.2413C5.84056 36.6774 5.79348 35.0319 6.13646 33.4458C6.47943 31.8597 7.20221 30.3805 8.24278 29.1351Z" fill="#FFE56B"/>
<path id="Vector_16" d="M53.3989 22.9079C53.8502 22.9079 54.216 22.5422 54.216 22.0911C54.216 21.6399 53.8502 21.2742 53.3989 21.2742C52.9476 21.2742 52.5818 21.6399 52.5818 22.0911C52.5818 22.5422 52.9476 22.9079 53.3989 22.9079Z" fill="#3E3126"/>
<path id="Vector_17" d="M56.654 32.5766C56.1142 32.5814 55.5768 32.5046 55.06 32.3489C54.2896 32.1254 53.5741 31.7446 52.9585 31.2306C52.3429 30.7166 51.8406 30.0806 51.4834 29.3626C50.7465 27.8737 50.5983 26.1618 51.0681 24.5685C51.1196 24.3909 51.2396 24.241 51.4016 24.1519C51.5637 24.0627 51.7545 24.0416 51.9321 24.0931C52.1097 24.1446 52.2596 24.2645 52.3488 24.4265C52.438 24.5885 52.4592 24.7792 52.4076 24.9568C52.0359 26.2157 52.1506 27.5683 52.7291 28.7466C53.2477 29.7911 54.1583 30.5883 55.2623 30.9646C56.3663 31.3408 57.5743 31.2656 58.6231 30.7553C58.7492 30.6987 58.8702 30.6315 58.9848 30.5545C60.1222 29.886 60.9537 28.8001 61.3022 27.528C61.6766 26.2681 61.5569 24.913 60.9674 23.7382C60.7 23.193 60.3246 22.7077 59.8641 22.3118C59.4036 21.9159 58.8675 21.6175 58.2883 21.4348C58.1106 21.3851 57.96 21.2669 57.8696 21.1062C57.7791 20.9454 57.7563 20.7554 57.806 20.5778C57.8558 20.4002 57.974 20.2497 58.1348 20.1592C58.2956 20.0688 58.4857 20.046 58.6633 20.0957C59.4424 20.3205 60.165 20.7076 60.7838 21.2315C61.4025 21.7555 61.9033 22.4044 62.2533 23.1356C62.975 24.6264 63.1184 26.3317 62.6557 27.9221C62.1931 29.5124 61.1572 30.8749 59.7484 31.7463C58.8151 32.3073 57.7429 32.595 56.654 32.5766Z" fill="#3E3126"/>
<path id="Vector_18" d="M27.7198 26.6576C27.1849 26.6551 26.653 26.5785 26.1391 26.43C24.5755 25.929 23.2744 24.8287 22.5211 23.3702C21.7677 21.9116 21.6237 20.214 22.1205 18.6495C22.4431 17.469 23.0982 16.406 24.0077 15.587C24.9172 14.7679 26.0429 14.2273 27.2509 14.0294C27.3407 14.0277 27.4299 14.0436 27.5134 14.0763C27.597 14.1089 27.6733 14.1578 27.738 14.22C27.8027 14.2821 27.8545 14.3564 27.8904 14.4386C27.9264 14.5208 27.9458 14.6093 27.9475 14.699C27.9552 14.8507 27.91 15.0004 27.8196 15.1225C27.7292 15.2446 27.5992 15.3316 27.4519 15.3686C26.5029 15.526 25.6194 15.9531 24.9068 16.5991C24.1942 17.245 23.6826 18.0823 23.4332 19.0111C23.0105 20.1689 23.0651 21.4472 23.5851 22.5648C24.1051 23.6824 25.0479 24.5476 26.2061 24.9703C27.3643 25.3929 28.643 25.3383 29.7609 24.8185C30.8788 24.2986 31.7443 23.3561 32.1671 22.1982C32.2436 22.0032 32.3019 21.8014 32.3412 21.5956C32.6002 20.7527 32.6338 19.8568 32.4387 18.9968C32.2437 18.1369 31.8267 17.3431 31.2294 16.6943C31.1018 16.5663 31.0301 16.393 31.0301 16.2122C31.0301 16.0315 31.1018 15.8582 31.2294 15.7302C31.3591 15.6057 31.5319 15.5363 31.7116 15.5363C31.8914 15.5363 32.0642 15.6057 32.1939 15.7302C32.9691 16.5556 33.5114 17.5718 33.7656 18.6752C34.0197 19.7785 33.9766 20.9295 33.6406 22.0108C33.286 23.3196 32.5182 24.4789 31.4514 25.3162C30.3845 26.1535 29.0757 26.624 27.7198 26.6576Z" fill="#3E3126"/>
<path id="Vector_19" d="M42.8031 27.7558C41.7292 27.754 40.6773 27.452 39.766 26.8841C38.8547 26.3162 38.1203 25.5049 37.6458 24.5419C36.8904 23.0596 36.7276 21.3456 37.1904 19.7477C37.2109 19.6553 37.2501 19.5681 37.3055 19.4913C37.3608 19.4146 37.4313 19.3499 37.5125 19.3013C37.5937 19.2527 37.684 19.2211 37.7778 19.2085C37.8716 19.196 37.967 19.2026 38.0582 19.2281C38.1494 19.2537 38.2344 19.2975 38.308 19.3569C38.3817 19.4164 38.4424 19.4902 38.4866 19.574C38.5307 19.6577 38.5573 19.7495 38.5648 19.8438C38.5722 19.9382 38.5604 20.0331 38.5299 20.1227C38.1582 21.3816 38.2729 22.7341 38.8514 23.9125C39.1201 24.4568 39.4958 24.9413 39.9562 25.3371C40.4165 25.7328 40.952 26.0317 41.5305 26.2158C42.1207 26.3889 42.7408 26.4355 43.3502 26.3524C43.9597 26.2693 44.5447 26.0585 45.0669 25.7337C46.1933 25.0541 47.0226 23.9756 47.39 22.7127C47.7573 21.4497 47.6357 20.0949 47.0495 18.9174C46.7881 18.3681 46.4147 17.8794 45.9534 17.4828C45.492 17.0861 44.9528 16.7902 44.3704 16.6141C43.4245 16.3481 42.4174 16.3999 41.5037 16.7614C41.3439 16.8466 41.1567 16.8649 40.9833 16.8122C40.81 16.7594 40.6647 16.64 40.5794 16.4802C40.4942 16.3204 40.4759 16.1332 40.5287 15.9599C40.5814 15.7866 40.7009 15.6414 40.8608 15.5562H40.9947C42.1946 15.076 43.5224 15.0193 44.7588 15.3955C45.5298 15.6175 46.2461 15.9977 46.8619 16.5119C47.4777 17.026 47.9796 17.6629 48.3354 18.3818C49.0622 19.8725 49.2097 21.5798 48.7494 23.173C48.2891 24.7663 47.2537 26.1321 45.8439 27.0059C44.9153 27.5224 43.8654 27.7813 42.8031 27.7558Z" fill="#3E3126"/>
<path id="Vector_20" d="M81.8766 65.2459C83.387 60.0315 81.397 54.8739 77.4317 53.726C73.4665 52.578 69.0276 55.8746 67.5172 61.0889C66.0067 66.3033 67.9968 71.461 71.962 72.6089C75.9272 73.7568 80.3661 70.4603 81.8766 65.2459Z" fill="white"/>
<path id="Vector_21" d="M73.452 74.0902C72.8307 74.0875 72.2129 73.9974 71.6168 73.8224C67.2632 72.5636 65.0396 66.9793 66.6604 61.3817C68.2813 55.7841 73.1439 52.2487 77.4974 53.5075C81.8509 54.7663 84.0746 60.3506 82.4537 65.9884C81.759 68.5494 80.2498 70.815 78.1538 72.4431C76.8037 73.482 75.1554 74.0594 73.452 74.0902ZM75.6756 54.7529C72.5143 54.7529 69.3128 57.6187 68.1072 61.7968C66.7676 66.6044 68.4688 71.345 72.032 72.3761C72.9332 72.6057 73.8757 72.6199 74.7834 72.4175C75.691 72.2151 76.5382 71.8018 77.2563 71.2111C79.0955 69.7782 80.417 67.7847 81.0204 65.5331C82.3599 60.7255 80.6453 55.9849 77.0821 54.9538C76.6254 54.8196 76.1517 54.752 75.6756 54.7529Z" fill="#3E3126"/>
<path id="Vector_22" opacity="0.4" d="M40.0371 52.7628C40.7017 50.4682 38.5446 47.8275 35.2189 46.8648C31.8932 45.902 28.6584 46.9817 27.9937 49.2763C27.329 51.5709 29.4862 54.2115 32.8119 55.1743C36.1376 56.137 39.3724 55.0574 40.0371 52.7628Z" fill="#C9D2DF"/>
<path id="Vector_23" opacity="0.4" d="M46.6208 56.1055C47.7009 56.1055 48.5765 55.2302 48.5765 54.1503C48.5765 53.0705 47.7009 52.1952 46.6208 52.1952C45.5407 52.1952 44.6651 53.0705 44.6651 54.1503C44.6651 55.2302 45.5407 56.1055 46.6208 56.1055Z" fill="#C9D2DF"/>
<path id="Vector_24" opacity="0.2" d="M42.8701 50.106C43.5729 50.106 44.1426 49.5365 44.1426 48.8338C44.1426 48.1312 43.5729 47.5616 42.8701 47.5616C42.1673 47.5616 41.5975 48.1312 41.5975 48.8338C41.5975 49.5365 42.1673 50.106 42.8701 50.106Z" fill="#C9D2DF"/>
<path id="Vector_25" opacity="0.4" d="M16.7355 57.967C18.7478 57.967 20.3791 56.3362 20.3791 54.3245C20.3791 52.3128 18.7478 50.682 16.7355 50.682C14.7232 50.682 13.0919 52.3128 13.0919 54.3245C13.0919 56.3362 14.7232 57.967 16.7355 57.967Z" fill="#C9D2DF"/>
<path id="Vector_26" opacity="0.2" d="M24.8264 48.5929C25.4848 48.5929 26.0186 48.0593 26.0186 47.4011C26.0186 46.7428 25.4848 46.2092 24.8264 46.2092C24.168 46.2092 23.6342 46.7428 23.6342 47.4011C23.6342 48.0593 24.168 48.5929 24.8264 48.5929Z" fill="#C9D2DF"/>
<path id="Vector_27" d="M26.1428 18.4739C26.6257 18.0713 26.7907 17.4733 26.5112 17.1381C26.2317 16.803 25.6135 16.8576 25.1305 17.2602C24.6476 17.6628 24.4826 18.2608 24.7621 18.596C25.0416 18.9311 25.6598 18.8765 26.1428 18.4739Z" fill="white"/>
<path id="Vector_28" d="M27.8136 17.846C27.9985 17.846 28.1484 17.6961 28.1484 17.5112C28.1484 17.3263 27.9985 17.1764 27.8136 17.1764C27.6286 17.1764 27.4787 17.3263 27.4787 17.5112C27.4787 17.6961 27.6286 17.846 27.8136 17.846Z" fill="white"/>
<path id="Vector_29" d="M41.2111 19.0648C41.6941 18.6623 41.8591 18.0642 41.5795 17.7291C41.3 17.3939 40.6819 17.4486 40.1989 17.8512C39.7159 18.2537 39.551 18.8518 39.8305 19.1869C40.11 19.5221 40.7281 19.4674 41.2111 19.0648Z" fill="white"/>
<path id="Vector_30" d="M42.8835 18.4352C43.0684 18.4352 43.2184 18.2853 43.2184 18.1004C43.2184 17.9155 43.0684 17.7656 42.8835 17.7656C42.6985 17.7656 42.5486 17.9155 42.5486 18.1004C42.5486 18.2853 42.6985 18.4352 42.8835 18.4352Z" fill="white"/>
<path id="Vector_31" d="M56.3015 23.3645C56.7844 22.9619 56.9494 22.3639 56.6699 22.0287C56.3903 21.6936 55.7722 21.7483 55.2892 22.1508C54.8062 22.5534 54.6413 23.1515 54.9208 23.4866C55.2003 23.8218 55.8185 23.7671 56.3015 23.3645Z" fill="white"/>
<path id="Vector_32" d="M57.9935 22.7473C58.1785 22.7473 58.3284 22.5974 58.3284 22.4125C58.3284 22.2276 58.1785 22.0778 57.9935 22.0778C57.8086 22.0778 57.6587 22.2276 57.6587 22.4125C57.6587 22.5974 57.8086 22.7473 57.9935 22.7473Z" fill="white"/>
<path id="Vector_33" d="M67.2096 32.2552C67.8754 31.5026 68.7506 30.9657 69.7232 30.7132C70.6959 30.4606 71.7218 30.5039 72.6698 30.8375C73.6177 31.1711 74.4445 31.7799 75.0444 32.5859C75.6443 33.3919 75.99 34.3585 76.0373 35.3621C76.065 35.8542 76.0107 36.3475 75.8765 36.8217C75.5496 38.3 74.6497 39.5883 73.374 40.4041C72.0984 41.22 70.5511 41.4969 69.0716 41.174C68.3922 40.9722 67.7629 40.6294 67.2251 40.1679C66.6873 39.7063 66.2529 39.1365 65.9505 38.4957C65.5198 37.4476 65.4096 36.2954 65.6337 35.1846C65.8578 34.0739 66.4062 33.0545 67.2096 32.2552Z" fill="#F78A11"/>
<path id="Vector_34" d="M67.5311 32.6437C67.9824 32.6437 68.3483 32.2779 68.3483 31.8268C68.3483 31.3756 67.9824 31.0099 67.5311 31.0099C67.0799 31.0099 66.714 31.3756 66.714 31.8268C66.714 32.2779 67.0799 32.6437 67.5311 32.6437Z" fill="#3E3126"/>
<path id="Vector_35" d="M70.7862 42.3257C70.247 42.3232 69.7106 42.2466 69.1922 42.098C67.6295 41.6 66.3286 40.5022 65.5751 39.0459C64.8216 37.5895 64.6771 35.8937 65.1735 34.331C65.2308 34.1623 65.3506 34.022 65.5082 33.9389C65.6659 33.8558 65.8493 33.8363 66.0209 33.8843C66.1925 33.9324 66.3391 34.0443 66.4307 34.1971C66.5222 34.3499 66.5517 34.532 66.5131 34.7059C66.1213 35.919 66.2219 37.2375 66.7932 38.3772C67.3644 39.5169 68.3607 40.3866 69.5672 40.799C70.1583 40.9656 70.7772 41.0087 71.3856 40.9258C71.994 40.8429 72.5788 40.6356 73.1037 40.317C74.2321 39.6353 75.0566 38.5475 75.4077 37.2771C75.6091 36.6757 75.6899 36.0405 75.6454 35.4078C75.6008 34.7752 75.4319 34.1575 75.1482 33.5902C74.8644 33.023 74.4715 32.5172 73.992 32.102C73.5124 31.6868 72.9556 31.3703 72.3535 31.1706C72.1815 31.1177 72.0366 31.0004 71.9492 30.8431C71.8618 30.6858 71.8387 30.5008 71.8847 30.3269C71.9318 30.1535 72.0454 30.0056 72.2009 29.9153C72.3564 29.8251 72.5412 29.7998 72.7152 29.8448C74.2778 30.3428 75.5788 31.4406 76.3323 32.897C77.0858 34.3533 77.2302 36.0491 76.7338 37.6119C76.2868 39.2117 75.2411 40.5783 73.8136 41.4284C72.9078 42.0036 71.8593 42.3144 70.7862 42.3257Z" fill="#3E3126"/>
<path id="Vector_36" d="M70.427 33.1076C70.91 32.705 71.0749 32.1069 70.7954 31.7718C70.5159 31.4366 69.8977 31.4913 69.4147 31.8939C68.9318 32.2965 68.7668 32.8945 69.0463 33.2296C69.3259 33.5648 69.944 33.5101 70.427 33.1076Z" fill="white"/>
<path id="Vector_37" d="M72.1124 32.4829C72.2974 32.4829 72.4473 32.333 72.4473 32.1481C72.4473 31.9632 72.2974 31.8134 72.1124 31.8134C71.9274 31.8134 71.7775 31.9632 71.7775 32.1481C71.7775 32.333 71.9274 32.4829 72.1124 32.4829Z" fill="white"/>
<path id="Vector_38" d="M11.9826 29.3465C12.4656 28.9439 12.6306 28.3458 12.351 28.0107C12.0715 27.6755 11.4534 27.7302 10.9704 28.1328C10.4874 28.5353 10.3225 29.1334 10.602 29.4685C10.8815 29.8037 11.4996 29.749 11.9826 29.3465Z" fill="white"/>
<path id="Vector_39" d="M13.6813 28.7199C13.8663 28.7199 14.0162 28.57 14.0162 28.3851C14.0162 28.2002 13.8663 28.0503 13.6813 28.0503C13.4964 28.0503 13.3464 28.2002 13.3464 28.3851C13.3464 28.57 13.4964 28.7199 13.6813 28.7199Z" fill="white"/>
<path id="Vector_40" d="M18.919 35.8173C17.5794 40.6115 13.5608 43.7049 10.0913 42.7006C8.84284 42.3101 7.78034 41.4766 7.10416 40.3571C7.10416 40.2231 7.23811 40.1026 7.30509 39.9687C8.2012 38.1252 9.59262 36.5673 11.3237 35.4692C13.3732 34.4112 15.7978 34.5451 18.0215 34.3577C18.3765 34.3337 18.7299 34.289 19.0797 34.2238C19.0934 34.7596 19.0394 35.295 18.919 35.8173Z" fill="#FFB320"/>
<path id="Vector_41" d="M11.8194 43.464C11.2789 43.4645 10.7415 43.3832 10.2253 43.2229C6.421 42.1248 4.46526 37.2905 5.87178 32.5098C6.34456 30.8226 7.21766 29.2745 8.41692 27.9968C8.47666 27.9369 8.54764 27.8893 8.62579 27.8569C8.70395 27.8245 8.78774 27.8078 8.87237 27.8078C8.95699 27.8078 9.04079 27.8245 9.11894 27.8569C9.1971 27.8893 9.26808 27.9369 9.32781 27.9968C9.4497 28.1197 9.51809 28.2858 9.51809 28.4588C9.51809 28.6319 9.4497 28.7979 9.32781 28.9208C8.27532 30.0646 7.50873 31.4414 7.09077 32.9383C5.89857 37.0896 7.45245 41.1874 10.5602 42.0981C13.6679 43.0087 17.191 40.3572 18.3832 36.2058C18.9847 34.2837 18.9329 32.2165 18.2358 30.3269C17.9797 29.5593 17.5468 28.8626 16.9722 28.2927C16.3975 27.7229 15.697 27.2958 14.9271 27.046C14.7644 26.9934 14.6273 26.8817 14.543 26.7329C14.4586 26.5841 14.4332 26.4091 14.4717 26.2425C14.5215 26.0751 14.6349 25.9337 14.7875 25.8486C14.9402 25.7636 15.1201 25.7415 15.2888 25.7872C16.2461 26.0903 17.1203 26.6107 17.843 27.3076C18.5657 28.0046 19.1173 28.8592 19.4548 29.8047C20.2519 31.9553 20.3178 34.3086 19.6423 36.5004C18.4367 40.6384 15.1548 43.464 11.8194 43.464Z" fill="#3E3126"/>
<path id="Vector_42" d="M57.2032 65.4126C57.2357 65.5716 57.2357 65.7356 57.2032 65.8947C56.6909 65.7693 56.1622 65.7242 55.636 65.7608H55.1537C54.3735 65.8157 53.6103 66.0155 52.9033 66.35C52.7119 66.4155 52.5278 66.5007 52.3541 66.6044C51.4538 67.011 50.6078 67.5283 49.8357 68.1444C48.2684 69.2292 46.7949 70.421 45.2277 71.4789L45.0803 71.5861C42.1602 73.3277 38.9606 74.551 35.6231 75.2018C35.6231 74.6527 35.5294 74.1171 35.5026 73.5814C35.2213 69.0417 37.3377 64.2073 41.4234 62.1584C43.2192 61.4622 45.0697 60.9158 46.9557 60.5247C48.3599 60.0187 49.7965 59.6071 51.2556 59.2927C52.1756 59.1471 53.1159 59.1973 54.0151 59.44C54.4572 59.681 54.9126 59.8953 55.3547 60.1095L55.502 60.2301C56.1861 60.8902 56.6987 61.7074 56.9952 62.6105C57.2917 63.5137 57.3631 64.4756 57.2032 65.4126Z" fill="#FF9E3E"/>
<path id="Vector_43" d="M30.9481 76.2598C29.5293 76.277 28.112 76.1604 26.7151 75.9116C26.5346 75.8698 26.3771 75.7604 26.2749 75.6059C26.1727 75.4515 26.1337 75.2637 26.1659 75.0813C26.2078 74.8973 26.3186 74.7364 26.4756 74.6318C26.6327 74.5271 26.8239 74.4867 27.0098 74.5189C31.0885 75.0821 35.2403 74.7768 39.1926 73.6228C43.145 72.4689 46.8085 70.4924 49.9429 67.8231C51.1118 66.812 52.4315 65.9897 53.8544 65.3859C55.0466 64.9172 58.0739 64.0467 60.2574 65.6939C62.106 67.1268 62.7624 69.9925 62.2399 74.2109C62.2308 74.3058 62.2026 74.3979 62.157 74.4817C62.1115 74.5656 62.0495 74.6393 61.9747 74.6986C61.9 74.758 61.8141 74.8016 61.7221 74.827C61.6301 74.8524 61.534 74.859 61.4394 74.8463C61.3448 74.8337 61.2538 74.8022 61.1716 74.7536C61.0895 74.705 61.0181 74.6404 60.9615 74.5636C60.9049 74.4868 60.8644 74.3993 60.8424 74.3065C60.8204 74.2137 60.8173 74.1174 60.8334 74.0234C61.2889 70.3809 60.8334 67.8767 59.3867 66.792C57.94 65.7073 55.3681 66.3099 54.3768 66.6982C53.0911 67.2345 51.9012 67.9762 50.8538 68.8944C45.2977 73.624 38.2455 76.2334 30.9481 76.2598Z" fill="#3E3126"/>
<path id="Vector_44" d="M41.4368 65.9214C43.0791 65.9214 44.4106 64.5904 44.4106 62.9485C44.4106 61.3066 43.0791 59.9756 41.4368 59.9756C39.7944 59.9756 38.463 61.3066 38.463 62.9485C38.463 64.5904 39.7944 65.9214 41.4368 65.9214Z" fill="#FF9E3E"/>
<path id="Vector_45" d="M53.131 60.5783C53.9522 60.5783 54.6179 59.9127 54.6179 59.0918C54.6179 58.2709 53.9522 57.6053 53.131 57.6053C52.3098 57.6053 51.6441 58.2709 51.6441 59.0918C51.6441 59.9127 52.3098 60.5783 53.131 60.5783Z" fill="#FF9E3E"/>
<path id="Vector_46" d="M35.8508 72.6842C36.7016 72.6842 37.3913 71.9947 37.3913 71.1441C37.3913 70.2936 36.7016 69.6041 35.8508 69.6041C35.0001 69.6041 34.3104 70.2936 34.3104 71.1441C34.3104 71.9947 35.0001 72.6842 35.8508 72.6842Z" fill="#FF9E3E"/>
<path id="Vector_47" d="M31.8054 66.6313C32.3307 66.6313 32.7565 66.2056 32.7565 65.6805C32.7565 65.1554 32.3307 64.7297 31.8054 64.7297C31.2802 64.7297 30.8543 65.1554 30.8543 65.6805C30.8543 66.2056 31.2802 66.6313 31.8054 66.6313Z" fill="#FF9E3E"/>
<path id="Vector_48" d="M35.3686 62.7075C35.8273 62.7075 36.1991 62.3358 36.1991 61.8773C36.1991 61.4187 35.8273 61.047 35.3686 61.047C34.9099 61.047 34.5381 61.4187 34.5381 61.8773C34.5381 62.3358 34.9099 62.7075 35.3686 62.7075Z" fill="#FF9E3E"/>
<path id="Vector_49" d="M59.8823 55.168H59.735C59.641 55.1267 59.5664 55.0509 59.5265 54.9562C59.4867 54.8616 59.4846 54.7553 59.5207 54.6592L61.6639 49.6106C61.6831 49.5629 61.7114 49.5195 61.7475 49.4829C61.7835 49.4463 61.8264 49.4172 61.8737 49.3973C61.9211 49.3773 61.9719 49.367 62.0232 49.3668C62.0746 49.3667 62.1255 49.3767 62.173 49.3963C62.268 49.4403 62.3428 49.5186 62.3826 49.6154C62.4223 49.7123 62.424 49.8206 62.3873 49.9186L60.244 54.9672C60.2115 55.0336 60.1594 55.0885 60.0947 55.1244C60.0301 55.1603 59.9559 55.1756 59.8823 55.168Z" fill="#3E3126"/>
<path id="Vector_50" d="M62.7356 52.7309H62.6418C62.5478 52.6895 62.4732 52.6137 62.4333 52.5191C62.3935 52.4244 62.3914 52.3181 62.4275 52.222L63.5661 49.5437C63.5852 49.496 63.6136 49.4526 63.6496 49.416C63.6856 49.3794 63.7286 49.3503 63.7759 49.3304C63.8232 49.3104 63.8741 49.3001 63.9254 49.2999C63.9768 49.2998 64.0277 49.3098 64.0751 49.3294C64.1701 49.3734 64.245 49.4517 64.2848 49.5485C64.3245 49.6454 64.3262 49.7537 64.2895 49.8517L63.1374 52.53C63.1029 52.6039 63.0444 52.6639 62.9715 52.7004C62.8985 52.7368 62.8154 52.7476 62.7356 52.7309Z" fill="#3E3126"/>
</g>
</g>
</g>
<defs>
<clipPath id="clip0_11_10671">
<rect width="102" height="84" fill="white" transform="translate(0.105103)"/>
</clipPath>
</defs>
</svg>
