<svg width="415" height="562" viewBox="0 0 415 562" fill="none" xmlns="http://www.w3.org/2000/svg">
<path d="M370.956 561.159H43.4515C19.6556 561.159 0.378418 541.882 0.378418 518.086V43.6192C0.378418 19.8233 19.6556 0.546143 43.4515 0.546143H370.956C394.752 0.546143 414.029 19.8233 414.029 43.6192V518.086C414.029 541.882 394.752 561.159 370.956 561.159Z" fill="#F5C018"/>
<mask id="mask0_96_2458" style="mask-type:luminance" maskUnits="userSpaceOnUse" x="0" y="208" width="415" height="98">
<path d="M414.07 208.573H0.378418V305.291H414.07V208.573Z" fill="white"/>
</mask>
<g mask="url(#mask0_96_2458)">
<path d="M29.5224 295.3C29.5224 295.3 63.1848 294.927 112.02 294.595C114.508 286.097 116.332 277.764 115.751 273.121C113.513 254.839 99.542 242.029 81.7572 242.029C76.9898 242.029 72.471 243.023 68.3669 244.765C62.7703 226.814 46.022 213.755 26.2059 213.755C10.7427 213.755 -2.855 221.715 -10.7317 233.779V295.756L29.5224 295.3Z" fill="#3B85C7"/>
<path d="M33.2124 243.894L38.7261 295.176" stroke="#071A35" stroke-width="0.25" stroke-miterlimit="10" stroke-linecap="round" stroke-linejoin="round"/>
<path d="M55.2664 294.637L58.6244 259.772" stroke="#071A35" stroke-width="0.25" stroke-miterlimit="10" stroke-linecap="round" stroke-linejoin="round"/>
<path d="M79.3528 294.636L86.8149 266.114" stroke="#071A35" stroke-width="0.25" stroke-miterlimit="10" stroke-linecap="round" stroke-linejoin="round"/>
<path d="M424.061 295.258C424.061 295.258 404.95 295.051 377.257 294.844C375.848 290.035 374.811 285.309 375.143 282.656C376.428 272.292 384.346 265.037 394.42 265.037C397.115 265.037 399.685 265.576 402.007 266.612C405.199 256.414 414.692 249.035 425.927 249.035C434.716 249.035 442.427 253.553 446.904 260.394V295.549L424.061 295.258Z" fill="#3B85C7"/>
<path d="M409.469 294.927L407.562 275.111" stroke="#071A35" stroke-width="0.25" stroke-miterlimit="10" stroke-linecap="round" stroke-linejoin="round"/>
<path d="M395.789 294.885L391.56 278.717" stroke="#071A35" stroke-width="0.25" stroke-miterlimit="10" stroke-linecap="round" stroke-linejoin="round"/>
<path d="M20.8586 295.134H403.334" stroke="#071A35" stroke-width="0.25" stroke-miterlimit="10" stroke-linecap="round" stroke-linejoin="round"/>
</g>
<path d="M369.712 236.391C376.801 226.856 381.071 215.041 381.071 202.231C381.071 170.517 355.368 144.814 323.654 144.814C322.659 144.814 321.706 144.897 320.752 144.98C313.539 118.78 289.618 99.5027 261.138 99.5027C231.331 99.5027 206.457 120.562 200.57 148.628C195.927 147.26 191.036 146.514 185.936 146.514C157.29 146.514 134.075 169.73 134.075 198.376C134.075 215.995 142.863 231.499 156.295 240.869C139.588 246.755 127.566 262.633 127.566 281.371C127.566 305.084 146.802 324.32 170.515 324.32C172.38 324.32 174.204 324.154 175.987 323.947V323.988L322.369 323.905C326.39 324.361 332.567 324.03 336.754 324.03C365.193 324.03 386.004 302.348 386.004 273.909C385.921 259.068 379.661 245.76 369.712 236.391Z" fill="#54BCC4"/>
<path d="M209.235 324.029L172.836 170.931L178.142 168.195L223.247 324.029H209.235Z" fill="#A84213"/>
<path d="M161.809 221.673L193.274 237.012L193.108 230.711L162.431 217.777L161.809 221.673Z" fill="#A84213"/>
<path d="M187.221 201.858L199.078 178.559H203.721L189.543 213.134L187.221 201.858Z" fill="#A84213"/>
<path d="M231.705 324.029L277.099 132.253L281.825 132.875L241.074 324.029H231.705Z" fill="#A84213"/>
<path d="M231.705 203.226L234.109 198.292L256.371 233.779L252.225 237.22L231.705 203.226Z" fill="#A84213"/>
<path d="M269.679 176.072L301.351 161.355L303.963 166.289L266.072 185.027L269.679 176.072Z" fill="#A84213"/>
<path d="M244.017 220.347L226.854 225.405L225.445 221.798L240.825 216.202L244.017 220.347Z" fill="#A84213"/>
<path d="M247.831 275.692L272.87 261.141L274.321 262.757L247.831 281.993V275.692Z" fill="#A84213"/>
<path d="M286.634 173.212L298.159 178.684L300.149 175.948L289.66 170.932L286.634 173.212Z" fill="#A84213"/>
<path d="M270.217 324.03L337.086 202.895H341.521L280.498 324.03H270.217Z" fill="#A84213"/>
<path d="M296.582 241.241L298.987 271.878L303.713 264.457L299.899 241.241H296.582Z" fill="#A84213"/>
<path d="M324.317 233.655L346.993 229.717L348.03 233.655L320.793 241.241L324.317 233.655Z" fill="#A84213"/>
<path d="M289.659 295.922L327.758 279.34L331.323 282.656L286.633 304.711L289.659 295.922Z" fill="#A84213"/>
<path d="M312.377 286.844L315.238 273.826H317.891L316.937 285.393L312.377 286.844Z" fill="#A84213"/>
<path d="M299.775 294.844L321.622 295.508L320.793 299.114L295.256 298.534L299.775 294.844Z" fill="#A84213"/>
<path d="M203.721 290.201L154.429 265.867L155.59 261.141L203.721 283.195V290.201Z" fill="#A84213"/>
<path d="M179.055 275.692C178.433 276.024 161.809 283.486 161.809 283.486L163.757 286.844L185.895 279.133L179.055 275.692Z" fill="#A84213"/>
<path d="M173.872 324.03H341.604" stroke="#071A35" stroke-width="0.25" stroke-miterlimit="10" stroke-linecap="round" stroke-linejoin="round"/>
<path d="M38.9746 348.862C38.9746 347.991 38.7258 346.872 38.0211 345.297C33.5438 335.513 22.2677 326.932 20.485 333.482C18.9097 339.161 27.5741 346.913 29.8956 348.862H38.9746Z" fill="#54BCC4"/>
<path d="M33.3365 324.196C33.3365 324.196 28.5276 337.296 33.2121 348.613L45.649 348.986C45.649 348.986 50.4579 337.42 45.649 324.569L33.3365 324.196Z" fill="#F9EED4"/>
<path d="M32.7974 332.902C32.7974 332.902 32.2999 336.716 32.3829 338.581" stroke="#071A35" stroke-width="0.25" stroke-miterlimit="10" stroke-linecap="round" stroke-linejoin="round"/>
<path d="M34.4145 336.715C34.4145 336.715 34.3316 339.203 34.456 340.778" stroke="#071A35" stroke-width="0.25" stroke-miterlimit="10" stroke-linecap="round" stroke-linejoin="round"/>
<path d="M48.136 328.838C48.9237 328.838 49.6285 328.134 49.6699 327.221C49.7114 326.848 49.7113 326.475 49.7113 326.102C49.7113 318.682 44.9439 312.629 39.0571 312.629C33.1703 312.629 28.4028 318.682 28.4028 326.102C28.4028 326.475 28.4028 326.848 28.4443 327.221C28.4857 328.134 29.1905 328.838 29.9782 328.838H48.136Z" fill="#EC543B"/>
<path d="M33.9992 316.236C32.7555 317.355 31.7605 318.931 31.1387 320.713L33.9992 316.236Z" fill="#A84213"/>
<path d="M33.9992 316.236C32.7555 317.355 31.7605 318.931 31.1387 320.713" stroke="white" stroke-width="0.25" stroke-miterlimit="10" stroke-linecap="round" stroke-linejoin="round"/>
<path d="M36.1131 314.826C35.7815 314.992 35.4499 315.158 35.1597 315.365L36.1131 314.826Z" fill="#A84213"/>
<path d="M36.1131 314.826C35.7815 314.992 35.4499 315.158 35.1597 315.365" stroke="white" stroke-width="0.25" stroke-miterlimit="10" stroke-linecap="round" stroke-linejoin="round"/>
<path d="M29.9363 328.838H48.6331" stroke="#071A35" stroke-width="0.25" stroke-miterlimit="10" stroke-linecap="round" stroke-linejoin="round"/>
<path d="M51.2038 348.945C55.3909 342.354 60.4485 329.875 54.3545 328.3C48.3019 326.725 40.4667 344.509 38.6426 348.904L51.2038 348.945Z" fill="#54BCC4"/>
<path d="M43.1616 348.862L52.2406 332.902" stroke="#071A35" stroke-width="0.25" stroke-miterlimit="10" stroke-linecap="round" stroke-linejoin="round"/>
<path d="M22.1431 348.945H55.847" stroke="#071A35" stroke-width="0.25" stroke-miterlimit="10" stroke-linecap="round" stroke-linejoin="round"/>
<path d="M347.409 364.49C347.409 364.49 339.243 383.933 347.202 400.681L368.386 401.261C368.386 401.261 376.553 384.099 368.386 365.07L347.409 364.49Z" fill="#F9EED4"/>
<path d="M347.493 375.144C347.493 375.144 346.663 380.824 346.829 383.56" stroke="#071A35" stroke-width="0.25" stroke-miterlimit="10" stroke-linecap="round" stroke-linejoin="round"/>
<path d="M350.228 380.782C350.228 380.782 350.063 384.43 350.27 386.793" stroke="#071A35" stroke-width="0.25" stroke-miterlimit="10" stroke-linecap="round" stroke-linejoin="round"/>
<path d="M348.073 386.213C348.073 386.213 347.99 389.654 348.819 393.385" stroke="#071A35" stroke-width="0.25" stroke-miterlimit="10" stroke-linecap="round" stroke-linejoin="round"/>
<path d="M372.573 371.372C373.941 371.372 375.102 370.336 375.185 368.968C375.227 368.429 375.226 367.89 375.226 367.351C375.226 356.323 367.101 347.369 357.069 347.369C347.036 347.369 338.911 356.323 338.911 367.351C338.911 367.89 338.911 368.429 338.952 368.968C339.035 370.336 340.237 371.372 341.564 371.372H372.573Z" fill="#EC543B"/>
<path d="M348.528 352.675C346.414 354.375 344.714 356.655 343.636 359.35L348.528 352.675Z" fill="#A84213"/>
<path d="M348.528 352.675C346.414 354.375 344.714 356.655 343.636 359.35" stroke="white" stroke-width="0.25" stroke-miterlimit="10" stroke-linecap="round" stroke-linejoin="round"/>
<path d="M352.093 350.603C351.513 350.81 350.974 351.1 350.435 351.39L352.093 350.603Z" fill="#A84213"/>
<path d="M352.093 350.603C351.513 350.81 350.974 351.1 350.435 351.39" stroke="white" stroke-width="0.25" stroke-miterlimit="10" stroke-linecap="round" stroke-linejoin="round"/>
<path d="M341.605 371.372H373.361" stroke="#071A35" stroke-width="0.25" stroke-miterlimit="10" stroke-linecap="round" stroke-linejoin="round"/>
<path d="M325.023 401.138C325.023 400.267 324.774 399.148 324.069 397.572C319.592 387.789 308.316 379.207 306.533 385.757C304.958 391.437 313.622 399.189 315.944 401.138H325.023Z" fill="#54BCC4"/>
<path d="M319.426 376.43C319.426 376.43 314.617 389.53 319.302 400.847L331.739 401.221C331.739 401.221 336.548 389.654 331.739 376.803L319.426 376.43Z" fill="#F9EED4"/>
<path d="M318.887 385.177C318.887 385.177 318.39 388.991 318.472 390.857" stroke="#071A35" stroke-width="0.25" stroke-miterlimit="10" stroke-linecap="round" stroke-linejoin="round"/>
<path d="M320.463 388.991C320.463 388.991 320.38 391.479 320.504 393.054" stroke="#071A35" stroke-width="0.25" stroke-miterlimit="10" stroke-linecap="round" stroke-linejoin="round"/>
<path d="M334.226 381.073C335.014 381.073 335.718 380.368 335.76 379.456C335.801 379.083 335.801 378.71 335.801 378.337C335.801 370.916 331.034 364.863 325.147 364.863C319.26 364.863 314.493 370.874 314.493 378.337C314.493 378.71 314.493 379.083 314.534 379.456C314.576 380.368 315.28 381.073 316.068 381.073H334.226Z" fill="#EC543B"/>
<path d="M320.089 368.511C318.845 369.63 317.85 371.206 317.228 372.988L320.089 368.511Z" fill="#A84213"/>
<path d="M320.089 368.511C318.845 369.63 317.85 371.206 317.228 372.988" stroke="white" stroke-width="0.25" stroke-miterlimit="10" stroke-linecap="round" stroke-linejoin="round"/>
<path d="M316.027 381.072H334.724" stroke="#071A35" stroke-width="0.25" stroke-miterlimit="10" stroke-linecap="round" stroke-linejoin="round"/>
<path d="M325.561 400.681C325.561 400.681 330.494 375.683 339.615 375.144C347.906 374.647 337.832 401.137 337.832 401.137L325.561 400.681Z" fill="#54BCC4"/>
<path d="M370.542 401.179C370.542 401.179 383.31 374.482 394.047 377.508C404.784 380.534 387.995 401.262 387.995 401.262L370.542 401.179Z" fill="#54BCC4"/>
<path d="M380.615 401.179L391.684 383.809" stroke="#071A35" stroke-width="0.25" stroke-miterlimit="10" stroke-linecap="round" stroke-linejoin="round"/>
<path d="M373.692 401.262C378.252 394.049 391.104 368.304 381.9 363.827C367.018 356.614 362.001 396.453 360.011 401.221L373.692 401.262Z" fill="#54BCC4"/>
<path d="M364.945 401.179L376.179 374.274" stroke="#071A35" stroke-width="0.25" stroke-miterlimit="10" stroke-linecap="round" stroke-linejoin="round"/>
<path d="M373.692 401.262C378.253 394.049 391.104 368.304 381.901 363.827" stroke="#071A35" stroke-width="0.25" stroke-miterlimit="10" stroke-linecap="round" stroke-linejoin="round"/>
<path d="M308.191 401.22H394.047" stroke="#071A35" stroke-width="0.25" stroke-miterlimit="10" stroke-linecap="round" stroke-linejoin="round"/>
<path d="M73.2591 410.756C70.7302 403.294 58.9152 370.129 49.1729 375.187C42.4156 378.669 56.3449 403.087 60.9466 410.756H73.2591Z" fill="#54BCC4"/>
<path d="M54.645 384.432L66.9575 410.756" stroke="#071A35" stroke-width="0.25" stroke-miterlimit="10" stroke-linecap="round" stroke-linejoin="round"/>
<path d="M86.0274 411.295C86.8566 403.75 102.112 362.004 83.8302 361.548C66.916 361.133 69.6108 404.289 69.1133 410.798L86.0274 411.295Z" fill="#54BCC4"/>
<path d="M75.6636 410.342C75.8709 410.342 82.6696 370.958 82.6696 370.958" stroke="#071A35" stroke-width="0.25" stroke-miterlimit="10" stroke-linecap="round" stroke-linejoin="round"/>
<path d="M47.3071 411.295H94.816" stroke="#071A35" stroke-width="0.25" stroke-miterlimit="10" stroke-linecap="round" stroke-linejoin="round"/>
<path d="M109.45 183.243C110.031 181.834 110.362 180.341 110.362 178.725C110.362 172.133 105.015 166.827 98.4645 166.827C96.9306 166.827 95.4797 167.158 94.1116 167.656C91.6242 159.282 83.8719 153.146 74.6686 153.146C66.253 153.146 59.0396 158.245 55.9718 165.541C54.2721 164.837 52.3651 164.422 50.4167 164.422C42.54 164.422 36.1143 170.806 36.1143 178.725C36.1143 180.3 36.4459 181.792 36.9019 183.243H109.45Z" fill="#FBEAB8"/>
<path d="M202.271 86.5674C203.1 84.5361 203.597 82.2974 203.597 79.9759C203.597 70.358 195.804 62.5642 186.186 62.5642C183.947 62.5642 181.833 63.0203 179.843 63.8079C176.195 51.5369 164.877 42.6238 151.446 42.6238C139.133 42.6238 128.603 50.0859 124.126 60.7816C121.638 59.7038 118.861 59.1234 116 59.1234C104.476 59.1234 95.1064 68.4925 95.1064 80.0173C95.1064 82.3389 95.5625 84.5361 96.2672 86.6089H202.271V86.5674Z" fill="#FBEAB8"/>
<path d="M386.047 110.239C386.503 109.244 386.752 108.167 386.752 107.006C386.752 102.28 382.606 98.4659 377.466 98.4659C376.263 98.4659 375.144 98.6731 374.108 99.0877C372.159 93.0765 366.107 88.7236 358.976 88.7236C352.426 88.7236 346.788 92.3718 344.384 97.5953C343.057 97.0563 341.565 96.8076 340.031 96.8076C333.895 96.8076 328.879 101.368 328.879 107.047C328.879 108.167 329.128 109.244 329.501 110.281H386.047V110.239Z" fill="#FBEAB8"/>
</svg>
