<svg width="988" height="522" viewBox="0 0 988 522" fill="none" xmlns="http://www.w3.org/2000/svg">
<g clip-path="url(#clip0_11_9833)">
<g opacity="0.27">
<path d="M936.169 331.116H876.184C875.555 331.116 875.115 330.615 875.115 330.05V302.89C875.115 302.263 875.618 301.823 876.184 301.823H936.169C936.798 301.823 937.238 302.325 937.238 302.89V330.05C937.238 330.677 936.735 331.116 936.169 331.116ZM877.252 328.921H935.038V303.956H877.252V328.921Z" fill="#6EB6F9"/>
<path d="M973.205 358.277H913.219C912.59 358.277 912.15 357.775 912.15 357.21V330.05C912.15 329.423 912.653 328.984 913.219 328.984H973.205C973.833 328.984 974.274 329.486 974.274 330.05V357.21C974.274 357.838 973.771 358.277 973.205 358.277ZM914.288 356.081H972.073V331.116H914.288V356.081Z" fill="#6EB6F9"/>
<path d="M973.205 303.956H913.219C912.59 303.956 912.15 303.454 912.15 302.89V275.73C912.15 275.102 912.653 274.663 913.219 274.663H973.205C973.833 274.663 974.274 275.165 974.274 275.73V302.89C974.274 303.517 973.771 303.956 973.205 303.956ZM914.288 301.761H972.073V276.796H914.288V301.761Z" fill="#6EB6F9"/>
</g>
<g opacity="0.27">
<path d="M158.994 119.229H99.0082C98.3794 119.229 97.9393 118.727 97.9393 118.163V91.0023C97.9393 90.375 98.4423 89.9359 99.0082 89.9359H158.994C159.623 89.9359 160.063 90.4377 160.063 91.0023V118.163C160.063 118.79 159.56 119.229 158.994 119.229ZM100.077 117.033H157.862V92.0686H100.077V117.033Z" fill="#6EB6F9"/>
<path d="M195.966 146.389H135.981C135.352 146.389 134.912 145.887 134.912 145.323V118.163C134.912 117.535 135.415 117.096 135.981 117.096H195.966C196.595 117.096 197.035 117.598 197.035 118.163V145.323C197.035 145.95 196.532 146.389 195.966 146.389ZM137.05 144.194H194.835V119.229H137.05V144.194Z" fill="#6EB6F9"/>
<path d="M195.966 92.1314H135.981C135.352 92.1314 134.912 91.6296 134.912 91.065V63.9048C134.912 63.2775 135.415 62.8384 135.981 62.8384H195.966C196.595 62.8384 197.035 63.3402 197.035 63.9048V91.065C197.035 91.6923 196.532 92.1314 195.966 92.1314ZM137.05 89.936H194.835V64.9711H137.05V89.936Z" fill="#6EB6F9"/>
</g>
<g opacity="0.27">
<path d="M120.135 370.069H60.1495C59.5207 370.069 59.0806 369.567 59.0806 369.003V341.843C59.0806 341.215 59.5836 340.776 60.1495 340.776H120.135C120.764 340.776 121.204 341.278 121.204 341.843V369.003C121.204 369.63 120.701 370.069 120.135 370.069ZM61.2184 367.874H119.004V342.909H61.2813V367.874H61.2184Z" fill="#6EB6F9"/>
<path d="M157.171 397.229H97.1848C96.556 397.229 96.1158 396.728 96.1158 396.163V369.003C96.1158 368.376 96.6189 367.936 97.1848 367.936H157.171C157.799 367.936 158.24 368.438 158.24 369.003V396.163C158.24 396.79 157.737 397.229 157.171 397.229ZM98.2537 395.034H156.039V370.069H98.2537V395.034Z" fill="#6EB6F9"/>
<path d="M157.171 342.972H97.1848C96.556 342.972 96.1158 342.47 96.1158 341.905V314.745C96.1158 314.118 96.6189 313.679 97.1848 313.679H157.171C157.799 313.679 158.24 314.181 158.24 314.745V341.905C158.24 342.533 157.737 342.972 157.171 342.972ZM98.2537 340.776H156.039V315.811H98.2537V340.776Z" fill="#6EB6F9"/>
</g>
<g opacity="0.27">
<path d="M739.297 78.5199H679.312C678.683 78.5199 678.243 78.0181 678.243 77.4535V50.2933C678.243 49.666 678.746 49.227 679.312 49.227H739.297C739.926 49.227 740.366 49.7288 740.366 50.2933V77.4535C740.366 78.0808 739.863 78.5199 739.297 78.5199ZM680.381 76.3245H738.166V51.3596H680.381V76.3245Z" fill="#6EB6F9"/>
<path d="M776.333 105.68H716.347C715.718 105.68 715.278 105.178 715.278 104.614V77.4535C715.278 76.8263 715.781 76.3872 716.347 76.3872H776.333C776.962 76.3872 777.402 76.889 777.402 77.4535V104.614C777.402 105.241 776.899 105.68 776.333 105.68ZM717.416 103.485H775.201V78.5199H717.416V103.485Z" fill="#141414"/>
<path d="M776.333 51.4224H716.347C715.718 51.4224 715.278 50.9206 715.278 50.356V23.133C715.278 22.5058 715.781 22.0667 716.347 22.0667H776.333C776.962 22.0667 777.402 22.5685 777.402 23.133V50.2933C777.402 50.9206 776.899 51.3596 776.333 51.3596V51.4224ZM717.416 49.227H775.201V24.2621H717.416V49.227Z" fill="#6EB6F9"/>
</g>
<path d="M605.115 496.963C604.738 504.804 604.612 514.15 607.756 521.489C610.649 528.201 616.622 534.85 623.036 538.425C635.171 545.199 654.349 544.07 660.134 529.581C660.825 527.887 658.059 527.134 657.43 528.828C652.022 542.377 632.404 541.875 622.155 534.536C616.936 530.772 611.78 524.939 609.705 518.792C607.442 512.08 607.568 503.989 607.882 496.963C607.945 495.144 605.115 495.144 605.052 496.963H605.115Z" fill="#141414"/>
<path d="M649.885 497.653C649.507 505.494 649.382 514.84 652.525 522.179C655.418 528.891 661.391 535.54 667.805 539.115C679.94 545.889 699.118 544.76 704.903 530.271C705.595 528.577 702.828 527.824 702.199 529.518C696.792 543.067 677.174 542.565 666.925 535.226C661.706 531.463 656.55 525.629 654.475 519.482C652.211 512.77 652.337 504.679 652.651 497.653C652.714 495.834 649.885 495.834 649.822 497.653H649.885Z" fill="#141414"/>
<path d="M645.735 531.776H672.898C673.419 531.776 673.841 531.355 673.841 530.835V513.711C673.841 513.191 673.419 512.77 672.898 512.77H645.735C645.214 512.77 644.792 513.191 644.792 513.711V530.835C644.792 531.355 645.214 531.776 645.735 531.776Z" fill="#616779"/>
<path d="M682.77 531.776H709.933C710.454 531.776 710.877 531.355 710.877 530.835V513.711C710.877 513.191 710.454 512.77 709.933 512.77H682.77C682.249 512.77 681.827 513.191 681.827 513.711V530.835C681.827 531.355 682.249 531.776 682.77 531.776Z" fill="#616779"/>
<path d="M850.844 430.474H922.776V467.545C922.776 475.135 916.614 481.345 908.943 481.345H864.677C857.069 481.345 850.844 475.197 850.844 467.545V430.474Z" fill="#B3B7C9"/>
<path d="M908.943 482.725H864.677C856.251 482.725 849.46 475.887 849.46 467.545V430.474C849.46 429.721 850.089 429.031 850.844 429.031H922.776C923.531 429.031 924.16 429.659 924.16 430.474V467.545C924.16 475.95 917.306 482.725 908.943 482.725ZM852.227 431.854V467.545C852.227 474.382 857.76 479.902 864.614 479.902H908.88C915.734 479.902 921.267 474.382 921.267 467.545V431.854H852.164H852.227Z" fill="#141414"/>
<path d="M927.303 422.633H846.191V473.504H927.303V422.633Z" fill="#DCDEE9"/>
<path d="M924.663 422.633H910.138V473.504H924.663V422.633Z" fill="#B3B7C9"/>
<path d="M925.166 472.187H848.328C847.637 472.187 847.008 471.622 847.008 470.869V425.017C847.008 424.327 847.574 423.7 848.328 423.7H925.166C925.857 423.7 926.486 424.264 926.486 425.017V470.869C926.486 471.559 925.92 472.187 925.166 472.187ZM849.649 469.615H923.845V426.334H849.649V469.615Z" fill="white"/>
<path d="M856.503 460.896C855.937 460.896 855.434 460.457 855.434 459.83V448.539C855.434 447.974 855.874 447.473 856.503 447.473C857.131 447.473 857.572 447.912 857.572 448.539V459.83C857.572 460.394 857.131 460.896 856.503 460.896Z" fill="#141414"/>
<path d="M874.612 455.251H863.294C862.728 455.251 862.225 454.812 862.225 454.184C862.225 453.557 862.665 453.118 863.294 453.118H874.612C875.178 453.118 875.681 453.557 875.681 454.184C875.681 454.812 875.24 455.251 874.612 455.251Z" fill="#141414"/>
<path d="M912.276 460.645C915.818 460.645 918.689 457.781 918.689 454.247C918.689 450.714 915.818 447.849 912.276 447.849C908.733 447.849 905.862 450.714 905.862 454.247C905.862 457.781 908.733 460.645 912.276 460.645Z" fill="white"/>
<path d="M927.366 474.884H846.253C845.499 474.884 844.87 474.257 844.87 473.504V422.633C844.87 421.881 845.499 421.191 846.253 421.191H927.366C928.121 421.191 928.75 421.818 928.75 422.633V473.504C928.75 474.257 928.121 474.884 927.366 474.884ZM847.637 472.061H925.983V424.013H847.637V472.061Z" fill="#141414"/>
<path d="M912.276 461.649C908.189 461.649 904.793 458.324 904.793 454.184C904.793 450.044 908.126 446.72 912.276 446.72C916.426 446.72 919.758 450.044 919.758 454.184C919.758 458.324 916.426 461.649 912.276 461.649ZM912.276 448.853C909.32 448.853 906.868 451.236 906.868 454.247C906.868 457.258 909.257 459.642 912.276 459.642C915.294 459.642 917.683 457.258 917.683 454.247C917.683 451.236 915.294 448.853 912.276 448.853Z" fill="#141414"/>
<path d="M817.77 496.712H637.812C636.423 496.712 635.297 497.836 635.297 499.221V516.22C635.297 517.606 636.423 518.729 637.812 518.729H817.77C819.159 518.729 820.285 517.606 820.285 516.22V499.221C820.285 497.836 819.159 496.712 817.77 496.712Z" fill="#616779"/>
<path d="M773.692 518.102H815.317C817.47 518.102 819.216 516.375 819.216 514.244C819.216 512.114 817.47 510.387 815.317 510.387H773.692C771.539 510.387 769.794 512.114 769.794 514.244C769.794 516.375 771.539 518.102 773.692 518.102Z" fill="#8F94A4"/>
<path d="M648.753 526.695H660.197C662.35 526.695 664.095 524.968 664.095 522.838C664.095 520.707 662.35 518.98 660.197 518.98H648.753C646.6 518.98 644.854 520.707 644.854 522.838C644.854 524.968 646.6 526.695 648.753 526.695Z" fill="#8F94A4"/>
<path d="M685.285 526.695H696.729C698.882 526.695 700.627 524.968 700.627 522.838C700.627 520.707 698.882 518.98 696.729 518.98H685.285C683.132 518.98 681.386 520.707 681.386 522.838C681.386 524.968 683.132 526.695 685.285 526.695Z" fill="#8F94A4"/>
<path d="M817.832 520.297H637.812C635.548 520.297 633.725 518.478 633.725 516.22V499.159C633.725 496.901 635.548 495.082 637.812 495.082H817.832C820.096 495.082 821.919 496.901 821.919 499.159V516.22C821.919 518.478 820.096 520.297 817.832 520.297ZM637.812 498.281C637.309 498.281 636.869 498.72 636.869 499.221V516.283C636.869 516.785 637.309 517.224 637.812 517.224H817.832C818.335 517.224 818.776 516.785 818.776 516.283V499.221C818.776 498.72 818.335 498.281 817.832 498.281H637.812Z" fill="#141414"/>
<path d="M711.128 481.909H934.534C935.037 481.909 935.415 482.285 935.415 482.787V500.539C935.415 501.04 935.037 501.417 934.534 501.417H109.572C109.069 501.417 108.691 501.04 108.691 500.539V482.787C108.691 482.285 109.069 481.909 109.572 481.909H188.735" fill="#D35E0D"/>
<g opacity="0.48">
<path d="M289.01 120.117L241.144 129.234L250.284 176.984L298.15 167.867L289.01 120.117Z" fill="#F9E3AA"/>
<path d="M254.758 129.767C256.896 133.781 261.36 135.977 265.824 135.224C270.289 134.471 273.747 130.269 273.558 125.69C273.558 124.435 272.489 123.306 271.169 123.306C269.911 123.306 268.78 124.372 268.78 125.69C268.78 126.066 268.78 126.442 268.78 126.756C268.78 126.254 268.78 126.944 268.717 127.007C268.717 127.195 268.591 127.383 268.591 127.509C268.591 127.634 268.402 127.948 268.591 127.634C268.528 127.822 268.402 127.948 268.339 128.136C268.277 128.324 268.151 128.45 268.025 128.575C267.711 129.14 268.277 128.324 267.836 128.826C267.585 129.077 267.333 129.328 267.082 129.579C267.333 129.328 267.082 129.579 266.956 129.704C266.83 129.83 266.642 129.892 266.453 130.018C266.264 130.143 266.139 130.206 265.95 130.269C265.698 130.394 266.202 130.269 265.761 130.269C265.573 130.269 265.321 130.394 265.133 130.457C265.133 130.457 264.504 130.582 264.755 130.52C265.007 130.52 264.378 130.52 264.378 130.52C264.189 130.52 264.001 130.52 263.812 130.52C263.624 130.52 263.435 130.52 263.246 130.52C262.617 130.52 263.435 130.582 263.058 130.52C262.68 130.394 262.303 130.331 261.926 130.206C261.549 130.08 262.052 130.269 261.8 130.206C261.674 130.143 261.486 130.018 261.297 129.955C260.983 129.767 260.668 129.579 260.417 129.39C260.731 129.641 260.417 129.39 260.291 129.265C260.165 129.14 260.039 129.014 259.914 128.889C259.788 128.763 259.599 128.575 259.474 128.45C259.159 128.136 259.474 128.575 259.411 128.324C259.159 128.01 258.971 127.697 258.782 127.321C258.216 126.254 256.581 125.815 255.575 126.505C254.443 127.195 254.129 128.575 254.758 129.704V129.767Z" fill="#F9C85D"/>
<path d="M278.929 122.513L275.841 123.102L284.8 169.864L287.888 169.276L278.929 122.513Z" fill="white"/>
<path d="M282.886 121.778L281.342 122.072L290.293 168.836L291.837 168.542L282.886 121.778Z" fill="white"/>
<path d="M250.23 178.191C249.665 178.191 249.099 177.752 248.973 177.187L239.856 129.453C239.73 128.763 240.17 128.136 240.862 128.01L288.712 118.915C289.404 118.79 290.032 119.229 290.158 119.919L299.275 167.653C299.401 168.343 298.961 168.97 298.269 169.096L250.419 178.191C250.419 178.191 250.293 178.191 250.168 178.191H250.23ZM242.559 130.206L251.236 175.431L296.572 166.775L287.895 121.55L242.559 130.206Z" fill="#141414"/>
<path d="M263.938 131.586C267.098 131.586 269.66 129.03 269.66 125.878C269.66 122.725 267.098 120.17 263.938 120.17C260.778 120.17 258.216 122.725 258.216 125.878C258.216 129.03 260.778 131.586 263.938 131.586Z" fill="#F44260"/>
<path d="M263.938 132.527C260.794 132.527 258.027 130.331 257.399 127.132C256.707 123.557 259.096 120.044 262.68 119.354C266.264 118.664 269.786 121.048 270.477 124.623C270.792 126.38 270.477 128.136 269.471 129.579C268.465 131.021 266.956 132.025 265.195 132.339C264.755 132.401 264.378 132.464 263.938 132.464V132.527ZM263.938 121.173C263.938 121.173 263.372 121.173 263.058 121.236C260.48 121.738 258.782 124.247 259.285 126.819C259.788 129.39 262.24 131.084 264.881 130.582C266.139 130.331 267.208 129.641 267.962 128.575C268.654 127.509 268.905 126.254 268.717 125C268.276 122.742 266.264 121.111 264.064 121.111L263.938 121.173Z" fill="#141414"/>
<path d="M254.443 170.099L257.399 164.391C257.65 163.827 256.833 163.388 256.581 163.89L253.626 169.598C253.374 170.162 254.192 170.601 254.443 170.099Z" fill="#141414"/>
<path d="M257.65 169.159L260.605 163.451C260.857 162.886 260.039 162.447 259.788 162.949L256.833 168.657C256.581 169.221 257.399 169.66 257.65 169.159Z" fill="#141414"/>
</g>
<g opacity="0.48">
<path d="M986.388 177.964L939.933 163.281L925.214 209.623L971.669 224.306L986.388 177.964Z" fill="#F9E3AA"/>
<path d="M951.7 170.099C951.7 174.678 954.593 178.944 959.057 180.261C963.27 181.516 968.174 179.571 970.123 175.557C970.627 174.428 970.438 172.985 969.306 172.358C968.237 171.793 966.665 172.044 966.099 173.173C965.911 173.487 965.722 173.8 965.533 174.177C965.408 174.365 965.722 173.926 965.471 174.239C965.345 174.365 965.219 174.553 965.03 174.678C964.905 174.804 964.779 174.929 964.653 174.992C964.402 175.243 965.093 174.741 964.527 175.055C964.213 175.243 963.961 175.431 963.647 175.557C963.081 175.808 964.024 175.431 963.458 175.619C963.27 175.619 963.144 175.745 962.955 175.745C962.767 175.745 962.641 175.808 962.452 175.87C962.955 175.745 962.327 175.87 962.201 175.87C961.824 175.87 961.446 175.87 961.132 175.87C961.635 175.87 960.943 175.87 960.88 175.87C960.692 175.87 960.503 175.808 960.377 175.745C960.252 175.682 960 175.619 959.874 175.557C960.189 175.682 959.874 175.557 959.749 175.494C959.371 175.306 959.057 175.118 958.68 174.867C958.931 175.055 958.68 174.867 958.554 174.741C958.428 174.616 958.302 174.49 958.177 174.365C958.051 174.239 957.862 174.051 957.737 173.863C957.925 174.114 957.736 173.863 957.674 173.738C957.422 173.424 957.234 173.048 957.045 172.671C956.919 172.42 956.982 172.483 957.045 172.671C956.982 172.483 956.919 172.232 956.856 172.044C956.731 171.668 956.668 171.354 956.605 170.978C956.73 171.479 956.605 170.789 956.605 170.727C956.605 170.539 956.605 170.288 956.605 170.099C956.605 168.845 955.536 167.716 954.215 167.716C952.895 167.716 951.889 168.719 951.826 170.099H951.7Z" fill="#F9C85D"/>
<path d="M973.408 174.329L958.962 219.704L961.958 220.653L976.405 175.278L973.408 174.329Z" fill="white"/>
<path d="M965.848 221.911L964.402 221.409L978.801 176.058L980.31 176.498L965.848 221.911Z" fill="white"/>
<path d="M971.695 225.486C971.695 225.486 971.444 225.486 971.318 225.486L924.914 210.808C924.6 210.683 924.348 210.495 924.159 210.181C924.034 209.868 923.971 209.554 924.097 209.24L938.81 162.949C938.999 162.321 939.69 161.882 940.382 162.133L986.786 176.811C987.101 176.937 987.352 177.125 987.541 177.438C987.667 177.752 987.729 178.066 987.604 178.379L972.89 224.671C972.701 225.173 972.198 225.549 971.695 225.549V225.486ZM926.863 208.739L970.878 222.664L984.837 178.756L940.822 164.83L926.863 208.739Z" fill="#141414"/>
<path d="M961.635 176.874C964.795 176.874 967.357 174.318 967.357 171.166C967.357 168.013 964.795 165.458 961.635 165.458C958.475 165.458 955.913 168.013 955.913 171.166C955.913 174.318 958.475 176.874 961.635 176.874Z" fill="#F44260"/>
<path d="M961.635 177.815C960.943 177.815 960.252 177.689 959.623 177.501C957.925 176.937 956.542 175.807 955.724 174.239C954.907 172.671 954.718 170.852 955.284 169.159C956.353 165.709 960.126 163.764 963.647 164.83C965.345 165.395 966.728 166.524 967.546 168.092C968.363 169.66 968.552 171.479 967.986 173.173C967.483 174.867 966.288 176.247 964.716 177.062C963.773 177.564 962.704 177.815 961.635 177.815ZM961.635 166.461C959.623 166.461 957.736 167.779 957.108 169.786C956.73 170.978 956.856 172.295 957.422 173.424C957.988 174.553 958.994 175.368 960.189 175.745C962.704 176.56 965.408 175.118 966.162 172.671C966.917 170.225 965.533 167.528 963.081 166.712C962.578 166.587 962.138 166.461 961.635 166.461Z" fill="#141414"/>
<path d="M932.208 205.54L937.553 201.901C938.056 201.588 937.553 200.772 937.05 201.086L931.705 204.724C931.202 205.038 931.705 205.853 932.208 205.54Z" fill="#141414"/>
<path d="M935.478 206.229L940.822 202.591C941.325 202.278 940.822 201.462 940.319 201.776L934.975 205.414C934.472 205.728 934.975 206.543 935.478 206.229Z" fill="#141414"/>
</g>
<g opacity="0.48">
<path d="M911.873 137.072L864.007 146.19L873.146 193.94L921.012 184.822L911.873 137.072Z" fill="#F9E3AA"/>
<path d="M877.63 146.703C879.767 150.717 884.232 152.913 888.696 152.16C893.161 151.407 896.619 147.205 896.43 142.626C896.43 141.371 895.361 140.242 894.041 140.242C892.783 140.242 891.651 141.308 891.651 142.626C891.651 143.002 891.651 143.378 891.651 143.692C891.651 143.19 891.651 143.88 891.589 143.943C891.589 144.131 891.463 144.319 891.463 144.445C891.463 144.57 891.274 144.884 891.463 144.57C891.4 144.758 891.274 144.884 891.211 145.072C891.148 145.26 891.023 145.386 890.897 145.511C890.583 146.075 891.148 145.26 890.708 145.762C890.457 146.013 890.205 146.264 889.954 146.515C890.205 146.264 889.954 146.515 889.828 146.64C889.702 146.765 889.514 146.828 889.325 146.954C889.136 147.079 889.011 147.142 888.822 147.205C888.57 147.33 889.073 147.205 888.633 147.205C888.445 147.205 888.193 147.33 888.005 147.393C888.005 147.393 887.376 147.518 887.627 147.455C887.879 147.455 887.25 147.455 887.25 147.455C887.061 147.455 886.873 147.455 886.684 147.455C886.495 147.455 886.307 147.455 886.118 147.455C885.489 147.455 886.307 147.518 885.93 147.455C885.552 147.33 885.175 147.267 884.798 147.142C884.42 147.016 884.923 147.205 884.672 147.142C884.546 147.079 884.358 146.954 884.169 146.891C883.855 146.703 883.54 146.515 883.289 146.326C883.603 146.577 883.289 146.326 883.163 146.201C883.037 146.076 882.911 145.95 882.786 145.825C882.66 145.699 882.471 145.511 882.345 145.386C882.031 145.072 882.346 145.511 882.283 145.26C882.031 144.946 881.842 144.633 881.654 144.256C881.088 143.19 879.453 142.751 878.447 143.441C877.315 144.131 877.001 145.511 877.63 146.64V146.703Z" fill="#F9C85D"/>
<path d="M901.783 139.458L898.695 140.046L907.646 186.81L910.734 186.222L901.783 139.458Z" fill="white"/>
<path d="M905.749 138.796L904.205 139.09L913.156 185.854L914.7 185.56L905.749 138.796Z" fill="white"/>
<path d="M873.102 195.127C873.102 195.127 872.599 195.064 872.411 194.939C872.159 194.751 871.971 194.437 871.908 194.123L862.79 146.389C862.665 145.699 863.105 145.072 863.797 144.946L911.647 135.851C912.339 135.726 912.967 136.165 913.093 136.855L922.21 184.589C922.21 184.903 922.21 185.279 922.022 185.53C921.833 185.781 921.519 185.969 921.204 186.032L873.354 195.127C873.354 195.127 873.228 195.127 873.102 195.127ZM865.431 147.142L874.109 192.367L919.444 183.711L910.767 138.486L865.431 147.142Z" fill="#141414"/>
<path d="M886.81 148.522C889.97 148.522 892.532 145.966 892.532 142.814C892.532 139.661 889.97 137.106 886.81 137.106C883.65 137.106 881.088 139.661 881.088 142.814C881.088 145.966 883.65 148.522 886.81 148.522Z" fill="#F44260"/>
<path d="M886.81 149.463C883.666 149.463 880.899 147.267 880.27 144.068C879.956 142.312 880.271 140.556 881.277 139.113C882.283 137.67 883.792 136.667 885.552 136.353C889.136 135.663 892.658 138.047 893.349 141.622C894.041 145.197 891.651 148.71 888.067 149.4C887.627 149.463 887.25 149.525 886.81 149.525V149.463ZM886.81 138.109C886.81 138.109 886.244 138.109 885.929 138.172C884.672 138.423 883.603 139.113 882.849 140.179C882.157 141.246 881.905 142.5 882.094 143.755C882.597 146.326 885.049 148.02 887.627 147.518C890.205 147.016 891.903 144.507 891.4 141.936C890.96 139.677 888.948 138.047 886.747 138.047L886.81 138.109Z" fill="#141414"/>
<path d="M877.315 187.035L880.271 181.327C880.522 180.763 879.705 180.324 879.453 180.826L876.498 186.534C876.246 187.098 877.064 187.537 877.315 187.035Z" fill="#141414"/>
<path d="M880.585 186.094L883.54 180.386C883.792 179.822 882.974 179.383 882.723 179.885L879.767 185.593C879.516 186.157 880.333 186.596 880.585 186.094Z" fill="#141414"/>
</g>
<path d="M369.888 338.894H249.161V369.505H369.888V338.894Z" fill="#58E8C2"/>
<path d="M369.888 370.885H249.161C248.407 370.885 247.778 370.257 247.778 369.442V338.832C247.778 338.079 248.407 337.389 249.161 337.389H274.124C274.879 337.389 275.507 338.016 275.507 338.832C275.507 339.647 274.879 340.274 274.124 340.274H250.608V368.062H368.504V340.274H282.55C281.795 340.274 281.166 339.647 281.166 338.832C281.166 338.016 281.795 337.389 282.55 337.389H369.888C370.642 337.389 371.271 338.016 371.271 338.832V369.442C371.271 370.195 370.642 370.885 369.888 370.885Z" fill="#141414"/>
<path d="M378.313 369.63H269.597V487.743H378.313V369.63Z" fill="#58E8C2"/>
<path d="M311.725 369.63H293.679V487.743H311.725V369.63Z" fill="#CAFFF0"/>
<path opacity="0.58" d="M336.499 369.63H268.905V383.994H336.499V369.63Z" fill="#107A5E"/>
<path opacity="0.58" d="M377.37 369.191H352.722V472.187H377.37V369.191Z" fill="#107A5E"/>
<path d="M378.313 489.311H269.597C268.717 489.311 268.025 488.621 268.025 487.743V432.669C268.025 431.791 268.717 431.101 269.597 431.101C270.477 431.101 271.169 431.791 271.169 432.669V486.174H376.741V371.198H271.169V423.072C271.169 423.951 270.477 424.641 269.597 424.641C268.717 424.641 268.025 423.951 268.025 423.072V369.63C268.025 368.752 268.717 368.062 269.597 368.062H378.313C379.194 368.062 379.885 368.752 379.885 369.63V487.743C379.885 488.621 379.194 489.311 378.313 489.311Z" fill="#141414"/>
<path d="M378.313 489.185H269.597C268.842 489.185 268.214 488.558 268.214 487.805V432.732C268.214 431.979 268.842 431.289 269.597 431.289C270.351 431.289 270.98 431.917 270.98 432.732V486.363H376.867V369.63C376.867 368.877 377.496 368.187 378.251 368.187C379.005 368.187 379.634 368.815 379.634 369.63V487.743C379.634 488.495 379.005 489.123 378.251 489.123L378.313 489.185Z" fill="#141414"/>
<path d="M269.597 424.515C268.842 424.515 268.214 423.888 268.214 423.072V369.63C268.214 368.877 268.842 368.187 269.597 368.187C270.351 368.187 270.98 368.815 270.98 369.63V423.072C270.98 423.825 270.351 424.515 269.597 424.515Z" fill="#141414"/>
<path d="M752.691 481.345C752.691 468.298 765.329 457.76 780.986 457.76C796.643 457.76 809.281 468.298 809.281 481.345" fill="white"/>
<path d="M159.749 309.79L158.051 311.421C144.092 327.792 133.214 346.672 125.794 366.807C118.375 386.942 115.042 408.52 113.659 429.909C113.156 437.562 113.219 445.403 114.979 452.867C115.797 456.317 116.929 459.641 118.438 462.84C119.444 465.036 120.638 467.169 122.147 469.05C128.435 476.954 137.616 480.404 147.425 481.533C154.09 482.285 160.88 482.035 167.608 481.784H175.594L186.472 461.711" fill="#F6BC3D"/>
<path d="M120.261 466.729C118.375 466.667 116.488 466.541 114.665 466.353C93.4749 464.283 69.9585 454.874 56.3768 437.813C52.6669 433.108 49.4602 427.965 47.1965 422.445C38.7709 401.62 44.0526 376.655 33.1118 357.085C28.899 349.558 22.4225 343.348 14.7514 339.459C11.9218 338.016 8.90368 336.887 6.57718 334.817C2.49009 331.242 0.981015 325.032 2.99312 319.951C5.00522 314.87 10.3499 311.421 15.8203 311.609C19.7816 311.734 23.4286 313.616 26.824 315.498C37.3875 321.457 47.6996 329.046 53.0442 339.898C57.823 349.683 58.0116 360.911 59.2692 371.7C61.0926 387.632 65.4312 403.565 74.3599 416.925C80.3963 426.02 88.5076 432.732 98.3166 437.625C102.844 439.883 107.874 441.451 112.904 441.514" fill="#F6BC3D"/>
<path d="M104.416 445.528C104.604 452.24 106.491 458.826 110.075 464.534C111.395 466.604 114.35 467.608 116.551 466.228C118.752 464.848 119.632 462.025 118.249 459.767C117.62 458.763 117.054 457.76 116.551 456.693C116.425 456.442 116.3 456.192 116.174 455.878C116.111 455.753 115.734 454.937 116.048 455.627C116.363 456.317 115.985 455.376 115.922 455.251C115.797 455 115.734 454.686 115.608 454.435C114.854 452.303 114.288 450.044 113.973 447.786L114.162 449.041C114.036 447.849 113.91 446.72 113.91 445.528C113.847 443.082 111.772 440.698 109.194 440.824C106.616 440.949 104.416 442.894 104.479 445.528H104.416Z" fill="#DC6900"/>
<path opacity="0.56" d="M135.792 376.53C135.918 393.654 138.181 410.59 146.041 426.02C154.404 442.329 170.312 456.38 169.998 475.887C169.872 481.972 179.304 481.972 179.429 475.887C179.744 456.756 167.042 442.643 157.548 427.275C148.053 411.907 145.287 394.469 145.161 376.53C145.161 370.508 135.666 370.445 135.729 376.53H135.792Z" fill="#DC6900"/>
<path d="M223.067 275.479C231.241 286.079 237.78 297.182 242.999 308.535L246.458 316.501C251.677 329.235 255.449 342.344 258.467 355.391C260.039 362.166 261.36 369.003 262.177 375.84C263.875 390.455 262.995 405.258 259.536 419.748C257.398 428.718 253.186 437.437 248.533 445.967C243.88 454.498 240.17 462.213 233.065 469.552L221.809 470.179L212.566 473.629L207.85 477.581L202.883 473.629L196.218 469.552L189.176 470.179L179.995 473.629C179.241 469.113 178.486 464.597 176.851 460.143C172.764 449.166 163.27 439.256 157.233 428.592C152.832 420.814 150.317 412.723 148.305 404.568C144.029 386.942 142.331 369.066 144.846 351.314C145.978 343.097 148.053 334.88 151.197 326.851C152.643 323.15 153.901 319.136 156.416 315.686C158.931 312.236 160.566 308.284 163.647 304.96" fill="#F6BC3D"/>
<path d="M643.031 420.689H585.623V459.892H643.031V420.689Z" fill="#3E4659"/>
<path d="M622.721 420.689H565.313V459.892H622.721V420.689Z" fill="#616779"/>
<path d="M622.281 422.006H565.313V433.924H622.281V422.006Z" fill="#3E4659"/>
<path d="M752.691 481.345C752.691 472.626 765.329 465.6 780.986 465.6C796.643 465.6 809.281 472.688 809.281 481.345" fill="#DCDEE9"/>
<path d="M703.583 481.909H920.261C920.764 481.909 921.141 482.285 921.141 482.787V500.539C921.141 501.04 920.764 501.417 920.261 501.417H107.937C107.434 501.417 107.057 501.04 107.057 500.539V482.787C107.057 482.285 107.434 481.909 107.937 481.909H165.093" fill="#F4A56E"/>
<path d="M703.583 493.827H920.261C920.764 493.827 921.141 493.952 921.141 494.203V501.166C921.141 501.166 920.764 501.542 920.261 501.542H107.937C107.434 501.542 107.057 501.417 107.057 501.166V494.203C107.057 494.203 107.434 493.827 107.937 493.827H165.093" fill="#E4721C"/>
<path d="M121.644 257.915C113.093 245.872 103.032 233.515 88.759 229.438C94.9211 223.04 103.284 218.775 112.15 217.646C121.016 216.517 130.196 218.524 137.741 223.165L134.472 220.782C138.747 214.007 145.538 208.864 153.272 206.606C155.661 205.916 158.114 205.477 160.566 205.038V205.414C163.396 191.803 166.288 177.877 173.582 166.085C174.085 165.332 174.651 164.517 175.531 164.266C176.411 164.078 177.292 164.517 178.046 164.956C190.496 172.546 198.356 187.161 197.664 201.713L198.293 214.007" fill="#F6BC3D"/>
<path d="M198.23 207.108C198.23 210.871 204.392 213.631 204.392 213.631C211.183 216.517 217.659 219.966 223.884 223.918C226.462 225.549 228.978 227.368 230.675 229.814C233.631 234.017 233.693 239.537 233.128 244.68C231.053 263.31 220.866 279.744 205.838 290.784C203.512 292.477 201.06 293.92 198.544 295.237C197.035 296.053 195.526 296.805 194.017 297.495L190.307 299.189C171.57 306.779 149.437 305.587 131.705 295.99C127.178 293.544 122.713 290.282 120.89 285.515C119.821 282.692 119.821 279.556 119.884 276.545C120.135 269.206 121.016 261.93 122.525 254.716" fill="#F6BC3D"/>
<path d="M686.417 459.892H506.459C505.07 459.892 503.944 461.016 503.944 462.401V479.4C503.944 480.786 505.07 481.909 506.459 481.909H686.417C687.806 481.909 688.932 480.786 688.932 479.4V462.401C688.932 461.016 687.806 459.892 686.417 459.892Z" fill="#3E4659"/>
<path d="M671.326 459.892H491.369C489.979 459.892 488.853 461.016 488.853 462.401V479.4C488.853 480.786 489.979 481.909 491.369 481.909H671.326C672.715 481.909 673.841 480.786 673.841 479.4V462.401C673.841 461.016 672.715 459.892 671.326 459.892Z" fill="#616779"/>
<path d="M371.837 157.492V99.6585C371.837 85.2315 383.281 73.5645 397.428 73.5645H856.44C870.587 73.5645 882.031 85.2315 882.031 99.6585V396.978C882.031 411.405 870.587 423.072 856.44 423.072H397.491C383.344 423.072 371.9 411.405 371.9 396.978V167.277" fill="#3E4659"/>
<path d="M330.274 157.492V99.6585C330.274 85.2315 341.97 73.5645 356.432 73.5645H825.441C839.903 73.5645 851.598 85.2315 851.598 99.6585V396.978C851.598 411.405 839.903 423.072 825.441 423.072H356.495C342.033 423.072 330.337 411.405 330.337 396.978V167.277" fill="#616779"/>
<path d="M345.931 336.511V104.677C345.931 95.1422 353.665 87.4269 363.223 87.4269H818.713C828.27 87.4269 836.004 95.1422 836.004 104.677V391.96C836.004 401.495 828.27 409.21 818.713 409.21H363.223C353.665 409.21 345.931 401.495 345.931 391.96V347.676" fill="#37383E"/>
<path d="M620.583 288.965V371.135C620.583 381.046 612.535 389.012 602.663 389.012H419.121C409.187 389.012 401.201 380.983 401.201 371.135V151.282C401.201 141.371 409.249 133.405 419.121 133.405H602.663C612.598 133.405 620.583 141.434 620.583 151.282V280.371" fill="#111316"/>
<path d="M799.283 224.42V264.188C799.283 272.468 792.555 279.18 784.255 279.18H666.987C658.688 279.18 651.96 272.468 651.96 264.188V154.293C651.96 146.013 658.688 139.301 666.987 139.301H784.255C792.555 139.301 799.283 146.013 799.283 154.293V219.778" fill="#111316"/>
<path d="M606.436 276.294V369.316C606.436 373.205 603.229 376.404 599.33 376.404H394.096C390.197 376.404 386.991 373.205 386.991 369.316V127.76C386.991 123.871 390.197 120.672 394.096 120.672H599.33C603.229 120.672 606.436 123.871 606.436 127.76V267.638" fill="#91BBFF"/>
<path d="M774.384 269.771H780.168C784.067 269.771 787.274 266.572 787.274 262.683V127.76C787.274 123.871 784.067 120.672 780.168 120.672H768.536" fill="#91BBFF"/>
<path d="M747.032 131.649C748.49 131.649 749.672 130.469 749.672 129.014C749.672 127.559 748.49 126.38 747.032 126.38C745.573 126.38 744.391 127.559 744.391 129.014C744.391 130.469 745.573 131.649 747.032 131.649Z" fill="white"/>
<path d="M755.394 131.649C756.853 131.649 758.035 130.469 758.035 129.014C758.035 127.559 756.853 126.38 755.394 126.38C753.936 126.38 752.753 127.559 752.753 129.014C752.753 130.469 753.936 131.649 755.394 131.649Z" fill="white"/>
<path d="M763.757 131.649C765.216 131.649 766.398 130.469 766.398 129.014C766.398 127.559 765.216 126.38 763.757 126.38C762.299 126.38 761.116 127.559 761.116 129.014C761.116 130.469 762.299 131.649 763.757 131.649Z" fill="white"/>
<path d="M767.278 120.672H656.361C652.437 120.672 649.256 123.845 649.256 127.76V262.62C649.256 266.535 652.437 269.708 656.361 269.708H767.278C771.202 269.708 774.384 266.535 774.384 262.62V127.76C774.384 123.845 771.202 120.672 767.278 120.672Z" fill="white"/>
<path d="M746.088 159.624H673.59C671.471 159.624 669.754 161.337 669.754 163.451V248.13C669.754 250.243 671.471 251.957 673.59 251.957H746.088C748.207 251.957 749.924 250.243 749.924 248.13V163.451C749.924 161.337 748.207 159.624 746.088 159.624Z" fill="white"/>
<path d="M593.546 276.294V369.316C593.546 373.205 590.339 376.404 586.44 376.404H381.206C377.307 376.404 374.101 373.205 374.101 369.316V127.76C374.101 123.871 377.307 120.672 381.206 120.672H586.44C590.339 120.672 593.546 123.871 593.546 127.76V267.638" fill="white"/>
<path d="M249.161 483.352H476.655C478.478 483.352 478.478 480.529 476.655 480.529H249.161C247.338 480.529 247.338 483.352 249.161 483.352Z" fill="#141414"/>
<path d="M482.754 483.352H490.928C491.683 483.352 492.375 482.725 492.375 481.909C492.375 481.094 491.746 480.466 490.928 480.466H482.754C482 480.466 481.308 481.094 481.308 481.909C481.308 482.725 481.937 483.352 482.754 483.352Z" fill="#141414"/>
<path d="M566.759 431.289V424.703C566.759 423.951 566.131 423.26 565.313 423.26C564.496 423.26 563.867 423.888 563.867 424.703V431.289C563.867 432.042 564.496 432.732 565.313 432.732C566.131 432.732 566.759 432.105 566.759 431.289Z" fill="#141414"/>
<path d="M566.76 458.324V439.067C566.76 437.248 563.93 437.248 563.93 439.067V458.324C563.93 460.143 566.76 460.143 566.76 458.324Z" fill="#141414"/>
<path d="M624.167 458.324V424.64C624.167 422.821 621.338 422.821 621.338 424.64V458.324C621.338 460.143 624.167 460.143 624.167 458.324Z" fill="#141414"/>
<path d="M644.414 458.324V424.641C644.414 422.821 641.585 422.821 641.585 424.641V458.324C641.585 460.143 644.414 460.143 644.414 458.324Z" fill="#141414"/>
<path d="M754.074 481.345C754.577 452.052 807.269 452.052 807.772 481.345C807.772 483.164 810.664 483.164 810.601 481.345C810.35 465.914 795.196 456.317 780.923 456.317C766.65 456.317 751.496 465.914 751.244 481.345C751.244 483.164 754.011 483.164 754.074 481.345Z" fill="#141414"/>
<path d="M651.897 477.393C651.268 477.393 650.828 476.891 650.828 476.326V465.6C650.828 464.973 651.331 464.534 651.897 464.534C652.463 464.534 652.966 465.036 652.966 465.6V476.326C652.966 476.954 652.463 477.393 651.897 477.393Z" fill="#141414"/>
<path d="M656.99 477.393C656.361 477.393 655.921 476.891 655.921 476.326V465.6C655.921 464.973 656.424 464.534 656.99 464.534C657.556 464.534 658.059 465.036 658.059 465.6V476.326C658.059 476.954 657.556 477.393 656.99 477.393Z" fill="#141414"/>
<path d="M662.083 477.393C661.454 477.393 661.014 476.891 661.014 476.326V465.6C661.014 464.973 661.517 464.534 662.083 464.534C662.649 464.534 663.152 465.036 663.152 465.6V476.326C663.152 476.954 662.649 477.393 662.083 477.393Z" fill="#141414"/>
<path d="M667.176 477.393C666.547 477.393 666.107 476.891 666.107 476.326V465.6C666.107 464.973 666.61 464.534 667.176 464.534C667.742 464.534 668.245 465.036 668.245 465.6V476.326C668.245 476.954 667.742 477.393 667.176 477.393Z" fill="#141414"/>
<path d="M587.698 122.114C594.552 122.114 604.424 120.107 605.052 129.265C605.367 133.844 605.052 138.486 605.052 143.065V365.992C605.052 366.87 605.367 368.438 605.052 369.254C604.361 371.135 599.645 374.585 597.884 374.962C596.69 375.213 595.055 374.962 593.797 374.962H586.503C584.68 374.962 584.68 377.784 586.503 377.784C594.489 377.784 606.813 380.168 607.945 369.191C608.322 365.616 607.945 361.789 607.945 358.214V145.135C607.945 139.615 608.385 133.969 607.945 128.45C607.065 117.347 596.061 119.292 587.761 119.292C585.937 119.292 585.937 122.114 587.761 122.114H587.698Z" fill="#141414"/>
<path d="M490.425 176.247H563.616C565.439 176.247 565.439 173.424 563.616 173.424H490.425C488.602 173.424 488.602 176.247 490.425 176.247Z" fill="#141414"/>
<path d="M490.425 187.161H563.616C565.439 187.161 565.439 184.338 563.616 184.338H490.425C488.602 184.338 488.602 187.161 490.425 187.161Z" fill="#141414"/>
<path d="M490.425 198.075H528.592C530.416 198.075 530.416 195.252 528.592 195.252H490.425C488.602 195.252 488.602 198.075 490.425 198.075Z" fill="#141414"/>
<path d="M490.425 208.927H528.592C530.416 208.927 530.416 206.104 528.592 206.104H490.425C488.602 206.104 488.602 208.927 490.425 208.927Z" fill="#141414"/>
<path d="M490.425 277.047H563.616C565.439 277.047 565.439 274.224 563.616 274.224H490.425C488.602 274.224 488.602 277.047 490.425 277.047Z" fill="#141414"/>
<path d="M490.425 287.961H563.616C565.439 287.961 565.439 285.138 563.616 285.138H490.425C488.602 285.138 488.602 287.961 490.425 287.961Z" fill="#141414"/>
<path d="M490.425 298.813H528.592C530.416 298.813 530.416 295.99 528.592 295.99H490.425C488.602 295.99 488.602 298.813 490.425 298.813Z" fill="#141414"/>
<path d="M490.425 309.727H528.592C530.416 309.727 530.416 306.904 528.592 306.904H490.425C488.602 306.904 488.602 309.727 490.425 309.727Z" fill="#141414"/>
<path d="M594.678 138.611H605.493C607.316 138.611 607.316 135.788 605.493 135.788H594.678C592.854 135.788 592.854 138.611 594.678 138.611Z" fill="#141414"/>
<path d="M375.798 138.611H591.031C592.854 138.611 592.854 135.788 591.031 135.788H375.798C373.975 135.788 373.975 138.611 375.798 138.611Z" fill="#141414"/>
<path d="M566.256 131.649C567.715 131.649 568.897 130.469 568.897 129.014C568.897 127.559 567.715 126.38 566.256 126.38C564.798 126.38 563.616 127.559 563.616 129.014C563.616 130.469 564.798 131.649 566.256 131.649Z" fill="#141414"/>
<path d="M574.619 131.649C576.078 131.649 577.26 130.469 577.26 129.014C577.26 127.559 576.078 126.38 574.619 126.38C573.161 126.38 571.979 127.559 571.979 129.014C571.979 130.469 573.161 131.649 574.619 131.649Z" fill="#141414"/>
<path d="M582.919 131.649C584.378 131.649 585.56 130.469 585.56 129.014C585.56 127.559 584.378 126.38 582.919 126.38C581.461 126.38 580.278 127.559 580.278 129.014C580.278 130.469 581.461 131.649 582.919 131.649Z" fill="#141414"/>
<path d="M592.162 276.294V318.885C592.162 335.131 593.797 352.318 592.162 368.438C591.219 377.847 576.946 374.962 570.092 374.962H400.447C393.844 374.962 377.244 378.098 375.547 369.254C374.226 362.228 375.547 353.635 375.547 346.547V133.342C375.547 131.649 375.17 129.453 375.547 127.76C377.056 121.424 382.275 122.052 387.242 122.052H552.046C562.987 122.052 574.368 121.111 585.246 122.052C589.899 122.428 591.911 125.188 592.225 129.516C592.603 134.848 592.225 140.305 592.225 145.574V267.575C592.225 269.394 595.055 269.394 595.055 267.575V165.897C595.055 153.477 596.375 140.305 595.055 127.948C593.923 117.096 582.29 119.229 574.368 119.229H399.503C392.964 119.229 377.999 116.469 373.912 123.431C370.642 128.951 372.717 139.991 372.717 145.887V365.176C372.717 367.999 372.403 371.073 373.912 373.582C376.238 377.533 380.263 377.784 384.287 377.784C419.059 378.035 453.83 377.784 488.602 377.784C520.796 377.784 553.367 379.29 585.497 377.784C598.262 377.157 594.992 361.476 594.992 352.631V276.294C594.992 274.475 592.162 274.475 592.162 276.294Z" fill="#141414"/>
<path d="M470.933 159.812H398.434C396.316 159.812 394.599 161.526 394.599 163.639V248.318C394.599 250.432 396.316 252.145 398.434 252.145H470.933C473.051 252.145 474.769 250.432 474.769 248.318V163.639C474.769 161.526 473.051 159.812 470.933 159.812Z" fill="#5ABDFF"/>
<path d="M745.9 159.185H673.401C671.283 159.185 669.565 160.898 669.565 163.011V247.691C669.565 249.804 671.283 251.517 673.401 251.517H745.9C748.018 251.517 749.735 249.804 749.735 247.691V163.011C749.735 160.898 748.018 159.185 745.9 159.185Z" fill="#58E8C2"/>
<path d="M470.619 267.199H398.12C396.002 267.199 394.285 268.912 394.285 271.025V355.705C394.285 357.818 396.002 359.531 398.12 359.531H470.619C472.737 359.531 474.454 357.818 474.454 355.705V271.025C474.454 268.912 472.737 267.199 470.619 267.199Z" fill="#FEEA63"/>
<path d="M470.744 357.963H402.836C399.881 357.963 396.548 358.716 395.856 354.701C395.29 351.377 395.856 347.362 395.856 343.975V281.814C395.856 278.803 394.976 274.287 395.856 271.402C396.988 267.701 400.321 268.516 403.339 268.516H463.01C465.84 268.516 472.065 267.199 473.26 271.025C473.951 273.221 473.26 276.608 473.26 278.866V346.547C473.26 349.244 474.831 357.336 470.43 358.088C468.607 358.402 469.424 361.099 471.185 360.786C476.152 359.97 476.089 355.956 476.089 352.067V272.97C476.089 269.269 474.957 266.07 470.619 265.756C459.238 264.878 447.354 265.756 435.973 265.756C423.649 265.756 411.199 265.129 398.875 265.756C394.85 265.944 393.153 268.579 393.027 272.28C392.901 276.859 393.027 281.438 393.027 286.017V350.812C393.027 353.886 392.335 357.963 395.29 359.97C397.931 361.727 402.836 360.911 405.791 360.911H470.807C472.631 360.911 472.631 358.088 470.807 358.088L470.744 357.963Z" fill="#141414"/>
<path d="M473.134 359.029C473.134 359.029 472.882 359.029 472.757 358.841L395.228 268.453C395.228 268.453 395.102 267.952 395.228 267.763C395.416 267.575 395.731 267.638 395.919 267.763L473.448 358.151C473.448 358.151 473.574 358.653 473.448 358.841C473.385 358.904 473.26 358.967 473.134 358.967V359.029Z" fill="#141414"/>
<path d="M395.605 359.029C395.605 359.029 395.416 359.029 395.291 358.904C395.102 358.716 395.039 358.465 395.291 358.214L472.82 267.826C472.82 267.826 473.26 267.638 473.511 267.826C473.7 268.014 473.763 268.265 473.511 268.516L395.982 358.904C395.982 358.904 395.731 359.092 395.605 359.092V359.029Z" fill="#141414"/>
<path d="M774.384 271.151C780.609 271.151 787.337 271.213 788.594 263.561C788.971 261.365 788.72 259.045 788.72 256.849V132.339C788.72 129.39 789.097 126.129 787.525 123.494C784.004 117.347 774.384 119.292 768.536 119.292C766.712 119.292 766.712 122.114 768.536 122.114C774.258 122.114 784.821 119.982 785.89 127.822C786.142 129.453 785.89 131.335 785.89 132.966V248.82C785.89 252.709 786.079 256.661 785.89 260.55C785.89 261.24 785.953 261.93 785.89 262.62C785.01 268.955 779.225 268.328 774.384 268.328C772.56 268.328 772.56 271.151 774.384 271.151Z" fill="#141414"/>
<path d="M650.262 138.611H774.384C776.207 138.611 776.207 135.788 774.384 135.788H650.262C648.438 135.788 648.438 138.611 650.262 138.611Z" fill="#141414"/>
<path d="M775.515 138.611H786.33C788.154 138.611 788.154 135.788 786.33 135.788H775.515C773.692 135.788 773.692 138.611 775.515 138.611Z" fill="#141414"/>
<path d="M747.032 131.649C748.49 131.649 749.672 130.469 749.672 129.014C749.672 127.559 748.49 126.38 747.032 126.38C745.573 126.38 744.391 127.559 744.391 129.014C744.391 130.469 745.573 131.649 747.032 131.649Z" fill="#141414"/>
<path d="M755.394 131.649C756.853 131.649 758.035 130.469 758.035 129.014C758.035 127.559 756.853 126.38 755.394 126.38C753.936 126.38 752.753 127.559 752.753 129.014C752.753 130.469 753.936 131.649 755.394 131.649Z" fill="#141414"/>
<path d="M763.757 131.649C765.216 131.649 766.398 130.469 766.398 129.014C766.398 127.559 765.216 126.38 763.757 126.38C762.299 126.38 761.116 127.559 761.116 129.014C761.116 130.469 762.299 131.649 763.757 131.649Z" fill="#141414"/>
<path d="M767.278 268.328H660.511C659.191 268.328 657.682 268.579 656.424 268.328C651.331 267.387 650.954 264.376 650.702 260.55C650.325 254.277 650.702 247.817 650.702 241.544V142.563C650.702 137.858 650.136 132.652 650.702 127.948C651.645 120.421 660.448 122.052 665.73 122.052H759.607C764.952 122.052 772.12 120.734 773 128.073C773.566 132.778 773 137.796 773 142.5V250.577C773 256.222 775.138 267.199 767.278 268.265C765.518 268.516 765.455 271.339 767.278 271.088C774.887 270.084 775.83 264.564 775.83 258.292V132.652C775.83 127.195 775.83 121.173 769.165 119.542C763.946 118.225 757.406 119.292 752.125 119.292H717.039C697.232 119.292 677.237 118.476 657.493 119.292C643.723 119.856 647.873 140.179 647.873 149.463V253.274C647.873 257.602 646.804 264 649.57 267.701C653.029 272.342 659.757 271.213 664.85 271.213H767.278C769.102 271.213 769.102 268.391 767.278 268.391V268.328Z" fill="#141414"/>
<path d="M746.088 250.577H678.18C675.225 250.577 671.892 251.329 671.2 247.315C670.634 243.99 671.2 239.976 671.2 236.589V174.428C671.2 171.417 670.32 166.9 671.2 164.015C672.332 160.314 675.665 161.13 678.683 161.13H738.354C741.184 161.13 747.409 159.812 748.603 163.639C749.295 165.834 748.603 169.221 748.603 171.479V239.16C748.603 241.858 750.175 249.949 745.774 250.702C743.951 251.016 744.768 253.713 746.529 253.399C751.496 252.584 751.433 248.569 751.433 244.68V165.583C751.433 161.882 750.301 158.683 745.963 158.37C734.582 157.492 722.698 158.37 711.317 158.37C698.993 158.37 686.543 157.742 674.219 158.37C670.194 158.558 668.497 161.192 668.371 164.893C668.245 169.472 668.371 174.051 668.371 178.63V243.426C668.371 246.499 667.679 250.577 670.634 252.584C673.275 254.34 678.18 253.525 681.135 253.525H746.151C747.975 253.525 747.975 250.702 746.151 250.702L746.088 250.577Z" fill="#141414"/>
<path d="M748.415 251.643C748.415 251.643 748.163 251.643 748.038 251.455L670.509 161.067C670.509 161.067 670.383 160.565 670.509 160.377C670.697 160.189 671.012 160.251 671.2 160.377L748.729 250.765C748.729 250.765 748.855 251.267 748.729 251.455C748.666 251.517 748.541 251.58 748.415 251.58V251.643Z" fill="#141414"/>
<path d="M670.886 251.643C670.886 251.643 670.697 251.643 670.572 251.517C670.383 251.329 670.32 251.078 670.572 250.827L748.1 160.44C748.1 160.44 748.541 160.252 748.792 160.44C748.981 160.628 749.044 160.879 748.792 161.13L671.263 251.517C671.263 251.517 671.012 251.706 670.886 251.706V251.643Z" fill="#141414"/>
<path d="M206.467 395.599C206.467 422.947 206.467 450.233 206.467 477.581C206.467 479.4 209.297 479.4 209.297 477.581C209.297 450.233 209.297 422.947 209.297 395.599C209.297 393.779 206.467 393.779 206.467 395.599Z" fill="#141414"/>
<path d="M135.666 221.472C138.307 217.395 141.765 213.945 145.915 211.373C150.506 208.488 155.599 207.296 160.88 206.292C162.641 205.979 161.886 203.219 160.126 203.595C154.467 204.599 149.059 206.041 144.155 209.178C139.753 211.938 136.044 215.701 133.214 220.029C132.208 221.535 134.66 222.977 135.666 221.472Z" fill="#141414"/>
<path d="M158.116 260.864C160.188 257.998 158.693 253.391 154.777 250.575C150.862 247.759 146.008 247.8 143.937 250.666C141.865 253.532 143.36 258.139 147.276 260.955C151.191 263.771 156.045 263.73 158.116 260.864Z" fill="#141414"/>
<path d="M196.124 241.42C199.538 240.479 201.264 235.954 199.979 231.312C198.694 226.671 194.884 223.671 191.47 224.612C188.056 225.552 186.33 230.078 187.615 234.719C188.9 239.361 192.71 242.361 196.124 241.42Z" fill="#141414"/>
<path d="M138.307 251.455C140.382 245.057 144.784 239.537 150.568 236.087C152.14 235.146 150.694 232.7 149.122 233.641C142.709 237.467 137.804 243.551 135.54 250.702C134.975 252.458 137.741 253.148 138.244 251.455H138.307Z" fill="#141414"/>
<path d="M177.229 221.911C181.63 218.649 187.038 217.081 192.571 217.583C193.326 217.646 194.017 216.893 194.017 216.14C194.017 215.325 193.388 214.823 192.571 214.697C186.66 214.196 180.624 215.889 175.845 219.402C175.217 219.841 174.902 220.594 175.342 221.346C175.72 221.974 176.663 222.287 177.292 221.848L177.229 221.911Z" fill="#141414"/>
<path d="M184.334 254.027C184.02 256.347 183.391 258.543 182.448 260.675C182.385 260.864 182.322 260.989 182.133 261.115C182.008 261.24 181.756 261.24 181.567 261.24C178.927 261.24 176.286 261.177 173.645 260.926C174.274 258.731 175.72 256.849 177.606 255.532C179.492 254.215 181.882 253.713 184.145 253.964" fill="#141414"/>
<path d="M175.154 486.802C175.154 477.769 182.511 470.493 191.502 470.493C200.494 470.493 207.851 477.832 207.851 486.802" fill="white"/>
<path d="M207.913 486.802C207.913 477.769 215.27 470.493 224.262 470.493C233.253 470.493 240.61 477.832 240.61 486.802" fill="white"/>
<path d="M136.798 218.712C141.891 221.033 146.356 224.545 149.877 228.873C147.927 223.479 145.79 217.834 141.514 214.007" fill="#141414"/>
<path d="M143.337 212.377C147.99 215.387 152.392 220.531 155.159 225.298C154.027 219.653 152.958 212.502 149.248 208.049" fill="#141414"/>
<path d="M152.14 207.86C156.353 211.498 161.383 217.834 163.521 222.915C163.144 217.144 163.018 209.93 160 205.038" fill="#141414"/>
<path d="M458.42 472.626H267.333C259.725 472.626 253.563 478.773 253.563 486.363C253.563 487.304 254.318 488.119 255.324 488.119H470.43C471.373 488.119 472.191 487.366 472.191 486.363C472.191 478.773 466.029 472.626 458.42 472.626Z" fill="#DCDEE9"/>
<path d="M291.101 464.471H282.864C280.978 464.471 279.406 465.977 279.406 467.921V472.688H294.56V467.921C294.56 466.039 293.05 464.471 291.101 464.471Z" fill="#DCDEE9"/>
<path d="M312.794 464.471H304.557C302.671 464.471 301.099 465.977 301.099 467.921V472.688H316.253V467.921C316.253 466.039 314.743 464.471 312.794 464.471Z" fill="#DCDEE9"/>
<path d="M335.682 464.471H327.445C325.559 464.471 323.987 465.977 323.987 467.921V472.688H339.14V467.921C339.14 466.039 337.631 464.471 335.682 464.471Z" fill="#DCDEE9"/>
<path d="M357.375 464.471H349.138C347.252 464.471 345.68 465.977 345.68 467.921V472.688H360.833V467.921C360.833 466.039 359.324 464.471 357.375 464.471Z" fill="#DCDEE9"/>
<path d="M379.948 464.471H371.711C369.825 464.471 368.253 465.977 368.253 467.921V472.688H383.407V467.921C383.407 466.039 381.898 464.471 379.948 464.471Z" fill="#DCDEE9"/>
<path d="M401.641 464.471H393.404C391.518 464.471 389.946 465.977 389.946 467.921V472.688H405.1V467.921C405.1 466.039 403.591 464.471 401.641 464.471Z" fill="#DCDEE9"/>
<path d="M425.598 464.471H417.361C415.474 464.471 413.902 465.977 413.902 467.921V472.688H429.056V467.921C429.056 466.039 427.547 464.471 425.598 464.471Z" fill="#DCDEE9"/>
<path d="M447.291 464.471H439.054C437.167 464.471 435.595 465.977 435.595 467.921V472.688H450.749V467.921C450.749 466.039 449.24 464.471 447.291 464.471Z" fill="#DCDEE9"/>
<path d="M446.788 472.626H283.304C281.151 472.626 279.406 474.353 279.406 476.483C279.406 478.614 281.151 480.341 283.304 480.341H446.788C448.941 480.341 450.686 478.614 450.686 476.483C450.686 474.353 448.941 472.626 446.788 472.626Z" fill="white"/>
<path d="M535.446 460.582H493.821C491.668 460.582 489.922 462.31 489.922 464.44C489.922 466.571 491.668 468.298 493.821 468.298H535.446C537.599 468.298 539.345 466.571 539.345 464.44C539.345 462.31 537.599 460.582 535.446 460.582Z" fill="#8F94A4"/>
<path d="M550.851 481.909H509.226C507.073 481.909 505.328 483.636 505.328 485.767C505.328 487.897 507.073 489.624 509.226 489.624H550.851C553.004 489.624 554.75 487.897 554.75 485.767C554.75 483.636 553.004 481.909 550.851 481.909Z" fill="#FFC091"/>
<path d="M891.526 481.909H849.9C847.747 481.909 846.002 483.636 846.002 485.767C846.002 487.897 847.747 489.624 849.9 489.624H891.526C893.679 489.624 895.424 487.897 895.424 485.767C895.424 483.636 893.679 481.909 891.526 481.909Z" fill="#FFC091"/>
<path d="M755.394 481.909H728.86C727.123 481.909 725.716 483.313 725.716 485.045V486.488C725.716 488.22 727.123 489.624 728.86 489.624H755.394C757.131 489.624 758.538 488.22 758.538 486.488V485.045C758.538 483.313 757.131 481.909 755.394 481.909Z" fill="#FFC091"/>
<path d="M358.318 252.521C358.318 249.091 355.545 246.311 352.125 246.311C348.704 246.311 345.931 249.091 345.931 252.521V310.48C345.931 313.909 348.704 316.69 352.125 316.69C355.545 316.69 358.318 313.909 358.318 310.48V252.521Z" fill="#EFF5F9"/>
<path d="M358.318 123.745C358.318 120.316 355.545 117.535 352.125 117.535C348.704 117.535 345.931 120.316 345.931 123.745V150.09C345.931 153.52 348.704 156.3 352.125 156.3C355.545 156.3 358.318 153.52 358.318 150.09V123.745Z" fill="#EFF5F9"/>
<path d="M342.661 273.032C342.661 269.603 339.889 266.823 336.468 266.823C333.047 266.823 330.274 269.603 330.274 273.032V330.991C330.274 334.421 333.047 337.201 336.468 337.201C339.889 337.201 342.661 334.421 342.661 330.991V273.032Z" fill="#7D818D"/>
<path d="M342.661 144.256C342.661 140.827 339.889 138.047 336.468 138.047C333.047 138.047 330.274 140.827 330.274 144.256V170.601C330.274 174.031 333.047 176.811 336.468 176.811C339.889 176.811 342.661 174.031 342.661 170.601V144.256Z" fill="#7D818D"/>
<path d="M829.779 211.498C833.175 211.498 836.004 214.258 836.004 217.708V275.667C836.004 279.117 833.238 281.877 829.779 281.877C826.384 281.877 823.554 279.117 823.554 275.667V217.708C823.554 214.258 826.321 211.498 829.779 211.498Z" fill="#1C1E23"/>
<path d="M829.779 304.772C833.175 304.772 836.004 307.532 836.004 310.981V337.389C836.004 340.839 833.238 343.599 829.779 343.599C826.384 343.599 823.554 340.839 823.554 337.389V310.981C823.554 307.532 826.321 304.772 829.779 304.772Z" fill="#1C1E23"/>
<path opacity="0.4" d="M527.524 409.21H507.78L539.03 87.4269H558.774L527.524 409.21Z" fill="white"/>
<path opacity="0.4" d="M490.803 409.21H481.057L512.244 87.4269H522.053L490.803 409.21Z" fill="white"/>
<path d="M818.713 410.778H363.223C352.848 410.778 344.359 402.31 344.359 391.96V347.676C344.359 346.798 345.051 346.108 345.931 346.108C346.811 346.108 347.503 346.798 347.503 347.676V391.96C347.503 400.617 354.545 407.642 363.223 407.642H818.713C827.39 407.642 834.432 400.617 834.432 391.96V104.677C834.432 96.0204 827.39 88.9951 818.713 88.9951H603.292C602.411 88.9951 601.72 88.3051 601.72 87.4269C601.72 86.5488 602.411 85.8588 603.292 85.8588H818.713C829.088 85.8588 837.576 94.3268 837.576 104.677V391.96C837.576 402.31 829.088 410.778 818.713 410.778Z" fill="#141414"/>
<path d="M345.931 338.079C345.051 338.079 344.359 337.389 344.359 336.511V104.677C344.359 94.3268 352.848 85.8588 363.223 85.8588H590.15C591.031 85.8588 591.722 86.5488 591.722 87.4269C591.722 88.3051 591.031 88.9951 590.15 88.9951H363.223C354.545 88.9951 347.503 96.0204 347.503 104.677V336.511C347.503 337.389 346.811 338.079 345.931 338.079Z" fill="#141414"/>
<path d="M470.933 250.577H403.025C400.069 250.577 396.737 251.329 396.045 247.315C395.479 243.99 396.045 239.976 396.045 236.589V174.428C396.045 171.417 395.165 166.9 396.045 164.015C397.177 160.314 400.509 161.13 403.528 161.13H463.199C466.029 161.13 472.254 159.812 473.448 163.639C474.14 165.834 473.448 169.221 473.448 171.479V239.16C473.448 241.858 475.02 249.949 470.619 250.702C468.795 251.016 469.613 253.713 471.373 253.399C476.341 252.584 476.278 248.569 476.278 244.68V165.583C476.278 161.882 475.146 158.683 470.807 158.37C459.426 157.492 447.542 158.37 436.161 158.37C423.837 158.37 411.387 157.742 399.063 158.37C395.039 158.558 393.341 161.192 393.216 164.893C393.09 169.472 393.216 174.051 393.216 178.63V243.426C393.216 246.499 392.524 250.577 395.479 252.584C398.12 254.34 403.025 253.525 405.98 253.525H470.996C472.819 253.525 472.819 250.702 470.996 250.702L470.933 250.577Z" fill="#141414"/>
<path d="M473.322 251.643C473.322 251.643 473.071 251.643 472.945 251.455L395.416 161.067C395.416 161.067 395.29 160.565 395.416 160.377C395.605 160.189 395.919 160.251 396.108 160.377L473.637 250.765C473.637 250.765 473.763 251.267 473.637 251.455C473.574 251.517 473.448 251.58 473.322 251.58V251.643Z" fill="#141414"/>
<path d="M395.794 251.643C395.794 251.643 395.605 251.643 395.479 251.517C395.29 251.329 395.228 251.078 395.479 250.827L473.008 160.44C473.008 160.44 473.448 160.251 473.7 160.44C473.888 160.628 473.951 160.879 473.7 161.13L396.171 251.517C396.171 251.517 395.919 251.706 395.794 251.706V251.643Z" fill="#141414"/>
<path d="M394.285 421.692H363.914C359.136 421.692 354.231 422.006 349.578 420.689C338.763 417.553 332.224 407.893 331.721 396.916C331.218 385.186 331.721 373.394 331.721 361.664V167.277C331.721 165.458 328.891 165.458 328.891 167.277V361.664C328.891 373.707 328.262 386.001 328.891 398.045C329.771 414.416 343.102 424.39 358.695 424.515C370.517 424.578 382.401 424.515 394.222 424.515C396.045 424.515 396.045 421.692 394.222 421.692H394.285Z" fill="#141414"/>
<path d="M331.721 157.492V120.295C331.721 104.488 328.828 84.6043 346.874 77.0145C355.992 73.1882 368.693 75.0072 378.251 75.0072H461.313C463.136 75.0072 463.136 72.1846 461.313 72.1846H378.754C368.63 72.1846 355.489 70.3028 345.868 74.3172C336.877 78.0181 330.337 86.5488 329.08 96.2085C328.451 101.101 328.828 106.182 328.828 111.075V157.554C328.828 159.373 331.658 159.373 331.658 157.554L331.721 157.492Z" fill="#141414"/>
<path d="M112.779 225.674C114.225 225.612 115.671 225.612 117.117 225.674C117.494 225.674 117.872 225.674 118.186 225.8C118.375 225.8 118.563 225.8 118.689 225.8H118.375C118.375 225.8 118.626 225.8 118.689 225.8C119.444 225.925 120.135 226.051 120.89 226.176C122.085 226.427 123.468 225.8 123.782 224.545C124.034 223.354 123.405 221.911 122.147 221.66C119.066 220.97 115.86 220.719 112.716 220.907C111.458 220.97 110.326 221.911 110.326 223.291C110.326 224.483 111.395 225.737 112.716 225.674H112.779Z" fill="white"/>
<path d="M128.498 228.748C131.516 228.748 131.516 224.044 128.498 224.044C125.48 224.044 125.48 228.748 128.498 228.748Z" fill="white"/>
<path d="M153.524 253.776C155.017 253.776 156.227 252.568 156.227 251.078C156.227 249.589 155.017 248.381 153.524 248.381C152.03 248.381 150.82 249.589 150.82 251.078C150.82 252.568 152.03 253.776 153.524 253.776Z" fill="white"/>
<path d="M187.289 235.711C188.782 235.711 189.993 234.503 189.993 233.013C189.993 231.524 188.782 230.316 187.289 230.316C185.796 230.316 184.585 231.524 184.585 233.013C184.585 234.503 185.796 235.711 187.289 235.711Z" fill="white"/>
<path d="M93.915 232.261C103.913 231.383 113.344 235.146 121.519 240.603C124.034 242.297 126.423 238.22 123.908 236.526C115.105 230.63 104.667 226.615 93.915 227.556C90.8969 227.807 90.8969 232.512 93.915 232.261Z" fill="#DC6900"/>
<path d="M90.0166 229.689C102.592 227.117 116.048 230.63 125.794 238.972C126.737 239.725 128.058 238.408 127.115 237.655C116.803 228.873 102.781 225.235 89.5136 227.933C88.3189 228.183 88.8219 230.002 90.0166 229.752V229.689Z" fill="#141414"/>
<path d="M122.839 257.163C114.162 244.994 104.038 232.449 89.1363 228.058L89.7651 230.442C102.215 217.708 121.77 215.199 136.987 224.42C138.559 225.361 140.005 222.915 138.433 221.974C122.085 212.126 101.083 214.823 87.753 228.434C86.9985 229.187 87.3757 230.504 88.3818 230.818C102.529 235.021 112.15 247.127 120.387 258.668C121.456 260.111 123.908 258.668 122.839 257.225V257.163Z" fill="#141414"/>
<path d="M175.091 166.963C174.651 178.191 174.776 189.67 178.486 200.396C179.492 203.219 184.02 202.027 183.014 199.141C179.429 188.792 179.367 177.815 179.744 166.963C179.87 163.952 175.154 163.952 175.028 166.963H175.091Z" fill="#DC6900"/>
<path d="M161.886 205.728C163.458 198.201 164.968 190.673 167.357 183.335C168.552 179.571 169.935 175.933 171.696 172.358C172.513 170.664 173.456 168.97 174.399 167.34C175.091 166.148 175.845 165.52 177.292 166.148C177.92 166.399 178.549 166.963 179.115 167.34C190.182 174.929 196.721 188.353 196.218 201.713C196.155 203.532 198.985 203.532 199.048 201.713C199.488 190.046 194.898 178.442 186.723 170.099C184.711 168.03 182.448 166.21 180.058 164.58C177.858 163.137 175.342 161.82 173.205 164.141C171.067 166.461 169.746 169.786 168.489 172.608C167.105 175.619 165.911 178.756 164.842 181.955C162.39 189.482 160.755 197.26 159.183 205.038C158.805 206.794 161.572 207.547 161.886 205.79V205.728Z" fill="#141414"/>
<path d="M174.902 164.141C171.633 177.062 172.89 190.736 178.361 202.905C178.864 204.034 180.498 203.03 179.995 201.964C174.714 190.297 173.582 177.062 176.726 164.705C177.04 163.513 175.217 163.011 174.902 164.203V164.141Z" fill="#141414"/>
<path d="M172.827 304.96C170.312 314.62 174.651 324.781 180.561 332.873C186.472 340.964 193.892 347.864 198.985 356.52C201.185 360.221 202.883 364.236 204.518 368.25C206.027 372.076 207.222 383.492 208.605 387.381C209.485 386.19 210.869 373.895 210.806 372.453C210.428 358.465 212.881 347.801 217.031 334.441C219.043 327.98 221.181 321.457 221.747 314.682C222.564 304.333 219.672 293.983 215.899 284.26C214.013 288.275 209.8 290.658 205.901 292.728C195.967 297.935 185.906 303.203 174.902 305.211" fill="white"/>
<path opacity="0.56" d="M165.785 312.487C188.673 313.679 210.994 302.576 224.325 284.135C225.834 282.065 224.702 278.866 222.627 277.674C220.238 276.294 217.66 277.298 216.15 279.368C204.707 295.175 185.151 304.082 165.722 303.078C159.686 302.764 159.686 312.173 165.722 312.487H165.785Z" fill="#DC6900"/>
<path d="M181.064 473.253C178.801 459.767 173.33 450.17 165.533 439.13C156.353 426.083 150.883 412.534 147.739 396.916C141.765 366.807 143.966 330.615 164.339 305.963C165.471 304.583 163.521 302.576 162.327 303.956C143.652 326.537 139.502 358.904 143.212 387.131C145.161 401.997 148.682 417.427 156.353 430.474C160.252 437.06 165.093 443.019 169.243 449.417C174.211 457.132 176.789 465.036 178.298 474.006C178.612 475.762 181.316 475.009 181.001 473.253H181.064Z" fill="#141414"/>
<path d="M244.76 316.815C254.506 341.153 262.114 368.438 261.108 394.846C260.605 409.21 257.839 423.198 251.614 436.182C246.206 447.473 240.17 459.265 231.681 468.486C230.424 469.803 232.436 471.81 233.693 470.493C242.119 461.398 248.03 449.982 253.437 438.879C259.348 426.773 262.492 414.103 263.623 400.679C266.013 372.076 258.027 342.407 247.527 316C246.835 314.306 244.131 315.059 244.823 316.752L244.76 316.815Z" fill="#141414"/>
<path d="M221.495 276.169C229.418 286.393 236.02 297.495 241.428 309.225C242.182 310.856 244.634 309.413 243.88 307.782C238.472 296.053 231.807 284.95 223.947 274.726C222.878 273.283 220.363 274.726 221.495 276.169Z" fill="#141414"/>
<path d="M11.7961 337.452C15.946 337.828 20.1589 336.699 23.5543 334.315C26.9497 331.932 29.402 328.294 30.408 324.279C30.7224 323.15 30.8482 321.896 30.5967 320.767C30.1565 318.948 28.7732 317.505 27.2641 316.376C23.4914 313.553 18.7127 311.985 14.0597 312.675C9.40671 313.365 5.06811 316.564 3.55903 320.955C2.04995 325.346 3.74767 330.866 7.83475 333.186" fill="white"/>
<path d="M120.261 270.586C124.285 272.531 128.121 274.851 131.705 277.423C132.774 278.176 133.78 278.991 134.534 279.995C135.352 281.124 135.792 282.567 136.106 283.884C137.05 287.961 137.301 292.164 137.553 296.366C137.553 296.868 137.553 297.558 137.05 297.746C136.798 297.872 136.484 297.746 136.232 297.746C132.522 296.805 129.253 294.673 126.423 292.101C123.342 289.341 120.575 285.954 119.695 281.877C119.192 279.619 119.318 277.298 119.444 274.977" fill="white"/>
<path d="M216.716 220.782C220.74 222.726 224.576 225.047 228.16 227.619C229.229 228.372 230.235 229.187 230.99 230.191C231.807 231.32 232.247 232.762 232.562 234.08C233.505 238.157 233.756 242.36 234.008 246.562C234.008 247.064 234.008 247.754 233.505 247.942C233.253 248.068 232.939 247.942 232.687 247.942C228.978 247.001 225.708 244.869 222.878 242.297C219.797 239.537 217.031 236.15 216.15 232.072C215.647 229.814 215.773 227.494 215.899 225.173" fill="white"/>
<path d="M196.847 207.484C197.727 213.255 204.644 215.137 209.108 217.332C218.728 221.974 231.493 227.368 231.933 239.537C232.687 258.856 220.363 278.552 205.084 289.592C191.313 299.565 173.645 304.144 156.793 302.325C146.607 301.196 134.786 297.872 126.863 291.16C117.243 283.006 121.707 265.756 123.845 255.03C124.222 253.274 121.456 252.521 121.141 254.277C119.381 263.122 117.306 273.283 118.626 282.316C119.758 289.78 125.417 294.296 131.768 297.621C146.921 305.524 165.03 307.594 181.63 303.454C209.925 296.429 234.762 270.523 234.762 240.352C234.762 231.32 230.235 226.239 222.816 221.597C218.288 218.775 213.572 216.203 208.731 214.007C205.398 212.439 200.242 210.934 199.551 206.731C199.299 204.912 196.532 205.728 196.847 207.484Z" fill="#232144"/>
<path d="M175.028 271.903C170.564 272.531 166.225 274.726 162.452 277.047C158.868 279.242 155.284 281.877 152.769 285.201C152.015 286.142 153.649 287.083 154.404 286.142C156.793 282.943 160.314 280.497 163.71 278.49C167.357 276.294 171.318 274.287 175.594 273.66C176.789 273.471 176.286 271.652 175.091 271.841L175.028 271.903Z" fill="#141414"/>
<path d="M177.732 276.859C163.333 288.337 151.009 302.764 144.155 320.014C143.715 321.143 145.538 321.645 145.978 320.516C152.706 303.58 164.905 289.529 179.052 278.239C179.995 277.486 178.675 276.169 177.732 276.921V276.859Z" fill="#141414"/>
<path d="M171.758 266.634C160.377 269.394 149.122 273.346 139.313 279.807C130.007 285.891 120.575 292.226 114.665 301.949C114.036 303.015 115.671 303.956 116.3 302.89C122.147 293.293 131.768 286.895 141.137 280.873C150.505 274.851 161.446 271.088 172.324 268.453C173.519 268.14 173.016 266.321 171.821 266.634H171.758Z" fill="#141414"/>
<path d="M199.047 261.365C201.311 257.727 204.832 254.842 208.353 252.458C211.623 250.263 215.207 248.068 219.106 247.189C220.3 246.938 219.797 245.119 218.603 245.37C214.453 246.311 210.617 248.632 207.159 251.016C203.449 253.587 199.802 256.598 197.413 260.424C196.784 261.428 198.419 262.432 199.047 261.365Z" fill="#141414"/>
<path d="M201.751 266.446C217.848 258.104 235.643 252.835 253.94 253.525C255.135 253.525 255.135 251.706 253.94 251.643C235.328 250.953 217.219 256.347 200.808 264.815C199.739 265.38 200.682 267.011 201.751 266.446Z" fill="#141414"/>
<path d="M195.526 256.285C206.53 242.046 220.426 229.689 237.152 222.664C238.283 222.225 237.78 220.405 236.649 220.845C219.42 228.058 205.21 240.666 193.891 255.344C193.137 256.285 194.772 257.226 195.526 256.285Z" fill="#141414"/>
<path d="M121.204 402.812C123.531 391.333 125.417 379.478 130.259 368.752C130.825 367.497 130.636 365.992 129.315 365.239C128.247 364.612 126.36 364.926 125.794 366.18C120.764 377.408 118.689 389.514 116.237 401.432C115.608 404.631 120.513 406.011 121.204 402.812Z" fill="white"/>
<path d="M116.614 413.099C119.129 392.839 123.971 372.955 132.459 354.325C139.439 339.083 148.556 322.649 160.692 310.856C162.012 309.602 160 307.594 158.68 308.849C145.915 321.206 136.421 338.455 129.253 354.513C120.953 373.143 116.237 392.901 113.722 413.099C113.47 414.918 116.363 414.855 116.551 413.099H116.614Z" fill="#141414"/>
<path d="M167.608 480.404C152.455 480.968 134.534 481.533 123.782 468.862C112.401 455.439 114.413 434.99 115.985 418.87C116.174 417.051 113.344 417.051 113.156 418.87C111.521 435.868 109.823 456.819 121.77 470.869C133.025 484.105 151.7 483.854 167.608 483.289C169.432 483.226 169.432 480.404 167.608 480.466V480.404Z" fill="#141414"/>
<path d="M120.261 465.35C94.5439 464.032 67.2547 453.432 53.1071 430.913C38.9595 408.395 46.5049 382.426 36.0042 359.782C31.477 350.06 23.8687 342.658 14.3741 337.828C6.32566 333.751 -1.0311 325.534 6.95444 317.003C14.2483 309.225 23.9944 315.247 31.2883 319.889C43.9269 327.855 52.7927 338.204 55.6222 353.196C58.1373 366.557 58.1373 379.98 61.9729 393.152C68.7009 416.361 86.4326 441.388 112.841 442.956C114.665 443.082 114.665 440.259 112.841 440.134C95.2984 439.067 80.1447 425.268 72.0963 410.527C64.0479 395.787 61.4699 379.039 59.7093 362.228C58.326 348.993 55.2449 337.075 45.5617 327.353C38.5193 320.328 26.3209 310.417 15.8203 310.166C7.26883 310.041 0.100711 317.38 0.792372 325.91C1.79842 338.393 16.6377 340.588 24.3088 347.927C46.7564 369.505 34.9353 404.568 49.4601 430.035C63.985 455.502 92.8461 466.667 120.387 468.109C122.21 468.235 122.21 465.412 120.387 465.287L120.261 465.35Z" fill="#141414"/>
<path d="M864.928 124.498V185.091C864.928 189.525 868.532 193.12 872.977 193.12C877.422 193.12 881.025 189.525 881.025 185.091V124.498C881.025 120.064 877.422 116.469 872.977 116.469C868.532 116.469 864.928 120.064 864.928 124.498Z" fill="#2E3544"/>
<path d="M864.928 267.575V328.168C864.928 332.603 868.532 336.197 872.977 336.197C877.422 336.197 881.025 332.603 881.025 328.168V267.575C881.025 263.141 877.422 259.546 872.977 259.546C868.532 259.546 864.928 263.141 864.928 267.575Z" fill="#2E3544"/>
<path d="M820.096 75.0072H840.594C848.014 75.0072 857.006 73.8154 864.174 76.2617C878.384 81.1543 880.648 94.3895 880.648 107.186V387.758C880.648 390.58 880.774 393.403 880.648 396.226C880.208 408.959 871.971 420.312 858.515 421.504C843.55 422.884 827.956 421.567 812.928 421.567C811.104 421.567 811.104 424.39 812.928 424.39C827.39 424.39 841.915 424.891 856.314 424.39C872.725 423.825 883.226 410.904 883.414 395.097C883.666 370.445 883.414 345.857 883.414 321.206V108.879C883.414 97.0867 883.1 85.6079 872.537 77.6417C864.677 71.6828 855.748 72.1846 846.505 72.1846H820.033C818.21 72.1846 818.21 75.0072 820.033 75.0072H820.096Z" fill="#141414"/>
<path d="M476.529 75.0072H555.379C606.813 75.0072 658.247 75.0072 709.682 75.0072H819.404C821.417 75.0072 823.429 74.9445 825.441 75.0072C840.028 75.6345 850.026 86.6115 850.215 100.976C850.341 112.58 850.215 124.184 850.215 135.788V393.591C850.215 410.151 839.588 421.63 822.737 421.692C812.362 421.692 801.987 421.692 791.612 421.692H404.534C402.71 421.692 402.71 424.515 404.534 424.515H815.946C828.396 424.515 840.532 424.076 848.391 412.284C854.805 402.686 853.044 389.702 853.044 378.725V110.698C853.044 96.0831 852.164 81.0916 836.193 74.3173C827.641 70.7419 816.386 72.1219 807.332 72.1219H476.529C474.706 72.1219 474.706 74.9445 476.529 74.9445V75.0072Z" fill="#141414"/>
<path d="M64.9911 445.215C72.5365 441.577 78.8872 435.618 83.0371 428.341C83.6659 427.212 83.2887 425.77 82.2197 425.142C81.1508 424.515 79.6417 424.891 79.0129 425.958C75.2402 432.544 69.5812 437.75 62.6646 441.137C61.5328 441.702 61.2184 443.333 61.8472 444.336C62.5388 445.528 63.9221 445.716 65.054 445.152L64.9911 445.215Z" fill="#141414"/>
<path d="M73.6054 451.926C80.8364 447.912 86.8727 441.827 90.7083 434.488C91.2742 433.359 91.0227 431.917 89.8909 431.289C88.8219 430.662 87.25 430.976 86.6841 432.105C83.1629 438.816 77.8811 444.211 71.2789 447.849C70.1471 448.476 69.8327 449.982 70.4615 451.048C71.0903 452.114 72.5993 452.491 73.6683 451.863L73.6054 451.926Z" fill="#141414"/>
<path d="M35.3125 359.155C41.7261 356.771 48.4541 355.893 55.2449 356.458C56.5025 356.583 57.6343 355.266 57.6343 354.074C57.6343 352.694 56.5654 351.816 55.2449 351.69C48.0768 351.063 40.7829 352.067 34.055 354.513C32.8603 354.952 32.0429 356.081 32.4201 357.399C32.7345 358.528 34.1178 359.468 35.3125 359.029V359.155Z" fill="#141414"/>
<path d="M38.7708 366.494C44.4299 364.612 50.2776 363.797 56.1881 364.11C57.4457 364.11 58.5775 362.981 58.5775 361.727C58.5775 360.409 57.5086 359.406 56.1881 359.343C49.9003 359.029 43.4867 359.908 37.5133 361.915C36.3186 362.291 35.5012 363.546 35.8784 364.8C36.1928 365.992 37.5762 366.87 38.7708 366.431V366.494Z" fill="#141414"/>
<path d="M146.23 387.256C148.934 388.009 152.643 387.695 156.165 387.256C166.099 386.127 176.223 384.12 186.095 381.422C181.756 385.249 175.468 388.51 168.803 390.957C162.138 393.403 155.159 395.222 148.242 396.978C147.865 397.104 147.424 397.167 147.11 397.104C146.921 397.041 146.859 396.853 146.796 396.727C146.356 394.783 145.978 392.838 145.538 390.894" fill="#141414"/>
<path d="M148.368 404.255C151.071 405.007 154.781 404.694 158.302 404.255C168.237 403.126 178.361 401.118 188.232 398.421C183.894 402.247 177.606 405.509 170.941 407.955C164.276 410.402 157.296 412.221 150.38 413.977C150.002 414.103 149.562 414.165 149.248 414.103C149.059 414.04 148.996 413.852 148.934 413.726C148.493 411.782 148.116 409.837 147.676 407.893" fill="#141414"/>
<path d="M145.035 369.505C147.613 370.634 151.26 370.947 154.844 371.073C164.842 371.449 175.154 371.073 185.34 369.818C180.498 372.954 173.77 375.213 166.791 376.655C159.811 378.098 152.643 378.851 145.538 379.541C145.161 379.541 144.721 379.603 144.406 379.478C144.218 379.352 144.155 379.227 144.155 379.039C144.029 377.032 143.903 375.087 143.778 373.08" fill="#141414"/>
<path d="M260.48 401.746C257.776 402.498 254.066 402.185 250.545 401.746C240.61 400.617 230.487 398.609 220.615 395.912C224.953 399.738 231.241 403 237.906 405.446C244.571 407.893 251.551 409.712 258.467 411.468C258.845 411.594 259.285 411.656 259.599 411.594C259.788 411.531 259.851 411.343 259.914 411.217C260.354 409.273 260.731 407.328 261.171 405.384" fill="#141414"/>
<path d="M258.342 418.744C255.638 419.497 251.928 419.183 248.407 418.744C238.472 417.615 228.349 415.608 218.477 412.911C222.816 416.737 229.103 419.999 235.768 422.445C242.434 424.891 249.413 426.71 256.33 428.467C256.707 428.592 257.147 428.655 257.461 428.592C257.65 428.53 257.713 428.341 257.776 428.216C258.216 426.271 258.593 424.327 259.033 422.382" fill="#141414"/>
<path d="M261.674 383.994C259.096 385.123 255.449 385.437 251.865 385.562C241.868 385.939 231.556 385.562 221.369 384.308C226.211 387.444 232.939 389.702 239.918 391.145C246.898 392.588 254.066 393.34 261.171 394.03C261.549 394.03 261.989 394.093 262.303 393.968C262.492 393.842 262.555 393.717 262.555 393.529C262.68 391.521 262.806 389.577 262.932 387.57" fill="#141414"/>
<path d="M114.728 442.392C117.431 443.145 121.141 442.831 124.662 442.392C134.597 441.263 144.721 439.256 154.593 436.558C150.254 440.385 143.966 443.646 137.301 446.093C130.636 448.539 123.656 450.358 116.74 452.114C116.363 452.24 115.922 452.303 115.608 452.24C115.419 452.177 115.357 451.989 115.294 451.864C114.853 449.919 114.476 447.975 114.036 446.03" fill="#141414"/>
<path d="M116.866 456.38C119.632 456.693 123.279 455.815 126.675 454.874C136.295 452.177 145.978 448.664 155.347 444.462C151.7 448.915 145.915 453.118 139.753 456.568C133.591 460.018 126.926 462.903 120.387 465.726C120.01 465.851 119.632 466.04 119.318 465.977C119.066 465.977 119.003 465.789 118.941 465.6C118.249 463.781 117.494 461.9 116.803 460.081" fill="#141414"/>
<path d="M114.791 428.153C117.369 429.282 121.016 429.596 124.6 429.721C134.597 430.098 144.909 429.721 155.096 428.467C150.254 431.603 143.526 433.861 136.547 435.304C129.567 436.747 122.399 437.499 115.294 438.189C114.916 438.189 114.476 438.252 114.162 438.127C113.973 438.001 113.91 437.876 113.91 437.688C113.785 435.68 113.659 433.736 113.533 431.729" fill="#141414"/>
<path d="M280.538 349.746H264.567C263.246 349.746 262.177 348.68 262.177 347.362C262.177 346.045 263.246 344.979 264.567 344.979H280.538C281.858 344.979 282.927 346.045 282.927 347.362C282.927 348.68 281.858 349.746 280.538 349.746Z" fill="white"/>
<path d="M292.17 349.746H288.146C286.826 349.746 285.757 348.68 285.757 347.362C285.757 346.045 286.826 344.979 288.146 344.979H292.17C293.491 344.979 294.56 346.045 294.56 347.362C294.56 348.68 293.491 349.746 292.17 349.746Z" fill="white"/>
<path d="M319.585 264.69H270.854V313.302H319.585V264.69Z" fill="#F9E3AA"/>
<path d="M284.059 267.575C285.442 271.903 289.341 275.165 293.994 275.165C298.395 275.165 302.671 271.903 303.3 267.45C303.488 266.258 302.985 264.878 301.665 264.564C300.533 264.314 298.961 264.878 298.772 266.195C298.772 266.572 298.647 266.885 298.521 267.262C298.521 267.262 298.332 267.826 298.395 267.575C298.458 267.324 298.269 267.826 298.269 267.889C298.081 268.203 297.892 268.516 297.703 268.767C297.955 268.391 297.578 268.892 297.515 268.955C297.389 269.081 297.326 269.143 297.2 269.269C297.2 269.269 296.635 269.708 297.012 269.457C296.886 269.52 296.76 269.645 296.635 269.708C296.446 269.833 296.257 269.896 296.069 270.022C296.006 270.022 295.817 270.147 296.006 270.022C295.628 270.21 295.251 270.272 294.874 270.398C294.182 270.586 295.251 270.398 294.56 270.398C294.371 270.398 294.182 270.398 293.931 270.398C293.679 270.398 293.554 270.398 293.302 270.398C292.925 270.398 293.302 270.398 293.113 270.398C292.736 270.335 292.296 270.21 291.919 270.084C291.541 269.959 292.359 270.335 291.667 270.022C291.479 269.959 291.353 269.833 291.164 269.771C290.975 269.708 290.85 269.582 290.724 269.457C290.347 269.206 290.724 269.52 290.598 269.332C290.347 269.081 290.032 268.83 289.781 268.579C289.655 268.453 289.529 268.328 289.404 268.14C289.592 268.391 289.404 268.14 289.341 268.014C289.152 267.701 288.963 267.387 288.775 267.073C288.712 266.948 288.586 266.634 288.712 266.948C288.649 266.76 288.586 266.509 288.523 266.321C288.146 265.129 286.888 264.251 285.631 264.69C284.373 265.129 283.619 266.321 283.996 267.575H284.059Z" fill="#F9C85D"/>
<path d="M309.21 265.129H306.066V312.738H309.21V265.129Z" fill="white"/>
<path d="M313.297 265.129H311.725V312.738H313.297V265.129Z" fill="white"/>
<path d="M319.522 314.494H270.792C270.1 314.494 269.534 313.93 269.534 313.24V264.627C269.534 263.937 270.1 263.373 270.792 263.373H319.522C320.214 263.373 320.78 263.937 320.78 264.627V313.24C320.78 313.93 320.214 314.494 319.522 314.494ZM272.112 311.985H318.265V265.944H272.112V311.985Z" fill="#141414"/>
<path d="M293.868 271.402C297.028 271.402 299.59 268.846 299.59 265.694C299.59 262.541 297.028 259.985 293.868 259.985C290.708 259.985 288.146 262.541 288.146 265.694C288.146 268.846 290.708 271.402 293.868 271.402Z" fill="#F44260"/>
<path d="M293.868 272.28C290.221 272.28 287.203 269.332 287.203 265.631C287.203 261.93 290.158 258.982 293.868 258.982C297.578 258.982 300.533 261.93 300.533 265.631C300.533 269.332 297.578 272.28 293.868 272.28ZM293.868 260.926C291.227 260.926 289.089 263.059 289.089 265.693C289.089 268.328 291.227 270.461 293.868 270.461C296.509 270.461 298.647 268.328 298.647 265.693C298.647 263.059 296.509 260.926 293.868 260.926Z" fill="#141414"/>
<path d="M276.199 307.343L280.16 302.263C280.16 302.263 280.349 301.823 280.16 301.573C279.972 301.384 279.657 301.384 279.469 301.573L275.507 306.653C275.507 306.653 275.319 307.092 275.507 307.343C275.696 307.532 276.01 307.532 276.199 307.343Z" fill="#141414"/>
<path d="M279.595 306.967L283.556 301.886C283.556 301.886 283.745 301.447 283.556 301.196C283.367 301.008 283.053 301.008 282.864 301.196L278.903 306.277C278.903 306.277 278.714 306.716 278.903 306.967C279.092 307.155 279.406 307.155 279.595 306.967Z" fill="#141414"/>
<path d="M307.638 280.497H279.783C279.092 280.497 278.526 279.932 278.526 279.242C278.526 278.552 279.092 277.988 279.783 277.988H307.638C308.33 277.988 308.896 278.552 308.896 279.242C308.896 279.932 308.33 280.497 307.638 280.497Z" fill="#141414"/>
<path d="M292.925 286.958H279.846C279.154 286.958 278.589 286.393 278.589 285.703C278.589 285.013 279.154 284.448 279.846 284.448H292.925C293.616 284.448 294.182 285.013 294.182 285.703C294.182 286.393 293.616 286.958 292.925 286.958Z" fill="#141414"/>
<path d="M292.925 293.23H279.846C279.154 293.23 278.589 292.666 278.589 291.976C278.589 291.286 279.154 290.721 279.846 290.721H292.925C293.616 290.721 294.182 291.286 294.182 291.976C294.182 292.666 293.616 293.23 292.925 293.23Z" fill="#141414"/>
<g opacity="0.54">
<path d="M499.669 483.728C499.606 490.628 506.145 496.022 511.993 498.845C518.721 502.107 525.449 500.1 531.988 497.34C543.243 492.635 556.448 482.16 568.646 487.868C575.751 491.193 582.668 500.727 591.094 499.849C594.929 499.472 599.016 496.901 602.349 495.144C607.945 492.133 613.73 489.185 619.829 487.241C633.473 482.85 638.064 491.318 648.564 496.901C661.517 503.863 680.444 500.162 675.476 482.599C675.099 481.345 673.15 481.846 673.464 483.164C679.06 502.985 655.041 499.284 645.923 492.823C641.396 489.624 637.623 485.422 632.09 483.979C616.559 479.902 604.424 497.026 590.025 497.026C581.473 497.026 574.054 487.554 566.445 483.979C561.478 481.658 555.819 484.293 551.04 486.237C544.249 488.934 537.836 492.573 531.045 495.395C526.266 497.402 520.984 499.41 515.703 498.03C509.918 496.524 501.681 490.126 501.744 483.665C501.744 482.348 499.669 482.348 499.669 483.665V483.728Z" fill="#CC5E15"/>
<path d="M574.179 483.54C578.392 487.993 584.051 491.632 590.402 491.632C596.753 491.632 602.726 487.868 607.505 483.665C608.511 482.787 607.065 481.345 606.058 482.223C601.72 486.049 596.438 489.624 590.402 489.562C584.366 489.499 579.524 486.112 575.625 482.035C574.682 481.094 573.236 482.536 574.179 483.477V483.54Z" fill="#CC5E15"/>
<path d="M607.379 501.229C612.472 497.089 617.942 492.572 624.67 491.757C627.751 491.381 630.958 491.757 633.662 493.388C636.68 495.207 639.07 498.218 641.522 500.664C642.465 501.605 643.911 500.162 642.968 499.221C640.327 496.587 637.749 493.388 634.48 491.506C631.587 489.875 628.129 489.373 624.859 489.687C617.439 490.503 611.529 495.207 605.933 499.786C604.927 500.601 606.373 502.044 607.379 501.229Z" fill="#CC5E15"/>
<path d="M508.66 483.226C509.54 491.569 518.343 494.768 525.763 494.392C529.473 494.203 532.491 492.635 535.383 490.377C538.276 488.119 541.042 485.234 544.564 483.791C545.758 483.289 545.255 481.282 543.998 481.784C538.339 484.167 534.692 489.875 528.844 491.757C522.305 493.89 511.49 491.192 510.672 483.226C510.546 481.909 508.471 481.909 508.597 483.226H508.66Z" fill="#CC5E15"/>
</g>
<g opacity="0.54">
<path d="M272.867 491.067C270.729 499.974 257.902 499.159 251.299 496.775C245.766 494.768 241.427 490.816 236.963 487.053C235.957 486.237 234.511 487.68 235.517 488.495C240.862 492.949 246.08 497.591 252.997 499.41C260.48 501.354 272.552 500.79 274.816 491.569C275.13 490.252 273.118 489.75 272.804 491.004L272.867 491.067Z" fill="#CC5E15"/>
<path d="M110.641 483.791C110.515 487.304 114.791 487.053 117.243 487.115C118.501 487.115 125.48 486.676 125.857 488.433C126.109 489.499 121.016 492.761 120.324 493.325C118.815 494.517 114.539 496.712 114.413 498.908C114.225 502.671 122.399 500.225 124.097 499.786C132.145 497.528 139.502 492.949 147.11 489.624C151.574 487.68 158.554 483.979 163.521 485.798C167.483 487.241 171.57 491.004 175.154 493.325C178.486 495.521 182.573 499.472 186.598 500.162C189.176 500.601 192.131 499.347 194.457 498.406C197.538 497.152 200.368 495.332 203.323 493.89C208.039 491.569 213.132 490.001 218.163 488.182C219.42 487.743 218.854 485.735 217.597 486.174C210.554 488.683 203.889 491.255 197.287 494.768C192.068 497.528 188.736 498.971 183.265 496.085C178.989 493.89 174.965 490.691 170.941 488.056C164.59 483.916 162.075 482.16 154.781 484.481C147.928 486.614 141.514 490.001 135.037 493.074C131.013 494.956 126.989 496.963 122.65 498.03C121.141 498.469 119.632 498.657 118.06 498.72C116.74 499.284 116.426 499.221 117.18 498.594C117.494 498.092 118.375 497.528 118.815 497.151C121.393 495.019 125.417 493.012 127.241 490.126C131.956 482.725 112.59 486.739 112.716 483.791C112.716 482.474 110.704 482.474 110.641 483.791Z" fill="#CC5E15"/>
<path d="M172.576 483.603C176.097 487.304 180.624 490.503 185.717 491.381C191.251 492.384 196.532 490.503 201.123 487.492C202.254 486.739 201.185 484.983 200.054 485.735C195.841 488.495 190.936 490.44 185.843 489.373C181.19 488.433 177.229 485.547 174.022 482.16C173.079 481.219 171.633 482.662 172.576 483.603Z" fill="#CC5E15"/>
<path d="M205.713 501.291C210.806 497.152 216.276 492.635 223.004 491.82C226.085 491.443 229.292 491.82 231.996 493.451C235.014 495.27 237.403 498.281 239.856 500.727C240.799 501.668 242.245 500.225 241.302 499.284C238.661 496.65 236.083 493.451 232.813 491.569C229.921 489.938 226.463 489.436 223.193 489.75C215.773 490.565 209.863 495.27 204.267 499.849C203.26 500.664 204.707 502.107 205.713 501.291Z" fill="#CC5E15"/>
<path d="M107.057 483.289C107.937 491.632 116.74 494.831 124.16 494.454C127.869 494.266 130.888 492.698 133.78 490.44C136.672 488.182 139.439 485.296 142.96 483.854C144.155 483.352 143.652 481.345 142.394 481.846C136.735 484.23 133.088 489.938 127.241 491.82C120.701 493.952 109.886 491.255 109.069 483.289C108.943 481.972 106.868 481.972 106.994 483.289H107.057Z" fill="#CC5E15"/>
</g>
<g opacity="0.54">
<path d="M705.029 483.728C704.966 490.628 711.505 496.022 717.353 498.845C724.081 502.107 730.809 500.1 737.348 497.34C748.604 492.635 761.808 482.16 774.006 487.868C781.112 491.193 788.028 500.727 796.454 499.849C800.289 499.472 804.377 496.901 807.709 495.144C813.305 492.133 819.09 489.185 825.189 487.241C838.834 482.85 843.424 491.318 853.925 496.901C866.878 503.863 885.804 500.162 880.837 482.599C880.459 481.345 878.51 481.846 878.824 483.164C884.421 502.985 860.401 499.284 851.284 492.823C846.757 489.624 842.984 485.422 837.451 483.979C821.92 479.902 809.784 497.026 795.385 497.026C786.834 497.026 779.414 487.554 771.806 483.979C766.838 481.658 761.179 484.293 756.4 486.237C749.61 488.934 743.196 492.573 736.405 495.395C731.626 497.402 726.345 499.41 721.063 498.03C715.278 496.524 707.041 490.126 707.104 483.665C707.104 482.348 705.029 482.348 705.029 483.665V483.728Z" fill="#CC5E15"/>
<path d="M779.54 483.54C783.752 487.993 789.411 491.632 795.762 491.632C802.113 491.632 808.086 487.868 812.865 483.665C813.871 482.787 812.425 481.345 811.419 482.223C807.08 486.049 801.798 489.624 795.762 489.562C789.726 489.499 784.884 486.112 780.986 482.035C780.043 481.094 778.596 482.536 779.54 483.477V483.54Z" fill="#CC5E15"/>
<path d="M812.676 501.229C817.77 497.089 823.24 492.572 829.968 491.757C833.049 491.381 836.256 491.757 838.96 493.388C841.978 495.207 844.367 498.218 846.819 500.664C847.763 501.605 849.209 500.162 848.266 499.221C845.625 496.587 843.047 493.388 839.777 491.506C836.885 489.875 833.426 489.373 830.157 489.687C822.737 490.503 816.826 495.207 811.23 499.786C810.224 500.601 811.67 502.044 812.676 501.229Z" fill="#CC5E15"/>
<path d="M714.02 483.226C714.901 491.569 723.704 494.768 731.123 494.392C734.833 494.203 737.851 492.635 740.744 490.377C743.636 488.119 746.403 485.234 749.924 483.791C751.119 483.289 750.616 481.282 749.358 481.784C743.699 484.167 740.052 489.875 734.204 491.757C727.665 493.89 716.85 491.192 716.033 483.226C715.907 481.909 713.832 481.909 713.958 483.226H714.02Z" fill="#CC5E15"/>
</g>
<path d="M671.326 483.477H491.306C489.042 483.477 487.219 481.658 487.219 479.4V462.339C487.219 460.081 489.042 458.261 491.306 458.261H671.326C673.59 458.261 675.413 460.081 675.413 462.339V479.4C675.413 481.658 673.59 483.477 671.326 483.477ZM491.306 461.461C490.803 461.461 490.362 461.9 490.362 462.401V479.463C490.362 479.965 490.803 480.404 491.306 480.404H671.326C671.829 480.404 672.269 479.965 672.269 479.463V462.401C672.269 461.9 671.829 461.461 671.326 461.461H491.306Z" fill="#141414"/>
<path d="M686.794 483.477H651.771C650.891 483.477 650.199 482.787 650.199 481.909C650.199 481.031 650.891 480.341 651.771 480.341H686.794C687.863 480.341 688.429 479.965 688.555 479.839V461.774C688.555 461.774 687.863 461.461 686.794 461.461H638.818C637.938 461.461 637.246 460.771 637.246 459.892C637.246 459.014 637.938 458.324 638.818 458.324H686.794C689.561 458.324 691.636 459.83 691.636 461.774V479.965C691.636 481.909 689.561 483.415 686.794 483.415V483.477Z" fill="#141414"/>
<path d="M176.6 485.735C176.726 477.581 183.328 470.807 191.565 470.807C199.802 470.807 206.404 477.581 206.53 485.735C206.53 487.554 209.36 487.554 209.36 485.735C209.234 478.396 204.769 471.748 197.79 469.113C190.811 466.479 182.699 468.611 177.983 474.257C175.28 477.518 173.833 481.47 173.771 485.735C173.771 487.554 176.6 487.554 176.6 485.735Z" fill="#141414"/>
<path d="M209.297 485.735C209.422 477.581 216.025 470.807 224.262 470.807C232.499 470.807 239.101 477.581 239.227 485.735C239.227 487.554 242.056 487.554 242.056 485.735C241.931 478.396 237.466 471.748 230.487 469.113C223.507 466.479 215.396 468.611 210.68 474.257C207.976 477.518 206.53 481.47 206.467 485.735C206.467 487.554 209.297 487.554 209.297 485.735Z" fill="#141414"/>
<path d="M187.289 480.404V470.932C187.289 469.991 185.78 469.991 185.78 470.932V480.404C185.78 481.345 187.289 481.345 187.289 480.404Z" fill="#141414"/>
<path d="M196.532 480.404V470.932C196.532 469.991 195.023 469.991 195.023 470.932V480.404C195.023 481.345 196.532 481.345 196.532 480.404Z" fill="#141414"/>
<path d="M219.797 480.404V470.932C219.797 469.991 218.288 469.991 218.288 470.932V480.404C218.288 481.345 219.797 481.345 219.797 480.404Z" fill="#141414"/>
<path d="M229.041 480.404V470.932C229.041 469.991 227.531 469.991 227.531 470.932V480.404C227.531 481.345 229.041 481.345 229.041 480.404Z" fill="#141414"/>
<path d="M172.073 488.182H243.062C244.886 488.182 244.886 485.359 243.062 485.359H172.073C170.249 485.359 170.249 488.182 172.073 488.182Z" fill="#141414"/>
<path d="M319.208 489.248C321.283 495.709 326.879 500.79 333.796 501.291C337.254 501.542 340.775 500.664 343.73 498.782C347.063 496.65 348.635 492.572 351.967 490.628C357.123 487.68 362.217 491.632 364.92 495.897C366.618 498.594 368.316 500.79 371.711 501.103C378.879 501.73 382.463 494.705 382.903 488.621C383.029 487.303 380.954 487.303 380.828 488.621C380.514 492.196 379.319 496.273 375.924 498.155C374.289 499.033 372.214 499.347 370.391 498.72C368.19 497.967 367.31 495.771 366.115 493.952C363.223 489.562 358.129 486.363 352.785 487.993C350.144 488.746 348.509 490.628 346.874 492.698C344.548 495.646 342.095 497.841 338.323 498.782C330.715 500.664 323.421 495.897 321.094 488.621C320.717 487.366 318.705 487.931 319.082 489.185L319.208 489.248Z" fill="#CC5E15"/>
<path d="M385.167 488.872C384.79 492.635 384.224 496.775 381.52 499.723C380.64 500.727 382.086 502.169 382.966 501.166C386.047 497.779 386.739 493.262 387.242 488.872C387.242 488.307 386.739 487.868 386.236 487.868C385.607 487.868 385.293 488.37 385.23 488.872H385.167Z" fill="#CC5E15"/>
<path d="M307.764 489.562H456.157C463.702 489.562 478.227 492.572 472.191 479.902C467.097 469.238 454.459 471.246 444.776 471.246H277.52C274.187 471.246 270.792 471.058 267.459 471.246C262.932 471.497 258.782 473.128 255.764 476.64C253.814 478.961 250.105 485.735 253.123 488.621C254.632 490.063 257.524 489.562 259.285 489.562H300.596C302.419 489.562 302.419 486.739 300.596 486.739H268.214C265.195 486.739 260.228 487.68 257.273 486.739C256.895 486.614 255.701 486.99 255.386 486.739C251.488 483.164 261.548 475.26 263.749 474.633C265.384 474.131 267.019 474.194 268.717 474.131C272.301 474.006 275.885 474.131 279.406 474.131H435.03C442.764 474.131 450.686 473.567 458.357 474.131C462.57 474.445 466.28 475.95 468.732 479.714C469.738 481.219 471.813 485.547 470.367 486.802C469.99 487.115 468.166 486.802 467.726 486.802C462.947 487.053 458.043 486.802 453.264 486.802H307.827C306.003 486.802 306.003 489.624 307.827 489.624L307.764 489.562Z" fill="#141414"/>
<path d="M282.864 463.028C279.972 463.091 278.023 465.349 278.023 468.172V472.625C278.023 473.378 278.651 474.068 279.469 474.068H294.622C295.377 474.068 296.069 473.441 296.069 472.625V469.677C296.069 468.423 296.194 467.168 295.628 465.977C294.811 464.157 293.05 463.091 291.101 463.091C290.095 463.091 289.089 463.091 288.02 463.091C286.197 463.091 286.197 465.914 288.02 465.914H290.787C291.919 465.914 292.988 466.353 293.176 467.607C293.302 468.423 293.176 469.301 293.176 470.116V472.751L294.622 471.308H279.469L280.915 472.751V468.925C280.915 468.423 280.915 467.921 280.978 467.482C281.229 466.604 281.984 466.039 282.927 465.977C284.751 465.977 284.751 463.091 282.927 463.154L282.864 463.028Z" fill="#141414"/>
<path d="M312.794 463.029H305.626C304.243 463.029 302.922 463.029 301.791 463.907C300.156 465.036 299.716 466.73 299.716 468.611V472.626C299.716 473.378 300.344 474.068 301.162 474.068H316.315C317.07 474.068 317.762 473.441 317.762 472.626V468.172C317.762 465.35 315.812 463.091 312.92 463.029C311.097 463.029 311.097 465.789 312.92 465.851C313.8 465.851 314.555 466.416 314.869 467.231C315.058 467.733 314.995 468.298 314.995 468.799V472.626L316.441 471.183H301.288L302.734 472.626V469.427C302.734 468.36 302.545 467.106 303.425 466.353C304.117 465.726 305.06 465.851 305.941 465.851H313.046C314.869 465.851 314.869 463.029 313.046 463.029H312.794Z" fill="#141414"/>
<path d="M327.382 463.029C324.49 463.091 322.54 465.35 322.54 468.172V472.626C322.54 473.378 323.169 474.068 323.987 474.068H339.14C339.895 474.068 340.586 473.441 340.586 472.626V469.489C340.586 468.109 340.649 466.729 339.958 465.475C339.015 463.781 337.254 462.966 335.43 462.966H332.224C330.4 462.966 330.4 465.789 332.224 465.789H335.116C336.185 465.789 337.191 465.914 337.694 467.106C338.008 467.921 337.82 469.05 337.82 469.866V472.626L339.266 471.183H324.112L325.559 472.626V468.799C325.559 468.298 325.559 467.796 325.621 467.357C325.873 466.479 326.628 465.914 327.571 465.851C329.394 465.851 329.394 462.966 327.571 463.029H327.382Z" fill="#141414"/>
<path d="M357.375 463.029H350.207C348.823 463.029 347.503 463.029 346.371 463.907C344.736 465.036 344.296 466.73 344.296 468.611V472.626C344.296 473.378 344.925 474.068 345.742 474.068H360.896C361.651 474.068 362.342 473.441 362.342 472.626V468.172C362.342 465.35 360.393 463.091 357.501 463.029C355.677 463.029 355.677 465.789 357.501 465.851C358.381 465.851 359.136 466.416 359.45 467.231C359.639 467.733 359.576 468.298 359.576 468.799V472.626L361.022 471.183H345.868L347.314 472.626V469.427C347.314 468.36 347.126 467.106 348.006 466.353C348.698 465.726 349.641 465.851 350.521 465.851H357.626C359.45 465.851 359.45 463.029 357.626 463.029H357.375Z" fill="#141414"/>
<path d="M371.648 463.029C368.756 463.091 366.807 465.35 366.807 468.172V472.626C366.807 473.378 367.435 474.068 368.253 474.068H383.406C384.161 474.068 384.853 473.441 384.853 472.626V469.678C384.853 468.423 384.978 467.169 384.413 465.977C383.595 464.158 381.835 463.091 379.885 463.091C378.879 463.091 377.81 463.091 376.804 463.091C374.981 463.091 374.981 465.914 376.804 465.914H379.634C380.766 465.914 381.835 466.353 382.023 467.608C382.149 468.423 382.023 469.301 382.023 470.117V472.751L383.469 471.308H368.316L369.762 472.751V468.925C369.762 468.423 369.762 467.921 369.825 467.482C370.076 466.604 370.831 466.039 371.774 465.977C373.597 465.977 373.597 463.091 371.774 463.154L371.648 463.029Z" fill="#141414"/>
<path d="M401.641 463.029H394.473C393.09 463.029 391.769 463.029 390.637 463.907C389.003 465.036 388.562 466.73 388.562 468.611V472.626C388.562 473.378 389.191 474.068 390.009 474.068H405.162C405.917 474.068 406.609 473.441 406.609 472.626V468.172C406.609 465.35 404.659 463.091 401.767 463.029C399.943 463.029 399.943 465.789 401.767 465.851C402.647 465.851 403.402 466.416 403.716 467.231C403.905 467.733 403.842 468.298 403.842 468.799V472.626L405.288 471.183H390.134L391.581 472.626V469.427C391.581 468.36 391.392 467.106 392.272 466.353C392.964 465.726 393.907 465.851 394.787 465.851H401.893C403.716 465.851 403.716 463.029 401.893 463.029H401.641Z" fill="#141414"/>
<path d="M417.361 463.029C414.468 463.091 412.519 465.35 412.519 468.172V472.626C412.519 473.378 413.148 474.068 413.965 474.068H429.119C429.874 474.068 430.565 473.441 430.565 472.626V469.489C430.565 468.172 430.628 466.855 430.062 465.663C429.182 463.907 427.421 463.029 425.535 463.029C424.466 463.029 423.397 463.029 422.391 463.029C420.568 463.029 420.568 465.851 422.391 465.851H425.283C426.352 465.851 427.358 466.165 427.673 467.357C427.924 468.172 427.736 469.176 427.736 469.991V472.688L429.182 471.246H414.028L415.474 472.688V468.862C415.474 468.36 415.474 467.859 415.537 467.419C415.789 466.541 416.543 465.977 417.487 465.914C419.31 465.914 419.31 463.029 417.487 463.091L417.361 463.029Z" fill="#141414"/>
<path d="M447.291 463.029H440.123C438.739 463.029 437.419 463.029 436.287 463.907C434.652 465.036 434.212 466.73 434.212 468.611V472.626C434.212 473.378 434.841 474.068 435.658 474.068H450.812C451.567 474.068 452.258 473.441 452.258 472.626V468.172C452.258 465.35 450.309 463.091 447.417 463.029C445.593 463.029 445.593 465.789 447.417 465.851C448.297 465.851 449.051 466.416 449.366 467.231C449.554 467.733 449.492 468.298 449.492 468.799V472.626L450.938 471.183H435.784L437.23 472.626V469.427C437.23 468.36 437.042 467.106 437.922 466.353C438.614 465.726 439.557 465.851 440.437 465.851H447.542C449.366 465.851 449.366 463.029 447.542 463.029H447.291Z" fill="#141414"/>
<path d="M696.918 483.352H905.17C909.069 483.352 915.357 482.16 919.129 483.352C919.381 483.415 920.01 483.164 920.198 483.352C919.255 482.599 919.695 485.296 919.695 486.174C919.695 488.307 920.135 500.037 919.821 500.1C918.186 500.79 918.878 503.487 920.576 502.797C923.028 501.793 922.525 499.535 922.525 497.214C922.525 493.2 923.845 486.676 922.525 482.85C921.519 479.965 919.507 480.466 916.866 480.466H696.855C695.031 480.466 695.031 483.289 696.855 483.289L696.918 483.352Z" fill="#141414"/>
<path d="M711.128 483.352H926.423C928.498 483.352 930.825 483.038 932.837 483.352C935.289 483.728 933.717 482.348 934.032 484.606C934.409 487.366 934.032 490.377 934.032 493.2C934.032 494.642 934.912 499.284 934.032 500.476C934.157 500.288 934.786 499.723 933.843 500.1C932.522 500.664 929.63 500.1 928.247 500.1H116.803C115.042 500.1 112.276 500.664 110.578 500.1C110.326 500.037 109.76 500.225 109.572 500.1C110.578 500.852 110.012 498.406 110.075 497.528C110.201 494.141 110.075 490.691 110.075 487.241C110.075 483.226 108.629 483.101 112.59 483.352C117.117 483.603 121.707 483.352 126.235 483.352H188.673C190.496 483.352 190.496 480.529 188.673 480.529H123.091C119.255 480.529 108.943 478.334 107.245 482.85C106.679 484.355 107.245 487.053 107.245 488.683C107.245 492.071 106.868 495.771 107.245 499.159C107.497 501.354 107.308 502.107 109.572 502.922C112.967 504.114 118.941 502.922 122.525 502.922H921.33C924.914 502.922 931.013 504.114 934.472 502.922C936.672 502.17 936.547 501.417 936.798 499.284C937.364 495.082 938.119 486.99 936.798 482.975C935.729 479.651 932.522 480.529 929.504 480.529H711.065C709.242 480.529 709.242 483.352 711.065 483.352H711.128Z" fill="#141414"/>
<path d="M672.898 533.344H645.735C644.351 533.344 643.219 532.215 643.219 530.835V518.729C643.219 517.851 643.911 517.161 644.791 517.161C645.672 517.161 646.363 517.851 646.363 518.729V530.208H672.269V518.98C672.269 518.102 672.961 517.412 673.841 517.412C674.721 517.412 675.413 518.102 675.413 518.98V530.898C675.413 532.278 674.281 533.407 672.898 533.407V533.344Z" fill="#141414"/>
<path d="M709.996 533.344H682.833C681.449 533.344 680.318 532.215 680.318 530.835V518.729C680.318 517.851 681.009 517.161 681.89 517.161C682.77 517.161 683.462 517.851 683.462 518.729V530.208H709.367V518.98C709.367 518.102 710.059 517.412 710.939 517.412C711.82 517.412 712.511 518.102 712.511 518.98V530.898C712.511 532.278 711.379 533.407 709.996 533.407V533.344Z" fill="#141414"/>
<path d="M712.323 514.338C714.649 514.338 716.536 512.457 716.536 510.136C716.536 507.815 714.649 505.933 712.323 505.933C709.996 505.933 708.11 507.815 708.11 510.136C708.11 512.457 709.996 514.338 712.323 514.338Z" fill="#58E8C2"/>
<path d="M725.59 514.338C727.917 514.338 729.803 512.457 729.803 510.136C729.803 507.815 727.917 505.933 725.59 505.933C723.263 505.933 721.377 507.815 721.377 510.136C721.377 512.457 723.263 514.338 725.59 514.338Z" fill="#F44260"/>
</g>
<defs>
<clipPath id="clip0_11_9833">
<rect width="987" height="521" fill="white" transform="translate(0.666626 0.672607)"/>
</clipPath>
</defs>
</svg>
