<svg width="415" height="561" viewBox="0 0 415 561" fill="none" xmlns="http://www.w3.org/2000/svg">
<path d="M371.144 560.159H43.9971C20.2273 560.159 0.971191 540.903 0.971191 517.133V43.1851C0.971191 19.4153 20.2273 0.15918 43.9971 0.15918H371.144C394.913 0.15918 414.169 19.4153 414.169 43.1851V517.133C414.169 540.903 394.913 560.159 371.144 560.159Z" fill="#47A635"/>
<mask id="mask0_100_2655" style="mask-type:luminance" maskUnits="userSpaceOnUse" x="0" y="206" width="415" height="100">
<path d="M414.169 206.427H0.929688V305.234H414.169V206.427Z" fill="white"/>
</mask>
<g mask="url(#mask0_100_2655)">
<path d="M28.3018 294.881C28.3018 294.881 61.9275 294.508 110.71 294.177C113.194 285.688 115.016 277.364 114.437 272.726C112.2 254.464 98.2449 241.668 80.4796 241.668C75.7173 241.668 71.2035 242.662 67.1039 244.401C61.5134 226.47 44.7834 213.426 24.9889 213.426C9.54266 213.426 -4.04013 221.376 -11.9082 233.427V295.336L28.3018 294.881Z" fill="#327A45"/>
<path d="M31.9878 243.531L37.4954 294.757" stroke="#071A35" stroke-width="0.25" stroke-miterlimit="10" stroke-linecap="round" stroke-linejoin="round"/>
<path d="M54.0178 294.219L57.4135 259.392" stroke="#071A35" stroke-width="0.25" stroke-miterlimit="10" stroke-linecap="round" stroke-linejoin="round"/>
<path d="M78.0779 294.218L85.5733 265.727" stroke="#071A35" stroke-width="0.25" stroke-miterlimit="10" stroke-linecap="round" stroke-linejoin="round"/>
<path d="M422.409 294.839C422.409 294.839 403.319 294.632 375.657 294.425C374.249 289.622 373.213 284.901 373.545 282.251C374.828 271.898 382.738 264.651 392.801 264.651C395.492 264.651 398.06 265.189 400.379 266.225C403.567 256.037 413.051 248.666 424.273 248.666C433.052 248.666 440.754 253.18 445.227 260.013V295.129L422.409 294.839Z" fill="#327A45"/>
<path d="M407.833 294.508L405.928 274.714" stroke="#071A35" stroke-width="0.25" stroke-miterlimit="10" stroke-linecap="round" stroke-linejoin="round"/>
<path d="M394.168 294.508L389.944 278.316" stroke="#071A35" stroke-width="0.25" stroke-miterlimit="10" stroke-linecap="round" stroke-linejoin="round"/>
<path d="M19.6475 294.756H401.705" stroke="#071A35" stroke-width="0.25" stroke-miterlimit="10" stroke-linecap="round" stroke-linejoin="round"/>
</g>
<path d="M368.12 236.036C375.202 226.511 379.467 214.709 379.467 201.913C379.467 170.234 353.792 144.559 322.113 144.559C321.119 144.559 320.167 144.642 319.214 144.724C312.009 118.553 288.114 99.2966 259.624 99.2966C229.849 99.2966 205.003 120.333 199.122 148.369C194.484 147.002 189.598 146.257 184.504 146.257C155.889 146.257 132.699 169.447 132.699 198.062C132.699 215.661 141.478 231.149 154.896 240.508C138.207 246.388 126.198 262.249 126.198 280.966C126.198 304.653 145.412 323.868 169.099 323.868C170.963 323.868 172.785 323.702 174.566 323.495V323.537L320.788 323.454C324.68 324.406 328.739 324.945 332.921 324.945C361.329 324.945 384.353 301.92 384.353 273.512C384.312 258.687 378.059 245.394 368.12 236.036Z" fill="#265F39"/>
<path d="M207.819 323.578L171.46 170.647L176.76 167.914L221.815 323.578H207.819Z" fill="#A84213"/>
<path d="M160.445 221.334L191.875 236.656L191.71 230.361L161.066 217.441L160.445 221.334Z" fill="#A84213"/>
<path d="M185.829 201.54L197.673 178.267H202.311L188.148 212.803L185.829 201.54Z" fill="#A84213"/>
<path d="M230.263 323.578L275.608 132.011L280.329 132.632L239.622 323.578H230.263Z" fill="#A84213"/>
<path d="M230.263 202.906L232.665 197.978L254.902 233.426L250.761 236.863L230.263 202.906Z" fill="#A84213"/>
<path d="M268.196 175.782L299.833 161.082L302.442 166.009L264.593 184.727L268.196 175.782Z" fill="#A84213"/>
<path d="M242.562 220.009L225.418 225.061L224.01 221.459L239.373 215.868L242.562 220.009Z" fill="#A84213"/>
<path d="M246.371 275.293L271.384 260.758L272.833 262.373L246.371 281.588V275.293Z" fill="#A84213"/>
<path d="M285.132 172.925L296.645 178.392L298.632 175.658L288.155 170.648L285.132 172.925Z" fill="#A84213"/>
<path d="M268.734 323.578L335.53 202.575H339.961L279.004 323.578H268.734Z" fill="#A84213"/>
<path d="M295.072 240.88L297.473 271.483L302.194 264.07L298.426 240.88H295.072Z" fill="#A84213"/>
<path d="M322.775 233.302L345.427 229.409L346.462 233.302L319.255 240.88L322.775 233.302Z" fill="#A84213"/>
<path d="M288.155 295.501L326.253 278.978L329.773 282.291L285.132 304.28L288.155 295.501Z" fill="#A84213"/>
<path d="M310.848 286.433L313.706 273.43H316.356L315.404 284.984L310.848 286.433Z" fill="#A84213"/>
<path d="M298.26 294.425L320.084 295.087L319.255 298.731L293.746 298.11L298.26 294.425Z" fill="#A84213"/>
<path d="M202.311 289.787L153.073 265.479L154.233 260.758L202.311 282.83V289.787Z" fill="#A84213"/>
<path d="M177.672 275.293C177.05 275.625 160.445 283.078 160.445 283.078L162.391 286.433L184.504 278.73L177.672 275.293Z" fill="#A84213"/>
<path d="M172.495 323.578H340.044" stroke="#071A35" stroke-width="0.25" stroke-miterlimit="10" stroke-linecap="round" stroke-linejoin="round"/>
<path d="M151.583 188.082C153.23 188.082 154.565 186.747 154.565 185.1C154.565 183.454 153.23 182.119 151.583 182.119C149.937 182.119 148.602 183.454 148.602 185.1C148.602 186.747 149.937 188.082 151.583 188.082Z" fill="#327A45"/>
<path d="M177.672 251.234C177.672 252.683 176.513 253.843 175.063 253.843C173.614 253.843 172.454 252.683 172.454 251.234C172.454 249.784 173.614 248.625 175.063 248.625C176.513 248.625 177.672 249.784 177.672 251.234Z" fill="#327A45"/>
<path d="M144.502 289.414C147.566 289.414 150.051 286.93 150.051 283.865C150.051 280.801 147.566 278.316 144.502 278.316C141.437 278.316 138.953 280.801 138.953 283.865C138.953 286.93 141.437 289.414 144.502 289.414Z" fill="#327A45"/>
<path d="M185.83 302.707C185.83 304.115 184.712 305.233 183.304 305.233C181.896 305.233 180.778 304.115 180.778 302.707C180.778 301.299 181.896 300.181 183.304 300.181C184.712 300.181 185.83 301.299 185.83 302.707Z" fill="#327A45"/>
<path d="M230.264 251.606C230.264 254.836 227.655 257.444 224.425 257.444C221.195 257.444 218.586 254.836 218.586 251.606C218.586 248.375 221.195 245.767 224.425 245.767C227.613 245.767 230.264 248.375 230.264 251.606Z" fill="#327A45"/>
<path d="M210.677 207.958C210.677 208.828 209.973 209.532 209.103 209.532C208.233 209.532 207.529 208.828 207.529 207.958C207.529 207.089 208.233 206.385 209.103 206.385C209.973 206.426 210.677 207.089 210.677 207.958Z" fill="#327A45"/>
<path d="M244.012 185.142C245.911 185.142 247.449 183.603 247.449 181.705C247.449 179.806 245.911 178.268 244.012 178.268C242.114 178.268 240.575 179.806 240.575 181.705C240.575 183.603 242.114 185.142 244.012 185.142Z" fill="#327A45"/>
<path d="M285.133 228.457C285.133 230.32 283.601 231.853 281.737 231.853C279.874 231.853 278.342 230.32 278.342 228.457C278.342 226.593 279.874 225.061 281.737 225.061C283.642 225.061 285.133 226.593 285.133 228.457Z" fill="#327A45"/>
<path d="M209.103 161.868C209.103 162.282 208.772 162.655 208.316 162.655C207.902 162.655 207.529 162.324 207.529 161.868C207.529 161.454 207.861 161.082 208.316 161.082C208.772 161.082 209.103 161.454 209.103 161.868Z" fill="#327A45"/>
<path d="M251.259 132.508C251.259 134.91 249.313 136.856 246.911 136.856C244.509 136.856 242.563 134.91 242.563 132.508C242.563 130.106 244.509 128.16 246.911 128.16C249.313 128.16 251.259 130.106 251.259 132.508Z" fill="#327A45"/>
<path d="M320.622 200.712C320.622 203.693 318.179 206.137 315.198 206.137C312.216 206.137 309.773 203.693 309.773 200.712C309.773 197.73 312.216 195.287 315.198 195.287C318.221 195.287 320.622 197.73 320.622 200.712Z" fill="#327A45"/>
<path d="M349.652 188.081C351.413 188.081 352.841 186.654 352.841 184.893C352.841 183.132 351.413 181.704 349.652 181.704C347.891 181.704 346.463 183.132 346.463 184.893C346.463 186.654 347.891 188.081 349.652 188.081Z" fill="#327A45"/>
<path d="M348.037 274.755C351.261 274.755 353.876 272.141 353.876 268.916C353.876 265.691 351.261 263.077 348.037 263.077C344.812 263.077 342.198 265.691 342.198 268.916C342.198 272.141 344.812 274.755 348.037 274.755Z" fill="#327A45"/>
<path d="M279.335 200.712C279.861 200.712 280.288 200.286 280.288 199.76C280.288 199.234 279.861 198.807 279.335 198.807C278.809 198.807 278.383 199.234 278.383 199.76C278.383 200.286 278.809 200.712 279.335 200.712Z" fill="#327A45"/>
<path d="M272.835 291.816C272.835 292.934 271.924 293.845 270.806 293.845C269.687 293.845 268.776 292.934 268.776 291.816C268.776 290.698 269.687 289.787 270.806 289.787C271.924 289.787 272.835 290.698 272.835 291.816Z" fill="#327A45"/>
<path d="M341.41 302.707C341.41 304.115 340.292 305.233 338.884 305.233C337.476 305.233 336.358 304.115 336.358 302.707C336.358 301.299 337.476 300.181 338.884 300.181C340.292 300.181 341.41 301.299 341.41 302.707Z" fill="#327A45"/>
<path d="M77.2916 155.491C77.2916 155.491 87.5615 138.679 79.8177 135.904C72.0324 133.088 70.5002 153.587 70.5002 153.587L77.2916 155.491Z" fill="#D7F4F3"/>
<path d="M65.6142 156.319C65.6142 156.319 52.8596 141.329 60.1065 137.353C67.3534 133.378 72.0328 153.379 72.0328 153.379L65.6142 156.319Z" fill="#D7F4F3"/>
<path d="M80.977 173.298L79.6519 166.589" stroke="#071A35" stroke-width="0.25" stroke-miterlimit="10" stroke-linecap="round" stroke-linejoin="round"/>
<path d="M74.2268 166.589V173.298" stroke="#071A35" stroke-width="0.25" stroke-miterlimit="10" stroke-linecap="round" stroke-linejoin="round"/>
<path d="M70.5002 166.589V173.298" stroke="#071A35" stroke-width="0.25" stroke-miterlimit="10" stroke-linecap="round" stroke-linejoin="round"/>
<path d="M66.8977 167.625H84.5802C85.1599 167.625 85.6569 167.17 85.6569 166.549V153.711C85.6569 153.131 85.2014 152.635 84.5802 152.635H66.8977C62.7566 152.635 59.4023 155.989 59.4023 160.13C59.4023 164.271 62.7566 167.625 66.8977 167.625Z" fill="#F19D14"/>
<path d="M75.3455 152.676H69.7136V167.667H75.3455V152.676Z" fill="#071A35"/>
<path d="M83.752 152.676H78.1201V167.667H83.752V152.676Z" fill="#071A35"/>
<path d="M67.5603 167.626H85.6569" stroke="#071A35" stroke-width="0.25" stroke-miterlimit="10" stroke-linecap="round" stroke-linejoin="round"/>
<path d="M65.6554 152.759V167.501C62.0941 166.921 59.4023 163.857 59.4023 160.13C59.4023 156.403 62.0941 153.38 65.6554 152.759Z" fill="#071A35"/>
<path d="M61.6799 157.19H56.2136L61.4314 163.733L61.6799 157.19Z" fill="#071A35"/>
<path d="M93.4006 147.375L97.7074 132.799" stroke="#071A35" stroke-width="0.25" stroke-miterlimit="10" stroke-linecap="round" stroke-linejoin="round"/>
<path d="M95.1809 133.378C95.1809 134.745 96.299 135.904 97.707 135.904C99.0735 135.904 100.233 134.786 100.233 133.378C100.233 132.012 99.1149 130.852 97.707 130.852C96.3404 130.852 95.1809 131.97 95.1809 133.378Z" fill="#071A35"/>
<path d="M89.9225 147.375L85.6572 132.799" stroke="#071A35" stroke-width="0.25" stroke-miterlimit="10" stroke-linecap="round" stroke-linejoin="round"/>
<path d="M88.183 133.378C88.183 134.745 87.0649 135.904 85.6569 135.904C84.2904 135.904 83.1309 134.786 83.1309 133.378C83.1309 132.012 84.249 130.852 85.6569 130.852C87.0235 130.852 88.183 131.97 88.183 133.378Z" fill="#071A35"/>
<path d="M91.8267 169.945C98.5506 169.945 104.001 164.494 104.001 157.77C104.001 151.046 98.5506 145.595 91.8267 145.595C85.1027 145.595 79.6519 151.046 79.6519 157.77C79.6519 164.494 85.1027 169.945 91.8267 169.945Z" fill="#F19D14"/>
<path d="M97.2102 153.753C97.2102 154.747 97.997 155.534 98.9909 155.534C99.9847 155.534 100.772 154.747 100.772 153.753C100.772 152.759 99.9847 151.972 98.9909 151.972C97.997 151.972 97.2102 152.759 97.2102 153.753Z" fill="#071A35"/>
<path d="M82.8821 153.753C82.8821 154.747 83.6689 155.534 84.6627 155.534C85.6566 155.534 86.4434 154.747 86.4434 153.753C86.4434 152.759 85.6566 151.972 84.6627 151.972C83.7103 151.972 82.8821 152.759 82.8821 153.753Z" fill="#071A35"/>
<path d="M94.4771 153.173C94.3115 155.285 93.1934 156.942 91.8268 156.942C90.4603 156.942 89.3422 155.285 89.1765 153.173H94.4771Z" stroke="#071A35" stroke-width="0.25" stroke-miterlimit="10" stroke-linecap="round" stroke-linejoin="round"/>
<path d="M340.541 85.1342C340.541 85.1342 332.3 71.6342 338.512 69.398C344.765 67.1618 346.007 83.602 346.007 83.602L340.541 85.1342Z" fill="#D7F4F3"/>
<path d="M349.941 85.7962C349.941 85.7962 360.211 73.7456 354.372 70.5569C348.574 67.3683 344.765 83.4358 344.765 83.4358L349.941 85.7962Z" fill="#D7F4F3"/>
<path d="M337.601 99.4208L338.636 94.0374" stroke="#071A35" stroke-width="0.25" stroke-miterlimit="10" stroke-linecap="round" stroke-linejoin="round"/>
<path d="M342.984 94.0374V99.4208" stroke="#071A35" stroke-width="0.25" stroke-miterlimit="10" stroke-linecap="round" stroke-linejoin="round"/>
<path d="M346.007 94.0374V99.4208" stroke="#071A35" stroke-width="0.25" stroke-miterlimit="10" stroke-linecap="round" stroke-linejoin="round"/>
<path d="M348.906 94.8658H334.702C334.247 94.8658 333.833 94.4931 333.833 93.9961V83.6848C333.833 83.2293 334.205 82.8152 334.702 82.8152H348.906C352.219 82.8152 354.911 85.5069 354.911 88.8198C354.911 92.1741 352.219 94.8658 348.906 94.8658Z" fill="#F19D14"/>
<path d="M346.629 82.8567H342.073V94.8659H346.629V82.8567Z" fill="#071A35"/>
<path d="M339.879 82.8567H335.324V94.8659H339.879V82.8567Z" fill="#071A35"/>
<path d="M348.327 94.8655H333.833" stroke="#071A35" stroke-width="0.25" stroke-miterlimit="10" stroke-linecap="round" stroke-linejoin="round"/>
<path d="M349.9 82.9397V94.7832C352.757 94.3277 354.91 91.843 354.91 88.8615C354.91 85.8799 352.716 83.3952 349.9 82.9397Z" fill="#071A35"/>
<path d="M353.088 86.5002H357.437L353.254 91.718L353.088 86.5002Z" fill="#071A35"/>
<path d="M327.579 78.591L324.142 66.9131" stroke="#071A35" stroke-width="0.25" stroke-miterlimit="10" stroke-linecap="round" stroke-linejoin="round"/>
<path d="M326.171 67.369C326.171 68.4871 325.26 69.3981 324.142 69.3981C323.024 69.3981 322.113 68.4871 322.113 67.369C322.113 66.2509 323.024 65.3398 324.142 65.3398C325.26 65.3398 326.171 66.2509 326.171 67.369Z" fill="#071A35"/>
<path d="M330.395 78.591L333.832 66.9131" stroke="#071A35" stroke-width="0.25" stroke-miterlimit="10" stroke-linecap="round" stroke-linejoin="round"/>
<path d="M331.804 67.369C331.804 68.4871 332.715 69.3981 333.833 69.3981C334.951 69.3981 335.862 68.4871 335.862 67.369C335.862 66.2509 334.951 65.3398 333.833 65.3398C332.715 65.3398 331.804 66.2509 331.804 67.369Z" fill="#071A35"/>
<path d="M328.863 96.7298C334.261 96.7298 338.636 92.3543 338.636 86.9568C338.636 81.5594 334.261 77.1838 328.863 77.1838C323.466 77.1838 319.09 81.5594 319.09 86.9568C319.09 92.3543 323.466 96.7298 328.863 96.7298Z" fill="#F19D14"/>
<path d="M324.557 83.7268C324.557 84.5136 323.936 85.1348 323.108 85.1348C322.279 85.1348 321.7 84.5136 321.7 83.7268C321.7 82.94 322.321 82.3188 323.108 82.3188C323.894 82.3188 324.557 82.94 324.557 83.7268Z" fill="#071A35"/>
<path d="M336.028 83.7267C336.028 84.5135 335.407 85.1347 334.62 85.1347C333.833 85.1347 333.212 84.5135 333.212 83.7267C333.212 82.9399 333.833 82.3187 334.62 82.3187C335.407 82.2773 336.028 82.9399 336.028 83.7267Z" fill="#071A35"/>
<path d="M326.752 83.2297C326.876 84.9276 327.787 86.2527 328.864 86.2527C329.982 86.2527 330.851 84.9276 330.976 83.2297" stroke="#071A35" stroke-width="0.25" stroke-miterlimit="10" stroke-linecap="round" stroke-linejoin="round"/>
<path d="M285.422 396.131C294.227 396.131 301.365 393.98 301.365 391.327C301.365 388.674 294.227 386.523 285.422 386.523C276.617 386.523 269.479 388.674 269.479 391.327C269.479 393.98 276.617 396.131 285.422 396.131Z" fill="black"/>
<path d="M291.551 395.8C291.717 394.971 291.717 394.102 291.51 393.191C286.292 372.444 269.645 362.008 268.941 361.553C266.084 359.814 262.357 360.683 260.576 363.541C258.795 366.398 259.665 370.125 262.522 371.906C262.647 371.988 275.484 380.188 279.584 395.8C281.406 396.007 283.352 396.131 285.423 396.131C287.617 396.172 289.688 396.007 291.551 395.8Z" fill="#F3A5C2"/>
<path d="M277.969 390.914C277.969 390.914 286.623 387.062 289.729 387.476" stroke="black" stroke-width="0.25" stroke-miterlimit="10" stroke-linecap="round" stroke-linejoin="round"/>
<path d="M270.018 378.49C270.018 378.49 276.147 371.74 279.956 371.326" stroke="black" stroke-width="0.25" stroke-miterlimit="10" stroke-linecap="round" stroke-linejoin="round"/>
<path d="M271.011 367.392C271.011 368.178 270.39 368.8 269.603 368.8C268.816 368.8 268.195 368.178 268.195 367.392C268.195 366.605 268.816 365.984 269.603 365.984C270.39 365.984 271.011 366.605 271.011 367.392Z" fill="black"/>
<path d="M264.013 362.588C264.013 363.375 263.392 363.996 262.605 363.996C261.818 363.996 261.197 363.375 261.197 362.588C261.197 361.802 261.818 361.18 262.605 361.18C263.392 361.222 264.013 361.843 264.013 362.588Z" fill="black"/>
<path d="M263.805 364.618C262.936 365.777 262.977 367.227 263.847 367.889C264.716 368.552 266.166 368.179 266.994 367.02" stroke="black" stroke-width="0.25" stroke-miterlimit="10" stroke-linecap="round" stroke-linejoin="round"/>
<path d="M357.105 376.46C359.093 367.391 367.168 327.885 357.064 328.216C346.504 328.548 342.901 370.207 342.404 376.46H357.105Z" fill="#52B6DE"/>
<path d="M348.74 376.046C348.947 376.046 355.49 338.113 355.49 338.113" stroke="#071A35" stroke-width="0.25" stroke-miterlimit="10" stroke-linecap="round" stroke-linejoin="round"/>
<path d="M356.484 376.544C358.679 370.746 368.949 344.823 376.527 349.088C381.786 352.028 370.067 370.953 366.216 376.875L356.484 376.544Z" fill="#52B6DE"/>
<path d="M371.889 356.21L361.454 376.709" stroke="#071A35" stroke-width="0.25" stroke-miterlimit="10" stroke-linecap="round" stroke-linejoin="round"/>
<path d="M325.26 376.875H374.291" stroke="#071A35" stroke-width="0.25" stroke-miterlimit="10" stroke-linecap="round" stroke-linejoin="round"/>
<path d="M325.26 316.581C325.26 316.581 340.955 338.653 338.885 376.875" stroke="#071A35" stroke-width="0.25" stroke-miterlimit="10" stroke-linecap="round" stroke-linejoin="round"/>
<path d="M342.239 321.343C342.239 329.252 335.82 335.671 327.91 335.671C320.001 335.671 313.582 329.252 313.582 321.343C313.582 313.433 320.001 307.015 327.91 307.015C335.82 307.015 342.239 313.392 342.239 321.343Z" fill="#CDF1FC"/>
<path d="M62.0935 432.034C59.2775 423.71 46.026 386.606 35.135 392.238C27.5568 396.131 43.1687 423.462 48.3036 432.034H62.0935Z" fill="#52B6DE"/>
<path d="M41.2639 402.55L55.0538 432.034" stroke="#071A35" stroke-width="0.25" stroke-miterlimit="10" stroke-linecap="round" stroke-linejoin="round"/>
<path d="M74.5579 432.034C76.8769 421.474 86.2772 375.591 74.5165 375.964C62.2174 376.378 58.0763 424.746 57.4966 432.034H74.5579Z" fill="#52B6DE"/>
<path d="M64.7849 431.578C64.992 431.578 72.6116 387.517 72.6116 387.517" stroke="#071A35" stroke-width="0.25" stroke-miterlimit="10" stroke-linecap="round" stroke-linejoin="round"/>
<path d="M73.8123 432.117C76.3797 425.367 88.3061 395.303 97.0852 400.231C103.173 403.668 89.5898 425.616 85.1174 432.531L73.8123 432.117Z" fill="#52B6DE"/>
<path d="M91.7429 408.513L79.5681 432.324" stroke="#071A35" stroke-width="0.25" stroke-miterlimit="10" stroke-linecap="round" stroke-linejoin="round"/>
<path d="M37.5776 432.531H94.5177" stroke="#071A35" stroke-width="0.25" stroke-miterlimit="10" stroke-linecap="round" stroke-linejoin="round"/>
<path d="M320.042 441.807C318.303 436.672 310.145 413.814 303.436 417.292C298.757 419.694 308.406 436.548 311.553 441.807H320.042Z" fill="#52B6DE"/>
<path d="M307.246 423.627L315.694 441.807" stroke="#071A35" stroke-width="0.25" stroke-miterlimit="10" stroke-linecap="round" stroke-linejoin="round"/>
<path d="M327.703 441.808C329.111 435.306 334.908 407.022 327.661 407.271C320.083 407.519 317.516 437.294 317.184 441.808H327.703Z" fill="#52B6DE"/>
<path d="M321.74 441.518C321.864 441.518 326.585 414.394 326.585 414.394" stroke="#071A35" stroke-width="0.25" stroke-miterlimit="10" stroke-linecap="round" stroke-linejoin="round"/>
<path d="M327.247 441.849C328.821 437.708 336.15 419.156 341.575 422.22C345.344 424.332 336.979 437.874 334.204 442.098L327.247 441.849Z" fill="#52B6DE"/>
<path d="M338.304 427.313L330.809 441.973" stroke="#071A35" stroke-width="0.25" stroke-miterlimit="10" stroke-linecap="round" stroke-linejoin="round"/>
<path d="M295.651 442.097H340.168" stroke="#071A35" stroke-width="0.25" stroke-miterlimit="10" stroke-linecap="round" stroke-linejoin="round"/>
</svg>
